<svg width="640" height="640" viewBox="0 0 640 640" fill="none" xmlns="http://www.w3.org/2000/svg">
<g clip-path="url(#clip0_101_3)">
<path fill-rule="evenodd" clip-rule="evenodd" d="M640 318.482C640 142.787 496.57 0.0732422 320 0.0732422C143.43 0.0732422 0 142.787 0 318.482C0 494.172 143.43 636.89 320 636.89C496.57 636.89 640 494.172 640 318.482Z" fill="url(#paint0_linear_101_3)"/>
<path fill-rule="evenodd" clip-rule="evenodd" d="M382.992 464.156C425.434 479.668 463.702 486.172 495.394 490.604C527.088 495.034 552.21 497.39 565.354 499.23C578.496 501.07 579.664 502.392 579.084 503.796C578.502 505.194 576.178 506.678 570.11 508.482C564.044 510.286 554.232 512.418 534.626 523.192C515.016 533.972 485.61 553.398 456.448 568.78C427.284 584.166 398.364 595.504 364.282 605.184C330.202 614.862 290.96 622.88 254.782 621.412C218.602 619.944 185.482 608.992 155.096 590.946C124.708 572.896 97.0512 547.756 82.1106 517.274C67.167 486.79 64.9426 450.962 68.971 425.3C72.9996 399.64 83.2844 384.14 99.4016 374.43C115.519 364.718 137.469 360.796 163.092 365.958C188.715 371.122 218.016 385.37 255.974 404.75C293.932 424.132 340.548 448.648 382.992 464.156Z" fill="#00F8FF" fill-opacity="0.396061"/>
<path opacity="0.699544" fill-rule="evenodd" clip-rule="evenodd" d="M445.82 531.22C475.568 541.15 505.152 550.834 511.06 561.528C516.966 572.224 499.2 583.932 475.238 596.652C451.276 609.372 421.12 623.108 383.274 630.578C345.428 638.052 299.892 639.258 257.904 630.592C215.92 621.924 177.485 603.386 155.347 584.46C133.21 565.538 127.373 546.228 127.472 526.764C127.568 507.3 133.6 487.68 149.51 475.008C165.418 462.334 191.203 456.61 227.306 462.086C263.408 467.566 309.83 484.248 347.996 497.678C386.164 511.108 416.074 521.288 445.82 531.22Z" fill="#053FBE"/>
<path fill-rule="evenodd" clip-rule="evenodd" d="M371.75 552.034C409.254 564.4 449.79 580.928 452.074 595.774C454.356 610.62 418.384 623.784 380.544 630.982C342.704 638.186 302.996 639.426 269.296 630.616C235.6 621.806 207.918 602.94 196.573 583.094C185.232 563.244 190.231 542.412 204.406 532.272C218.582 522.134 241.934 522.696 270.852 527.076C299.766 531.462 334.244 539.666 371.75 552.034Z" fill="#001EC3"/>
<path fill-rule="evenodd" clip-rule="evenodd" d="M293.964 570.704C273.574 569.848 258.052 576.366 253.734 585.8C249.418 595.234 256.308 607.586 270.426 615.836C284.544 624.086 305.892 628.234 328.268 627.99C350.646 627.744 374.058 623.106 380.332 615.712C386.608 608.318 375.744 598.17 357.68 588.982C339.62 579.792 314.358 571.562 293.964 570.704Z" fill="#000086"/>
<path opacity="0.8" fill-rule="evenodd" clip-rule="evenodd" d="M298.018 609.182C336.058 604.166 374.802 590.87 417.67 565.648C460.54 540.43 507.532 503.288 540.01 464.166C572.486 425.04 590.45 383.93 601.898 345.632C613.344 307.33 618.272 271.844 614.384 235.596C610.492 199.352 597.786 162.344 577.186 133.126C556.588 103.906 528.096 82.4708 493.458 69.1072C458.822 55.7438 418.038 50.4518 376.162 56.1418C334.288 61.8316 291.322 78.5066 249.92 103.352C208.522 128.197 168.691 161.21 134.937 200.836C101.184 240.458 73.5102 286.692 60.563 335.94C47.6158 385.19 49.395 437.458 59.475 476.004C69.555 514.55 87.9358 539.374 110.297 559.028C132.656 578.682 158.995 593.166 190.825 602.042C222.658 610.92 259.984 614.194 298.018 609.182Z" fill="url(#paint1_linear_101_3)"/>
<path fill-rule="evenodd" clip-rule="evenodd" d="M271.12 222.268C317.916 245.304 366.582 275.244 402.102 308.028C437.62 340.808 459.988 376.434 465.236 410.992C470.484 445.548 458.608 479.042 436.592 507.04C414.572 535.036 382.412 557.546 351.932 572.24C321.452 586.934 292.656 593.822 262.02 595.744C231.382 597.67 198.903 594.636 170.019 586.65C141.136 578.662 115.85 565.718 95.3154 547.016C74.7778 528.308 58.9954 503.842 47.8754 475.966C36.7554 448.09 30.301 416.8 25.9554 383.802C21.613 350.806 19.3761 316.1 18.6113 283.272C17.8497 250.446 18.5569 219.5 27.3538 199.976C36.1538 180.454 53.0466 172.357 72.2498 168.759C91.4498 165.161 112.96 166.062 146.179 174.58C179.399 183.1 224.324 199.231 271.12 222.268Z" fill="#1CEFFF" fill-opacity="0.6"/>
<g style="mix-blend-mode:multiply">
<g style="mix-blend-mode:multiply">
<path fill-rule="evenodd" clip-rule="evenodd" d="M352.362 226.174C410.364 256.596 471.452 291.19 517.798 329.04C564.146 366.892 595.754 407.998 604.39 435.588C613.024 463.176 598.684 477.248 571.202 480.634C543.722 484.018 503.094 476.72 455.584 460.934C408.074 445.148 353.68 420.872 304.208 395.04C254.738 369.21 210.188 341.818 173.545 315.962C136.899 290.112 108.156 265.794 87.7722 245.608C67.3914 225.42 55.369 209.366 48.921 190.921C42.4698 172.475 41.5898 151.642 65.1194 143.3C88.6458 134.957 136.582 139.109 188.009 154.307C239.436 169.508 294.358 195.754 352.362 226.174Z" fill="#94FF63" fill-opacity="0.6"/>
</g>
</g>
<path fill-rule="evenodd" clip-rule="evenodd" d="M317.156 374.888C347.732 393.648 386.142 413.542 429.344 428.908C472.548 444.274 520.544 455.116 555.904 455.498C591.268 455.884 615.568 445.906 627.014 407.654C638.46 369.402 644.766 316.89 635.304 263.478C625.84 210.068 599.038 155.66 573.182 127.822C547.326 99.9832 514.704 84.6966 477.616 76.8C440.528 68.9034 398.966 68.394 359.024 78.22C319.082 88.043 280.752 108.195 251.846 134.46C222.938 160.726 203.45 193.102 203.226 225.19C203.002 257.276 222.042 289.08 242.934 313.792C263.83 338.502 286.576 356.13 317.156 374.888Z" fill="url(#paint2_linear_101_3)"/>
<path fill-rule="evenodd" clip-rule="evenodd" d="M9.30192 267.478C15.4363 248.596 25.8876 232.3 44.7836 225.712C63.6796 219.122 91.0236 222.24 119.475 228.958C147.929 235.68 177.494 245.998 210.236 264.804C242.982 283.61 278.906 310.896 304.092 340.164C329.282 369.43 343.74 400.674 346.21 430.876C348.678 461.08 339.162 490.24 321.922 512.442C304.688 534.646 279.734 549.888 253.34 558.618C226.946 567.346 199.107 569.564 170.7 565.254C142.294 560.946 113.318 550.114 90.4444 533.67C67.574 517.228 50.8092 495.182 38.5052 472.534C26.2044 449.882 18.3675 426.632 12.6139 402.658C6.86032 378.682 3.19312 353.986 2.27152 330.902C1.34671 307.82 3.16432 286.356 9.30192 267.478Z" fill="url(#paint3_linear_101_3)"/>
<path fill-rule="evenodd" clip-rule="evenodd" d="M154.058 520.008C173.133 520.572 193.063 518.072 209.2 509.21C225.338 500.346 237.686 485.12 244.426 466.29C251.162 447.458 252.284 425.024 244.63 402.244C236.976 379.462 220.54 356.34 197.379 337.796C174.221 319.248 144.339 305.276 119.949 295.668C95.5586 286.058 76.6594 280.804 59.2834 284.54C41.9042 288.27 26.045 300.988 18.3458 317.734C10.6434 334.474 11.1042 355.248 13.6194 374.12C16.1346 392.996 20.7042 409.976 27.9202 426.358C35.133 442.74 44.9954 458.524 57.2034 472.73C69.4146 486.938 83.9714 499.572 100.365 507.698C116.755 515.824 134.983 519.448 154.058 520.008Z" fill="url(#paint4_linear_101_3)"/>
<path fill-rule="evenodd" clip-rule="evenodd" d="M145.859 383.028C160.515 400.746 167.075 423.044 163.98 438.974C160.889 454.904 148.14 464.462 131.856 466.006C115.571 467.55 95.75 461.078 80.582 449.904C65.4108 438.732 54.8924 422.856 49.2764 406.708C43.6604 390.566 42.9468 374.148 49.8396 362.826C56.7292 351.506 71.222 345.282 89.8428 348.734C108.46 352.184 131.206 365.316 145.859 383.028Z" fill="#0A0FCA" fill-opacity="0.8"/>
<path fill-rule="evenodd" clip-rule="evenodd" d="M467.484 334.57C496.698 345.982 532.448 351.044 557.372 345.176C582.298 339.306 596.4 322.502 601.884 301.72C607.37 280.94 604.24 256.178 593.146 231.54C582.052 206.904 562.992 182.394 537.034 167.448C511.076 152.502 478.22 147.117 451.028 149.808C423.83 152.498 402.298 163.261 389.402 178.305C376.508 193.35 372.25 212.678 374.276 231.61C376.3 250.546 384.604 269.09 400.096 287.242C415.59 305.394 438.268 323.158 467.484 334.57Z" fill="#FF6D00" fill-opacity="0.856971"/>
<path fill-rule="evenodd" clip-rule="evenodd" d="M429.18 374.654C464.212 390.412 502.108 401.948 533.91 403.384C565.712 404.824 591.42 396.16 608.212 378.056C625.004 359.948 632.88 332.398 632.388 296.368C631.898 260.334 623.04 215.82 596.556 180.044C570.074 144.271 525.964 117.235 480.15 108.743C434.332 100.254 386.812 110.303 353.078 131.165C319.344 152.027 299.398 183.699 297.82 216.794C296.244 249.892 313.034 284.412 337.51 311.664C361.99 338.916 394.154 358.896 429.18 374.654Z" fill="#FFFD00" fill-opacity="0.749399"/>
<path fill-rule="evenodd" clip-rule="evenodd" d="M384.08 203.548C421.13 221.14 458.882 239.684 491.338 249.806C523.792 259.932 550.95 261.64 568.518 251.498C586.082 241.36 594.058 219.374 594.922 198.282C595.786 177.188 589.536 156.991 577.026 135.317C564.514 113.643 545.744 90.4916 516.146 72.511C486.55 54.5338 446.128 41.7274 404.684 40.0366C363.244 38.349 320.784 47.774 286.192 59.5774C251.596 71.3838 224.874 85.5626 201.414 98.6492C177.952 111.736 157.756 123.73 136.838 130.872C115.92 138.014 94.2748 140.306 81.51 138.434C68.7484 136.565 64.8636 130.531 66.9724 125.357C69.0844 120.18 77.1932 115.862 93.7084 114.073C110.224 112.283 135.148 113.028 166.656 119.884C198.166 126.739 236.258 139.708 273.474 154.514C310.694 169.32 347.034 185.96 384.08 203.548Z" fill="url(#paint5_radial_101_3)"/>
<path fill-rule="evenodd" clip-rule="evenodd" d="M336.672 119.282C378.262 132.703 420.342 144.296 455.706 148.614C491.068 152.928 519.716 149.967 531.604 136.813C543.488 123.66 538.614 100.314 521.5 78.7644C504.388 57.2146 475.03 37.4542 440.88 26.727C406.726 15.9999 367.776 14.3059 334.492 16.5475C301.21 18.7923 273.594 24.9726 247.916 32.6716C222.244 40.3676 198.506 49.5792 178.371 55.441C158.237 61.2998 141.703 63.812 132.864 65.3912C124.026 66.9674 122.883 67.6138 124.288 67.7952C125.693 67.9736 129.651 67.6838 144.842 68.8684C160.032 70.0528 186.455 72.7084 220.218 81.662C253.98 90.6124 295.082 105.861 336.672 119.282Z" fill="url(#paint6_linear_101_3)"/>
<path fill-rule="evenodd" clip-rule="evenodd" d="M274.088 52.4736C297.596 58.291 319.488 65.2576 343.464 70.2122C367.446 75.1666 393.51 78.1118 415.264 77.8984C437.016 77.6884 454.456 74.3228 460.752 65.4966C467.046 56.6734 462.188 42.3928 448.528 31.43C434.866 20.4672 412.396 12.8255 390.134 7.59084C367.872 2.3562 345.814 -0.468074 321.248 0.0636666C296.68 0.595408 269.606 4.48316 248.54 9.10008C227.474 13.7138 212.418 19.0567 201.756 22.9444C191.091 26.8322 184.822 29.2616 182.969 31.134C181.116 33.003 183.683 34.3116 187.315 35.2478C190.943 36.1838 195.641 36.7474 210.55 39.3648C225.458 41.982 250.582 46.6564 274.088 52.4736Z" fill="url(#paint7_linear_101_3)"/>
<path fill-rule="evenodd" clip-rule="evenodd" d="M338.236 34.2352C354.892 34.4326 371.708 32.4904 381.792 29.3572C391.874 26.224 395.228 21.9032 391.602 17.2417C387.98 12.5771 377.378 7.57486 364.108 4.49904C350.834 1.42323 334.896 0.276962 319.21 0.331092C303.522 0.38522 288.096 1.64293 277.03 4.13924C265.964 6.63556 259.264 10.3705 261.92 14.7804C264.572 19.1904 276.578 24.2754 290.828 27.9848C305.082 31.6974 321.58 34.0378 338.236 34.2352Z" fill="#A60000"/>
<g style="mix-blend-mode:multiply">
<g style="mix-blend-mode:multiply">
<path fill-rule="evenodd" clip-rule="evenodd" d="M523.372 298.032C542.796 295.508 557.596 279.208 559.858 260.674C562.122 242.14 551.846 221.37 533.68 208.898C515.51 196.429 489.45 192.255 471.686 196.735C453.922 201.214 444.46 214.348 443.206 229.346C441.948 244.342 448.902 261.2 464.4 275.254C479.9 289.308 503.946 300.558 523.372 298.032Z" fill="#FF6D00" fill-opacity="0.418187"/>
</g>
</g>
<g style="mix-blend-mode:screen">
<g style="mix-blend-mode:screen">
<path fill-rule="evenodd" clip-rule="evenodd" d="M49.4562 490.004C60.285 506.204 73.7378 521.352 90.445 533.48C113.319 550.08 142.295 561.02 170.701 565.37C199.107 569.72 226.948 567.482 253.34 558.668C279.734 549.852 304.688 534.462 321.924 512.046C339.162 489.628 348.678 460.186 346.212 429.694C343.74 399.198 329.284 367.654 304.092 338.102C278.906 308.556 242.982 281.004 210.236 262.016C177.495 243.03 147.93 232.608 119.475 225.824C91.0242 219.04 63.6802 215.894 44.7842 222.546C25.8882 229.2 15.437 245.65 9.30257 264.714C3.76657 281.91 1.74417 301.234 2.08017 321.962C2.87377 285.56 9.01777 269.392 14.7554 257.44C20.4898 245.486 25.8146 237.752 33.8658 232.212C41.9138 226.672 52.6882 223.33 68.6818 223.188C84.6754 223.046 105.888 226.108 128.65 232.668C151.411 239.23 175.719 249.29 198.816 262C221.91 274.71 243.792 290.07 262.852 306.048C281.914 322.028 298.154 338.63 311.168 358.27C324.186 377.912 333.974 400.594 337.012 423.322C340.048 446.054 336.33 468.838 326.812 487.986C317.296 507.136 301.98 522.648 284.15 534.97C266.324 547.294 245.98 556.426 223.648 560.078C201.316 563.728 176.989 561.898 155.853 557.092C134.72 552.286 116.778 544.506 102.954 536.738C89.1266 528.972 79.4178 521.22 70.8322 513.382C62.2434 505.546 54.7778 497.62 49.4562 490.004Z" fill="white"/>
</g>
</g>
<path fill-rule="evenodd" clip-rule="evenodd" d="M209.2 509.484C193.063 518.482 173.133 521.02 154.058 520.45C134.983 519.878 116.755 516.202 100.365 507.948C83.9714 499.696 69.4146 486.872 57.2034 472.442C44.9954 458.016 35.133 441.99 27.9202 425.358C20.7042 408.724 16.1346 391.482 13.6194 372.318C11.1042 353.152 10.6434 332.062 18.3458 315.06C26.045 298.06 41.9042 285.144 59.2834 281.354C76.6594 277.566 95.5586 282.896 119.949 292.654C144.339 302.414 174.221 316.598 197.379 335.43C220.54 354.264 236.976 377.742 244.63 400.872C252.284 424 251.162 446.784 244.426 465.904C237.686 485.026 225.338 500.486 209.2 509.484ZM205.802 349.504C191.258 334.746 172.874 321.858 154.202 311.738C135.53 301.62 116.57 294.264 101.511 289.068C86.4514 283.872 75.2866 280.84 62.2338 283.216C49.181 285.592 34.2338 293.378 24.9474 308.4C15.6642 323.416 12.0354 345.676 15.6066 372.288C19.1746 398.902 29.9394 429.872 46.8258 455.044C63.7154 480.22 86.7298 499.594 114.8 509.15C142.874 518.708 176.003 518.448 199.114 508.28C222.224 498.116 235.318 478.046 240.756 457.936C246.192 437.828 243.972 417.684 237.51 399.294C231.05 380.904 220.346 364.266 205.802 349.504Z" fill="white"/>
<path fill-rule="evenodd" clip-rule="evenodd" d="M77.6476 527.85C83.0844 534.71 88.9724 541.086 95.3148 546.908C115.849 565.766 141.136 578.812 170.019 586.866C198.902 594.92 231.382 597.98 262.018 596.038C292.656 594.096 321.452 587.156 351.932 572.338C382.412 557.524 414.572 534.836 436.592 506.606C458.608 478.382 470.482 444.618 465.234 409.78C459.986 374.938 437.618 339.026 402.102 305.974C366.582 272.928 317.916 242.744 271.12 219.52C224.322 196.296 179.398 180.03 146.179 171.444C112.96 162.857 91.4492 161.948 72.2492 165.576C53.046 169.2 36.1532 177.366 27.3532 197.047C25.3372 201.556 23.7468 206.674 22.4988 212.282C28.3356 192.572 37.5516 182.287 50.6396 175.453C63.7276 168.619 80.6844 165.232 106.278 167.592C131.872 169.951 166.096 178.056 208.726 194.899C251.354 211.742 302.386 237.322 344.55 266.61C386.716 295.896 420.012 328.884 438.642 361.864C457.274 394.848 461.234 427.814 453.808 456.1C446.378 484.384 427.558 507.98 403.618 529.116C379.682 550.25 350.624 568.926 317.484 579.718C284.346 590.512 247.12 593.428 215.932 591.36C184.742 589.296 159.59 582.25 137.58 571.968C115.571 561.688 96.7036 548.17 77.6476 527.85Z" fill="white"/>
<path fill-rule="evenodd" clip-rule="evenodd" d="M45.0436 169.823C44.9412 158.666 49.786 150.41 58.7652 145.309C67.7444 140.209 80.858 138.26 100.596 139.342C120.336 140.424 146.704 144.536 177.172 153.501C207.638 162.469 242.206 176.292 281.792 195.168C321.376 214.044 365.982 237.968 402.874 259.03C439.766 280.09 468.944 298.286 494.862 317.454C520.778 336.626 543.438 356.774 560.062 374.574C576.688 392.374 587.28 407.83 594.208 419.458C601.136 431.086 604.404 438.888 605.646 446.2C606.886 453.51 606.102 460.33 600.58 468.602C607.152 461.084 608.886 450.26 604.39 435.732C595.754 407.83 564.148 366.26 517.798 327.984C471.454 289.704 410.366 254.718 352.362 223.954C294.358 193.191 239.438 166.648 188.01 151.279C136.583 135.907 88.6468 131.711 65.1204 140.147C49.258 145.834 44.49 157.262 45.0436 169.823Z" fill="white"/>
<path fill-rule="evenodd" clip-rule="evenodd" d="M565.85 499.292C565.916 499.302 565.984 499.312 566.048 499.322C579.118 501.194 580.278 502.538 579.704 503.966C579.124 505.39 576.812 506.9 570.778 508.734C564.746 510.57 554.122 512.232 534.626 523.192C515.126 534.158 485.448 553.132 456.448 568.78C427.446 584.432 398.688 595.964 364.796 605.812C330.906 615.658 293.184 625.106 257.206 623.612C223.746 622.224 192.919 612.49 164.458 596.366C219.202 624.202 260.626 622.07 294.254 617.444C327.878 612.82 353.702 605.698 382.324 594.744C410.942 583.792 442.358 569.004 466.368 555.816C490.382 542.632 506.992 531.042 521.1 523.336C535.208 515.63 546.816 511.806 555.75 509.414C564.682 507.028 570.948 506.076 574.568 505.198C578.192 504.324 579.172 503.524 578.076 502.604C576.976 501.684 573.8 500.64 565.85 499.292Z" fill="white"/>
<path fill-rule="evenodd" clip-rule="evenodd" d="M569.504 123.161C572.24 127.186 574.736 131.198 577.028 135.165C589.536 156.839 595.786 177.036 594.922 198.127C594.058 219.218 586.084 241.204 568.518 251.346C550.95 261.488 523.792 259.778 491.338 249.656C458.884 239.53 421.13 220.988 384.08 203.396C347.034 185.805 310.694 169.165 273.476 154.359C236.26 139.556 198.167 126.587 166.656 119.732C135.149 112.873 110.224 112.131 93.7092 113.918C77.194 115.707 69.0852 120.028 66.9732 125.202C66.7556 125.74 66.602 126.285 66.5124 126.836C67.706 121.954 72.4388 119.49 79.1076 117.876C85.7764 116.264 94.3812 115.503 108.605 116.057C122.829 116.611 142.669 118.477 163.799 123.097C184.928 127.718 207.344 135.092 231.268 144.189C255.19 153.283 280.618 164.102 312.464 178.379C344.31 192.654 382.582 210.386 417.114 225.854C451.648 241.32 482.448 254.518 508.052 260.166C533.658 265.814 554.068 263.91 567.844 256.94C581.62 249.97 588.766 237.938 592.992 225.024C597.222 212.108 598.538 198.315 596.98 185.575C595.418 172.836 590.98 161.15 586.042 150.933C581.102 140.715 575.662 131.968 569.504 123.161Z" fill="white"/>
<path fill-rule="evenodd" clip-rule="evenodd" d="M497.244 55.1388C506.344 62.2304 514.18 69.9262 520.39 77.865C537.314 99.5042 542.134 122.943 530.38 136.151C518.624 149.359 490.294 152.336 455.322 148C420.348 143.668 378.734 132.024 337.602 118.547C296.472 105.071 255.824 89.762 222.434 80.7714C189.045 71.7838 159.864 70.058 144.842 68.8686C129.819 67.6824 125.67 67.9884 124.281 67.8094C123.936 67.7646 123.746 67.691 123.79 67.5824C123.559 67.9436 124.48 68.4968 127.24 68.8004C129.996 69.1042 134.829 69.1468 144.269 70.2114C153.709 71.2762 167.994 73.348 185.172 77.4118C202.35 81.4754 225.472 86.5872 251.818 95.6642C278.164 104.744 310.786 116.84 339.796 126.614C368.806 136.388 394.206 143.834 418.734 148.694C443.26 153.554 466.916 155.827 485.038 155.383C503.162 154.938 515.754 151.773 524.226 147.07C532.694 142.367 537.042 136.122 538.842 128.986C540.646 121.85 539.902 113.818 537.428 105.988C534.95 98.158 530.734 90.5262 525.924 83.4634C521.112 76.4006 515.7 69.9038 497.244 55.1388Z" fill="white"/>
<path fill-rule="evenodd" clip-rule="evenodd" d="M426.994 19.1077C435.252 22.626 442.616 26.673 448.402 31.3154C462.062 42.2782 466.938 56.1146 460.644 64.9376C454.35 73.7608 437.018 76.6694 415.264 76.8828C393.512 77.093 367.448 74.1476 343.466 69.1932C319.488 64.2388 297.598 57.2752 274.09 51.4548C250.584 45.6374 225.322 41.572 210.414 38.9546C195.504 36.3374 190.807 35.7738 187.178 34.8376C184.439 34.1308 182.308 33.2138 182.218 32.0038C182.224 33.0004 182.97 33.8888 183.959 34.5256C184.948 35.1624 186.183 35.5446 192.9 37.0156C199.62 38.4866 211.962 40.4346 226.304 43.6602C240.648 46.8856 257.124 50.7828 272.298 54.8968C287.472 59.0106 301.344 63.3378 316.884 67.633C332.424 71.9284 349.63 76.1886 367.966 79.2518C386.298 82.3148 405.76 84.1806 421.55 83.1778C437.338 82.1748 449.454 78.3028 456.496 73.8484C463.536 69.397 465.512 64.3662 466.218 59.969C466.926 55.5718 466.368 51.8082 464.378 47.36C462.384 42.9118 458.834 38.6834 453.368 33.92C447.902 29.1566 440.398 24.7658 426.994 19.1077Z" fill="white"/>
<path fill-rule="evenodd" clip-rule="evenodd" d="M358.148 3.2382C360.182 3.60756 362.174 4.01513 364.11 4.46409C377.38 7.53671 387.982 12.5421 391.604 17.2036C395.23 21.865 391.876 26.189 381.792 29.3222C371.71 32.4522 354.894 34.3976 338.238 34.2002C321.582 33.9996 305.082 31.6594 290.83 27.9498C276.58 24.2372 264.574 19.1554 261.92 14.7455C259.862 11.3258 263.428 8.31045 270.294 5.96379C259.552 9.59681 258.694 13.0388 261.322 16.917C263.952 20.7952 270.068 25.1032 282.942 29.1408C295.814 33.1782 315.444 36.9418 333.936 37.6868C352.43 38.435 369.782 36.1648 380.054 33.5506C390.33 30.9334 393.518 27.9754 395.012 24.9982C396.506 22.0212 396.304 19.0249 393.552 16.2515C390.8 13.475 385.498 10.9246 379.636 8.75303C373.77 6.58148 367.348 4.78885 358.148 3.2382Z" fill="white"/>
<path fill-rule="evenodd" clip-rule="evenodd" d="M206.768 604.2C248.766 612.622 301.64 613.366 358.992 591.48C416.346 569.59 478.176 525.07 520.72 478.376C563.264 431.678 586.52 382.81 599.248 337.186C611.982 291.562 614.19 249.18 608.488 214.146C602.782 179.111 587.962 151.349 574.114 130.132C560.266 108.919 543.738 89.8721 515.546 72.0923C541.016 86.5741 560.74 107.086 575.986 128.96C596.584 158.519 610.494 196.031 614.384 232.698C618.272 269.366 613.344 305.262 601.898 344.004C590.452 382.746 572.488 424.332 540.01 463.912C507.534 503.49 460.542 541.06 417.672 566.572C374.804 592.082 336.058 605.536 298.02 610.606C259.984 615.68 222.66 612.368 190.826 603.388C158.996 594.404 133.386 579.704 111.028 559.822C134.413 579.678 164.769 595.776 206.768 604.2Z" fill="white"/>
</g>
<defs>
<linearGradient id="paint0_linear_101_3" x1="-44.6624" y1="63.6678" x2="81.942" y2="700.726" gradientUnits="userSpaceOnUse">
<stop offset="0.000519012" stop-color="#B00000"/>
<stop offset="1" stop-color="#005CCD"/>
</linearGradient>
<linearGradient id="paint1_linear_101_3" x1="51.3818" y1="53.8772" x2="51.3818" y2="611.536" gradientUnits="userSpaceOnUse">
<stop stop-color="#FFCC35" stop-opacity="0.6"/>
<stop offset="1" stop-color="#24E9FF" stop-opacity="0.6"/>
</linearGradient>
<linearGradient id="paint2_linear_101_3" x1="619.736" y1="76.8066" x2="197.652" y2="122.482" gradientUnits="userSpaceOnUse">
<stop stop-color="#F9FF53" stop-opacity="0.6"/>
<stop offset="1" stop-color="#B8FF53" stop-opacity="0.6"/>
</linearGradient>
<linearGradient id="paint3_linear_101_3" x1="193.335" y1="197.708" x2="-36.5476" y2="410.954" gradientUnits="userSpaceOnUse">
<stop stop-color="#33B1FF" stop-opacity="0.631501"/>
<stop offset="1" stop-color="#338BFF" stop-opacity="0.638139"/>
</linearGradient>
<linearGradient id="paint4_linear_101_3" x1="125.734" y1="256.572" x2="-12.498" y2="400.044" gradientUnits="userSpaceOnUse">
<stop stop-color="#0A76FF" stop-opacity="0.7"/>
<stop offset="1" stop-color="#0A4FFF" stop-opacity="0.7"/>
</linearGradient>
<radialGradient id="paint5_radial_101_3" cx="0" cy="0" r="1" gradientUnits="userSpaceOnUse" gradientTransform="translate(353.202 89.579) scale(214.354 39.416)">
<stop stop-color="#FF3000" stop-opacity="0.6"/>
<stop offset="1" stop-color="#FFB900" stop-opacity="0.6"/>
</radialGradient>
<linearGradient id="paint6_linear_101_3" x1="66.665" y1="71.679" x2="99.9404" y2="229.838" gradientUnits="userSpaceOnUse">
<stop stop-color="#FF0400" stop-opacity="0.7"/>
<stop offset="1" stop-color="#FF8800" stop-opacity="0.7"/>
</linearGradient>
<linearGradient id="paint7_linear_101_3" x1="130.104" y1="22.878" x2="146.718" y2="124.956" gradientUnits="userSpaceOnUse">
<stop stop-color="#BC0000" stop-opacity="0.8"/>
<stop offset="1" stop-color="#EC1A00" stop-opacity="0.8"/>
</linearGradient>
<clipPath id="clip0_101_3">
<rect width="640" height="640" fill="white"/>
</clipPath>
</defs>
</svg>
