<svg width="1235" height="82" viewBox="0 0 1235 82" fill="none" xmlns="http://www.w3.org/2000/svg">
<path d="M148 41L228 41" stroke="black" stroke-width="2"/>
<path d="M205 17L229 41L205 65" stroke="black" stroke-width="2"/>
<path d="M381 41L461 41" stroke="black" stroke-width="2"/>
<path d="M438 17L462 41L438 65" stroke="black" stroke-width="2"/>
<rect x="472" y="1" width="113" height="80" fill="white"/>
<path d="M496.867 33.3906C496.727 34.5938 496.281 35.5234 495.531 36.1797C494.786 36.8307 493.794 37.1562 492.555 37.1562C491.211 37.1562 490.133 36.6745 489.32 35.7109C488.513 34.7474 488.109 33.4583 488.109 31.8438V30.75C488.109 29.6927 488.297 28.763 488.672 27.9609C489.052 27.1589 489.589 26.5443 490.281 26.1172C490.974 25.6849 491.776 25.4688 492.688 25.4688C493.896 25.4688 494.865 25.8073 495.594 26.4844C496.323 27.1562 496.747 28.0885 496.867 29.2812H495.359C495.229 28.375 494.945 27.7188 494.508 27.3125C494.076 26.9062 493.469 26.7031 492.688 26.7031C491.729 26.7031 490.977 27.0573 490.43 27.7656C489.888 28.474 489.617 29.4818 489.617 30.7891V31.8906C489.617 33.125 489.875 34.1068 490.391 34.8359C490.906 35.5651 491.628 35.9297 492.555 35.9297C493.388 35.9297 494.026 35.7422 494.469 35.3672C494.917 34.987 495.214 34.3281 495.359 33.3906H496.867ZM500.266 37H498.82V25H500.266V37ZM504.156 37H502.711V28.5469H504.156V37ZM502.594 26.3047C502.594 26.0703 502.664 25.8724 502.805 25.7109C502.951 25.5495 503.164 25.4688 503.445 25.4688C503.727 25.4688 503.94 25.5495 504.086 25.7109C504.232 25.8724 504.305 26.0703 504.305 26.3047C504.305 26.5391 504.232 26.7344 504.086 26.8906C503.94 27.0469 503.727 27.125 503.445 27.125C503.164 27.125 502.951 27.0469 502.805 26.8906C502.664 26.7344 502.594 26.5391 502.594 26.3047ZM509.867 35.9766C510.383 35.9766 510.833 35.8203 511.219 35.5078C511.604 35.1953 511.818 34.8047 511.859 34.3359H513.227C513.201 34.8203 513.034 35.2812 512.727 35.7188C512.419 36.1562 512.008 36.5052 511.492 36.7656C510.982 37.026 510.44 37.1562 509.867 37.1562C508.716 37.1562 507.799 36.7734 507.117 36.0078C506.44 35.237 506.102 34.1849 506.102 32.8516V32.6094C506.102 31.7865 506.253 31.0547 506.555 30.4141C506.857 29.7734 507.289 29.276 507.852 28.9219C508.419 28.5677 509.089 28.3906 509.859 28.3906C510.807 28.3906 511.594 28.6745 512.219 29.2422C512.849 29.8099 513.185 30.5469 513.227 31.4531H511.859C511.818 30.9062 511.609 30.4583 511.234 30.1094C510.865 29.7552 510.406 29.5781 509.859 29.5781C509.125 29.5781 508.555 29.8438 508.148 30.375C507.747 30.901 507.547 31.6641 507.547 32.6641V32.9375C507.547 33.9115 507.747 34.6615 508.148 35.1875C508.549 35.7135 509.122 35.9766 509.867 35.9766ZM517.211 33.0859L516.305 34.0312V37H514.859V25H516.305V32.2578L517.078 31.3281L519.711 28.5469H521.469L518.18 32.0781L521.852 37H520.156L517.211 33.0859ZM528.289 28.5469L528.328 29.4844C528.948 28.7552 529.784 28.3906 530.836 28.3906C532.018 28.3906 532.823 28.8438 533.25 29.75C533.531 29.3438 533.896 29.0156 534.344 28.7656C534.797 28.5156 535.331 28.3906 535.945 28.3906C537.799 28.3906 538.742 29.3724 538.773 31.3359V37H537.328V31.4219C537.328 30.8177 537.19 30.3672 536.914 30.0703C536.638 29.7682 536.174 29.6172 535.523 29.6172C534.987 29.6172 534.542 29.7786 534.188 30.1016C533.833 30.4193 533.628 30.849 533.57 31.3906V37H532.117V31.4609C532.117 30.2318 531.516 29.6172 530.312 29.6172C529.365 29.6172 528.716 30.0208 528.367 30.8281V37H526.922V28.5469H528.289ZM546.18 37C546.096 36.8333 546.029 36.5365 545.977 36.1094C545.305 36.8073 544.503 37.1562 543.57 37.1562C542.737 37.1562 542.052 36.9219 541.516 36.4531C540.984 35.9792 540.719 35.3802 540.719 34.6562C540.719 33.776 541.052 33.0938 541.719 32.6094C542.391 32.1198 543.333 31.875 544.547 31.875H545.953V31.2109C545.953 30.7057 545.802 30.3047 545.5 30.0078C545.198 29.7057 544.753 29.5547 544.164 29.5547C543.648 29.5547 543.216 29.6849 542.867 29.9453C542.518 30.2057 542.344 30.5208 542.344 30.8906H540.891C540.891 30.4688 541.039 30.0625 541.336 29.6719C541.638 29.276 542.044 28.9635 542.555 28.7344C543.07 28.5052 543.635 28.3906 544.25 28.3906C545.224 28.3906 545.987 28.6354 546.539 29.125C547.091 29.6094 547.378 30.2786 547.398 31.1328V35.0234C547.398 35.7995 547.497 36.4167 547.695 36.875V37H546.18ZM543.781 35.8984C544.234 35.8984 544.664 35.7812 545.07 35.5469C545.477 35.3125 545.771 35.0078 545.953 34.6328V32.8984H544.82C543.049 32.8984 542.164 33.4167 542.164 34.4531C542.164 34.9062 542.315 35.2604 542.617 35.5156C542.919 35.7708 543.307 35.8984 543.781 35.8984ZM549.32 32.7031C549.32 31.3854 549.625 30.3385 550.234 29.5625C550.844 28.7812 551.651 28.3906 552.656 28.3906C553.688 28.3906 554.492 28.7552 555.07 29.4844L555.141 28.5469H556.461V36.7969C556.461 37.8906 556.135 38.7526 555.484 39.3828C554.839 40.013 553.969 40.3281 552.875 40.3281C552.266 40.3281 551.669 40.1979 551.086 39.9375C550.503 39.6771 550.057 39.3203 549.75 38.8672L550.5 38C551.12 38.7656 551.878 39.1484 552.773 39.1484C553.477 39.1484 554.023 38.9505 554.414 38.5547C554.81 38.1589 555.008 37.6016 555.008 36.8828V36.1562C554.43 36.8229 553.641 37.1562 552.641 37.1562C551.651 37.1562 550.849 36.7578 550.234 35.9609C549.625 35.1641 549.32 34.0781 549.32 32.7031ZM550.773 32.8672C550.773 33.8203 550.969 34.5703 551.359 35.1172C551.75 35.6589 552.297 35.9297 553 35.9297C553.911 35.9297 554.581 35.5156 555.008 34.6875V30.8281C554.565 30.0208 553.901 29.6172 553.016 29.6172C552.312 29.6172 551.763 29.8906 551.367 30.4375C550.971 30.9844 550.773 31.7943 550.773 32.8672ZM560.219 37H558.773V28.5469H560.219V37ZM558.656 26.3047C558.656 26.0703 558.727 25.8724 558.867 25.7109C559.013 25.5495 559.227 25.4688 559.508 25.4688C559.789 25.4688 560.003 25.5495 560.148 25.7109C560.294 25.8724 560.367 26.0703 560.367 26.3047C560.367 26.5391 560.294 26.7344 560.148 26.8906C560.003 27.0469 559.789 27.125 559.508 27.125C559.227 27.125 559.013 27.0469 558.867 26.8906C558.727 26.7344 558.656 26.5391 558.656 26.3047ZM565.93 35.9766C566.445 35.9766 566.896 35.8203 567.281 35.5078C567.667 35.1953 567.88 34.8047 567.922 34.3359H569.289C569.263 34.8203 569.096 35.2812 568.789 35.7188C568.482 36.1562 568.07 36.5052 567.555 36.7656C567.044 37.026 566.503 37.1562 565.93 37.1562C564.779 37.1562 563.862 36.7734 563.18 36.0078C562.503 35.237 562.164 34.1849 562.164 32.8516V32.6094C562.164 31.7865 562.315 31.0547 562.617 30.4141C562.919 29.7734 563.352 29.276 563.914 28.9219C564.482 28.5677 565.151 28.3906 565.922 28.3906C566.87 28.3906 567.656 28.6745 568.281 29.2422C568.911 29.8099 569.247 30.5469 569.289 31.4531H567.922C567.88 30.9062 567.672 30.4583 567.297 30.1094C566.927 29.7552 566.469 29.5781 565.922 29.5781C565.188 29.5781 564.617 29.8438 564.211 30.375C563.81 30.901 563.609 31.6641 563.609 32.6641V32.9375C563.609 33.9115 563.81 34.6615 564.211 35.1875C564.612 35.7135 565.185 35.9766 565.93 35.9766ZM518.805 56H517.359V44H518.805V56ZM522.695 56H521.25V47.5469H522.695V56ZM521.133 45.3047C521.133 45.0703 521.203 44.8724 521.344 44.7109C521.49 44.5495 521.703 44.4688 521.984 44.4688C522.266 44.4688 522.479 44.5495 522.625 44.7109C522.771 44.8724 522.844 45.0703 522.844 45.3047C522.844 45.5391 522.771 45.7344 522.625 45.8906C522.479 46.0469 522.266 46.125 521.984 46.125C521.703 46.125 521.49 46.0469 521.344 45.8906C521.203 45.7344 521.133 45.5391 521.133 45.3047ZM526.383 47.5469L526.43 48.6094C527.076 47.7969 527.919 47.3906 528.961 47.3906C530.747 47.3906 531.648 48.3984 531.664 50.4141V56H530.219V50.4062C530.214 49.7969 530.073 49.3464 529.797 49.0547C529.526 48.763 529.102 48.6172 528.523 48.6172C528.055 48.6172 527.643 48.7422 527.289 48.9922C526.935 49.2422 526.659 49.5703 526.461 49.9766V56H525.016V47.5469H526.383ZM536.203 52.0859L535.297 53.0312V56H533.852V44H535.297V51.2578L536.07 50.3281L538.703 47.5469H540.461L537.172 51.0781L540.844 56H539.148L536.203 52.0859Z" fill="black"/>
<path d="M472 1V0H471V1H472ZM585 1H586V0H585V1ZM585 81V82H586V81H585ZM472 81H471V82H472V81ZM472 2H585V0H472V2ZM584 1V81H586V1H584ZM585 80H472V82H585V80ZM473 81V1H471V81H473Z" fill="black"/>
<path d="M808 41L888 41" stroke="black" stroke-width="2"/>
<path d="M865 17L889 41L865 65" stroke="black" stroke-width="2"/>
<path d="M1031 41L1111 41" stroke="black" stroke-width="2"/>
<path d="M1088 17L1112 41L1088 65" stroke="black" stroke-width="2"/>
<rect x="898" y="1" width="123" height="80" fill="white"/>
<path d="M927.688 35.5078C927.302 36.0599 926.763 36.474 926.07 36.75C925.383 37.0208 924.581 37.1562 923.664 37.1562C922.737 37.1562 921.914 36.9401 921.195 36.5078C920.477 36.0703 919.919 35.4505 919.523 34.6484C919.133 33.8464 918.932 32.9167 918.922 31.8594V30.8672C918.922 29.1536 919.32 27.8255 920.117 26.8828C920.919 25.9401 922.044 25.4688 923.492 25.4688C924.68 25.4688 925.635 25.7734 926.359 26.3828C927.083 26.987 927.526 27.8464 927.688 28.9609H926.188C925.906 27.4557 925.01 26.7031 923.5 26.7031C922.495 26.7031 921.732 27.0573 921.211 27.7656C920.695 28.4688 920.435 29.4896 920.43 30.8281V31.7578C920.43 33.0339 920.721 34.0495 921.305 34.8047C921.888 35.5547 922.677 35.9297 923.672 35.9297C924.234 35.9297 924.727 35.8672 925.148 35.7422C925.57 35.6172 925.919 35.4062 926.195 35.1094V32.5547H923.562V31.3359H927.688V35.5078ZM933.477 37.1562C932.331 37.1562 931.398 36.7812 930.68 36.0312C929.961 35.276 929.602 34.2682 929.602 33.0078V32.7422C929.602 31.9036 929.76 31.1562 930.078 30.5C930.401 29.8385 930.849 29.3229 931.422 28.9531C932 28.5781 932.625 28.3906 933.297 28.3906C934.396 28.3906 935.25 28.7526 935.859 29.4766C936.469 30.2005 936.773 31.237 936.773 32.5859V33.1875H931.047C931.068 34.0208 931.31 34.6953 931.773 35.2109C932.242 35.7214 932.836 35.9766 933.555 35.9766C934.065 35.9766 934.497 35.8724 934.852 35.6641C935.206 35.4557 935.516 35.1797 935.781 34.8359L936.664 35.5234C935.956 36.612 934.893 37.1562 933.477 37.1562ZM933.297 29.5781C932.714 29.5781 932.224 29.7917 931.828 30.2188C931.432 30.6406 931.188 31.2344 931.094 32H935.328V31.8906C935.286 31.1562 935.089 30.5885 934.734 30.1875C934.38 29.7812 933.901 29.5781 933.297 29.5781ZM939.82 28.5469L939.867 29.6094C940.513 28.7969 941.357 28.3906 942.398 28.3906C944.185 28.3906 945.086 29.3984 945.102 31.4141V37H943.656V31.4062C943.651 30.7969 943.51 30.3464 943.234 30.0547C942.964 29.763 942.539 29.6172 941.961 29.6172C941.492 29.6172 941.081 29.7422 940.727 29.9922C940.372 30.2422 940.096 30.5703 939.898 30.9766V37H938.453V28.5469H939.82ZM950.789 37.1562C949.643 37.1562 948.711 36.7812 947.992 36.0312C947.273 35.276 946.914 34.2682 946.914 33.0078V32.7422C946.914 31.9036 947.073 31.1562 947.391 30.5C947.714 29.8385 948.161 29.3229 948.734 28.9531C949.312 28.5781 949.938 28.3906 950.609 28.3906C951.708 28.3906 952.562 28.7526 953.172 29.4766C953.781 30.2005 954.086 31.237 954.086 32.5859V33.1875H948.359C948.38 34.0208 948.622 34.6953 949.086 35.2109C949.555 35.7214 950.148 35.9766 950.867 35.9766C951.378 35.9766 951.81 35.8724 952.164 35.6641C952.518 35.4557 952.828 35.1797 953.094 34.8359L953.977 35.5234C953.268 36.612 952.206 37.1562 950.789 37.1562ZM950.609 29.5781C950.026 29.5781 949.536 29.7917 949.141 30.2188C948.745 30.6406 948.5 31.2344 948.406 32H952.641V31.8906C952.599 31.1562 952.401 30.5885 952.047 30.1875C951.693 29.7812 951.214 29.5781 950.609 29.5781ZM959.852 29.8438C959.633 29.8073 959.396 29.7891 959.141 29.7891C958.193 29.7891 957.549 30.1927 957.211 31V37H955.766V28.5469H957.172L957.195 29.5234C957.669 28.7682 958.341 28.3906 959.211 28.3906C959.492 28.3906 959.706 28.4271 959.852 28.5V29.8438ZM966.094 37C966.01 36.8333 965.943 36.5365 965.891 36.1094C965.219 36.8073 964.417 37.1562 963.484 37.1562C962.651 37.1562 961.966 36.9219 961.43 36.4531C960.898 35.9792 960.633 35.3802 960.633 34.6562C960.633 33.776 960.966 33.0938 961.633 32.6094C962.305 32.1198 963.247 31.875 964.461 31.875H965.867V31.2109C965.867 30.7057 965.716 30.3047 965.414 30.0078C965.112 29.7057 964.667 29.5547 964.078 29.5547C963.562 29.5547 963.13 29.6849 962.781 29.9453C962.432 30.2057 962.258 30.5208 962.258 30.8906H960.805C960.805 30.4688 960.953 30.0625 961.25 29.6719C961.552 29.276 961.958 28.9635 962.469 28.7344C962.984 28.5052 963.549 28.3906 964.164 28.3906C965.138 28.3906 965.901 28.6354 966.453 29.125C967.005 29.6094 967.292 30.2786 967.312 31.1328V35.0234C967.312 35.7995 967.411 36.4167 967.609 36.875V37H966.094ZM963.695 35.8984C964.148 35.8984 964.578 35.7812 964.984 35.5469C965.391 35.3125 965.685 35.0078 965.867 34.6328V32.8984H964.734C962.964 32.8984 962.078 33.4167 962.078 34.4531C962.078 34.9062 962.229 35.2604 962.531 35.5156C962.833 35.7708 963.221 35.8984 963.695 35.8984ZM971.539 26.5V28.5469H973.117V29.6641H971.539V34.9062C971.539 35.2448 971.609 35.5 971.75 35.6719C971.891 35.8385 972.13 35.9219 972.469 35.9219C972.635 35.9219 972.865 35.8906 973.156 35.8281V37C972.776 37.1042 972.406 37.1562 972.047 37.1562C971.401 37.1562 970.914 36.9609 970.586 36.5703C970.258 36.1797 970.094 35.625 970.094 34.9062V29.6641H968.555V28.5469H970.094V26.5H971.539ZM978.32 37.1562C977.174 37.1562 976.242 36.7812 975.523 36.0312C974.805 35.276 974.445 34.2682 974.445 33.0078V32.7422C974.445 31.9036 974.604 31.1562 974.922 30.5C975.245 29.8385 975.693 29.3229 976.266 28.9531C976.844 28.5781 977.469 28.3906 978.141 28.3906C979.24 28.3906 980.094 28.7526 980.703 29.4766C981.312 30.2005 981.617 31.237 981.617 32.5859V33.1875H975.891C975.911 34.0208 976.154 34.6953 976.617 35.2109C977.086 35.7214 977.68 35.9766 978.398 35.9766C978.909 35.9766 979.341 35.8724 979.695 35.6641C980.049 35.4557 980.359 35.1797 980.625 34.8359L981.508 35.5234C980.799 36.612 979.737 37.1562 978.32 37.1562ZM978.141 29.5781C977.557 29.5781 977.068 29.7917 976.672 30.2188C976.276 30.6406 976.031 31.2344 975.938 32H980.172V31.8906C980.13 31.1562 979.932 30.5885 979.578 30.1875C979.224 29.7812 978.745 29.5781 978.141 29.5781ZM989.102 37H987.602V25.625H989.102V37ZM991.852 37V25.625H995.062C996.052 25.625 996.927 25.8438 997.688 26.2812C998.448 26.7188 999.034 27.3411 999.445 28.1484C999.862 28.9557 1000.07 29.8828 1000.08 30.9297V31.6562C1000.08 32.7292 999.87 33.6693 999.453 34.4766C999.042 35.2839 998.451 35.9036 997.68 36.3359C996.914 36.7682 996.021 36.9896 995 37H991.852ZM993.352 26.8594V35.7734H994.93C996.086 35.7734 996.984 35.4141 997.625 34.6953C998.271 33.9766 998.594 32.9531 998.594 31.625V30.9609C998.594 29.6693 998.289 28.6667 997.68 27.9531C997.076 27.2344 996.216 26.8698 995.102 26.8594H993.352ZM918.352 54.9766C918.867 54.9766 919.318 54.8203 919.703 54.5078C920.089 54.1953 920.302 53.8047 920.344 53.3359H921.711C921.685 53.8203 921.518 54.2812 921.211 54.7188C920.904 55.1562 920.492 55.5052 919.977 55.7656C919.466 56.026 918.924 56.1562 918.352 56.1562C917.201 56.1562 916.284 55.7734 915.602 55.0078C914.924 54.237 914.586 53.1849 914.586 51.8516V51.6094C914.586 50.7865 914.737 50.0547 915.039 49.4141C915.341 48.7734 915.773 48.276 916.336 47.9219C916.904 47.5677 917.573 47.3906 918.344 47.3906C919.292 47.3906 920.078 47.6745 920.703 48.2422C921.333 48.8099 921.669 49.5469 921.711 50.4531H920.344C920.302 49.9062 920.094 49.4583 919.719 49.1094C919.349 48.7552 918.891 48.5781 918.344 48.5781C917.609 48.5781 917.039 48.8438 916.633 49.375C916.232 49.901 916.031 50.6641 916.031 51.6641V51.9375C916.031 52.9115 916.232 53.6615 916.633 54.1875C917.034 54.7135 917.607 54.9766 918.352 54.9766ZM922.953 51.6953C922.953 50.8672 923.115 50.1224 923.438 49.4609C923.766 48.7995 924.219 48.2891 924.797 47.9297C925.38 47.5703 926.044 47.3906 926.789 47.3906C927.94 47.3906 928.87 47.7891 929.578 48.5859C930.292 49.3828 930.648 50.4427 930.648 51.7656V51.8672C930.648 52.6901 930.49 53.4297 930.172 54.0859C929.859 54.737 929.409 55.2448 928.82 55.6094C928.237 55.974 927.565 56.1562 926.805 56.1562C925.659 56.1562 924.729 55.7578 924.016 54.9609C923.307 54.1641 922.953 53.1094 922.953 51.7969V51.6953ZM924.406 51.8672C924.406 52.8047 924.622 53.5573 925.055 54.125C925.492 54.6927 926.076 54.9766 926.805 54.9766C927.539 54.9766 928.122 54.6901 928.555 54.1172C928.987 53.5391 929.203 52.7318 929.203 51.6953C929.203 50.7682 928.982 50.0182 928.539 49.4453C928.102 48.8672 927.518 48.5781 926.789 48.5781C926.076 48.5781 925.5 48.862 925.062 49.4297C924.625 49.9974 924.406 50.8099 924.406 51.8672ZM933.82 47.5469L933.859 48.4844C934.479 47.7552 935.315 47.3906 936.367 47.3906C937.549 47.3906 938.354 47.8438 938.781 48.75C939.062 48.3438 939.427 48.0156 939.875 47.7656C940.328 47.5156 940.862 47.3906 941.477 47.3906C943.331 47.3906 944.273 48.3724 944.305 50.3359V56H942.859V50.4219C942.859 49.8177 942.721 49.3672 942.445 49.0703C942.169 48.7682 941.706 48.6172 941.055 48.6172C940.518 48.6172 940.073 48.7786 939.719 49.1016C939.365 49.4193 939.159 49.849 939.102 50.3906V56H937.648V50.4609C937.648 49.2318 937.047 48.6172 935.844 48.6172C934.896 48.6172 934.247 49.0208 933.898 49.8281V56H932.453V47.5469H933.82ZM947.852 47.5469L947.891 48.4844C948.51 47.7552 949.346 47.3906 950.398 47.3906C951.581 47.3906 952.385 47.8438 952.812 48.75C953.094 48.3438 953.458 48.0156 953.906 47.7656C954.359 47.5156 954.893 47.3906 955.508 47.3906C957.362 47.3906 958.305 48.3724 958.336 50.3359V56H956.891V50.4219C956.891 49.8177 956.753 49.3672 956.477 49.0703C956.201 48.7682 955.737 48.6172 955.086 48.6172C954.549 48.6172 954.104 48.7786 953.75 49.1016C953.396 49.4193 953.19 49.849 953.133 50.3906V56H951.68V50.4609C951.68 49.2318 951.078 48.6172 949.875 48.6172C948.927 48.6172 948.279 49.0208 947.93 49.8281V56H946.484V47.5469H947.852ZM962.094 56H960.648V47.5469H962.094V56ZM960.531 45.3047C960.531 45.0703 960.602 44.8724 960.742 44.7109C960.888 44.5495 961.102 44.4688 961.383 44.4688C961.664 44.4688 961.878 44.5495 962.023 44.7109C962.169 44.8724 962.242 45.0703 962.242 45.3047C962.242 45.5391 962.169 45.7344 962.023 45.8906C961.878 46.0469 961.664 46.125 961.383 46.125C961.102 46.125 960.888 46.0469 960.742 45.8906C960.602 45.7344 960.531 45.5391 960.531 45.3047ZM966.375 45.5V47.5469H967.953V48.6641H966.375V53.9062C966.375 54.2448 966.445 54.5 966.586 54.6719C966.727 54.8385 966.966 54.9219 967.305 54.9219C967.471 54.9219 967.701 54.8906 967.992 54.8281V56C967.612 56.1042 967.242 56.1562 966.883 56.1562C966.237 56.1562 965.75 55.9609 965.422 55.5703C965.094 55.1797 964.93 54.625 964.93 53.9062V48.6641H963.391V47.5469H964.93V45.5H966.375ZM971.008 47.5469L971.047 48.4844C971.667 47.7552 972.503 47.3906 973.555 47.3906C974.737 47.3906 975.542 47.8438 975.969 48.75C976.25 48.3438 976.615 48.0156 977.062 47.7656C977.516 47.5156 978.049 47.3906 978.664 47.3906C980.518 47.3906 981.461 48.3724 981.492 50.3359V56H980.047V50.4219C980.047 49.8177 979.909 49.3672 979.633 49.0703C979.357 48.7682 978.893 48.6172 978.242 48.6172C977.706 48.6172 977.26 48.7786 976.906 49.1016C976.552 49.4193 976.346 49.849 976.289 50.3906V56H974.836V50.4609C974.836 49.2318 974.234 48.6172 973.031 48.6172C972.083 48.6172 971.435 49.0208 971.086 49.8281V56H969.641V47.5469H971.008ZM987.188 56.1562C986.042 56.1562 985.109 55.7812 984.391 55.0312C983.672 54.276 983.312 53.2682 983.312 52.0078V51.7422C983.312 50.9036 983.471 50.1562 983.789 49.5C984.112 48.8385 984.56 48.3229 985.133 47.9531C985.711 47.5781 986.336 47.3906 987.008 47.3906C988.107 47.3906 988.961 47.7526 989.57 48.4766C990.18 49.2005 990.484 50.237 990.484 51.5859V52.1875H984.758C984.779 53.0208 985.021 53.6953 985.484 54.2109C985.953 54.7214 986.547 54.9766 987.266 54.9766C987.776 54.9766 988.208 54.8724 988.562 54.6641C988.917 54.4557 989.227 54.1797 989.492 53.8359L990.375 54.5234C989.667 55.612 988.604 56.1562 987.188 56.1562ZM987.008 48.5781C986.424 48.5781 985.935 48.7917 985.539 49.2188C985.143 49.6406 984.898 50.2344 984.805 51H989.039V50.8906C988.997 50.1562 988.799 49.5885 988.445 49.1875C988.091 48.7812 987.612 48.5781 987.008 48.5781ZM993.531 47.5469L993.578 48.6094C994.224 47.7969 995.068 47.3906 996.109 47.3906C997.896 47.3906 998.797 48.3984 998.812 50.4141V56H997.367V50.4062C997.362 49.7969 997.221 49.3464 996.945 49.0547C996.674 48.763 996.25 48.6172 995.672 48.6172C995.203 48.6172 994.792 48.7422 994.438 48.9922C994.083 49.2422 993.807 49.5703 993.609 49.9766V56H992.164V47.5469H993.531ZM1002.95 45.5V47.5469H1004.53V48.6641H1002.95V53.9062C1002.95 54.2448 1003.02 54.5 1003.16 54.6719C1003.3 54.8385 1003.54 54.9219 1003.88 54.9219C1004.05 54.9219 1004.28 54.8906 1004.57 54.8281V56C1004.19 56.1042 1003.82 56.1562 1003.46 56.1562C1002.82 56.1562 1002.33 55.9609 1002 55.5703C1001.67 55.1797 1001.51 54.625 1001.51 53.9062V48.6641H999.969V47.5469H1001.51V45.5H1002.95Z" fill="black"/>
<path d="M898 1V0H897V1H898ZM1021 1H1022V0H1021V1ZM1021 81V82H1022V81H1021ZM898 81H897V82H898V81ZM898 2H1021V0H898V2ZM1020 1V81H1022V1H1020ZM1021 80H898V82H1021V80ZM899 81V1H897V81H899Z" fill="black"/>
<rect x="1121" y="1" width="113" height="80" fill="white"/>
<path d="M1146.41 25.625H1147.92V33.6797C1147.92 34.7682 1147.59 35.6198 1146.94 36.2344C1146.29 36.849 1145.42 37.1562 1144.33 37.1562C1143.2 37.1562 1142.32 36.8672 1141.69 36.2891C1141.06 35.7109 1140.74 34.901 1140.74 33.8594H1142.24C1142.24 34.5104 1142.42 35.0182 1142.77 35.3828C1143.13 35.7474 1143.65 35.9297 1144.33 35.9297C1144.95 35.9297 1145.45 35.7344 1145.83 35.3438C1146.21 34.9531 1146.41 34.4062 1146.41 33.7031V25.625ZM1149.87 32.6953C1149.87 31.8672 1150.03 31.1224 1150.35 30.4609C1150.68 29.7995 1151.13 29.2891 1151.71 28.9297C1152.29 28.5703 1152.96 28.3906 1153.7 28.3906C1154.85 28.3906 1155.78 28.7891 1156.49 29.5859C1157.21 30.3828 1157.56 31.4427 1157.56 32.7656V32.8672C1157.56 33.6901 1157.4 34.4297 1157.09 35.0859C1156.77 35.737 1156.32 36.2448 1155.73 36.6094C1155.15 36.974 1154.48 37.1562 1153.72 37.1562C1152.57 37.1562 1151.64 36.7578 1150.93 35.9609C1150.22 35.1641 1149.87 34.1094 1149.87 32.7969V32.6953ZM1151.32 32.8672C1151.32 33.8047 1151.54 34.5573 1151.97 35.125C1152.41 35.6927 1152.99 35.9766 1153.72 35.9766C1154.45 35.9766 1155.04 35.6901 1155.47 35.1172C1155.9 34.5391 1156.12 33.7318 1156.12 32.6953C1156.12 31.7682 1155.9 31.0182 1155.45 30.4453C1155.02 29.8672 1154.43 29.5781 1153.7 29.5781C1152.99 29.5781 1152.41 29.862 1151.98 30.4297C1151.54 30.9974 1151.32 31.8099 1151.32 32.8672ZM1160.95 37H1159.5V28.5469H1160.95V37ZM1159.38 26.3047C1159.38 26.0703 1159.45 25.8724 1159.59 25.7109C1159.74 25.5495 1159.95 25.4688 1160.23 25.4688C1160.52 25.4688 1160.73 25.5495 1160.88 25.7109C1161.02 25.8724 1161.09 26.0703 1161.09 26.3047C1161.09 26.5391 1161.02 26.7344 1160.88 26.8906C1160.73 27.0469 1160.52 27.125 1160.23 27.125C1159.95 27.125 1159.74 27.0469 1159.59 26.8906C1159.45 26.7344 1159.38 26.5391 1159.38 26.3047ZM1164.63 28.5469L1164.68 29.6094C1165.33 28.7969 1166.17 28.3906 1167.21 28.3906C1169 28.3906 1169.9 29.3984 1169.91 31.4141V37H1168.47V31.4062C1168.46 30.7969 1168.32 30.3464 1168.05 30.0547C1167.78 29.763 1167.35 29.6172 1166.77 29.6172C1166.3 29.6172 1165.89 29.7422 1165.54 29.9922C1165.18 30.2422 1164.91 30.5703 1164.71 30.9766V37H1163.27V28.5469H1164.63ZM1172.38 37.9766H1171.14L1175.89 25.625H1177.12L1172.38 37.9766ZM1180.26 37H1178.81V25H1180.26V37ZM1186.09 37.1562C1184.94 37.1562 1184.01 36.7812 1183.29 36.0312C1182.57 35.276 1182.21 34.2682 1182.21 33.0078V32.7422C1182.21 31.9036 1182.37 31.1562 1182.69 30.5C1183.01 29.8385 1183.46 29.3229 1184.03 28.9531C1184.61 28.5781 1185.23 28.3906 1185.91 28.3906C1187.01 28.3906 1187.86 28.7526 1188.47 29.4766C1189.08 30.2005 1189.38 31.237 1189.38 32.5859V33.1875H1183.66C1183.68 34.0208 1183.92 34.6953 1184.38 35.2109C1184.85 35.7214 1185.45 35.9766 1186.16 35.9766C1186.67 35.9766 1187.11 35.8724 1187.46 35.6641C1187.82 35.4557 1188.12 35.1797 1188.39 34.8359L1189.27 35.5234C1188.57 36.612 1187.5 37.1562 1186.09 37.1562ZM1185.91 29.5781C1185.32 29.5781 1184.83 29.7917 1184.44 30.2188C1184.04 30.6406 1183.8 31.2344 1183.7 32H1187.94V31.8906C1187.9 31.1562 1187.7 30.5885 1187.34 30.1875C1186.99 29.7812 1186.51 29.5781 1185.91 29.5781ZM1196.28 37C1196.2 36.8333 1196.13 36.5365 1196.08 36.1094C1195.41 36.8073 1194.6 37.1562 1193.67 37.1562C1192.84 37.1562 1192.15 36.9219 1191.62 36.4531C1191.09 35.9792 1190.82 35.3802 1190.82 34.6562C1190.82 33.776 1191.15 33.0938 1191.82 32.6094C1192.49 32.1198 1193.43 31.875 1194.65 31.875H1196.05V31.2109C1196.05 30.7057 1195.9 30.3047 1195.6 30.0078C1195.3 29.7057 1194.85 29.5547 1194.27 29.5547C1193.75 29.5547 1193.32 29.6849 1192.97 29.9453C1192.62 30.2057 1192.45 30.5208 1192.45 30.8906H1190.99C1190.99 30.4688 1191.14 30.0625 1191.44 29.6719C1191.74 29.276 1192.15 28.9635 1192.66 28.7344C1193.17 28.5052 1193.74 28.3906 1194.35 28.3906C1195.33 28.3906 1196.09 28.6354 1196.64 29.125C1197.19 29.6094 1197.48 30.2786 1197.5 31.1328V35.0234C1197.5 35.7995 1197.6 36.4167 1197.8 36.875V37H1196.28ZM1193.88 35.8984C1194.34 35.8984 1194.77 35.7812 1195.17 35.5469C1195.58 35.3125 1195.87 35.0078 1196.05 34.6328V32.8984H1194.92C1193.15 32.8984 1192.27 33.4167 1192.27 34.4531C1192.27 34.9062 1192.42 35.2604 1192.72 35.5156C1193.02 35.7708 1193.41 35.8984 1193.88 35.8984ZM1202.43 35.0391L1204.52 28.5469H1206L1202.97 37H1201.87L1198.8 28.5469H1200.28L1202.43 35.0391ZM1210.79 37.1562C1209.64 37.1562 1208.71 36.7812 1207.99 36.0312C1207.27 35.276 1206.91 34.2682 1206.91 33.0078V32.7422C1206.91 31.9036 1207.07 31.1562 1207.39 30.5C1207.71 29.8385 1208.16 29.3229 1208.73 28.9531C1209.31 28.5781 1209.94 28.3906 1210.61 28.3906C1211.71 28.3906 1212.56 28.7526 1213.17 29.4766C1213.78 30.2005 1214.09 31.237 1214.09 32.5859V33.1875H1208.36C1208.38 34.0208 1208.62 34.6953 1209.09 35.2109C1209.55 35.7214 1210.15 35.9766 1210.87 35.9766C1211.38 35.9766 1211.81 35.8724 1212.16 35.6641C1212.52 35.4557 1212.83 35.1797 1213.09 34.8359L1213.98 35.5234C1213.27 36.612 1212.21 37.1562 1210.79 37.1562ZM1210.61 29.5781C1210.03 29.5781 1209.54 29.7917 1209.14 30.2188C1208.74 30.6406 1208.5 31.2344 1208.41 32H1212.64V31.8906C1212.6 31.1562 1212.4 30.5885 1212.05 30.1875C1211.69 29.7812 1211.21 29.5781 1210.61 29.5781ZM1157.66 51.7031C1157.66 50.3854 1157.96 49.3385 1158.57 48.5625C1159.18 47.7812 1159.99 47.3906 1160.99 47.3906C1162.02 47.3906 1162.83 47.7552 1163.41 48.4844L1163.48 47.5469H1164.8V55.7969C1164.8 56.8906 1164.47 57.7526 1163.82 58.3828C1163.17 59.013 1162.3 59.3281 1161.21 59.3281C1160.6 59.3281 1160.01 59.1979 1159.42 58.9375C1158.84 58.6771 1158.39 58.3203 1158.09 57.8672L1158.84 57C1159.46 57.7656 1160.21 58.1484 1161.11 58.1484C1161.81 58.1484 1162.36 57.9505 1162.75 57.5547C1163.15 57.1589 1163.34 56.6016 1163.34 55.8828V55.1562C1162.77 55.8229 1161.98 56.1562 1160.98 56.1562C1159.99 56.1562 1159.18 55.7578 1158.57 54.9609C1157.96 54.1641 1157.66 53.0781 1157.66 51.7031ZM1159.11 51.8672C1159.11 52.8203 1159.3 53.5703 1159.7 54.1172C1160.09 54.6589 1160.63 54.9297 1161.34 54.9297C1162.25 54.9297 1162.92 54.5156 1163.34 53.6875V49.8281C1162.9 49.0208 1162.24 48.6172 1161.35 48.6172C1160.65 48.6172 1160.1 48.8906 1159.7 49.4375C1159.31 49.9844 1159.11 50.7943 1159.11 51.8672ZM1171.07 48.8438C1170.85 48.8073 1170.61 48.7891 1170.36 48.7891C1169.41 48.7891 1168.77 49.1927 1168.43 50V56H1166.98V47.5469H1168.39L1168.41 48.5234C1168.89 47.7682 1169.56 47.3906 1170.43 47.3906C1170.71 47.3906 1170.92 47.4271 1171.07 47.5V48.8438ZM1171.87 51.6953C1171.87 50.8672 1172.03 50.1224 1172.35 49.4609C1172.68 48.7995 1173.13 48.2891 1173.71 47.9297C1174.29 47.5703 1174.96 47.3906 1175.7 47.3906C1176.85 47.3906 1177.78 47.7891 1178.49 48.5859C1179.21 49.3828 1179.56 50.4427 1179.56 51.7656V51.8672C1179.56 52.6901 1179.4 53.4297 1179.09 54.0859C1178.77 54.737 1178.32 55.2448 1177.73 55.6094C1177.15 55.974 1176.48 56.1562 1175.72 56.1562C1174.57 56.1562 1173.64 55.7578 1172.93 54.9609C1172.22 54.1641 1171.87 53.1094 1171.87 51.7969V51.6953ZM1173.32 51.8672C1173.32 52.8047 1173.54 53.5573 1173.97 54.125C1174.41 54.6927 1174.99 54.9766 1175.72 54.9766C1176.45 54.9766 1177.04 54.6901 1177.47 54.1172C1177.9 53.5391 1178.12 52.7318 1178.12 51.6953C1178.12 50.7682 1177.9 50.0182 1177.45 49.4453C1177.02 48.8672 1176.43 48.5781 1175.7 48.5781C1174.99 48.5781 1174.41 48.862 1173.98 49.4297C1173.54 49.9974 1173.32 50.8099 1173.32 51.8672ZM1186.59 55.1641C1186.03 55.8255 1185.21 56.1562 1184.12 56.1562C1183.22 56.1562 1182.53 55.8958 1182.05 55.375C1181.59 54.849 1181.35 54.0729 1181.34 53.0469V47.5469H1182.79V53.0078C1182.79 54.2891 1183.31 54.9297 1184.35 54.9297C1185.46 54.9297 1186.19 54.5182 1186.55 53.6953V47.5469H1188V56H1186.62L1186.59 55.1641ZM1197.34 51.8672C1197.34 53.1536 1197.05 54.1901 1196.46 54.9766C1195.87 55.763 1195.08 56.1562 1194.07 56.1562C1193.04 56.1562 1192.24 55.8307 1191.65 55.1797V59.25H1190.2V47.5469H1191.52L1191.59 48.4844C1192.18 47.7552 1193 47.3906 1194.05 47.3906C1195.06 47.3906 1195.86 47.7734 1196.45 48.5391C1197.05 49.3047 1197.34 50.3698 1197.34 51.7344V51.8672ZM1195.9 51.7031C1195.9 50.75 1195.7 49.9974 1195.29 49.4453C1194.88 48.8932 1194.33 48.6172 1193.62 48.6172C1192.74 48.6172 1192.09 49.0052 1191.65 49.7812V53.8203C1192.08 54.5911 1192.74 54.9766 1193.63 54.9766C1194.33 54.9766 1194.88 54.7031 1195.28 54.1562C1195.69 53.6042 1195.9 52.7865 1195.9 51.7031Z" fill="black"/>
<path d="M1121 1V0H1120V1H1121ZM1234 1H1235V0H1234V1ZM1234 81V82H1235V81H1234ZM1121 81H1120V82H1121V81ZM1121 2H1234V0H1121V2ZM1233 1V81H1235V1H1233ZM1234 80H1121V82H1234V80ZM1122 81V1H1120V81H1122Z" fill="black"/>
<path d="M600 41L680 41" stroke="black" stroke-width="2"/>
<path d="M657 17L681 41L657 65" stroke="black" stroke-width="2"/>
<rect x="689" y="1" width="108" height="80" fill="white"/>
<path d="M723.039 33.3906C722.898 34.5938 722.453 35.5234 721.703 36.1797C720.958 36.8307 719.966 37.1562 718.727 37.1562C717.383 37.1562 716.305 36.6745 715.492 35.7109C714.685 34.7474 714.281 33.4583 714.281 31.8438V30.75C714.281 29.6927 714.469 28.763 714.844 27.9609C715.224 27.1589 715.76 26.5443 716.453 26.1172C717.146 25.6849 717.948 25.4688 718.859 25.4688C720.068 25.4688 721.036 25.8073 721.766 26.4844C722.495 27.1562 722.919 28.0885 723.039 29.2812H721.531C721.401 28.375 721.117 27.7188 720.68 27.3125C720.247 26.9062 719.641 26.7031 718.859 26.7031C717.901 26.7031 717.148 27.0573 716.602 27.7656C716.06 28.474 715.789 29.4818 715.789 30.7891V31.8906C715.789 33.125 716.047 34.1068 716.562 34.8359C717.078 35.5651 717.799 35.9297 718.727 35.9297C719.56 35.9297 720.198 35.7422 720.641 35.3672C721.089 34.987 721.385 34.3281 721.531 33.3906H723.039ZM724.484 32.6953C724.484 31.8672 724.646 31.1224 724.969 30.4609C725.297 29.7995 725.75 29.2891 726.328 28.9297C726.911 28.5703 727.576 28.3906 728.32 28.3906C729.471 28.3906 730.401 28.7891 731.109 29.5859C731.823 30.3828 732.18 31.4427 732.18 32.7656V32.8672C732.18 33.6901 732.021 34.4297 731.703 35.0859C731.391 35.737 730.94 36.2448 730.352 36.6094C729.768 36.974 729.096 37.1562 728.336 37.1562C727.19 37.1562 726.26 36.7578 725.547 35.9609C724.839 35.1641 724.484 34.1094 724.484 32.7969V32.6953ZM725.938 32.8672C725.938 33.8047 726.154 34.5573 726.586 35.125C727.023 35.6927 727.607 35.9766 728.336 35.9766C729.07 35.9766 729.654 35.6901 730.086 35.1172C730.518 34.5391 730.734 33.7318 730.734 32.6953C730.734 31.7682 730.513 31.0182 730.07 30.4453C729.633 29.8672 729.049 29.5781 728.32 29.5781C727.607 29.5781 727.031 29.862 726.594 30.4297C726.156 30.9974 725.938 31.8099 725.938 32.8672ZM735.359 28.5469L735.406 29.6094C736.052 28.7969 736.896 28.3906 737.938 28.3906C739.724 28.3906 740.625 29.3984 740.641 31.4141V37H739.195V31.4062C739.19 30.7969 739.049 30.3464 738.773 30.0547C738.503 29.763 738.078 29.6172 737.5 29.6172C737.031 29.6172 736.62 29.7422 736.266 29.9922C735.911 30.2422 735.635 30.5703 735.438 30.9766V37H733.992V28.5469H735.359ZM744.188 28.5469L744.234 29.6094C744.88 28.7969 745.724 28.3906 746.766 28.3906C748.552 28.3906 749.453 29.3984 749.469 31.4141V37H748.023V31.4062C748.018 30.7969 747.878 30.3464 747.602 30.0547C747.331 29.763 746.906 29.6172 746.328 29.6172C745.859 29.6172 745.448 29.7422 745.094 29.9922C744.74 30.2422 744.464 30.5703 744.266 30.9766V37H742.82V28.5469H744.188ZM755.156 37.1562C754.01 37.1562 753.078 36.7812 752.359 36.0312C751.641 35.276 751.281 34.2682 751.281 33.0078V32.7422C751.281 31.9036 751.44 31.1562 751.758 30.5C752.081 29.8385 752.529 29.3229 753.102 28.9531C753.68 28.5781 754.305 28.3906 754.977 28.3906C756.076 28.3906 756.93 28.7526 757.539 29.4766C758.148 30.2005 758.453 31.237 758.453 32.5859V33.1875H752.727C752.747 34.0208 752.99 34.6953 753.453 35.2109C753.922 35.7214 754.516 35.9766 755.234 35.9766C755.745 35.9766 756.177 35.8724 756.531 35.6641C756.885 35.4557 757.195 35.1797 757.461 34.8359L758.344 35.5234C757.635 36.612 756.573 37.1562 755.156 37.1562ZM754.977 29.5781C754.393 29.5781 753.904 29.7917 753.508 30.2188C753.112 30.6406 752.867 31.2344 752.773 32H757.008V31.8906C756.966 31.1562 756.768 30.5885 756.414 30.1875C756.06 29.7812 755.581 29.5781 754.977 29.5781ZM763.523 35.9766C764.039 35.9766 764.49 35.8203 764.875 35.5078C765.26 35.1953 765.474 34.8047 765.516 34.3359H766.883C766.857 34.8203 766.69 35.2812 766.383 35.7188C766.076 36.1562 765.664 36.5052 765.148 36.7656C764.638 37.026 764.096 37.1562 763.523 37.1562C762.372 37.1562 761.456 36.7734 760.773 36.0078C760.096 35.237 759.758 34.1849 759.758 32.8516V32.6094C759.758 31.7865 759.909 31.0547 760.211 30.4141C760.513 29.7734 760.945 29.276 761.508 28.9219C762.076 28.5677 762.745 28.3906 763.516 28.3906C764.464 28.3906 765.25 28.6745 765.875 29.2422C766.505 29.8099 766.841 30.5469 766.883 31.4531H765.516C765.474 30.9062 765.266 30.4583 764.891 30.1094C764.521 29.7552 764.062 29.5781 763.516 29.5781C762.781 29.5781 762.211 29.8438 761.805 30.375C761.404 30.901 761.203 31.6641 761.203 32.6641V32.9375C761.203 33.9115 761.404 34.6615 761.805 35.1875C762.206 35.7135 762.779 35.9766 763.523 35.9766ZM770.469 26.5V28.5469H772.047V29.6641H770.469V34.9062C770.469 35.2448 770.539 35.5 770.68 35.6719C770.82 35.8385 771.06 35.9219 771.398 35.9219C771.565 35.9219 771.794 35.8906 772.086 35.8281V37C771.706 37.1042 771.336 37.1562 770.977 37.1562C770.331 37.1562 769.844 36.9609 769.516 36.5703C769.188 36.1797 769.023 35.625 769.023 34.9062V29.6641H767.484V28.5469H769.023V26.5H770.469ZM730.461 54.0078L732.086 47.5469H733.531L731.07 56H729.898L727.844 49.5938L725.844 56H724.672L722.219 47.5469H723.656L725.32 53.875L727.289 47.5469H728.453L730.461 54.0078ZM740.227 56C740.143 55.8333 740.076 55.5365 740.023 55.1094C739.352 55.8073 738.549 56.1562 737.617 56.1562C736.784 56.1562 736.099 55.9219 735.562 55.4531C735.031 54.9792 734.766 54.3802 734.766 53.6562C734.766 52.776 735.099 52.0938 735.766 51.6094C736.438 51.1198 737.38 50.875 738.594 50.875H740V50.2109C740 49.7057 739.849 49.3047 739.547 49.0078C739.245 48.7057 738.799 48.5547 738.211 48.5547C737.695 48.5547 737.263 48.6849 736.914 48.9453C736.565 49.2057 736.391 49.5208 736.391 49.8906H734.938C734.938 49.4688 735.086 49.0625 735.383 48.6719C735.685 48.276 736.091 47.9635 736.602 47.7344C737.117 47.5052 737.682 47.3906 738.297 47.3906C739.271 47.3906 740.034 47.6354 740.586 48.125C741.138 48.6094 741.424 49.2786 741.445 50.1328V54.0234C741.445 54.7995 741.544 55.4167 741.742 55.875V56H740.227ZM737.828 54.8984C738.281 54.8984 738.711 54.7812 739.117 54.5469C739.523 54.3125 739.818 54.0078 740 53.6328V51.8984H738.867C737.096 51.8984 736.211 52.4167 736.211 53.4531C736.211 53.9062 736.362 54.2604 736.664 54.5156C736.966 54.7708 737.354 54.8984 737.828 54.8984ZM745.281 56H743.836V44H745.281V56ZM749.172 56H747.727V44H749.172V56ZM755 56.1562C753.854 56.1562 752.922 55.7812 752.203 55.0312C751.484 54.276 751.125 53.2682 751.125 52.0078V51.7422C751.125 50.9036 751.284 50.1562 751.602 49.5C751.924 48.8385 752.372 48.3229 752.945 47.9531C753.523 47.5781 754.148 47.3906 754.82 47.3906C755.919 47.3906 756.773 47.7526 757.383 48.4766C757.992 49.2005 758.297 50.237 758.297 51.5859V52.1875H752.57C752.591 53.0208 752.833 53.6953 753.297 54.2109C753.766 54.7214 754.359 54.9766 755.078 54.9766C755.589 54.9766 756.021 54.8724 756.375 54.6641C756.729 54.4557 757.039 54.1797 757.305 53.8359L758.188 54.5234C757.479 55.612 756.417 56.1562 755 56.1562ZM754.82 48.5781C754.237 48.5781 753.747 48.7917 753.352 49.2188C752.956 49.6406 752.711 50.2344 752.617 51H756.852V50.8906C756.81 50.1562 756.612 49.5885 756.258 49.1875C755.904 48.7812 755.424 48.5781 754.82 48.5781ZM761.938 45.5V47.5469H763.516V48.6641H761.938V53.9062C761.938 54.2448 762.008 54.5 762.148 54.6719C762.289 54.8385 762.529 54.9219 762.867 54.9219C763.034 54.9219 763.263 54.8906 763.555 54.8281V56C763.174 56.1042 762.805 56.1562 762.445 56.1562C761.799 56.1562 761.312 55.9609 760.984 55.5703C760.656 55.1797 760.492 54.625 760.492 53.9062V48.6641H758.953V47.5469H760.492V45.5H761.938Z" fill="black"/>
<path d="M689 1V0H688V1H689ZM797 1H798V0H797V1ZM797 81V82H798V81H797ZM689 81H688V82H689V81ZM689 2H797V0H689V2ZM796 1V81H798V1H796ZM797 80H689V82H797V80ZM690 81V1H688V81H690Z" fill="black"/>
<rect x="1" y="1" width="137" height="80" fill="white"/>
<path d="M27.7969 34.0312H23.0312L21.9609 37H20.4141L24.7578 25.625H26.0703L30.4219 37H28.8828L27.7969 34.0312ZM23.4844 32.7969H27.3516L25.4141 27.4766L23.4844 32.7969ZM31.375 32.7031C31.375 31.4062 31.6823 30.3646 32.2969 29.5781C32.9115 28.7865 33.7161 28.3906 34.7109 28.3906C35.7005 28.3906 36.4844 28.7292 37.0625 29.4062V25H38.5078V37H37.1797L37.1094 36.0938C36.5312 36.8021 35.7266 37.1562 34.6953 37.1562C33.7161 37.1562 32.9167 36.7552 32.2969 35.9531C31.6823 35.151 31.375 34.1042 31.375 32.8125V32.7031ZM32.8203 32.8672C32.8203 33.8255 33.0182 34.5755 33.4141 35.1172C33.8099 35.6589 34.3568 35.9297 35.0547 35.9297C35.9714 35.9297 36.6406 35.5182 37.0625 34.6953V30.8125C36.6302 30.0156 35.9661 29.6172 35.0703 29.6172C34.362 29.6172 33.8099 29.8906 33.4141 30.4375C33.0182 30.9844 32.8203 31.7943 32.8203 32.8672ZM40.4062 32.7031C40.4062 31.4062 40.7135 30.3646 41.3281 29.5781C41.9427 28.7865 42.7474 28.3906 43.7422 28.3906C44.7318 28.3906 45.5156 28.7292 46.0938 29.4062V25H47.5391V37H46.2109L46.1406 36.0938C45.5625 36.8021 44.7578 37.1562 43.7266 37.1562C42.7474 37.1562 41.9479 36.7552 41.3281 35.9531C40.7135 35.151 40.4062 34.1042 40.4062 32.8125V32.7031ZM41.8516 32.8672C41.8516 33.8255 42.0495 34.5755 42.4453 35.1172C42.8411 35.6589 43.388 35.9297 44.0859 35.9297C45.0026 35.9297 45.6719 35.5182 46.0938 34.6953V30.8125C45.6615 30.0156 44.9974 29.6172 44.1016 29.6172C43.3932 29.6172 42.8411 29.8906 42.4453 30.4375C42.0495 30.9844 41.8516 31.7943 41.8516 32.8672ZM61.5312 26.8594H57.875V37H56.3828V26.8594H52.7344V25.625H61.5312V26.8594ZM65.7188 37.1562C64.5729 37.1562 63.6406 36.7812 62.9219 36.0312C62.2031 35.276 61.8438 34.2682 61.8438 33.0078V32.7422C61.8438 31.9036 62.0026 31.1562 62.3203 30.5C62.6432 29.8385 63.0911 29.3229 63.6641 28.9531C64.2422 28.5781 64.8672 28.3906 65.5391 28.3906C66.638 28.3906 67.4922 28.7526 68.1016 29.4766C68.7109 30.2005 69.0156 31.237 69.0156 32.5859V33.1875H63.2891C63.3099 34.0208 63.5521 34.6953 64.0156 35.2109C64.4844 35.7214 65.0781 35.9766 65.7969 35.9766C66.3073 35.9766 66.7396 35.8724 67.0938 35.6641C67.4479 35.4557 67.7578 35.1797 68.0234 34.8359L68.9062 35.5234C68.1979 36.612 67.1354 37.1562 65.7188 37.1562ZM65.5391 29.5781C64.9557 29.5781 64.4661 29.7917 64.0703 30.2188C63.6745 30.6406 63.4297 31.2344 63.3359 32H67.5703V31.8906C67.5286 31.1562 67.3307 30.5885 66.9766 30.1875C66.6224 29.7812 66.1432 29.5781 65.5391 29.5781ZM72.2656 37H70.8203V25H72.2656V37ZM78.0938 37.1562C76.9479 37.1562 76.0156 36.7812 75.2969 36.0312C74.5781 35.276 74.2188 34.2682 74.2188 33.0078V32.7422C74.2188 31.9036 74.3776 31.1562 74.6953 30.5C75.0182 29.8385 75.4661 29.3229 76.0391 28.9531C76.6172 28.5781 77.2422 28.3906 77.9141 28.3906C79.013 28.3906 79.8672 28.7526 80.4766 29.4766C81.0859 30.2005 81.3906 31.237 81.3906 32.5859V33.1875H75.6641C75.6849 34.0208 75.9271 34.6953 76.3906 35.2109C76.8594 35.7214 77.4531 35.9766 78.1719 35.9766C78.6823 35.9766 79.1146 35.8724 79.4688 35.6641C79.8229 35.4557 80.1328 35.1797 80.3984 34.8359L81.2812 35.5234C80.5729 36.612 79.5104 37.1562 78.0938 37.1562ZM77.9141 29.5781C77.3307 29.5781 76.8411 29.7917 76.4453 30.2188C76.0495 30.6406 75.8047 31.2344 75.7109 32H79.9453V31.8906C79.9036 31.1562 79.7057 30.5885 79.3516 30.1875C78.9974 29.7812 78.5182 29.5781 77.9141 29.5781ZM82.7266 32.7031C82.7266 31.3854 83.0312 30.3385 83.6406 29.5625C84.25 28.7812 85.0573 28.3906 86.0625 28.3906C87.0938 28.3906 87.8984 28.7552 88.4766 29.4844L88.5469 28.5469H89.8672V36.7969C89.8672 37.8906 89.5417 38.7526 88.8906 39.3828C88.2448 40.013 87.375 40.3281 86.2812 40.3281C85.6719 40.3281 85.0755 40.1979 84.4922 39.9375C83.9089 39.6771 83.4635 39.3203 83.1562 38.8672L83.9062 38C84.526 38.7656 85.2839 39.1484 86.1797 39.1484C86.8828 39.1484 87.4297 38.9505 87.8203 38.5547C88.2161 38.1589 88.4141 37.6016 88.4141 36.8828V36.1562C87.8359 36.8229 87.0469 37.1562 86.0469 37.1562C85.0573 37.1562 84.2552 36.7578 83.6406 35.9609C83.0312 35.1641 82.7266 34.0781 82.7266 32.7031ZM84.1797 32.8672C84.1797 33.8203 84.375 34.5703 84.7656 35.1172C85.1562 35.6589 85.7031 35.9297 86.4062 35.9297C87.3177 35.9297 87.987 35.5156 88.4141 34.6875V30.8281C87.9714 30.0208 87.3073 29.6172 86.4219 29.6172C85.7188 29.6172 85.1693 29.8906 84.7734 30.4375C84.3776 30.9844 84.1797 31.7943 84.1797 32.8672ZM96.1406 29.8438C95.9219 29.8073 95.6849 29.7891 95.4297 29.7891C94.4818 29.7891 93.8385 30.1927 93.5 31V37H92.0547V28.5469H93.4609L93.4844 29.5234C93.9583 28.7682 94.6302 28.3906 95.5 28.3906C95.7812 28.3906 95.9948 28.4271 96.1406 28.5V29.8438ZM102.383 37C102.299 36.8333 102.232 36.5365 102.18 36.1094C101.508 36.8073 100.706 37.1562 99.7734 37.1562C98.9401 37.1562 98.2552 36.9219 97.7188 36.4531C97.1875 35.9792 96.9219 35.3802 96.9219 34.6562C96.9219 33.776 97.2552 33.0938 97.9219 32.6094C98.5938 32.1198 99.5365 31.875 100.75 31.875H102.156V31.2109C102.156 30.7057 102.005 30.3047 101.703 30.0078C101.401 29.7057 100.956 29.5547 100.367 29.5547C99.8516 29.5547 99.4193 29.6849 99.0703 29.9453C98.7214 30.2057 98.5469 30.5208 98.5469 30.8906H97.0938C97.0938 30.4688 97.2422 30.0625 97.5391 29.6719C97.8411 29.276 98.2474 28.9635 98.7578 28.7344C99.2734 28.5052 99.8385 28.3906 100.453 28.3906C101.427 28.3906 102.19 28.6354 102.742 29.125C103.294 29.6094 103.581 30.2786 103.602 31.1328V35.0234C103.602 35.7995 103.701 36.4167 103.898 36.875V37H102.383ZM99.9844 35.8984C100.438 35.8984 100.867 35.7812 101.273 35.5469C101.68 35.3125 101.974 35.0078 102.156 34.6328V32.8984H101.023C99.2526 32.8984 98.3672 33.4167 98.3672 34.4531C98.3672 34.9062 98.5182 35.2604 98.8203 35.5156C99.1224 35.7708 99.5104 35.8984 99.9844 35.8984ZM107.227 28.5469L107.266 29.4844C107.885 28.7552 108.721 28.3906 109.773 28.3906C110.956 28.3906 111.76 28.8438 112.188 29.75C112.469 29.3438 112.833 29.0156 113.281 28.7656C113.734 28.5156 114.268 28.3906 114.883 28.3906C116.737 28.3906 117.68 29.3724 117.711 31.3359V37H116.266V31.4219C116.266 30.8177 116.128 30.3672 115.852 30.0703C115.576 29.7682 115.112 29.6172 114.461 29.6172C113.924 29.6172 113.479 29.7786 113.125 30.1016C112.771 30.4193 112.565 30.849 112.508 31.3906V37H111.055V31.4609C111.055 30.2318 110.453 29.6172 109.25 29.6172C108.302 29.6172 107.654 30.0208 107.305 30.8281V37H105.859V28.5469H107.227ZM34.4141 51.8672C34.4141 53.1589 34.1172 54.1979 33.5234 54.9844C32.9297 55.7656 32.1328 56.1562 31.1328 56.1562C30.0651 56.1562 29.2396 55.7786 28.6562 55.0234L28.5859 56H27.2578V44H28.7031V48.4766C29.2865 47.7526 30.0911 47.3906 31.1172 47.3906C32.1432 47.3906 32.9479 47.7786 33.5312 48.5547C34.1198 49.3307 34.4141 50.3932 34.4141 51.7422V51.8672ZM32.9688 51.7031C32.9688 50.7188 32.7786 49.9583 32.3984 49.4219C32.0182 48.8854 31.4714 48.6172 30.7578 48.6172C29.8047 48.6172 29.1198 49.0599 28.7031 49.9453V53.6016C29.1458 54.487 29.8359 54.9297 30.7734 54.9297C31.4661 54.9297 32.0052 54.6615 32.3906 54.125C32.776 53.5885 32.9688 52.7812 32.9688 51.7031ZM35.8594 51.6953C35.8594 50.8672 36.0208 50.1224 36.3438 49.4609C36.6719 48.7995 37.125 48.2891 37.7031 47.9297C38.2865 47.5703 38.9505 47.3906 39.6953 47.3906C40.8464 47.3906 41.776 47.7891 42.4844 48.5859C43.1979 49.3828 43.5547 50.4427 43.5547 51.7656V51.8672C43.5547 52.6901 43.3958 53.4297 43.0781 54.0859C42.7656 54.737 42.3151 55.2448 41.7266 55.6094C41.1432 55.974 40.4714 56.1562 39.7109 56.1562C38.5651 56.1562 37.6354 55.7578 36.9219 54.9609C36.2135 54.1641 35.8594 53.1094 35.8594 51.7969V51.6953ZM37.3125 51.8672C37.3125 52.8047 37.5286 53.5573 37.9609 54.125C38.3984 54.6927 38.9818 54.9766 39.7109 54.9766C40.4453 54.9766 41.0286 54.6901 41.4609 54.1172C41.8932 53.5391 42.1094 52.7318 42.1094 51.6953C42.1094 50.7682 41.888 50.0182 41.4453 49.4453C41.0078 48.8672 40.4245 48.5781 39.6953 48.5781C38.9818 48.5781 38.4062 48.862 37.9688 49.4297C37.5312 49.9974 37.3125 50.8099 37.3125 51.8672ZM47.3281 45.5V47.5469H48.9062V48.6641H47.3281V53.9062C47.3281 54.2448 47.3984 54.5 47.5391 54.6719C47.6797 54.8385 47.9193 54.9219 48.2578 54.9219C48.4245 54.9219 48.6536 54.8906 48.9453 54.8281V56C48.5651 56.1042 48.1953 56.1562 47.8359 56.1562C47.1901 56.1562 46.7031 55.9609 46.375 55.5703C46.0469 55.1797 45.8828 54.625 45.8828 53.9062V48.6641H44.3438V47.5469H45.8828V45.5H47.3281ZM56.5312 45.5V47.5469H58.1094V48.6641H56.5312V53.9062C56.5312 54.2448 56.6016 54.5 56.7422 54.6719C56.8828 54.8385 57.1224 54.9219 57.4609 54.9219C57.6276 54.9219 57.8568 54.8906 58.1484 54.8281V56C57.7682 56.1042 57.3984 56.1562 57.0391 56.1562C56.3932 56.1562 55.9062 55.9609 55.5781 55.5703C55.25 55.1797 55.0859 54.625 55.0859 53.9062V48.6641H53.5469V47.5469H55.0859V45.5H56.5312ZM59.2656 51.6953C59.2656 50.8672 59.4271 50.1224 59.75 49.4609C60.0781 48.7995 60.5312 48.2891 61.1094 47.9297C61.6927 47.5703 62.3568 47.3906 63.1016 47.3906C64.2526 47.3906 65.1823 47.7891 65.8906 48.5859C66.6042 49.3828 66.9609 50.4427 66.9609 51.7656V51.8672C66.9609 52.6901 66.8021 53.4297 66.4844 54.0859C66.1719 54.737 65.7214 55.2448 65.1328 55.6094C64.5495 55.974 63.8776 56.1562 63.1172 56.1562C61.9714 56.1562 61.0417 55.7578 60.3281 54.9609C59.6198 54.1641 59.2656 53.1094 59.2656 51.7969V51.6953ZM60.7188 51.8672C60.7188 52.8047 60.9349 53.5573 61.3672 54.125C61.8047 54.6927 62.388 54.9766 63.1172 54.9766C63.8516 54.9766 64.4349 54.6901 64.8672 54.1172C65.2995 53.5391 65.5156 52.7318 65.5156 51.6953C65.5156 50.7682 65.2943 50.0182 64.8516 49.4453C64.4141 48.8672 63.8307 48.5781 63.1016 48.5781C62.388 48.5781 61.8125 48.862 61.375 49.4297C60.9375 49.9974 60.7188 50.8099 60.7188 51.8672ZM72.3984 51.7031C72.3984 50.3854 72.7031 49.3385 73.3125 48.5625C73.9219 47.7812 74.7292 47.3906 75.7344 47.3906C76.7656 47.3906 77.5703 47.7552 78.1484 48.4844L78.2188 47.5469H79.5391V55.7969C79.5391 56.8906 79.2135 57.7526 78.5625 58.3828C77.9167 59.013 77.0469 59.3281 75.9531 59.3281C75.3438 59.3281 74.7474 59.1979 74.1641 58.9375C73.5807 58.6771 73.1354 58.3203 72.8281 57.8672L73.5781 57C74.1979 57.7656 74.9557 58.1484 75.8516 58.1484C76.5547 58.1484 77.1016 57.9505 77.4922 57.5547C77.888 57.1589 78.0859 56.6016 78.0859 55.8828V55.1562C77.5078 55.8229 76.7188 56.1562 75.7188 56.1562C74.7292 56.1562 73.9271 55.7578 73.3125 54.9609C72.7031 54.1641 72.3984 53.0781 72.3984 51.7031ZM73.8516 51.8672C73.8516 52.8203 74.0469 53.5703 74.4375 54.1172C74.8281 54.6589 75.375 54.9297 76.0781 54.9297C76.9896 54.9297 77.6589 54.5156 78.0859 53.6875V49.8281C77.6432 49.0208 76.9792 48.6172 76.0938 48.6172C75.3906 48.6172 74.8411 48.8906 74.4453 49.4375C74.0495 49.9844 73.8516 50.7943 73.8516 51.8672ZM85.8125 48.8438C85.5938 48.8073 85.3568 48.7891 85.1016 48.7891C84.1536 48.7891 83.5104 49.1927 83.1719 50V56H81.7266V47.5469H83.1328L83.1562 48.5234C83.6302 47.7682 84.3021 47.3906 85.1719 47.3906C85.4531 47.3906 85.6667 47.4271 85.8125 47.5V48.8438ZM86.6094 51.6953C86.6094 50.8672 86.7708 50.1224 87.0938 49.4609C87.4219 48.7995 87.875 48.2891 88.4531 47.9297C89.0365 47.5703 89.7005 47.3906 90.4453 47.3906C91.5964 47.3906 92.526 47.7891 93.2344 48.5859C93.9479 49.3828 94.3047 50.4427 94.3047 51.7656V51.8672C94.3047 52.6901 94.1458 53.4297 93.8281 54.0859C93.5156 54.737 93.0651 55.2448 92.4766 55.6094C91.8932 55.974 91.2214 56.1562 90.4609 56.1562C89.3151 56.1562 88.3854 55.7578 87.6719 54.9609C86.9635 54.1641 86.6094 53.1094 86.6094 51.7969V51.6953ZM88.0625 51.8672C88.0625 52.8047 88.2786 53.5573 88.7109 54.125C89.1484 54.6927 89.7318 54.9766 90.4609 54.9766C91.1953 54.9766 91.7786 54.6901 92.2109 54.1172C92.6432 53.5391 92.8594 52.7318 92.8594 51.6953C92.8594 50.7682 92.638 50.0182 92.1953 49.4453C91.7578 48.8672 91.1745 48.5781 90.4453 48.5781C89.7318 48.5781 89.1562 48.862 88.7188 49.4297C88.2812 49.9974 88.0625 50.8099 88.0625 51.8672ZM101.336 55.1641C100.773 55.8255 99.9479 56.1562 98.8594 56.1562C97.9583 56.1562 97.2708 55.8958 96.7969 55.375C96.3281 54.849 96.0911 54.0729 96.0859 53.0469V47.5469H97.5312V53.0078C97.5312 54.2891 98.0521 54.9297 99.0938 54.9297C100.198 54.9297 100.932 54.5182 101.297 53.6953V47.5469H102.742V56H101.367L101.336 55.1641ZM112.086 51.8672C112.086 53.1536 111.792 54.1901 111.203 54.9766C110.615 55.763 109.818 56.1562 108.812 56.1562C107.786 56.1562 106.979 55.8307 106.391 55.1797V59.25H104.945V47.5469H106.266L106.336 48.4844C106.924 47.7552 107.742 47.3906 108.789 47.3906C109.805 47.3906 110.607 47.7734 111.195 48.5391C111.789 49.3047 112.086 50.3698 112.086 51.7344V51.8672ZM110.641 51.7031C110.641 50.75 110.438 49.9974 110.031 49.4453C109.625 48.8932 109.068 48.6172 108.359 48.6172C107.484 48.6172 106.828 49.0052 106.391 49.7812V53.8203C106.823 54.5911 107.484 54.9766 108.375 54.9766C109.068 54.9766 109.617 54.7031 110.023 54.1562C110.435 53.6042 110.641 52.7865 110.641 51.7031Z" fill="black"/>
<path d="M1 1V0H0V1H1ZM138 1H139V0H138V1ZM138 81V82H139V81H138ZM1 81H0V82H1V81ZM1 2H138V0H1V2ZM137 1V81H139V1H137ZM138 80H1V82H138V80ZM2 81V1H0V81H2Z" fill="black"/>
<rect x="238" y="1" width="133" height="80" fill="white"/>
<path d="M282.578 23.3984H279.906V28H278.398V16.625H282.164C283.445 16.625 284.43 16.9167 285.117 17.5C285.81 18.0833 286.156 18.9323 286.156 20.0469C286.156 20.7552 285.964 21.3724 285.578 21.8984C285.198 22.4245 284.667 22.8177 283.984 23.0781L286.656 27.9062V28H285.047L282.578 23.3984ZM279.906 22.1719H282.211C282.956 22.1719 283.547 21.9792 283.984 21.5938C284.427 21.2083 284.648 20.6927 284.648 20.0469C284.648 19.3438 284.438 18.8047 284.016 18.4297C283.599 18.0547 282.995 17.8646 282.203 17.8594H279.906V22.1719ZM293.258 27.1641C292.695 27.8255 291.87 28.1562 290.781 28.1562C289.88 28.1562 289.193 27.8958 288.719 27.375C288.25 26.849 288.013 26.0729 288.008 25.0469V19.5469H289.453V25.0078C289.453 26.2891 289.974 26.9297 291.016 26.9297C292.12 26.9297 292.854 26.5182 293.219 25.6953V19.5469H294.664V28H293.289L293.258 27.1641ZM298.234 19.5469L298.281 20.6094C298.927 19.7969 299.771 19.3906 300.812 19.3906C302.599 19.3906 303.5 20.3984 303.516 22.4141V28H302.07V22.4062C302.065 21.7969 301.924 21.3464 301.648 21.0547C301.378 20.763 300.953 20.6172 300.375 20.6172C299.906 20.6172 299.495 20.7422 299.141 20.9922C298.786 21.2422 298.51 21.5703 298.312 21.9766V28H296.867V19.5469H298.234ZM316.82 23.8672C316.82 25.1589 316.523 26.1979 315.93 26.9844C315.336 27.7656 314.539 28.1562 313.539 28.1562C312.471 28.1562 311.646 27.7786 311.062 27.0234L310.992 28H309.664V16H311.109V20.4766C311.693 19.7526 312.497 19.3906 313.523 19.3906C314.549 19.3906 315.354 19.7786 315.938 20.5547C316.526 21.3307 316.82 22.3932 316.82 23.7422V23.8672ZM315.375 23.7031C315.375 22.7188 315.185 21.9583 314.805 21.4219C314.424 20.8854 313.878 20.6172 313.164 20.6172C312.211 20.6172 311.526 21.0599 311.109 21.9453V25.6016C311.552 26.487 312.242 26.9297 313.18 26.9297C313.872 26.9297 314.411 26.6615 314.797 26.125C315.182 25.5885 315.375 24.7812 315.375 23.7031ZM318.266 23.6953C318.266 22.8672 318.427 22.1224 318.75 21.4609C319.078 20.7995 319.531 20.2891 320.109 19.9297C320.693 19.5703 321.357 19.3906 322.102 19.3906C323.253 19.3906 324.182 19.7891 324.891 20.5859C325.604 21.3828 325.961 22.4427 325.961 23.7656V23.8672C325.961 24.6901 325.802 25.4297 325.484 26.0859C325.172 26.737 324.721 27.2448 324.133 27.6094C323.549 27.974 322.878 28.1562 322.117 28.1562C320.971 28.1562 320.042 27.7578 319.328 26.9609C318.62 26.1641 318.266 25.1094 318.266 23.7969V23.6953ZM319.719 23.8672C319.719 24.8047 319.935 25.5573 320.367 26.125C320.805 26.6927 321.388 26.9766 322.117 26.9766C322.852 26.9766 323.435 26.6901 323.867 26.1172C324.299 25.5391 324.516 24.7318 324.516 23.6953C324.516 22.7682 324.294 22.0182 323.852 21.4453C323.414 20.8672 322.831 20.5781 322.102 20.5781C321.388 20.5781 320.812 20.862 320.375 21.4297C319.938 21.9974 319.719 22.8099 319.719 23.8672ZM329.734 17.5V19.5469H331.312V20.6641H329.734V25.9062C329.734 26.2448 329.805 26.5 329.945 26.6719C330.086 26.8385 330.326 26.9219 330.664 26.9219C330.831 26.9219 331.06 26.8906 331.352 26.8281V28C330.971 28.1042 330.602 28.1562 330.242 28.1562C329.596 28.1562 329.109 27.9609 328.781 27.5703C328.453 27.1797 328.289 26.625 328.289 25.9062V20.6641H326.75V19.5469H328.289V17.5H329.734ZM263.836 45.9766C264.352 45.9766 264.802 45.8203 265.188 45.5078C265.573 45.1953 265.786 44.8047 265.828 44.3359H267.195C267.169 44.8203 267.003 45.2812 266.695 45.7188C266.388 46.1562 265.977 46.5052 265.461 46.7656C264.951 47.026 264.409 47.1562 263.836 47.1562C262.685 47.1562 261.768 46.7734 261.086 46.0078C260.409 45.237 260.07 44.1849 260.07 42.8516V42.6094C260.07 41.7865 260.221 41.0547 260.523 40.4141C260.826 39.7734 261.258 39.276 261.82 38.9219C262.388 38.5677 263.057 38.3906 263.828 38.3906C264.776 38.3906 265.562 38.6745 266.188 39.2422C266.818 39.8099 267.154 40.5469 267.195 41.4531H265.828C265.786 40.9062 265.578 40.4583 265.203 40.1094C264.833 39.7552 264.375 39.5781 263.828 39.5781C263.094 39.5781 262.523 39.8438 262.117 40.375C261.716 40.901 261.516 41.6641 261.516 42.6641V42.9375C261.516 43.9115 261.716 44.6615 262.117 45.1875C262.518 45.7135 263.091 45.9766 263.836 45.9766ZM268.438 42.6953C268.438 41.8672 268.599 41.1224 268.922 40.4609C269.25 39.7995 269.703 39.2891 270.281 38.9297C270.865 38.5703 271.529 38.3906 272.273 38.3906C273.424 38.3906 274.354 38.7891 275.062 39.5859C275.776 40.3828 276.133 41.4427 276.133 42.7656V42.8672C276.133 43.6901 275.974 44.4297 275.656 45.0859C275.344 45.737 274.893 46.2448 274.305 46.6094C273.721 46.974 273.049 47.1562 272.289 47.1562C271.143 47.1562 270.214 46.7578 269.5 45.9609C268.792 45.1641 268.438 44.1094 268.438 42.7969V42.6953ZM269.891 42.8672C269.891 43.8047 270.107 44.5573 270.539 45.125C270.977 45.6927 271.56 45.9766 272.289 45.9766C273.023 45.9766 273.607 45.6901 274.039 45.1172C274.471 44.5391 274.688 43.7318 274.688 42.6953C274.688 41.7682 274.466 41.0182 274.023 40.4453C273.586 39.8672 273.003 39.5781 272.273 39.5781C271.56 39.5781 270.984 39.862 270.547 40.4297C270.109 40.9974 269.891 41.8099 269.891 42.8672ZM279.305 38.5469L279.344 39.4844C279.964 38.7552 280.799 38.3906 281.852 38.3906C283.034 38.3906 283.839 38.8438 284.266 39.75C284.547 39.3438 284.911 39.0156 285.359 38.7656C285.812 38.5156 286.346 38.3906 286.961 38.3906C288.815 38.3906 289.758 39.3724 289.789 41.3359V47H288.344V41.4219C288.344 40.8177 288.206 40.3672 287.93 40.0703C287.654 39.7682 287.19 39.6172 286.539 39.6172C286.003 39.6172 285.557 39.7786 285.203 40.1016C284.849 40.4193 284.643 40.849 284.586 41.3906V47H283.133V41.4609C283.133 40.2318 282.531 39.6172 281.328 39.6172C280.38 39.6172 279.732 40.0208 279.383 40.8281V47H277.938V38.5469H279.305ZM293.336 38.5469L293.375 39.4844C293.995 38.7552 294.831 38.3906 295.883 38.3906C297.065 38.3906 297.87 38.8438 298.297 39.75C298.578 39.3438 298.943 39.0156 299.391 38.7656C299.844 38.5156 300.378 38.3906 300.992 38.3906C302.846 38.3906 303.789 39.3724 303.82 41.3359V47H302.375V41.4219C302.375 40.8177 302.237 40.3672 301.961 40.0703C301.685 39.7682 301.221 39.6172 300.57 39.6172C300.034 39.6172 299.589 39.7786 299.234 40.1016C298.88 40.4193 298.674 40.849 298.617 41.3906V47H297.164V41.4609C297.164 40.2318 296.562 39.6172 295.359 39.6172C294.411 39.6172 293.763 40.0208 293.414 40.8281V47H291.969V38.5469H293.336ZM311.227 47C311.143 46.8333 311.076 46.5365 311.023 46.1094C310.352 46.8073 309.549 47.1562 308.617 47.1562C307.784 47.1562 307.099 46.9219 306.562 46.4531C306.031 45.9792 305.766 45.3802 305.766 44.6562C305.766 43.776 306.099 43.0938 306.766 42.6094C307.438 42.1198 308.38 41.875 309.594 41.875H311V41.2109C311 40.7057 310.849 40.3047 310.547 40.0078C310.245 39.7057 309.799 39.5547 309.211 39.5547C308.695 39.5547 308.263 39.6849 307.914 39.9453C307.565 40.2057 307.391 40.5208 307.391 40.8906H305.938C305.938 40.4688 306.086 40.0625 306.383 39.6719C306.685 39.276 307.091 38.9635 307.602 38.7344C308.117 38.5052 308.682 38.3906 309.297 38.3906C310.271 38.3906 311.034 38.6354 311.586 39.125C312.138 39.6094 312.424 40.2786 312.445 41.1328V45.0234C312.445 45.7995 312.544 46.4167 312.742 46.875V47H311.227ZM308.828 45.8984C309.281 45.8984 309.711 45.7812 310.117 45.5469C310.523 45.3125 310.818 45.0078 311 44.6328V42.8984H309.867C308.096 42.8984 307.211 43.4167 307.211 44.4531C307.211 44.9062 307.362 45.2604 307.664 45.5156C307.966 45.7708 308.354 45.8984 308.828 45.8984ZM316.078 38.5469L316.125 39.6094C316.771 38.7969 317.615 38.3906 318.656 38.3906C320.443 38.3906 321.344 39.3984 321.359 41.4141V47H319.914V41.4062C319.909 40.7969 319.768 40.3464 319.492 40.0547C319.221 39.763 318.797 39.6172 318.219 39.6172C317.75 39.6172 317.339 39.7422 316.984 39.9922C316.63 40.2422 316.354 40.5703 316.156 40.9766V47H314.711V38.5469H316.078ZM323.188 42.7031C323.188 41.4062 323.495 40.3646 324.109 39.5781C324.724 38.7865 325.529 38.3906 326.523 38.3906C327.513 38.3906 328.297 38.7292 328.875 39.4062V35H330.32V47H328.992L328.922 46.0938C328.344 46.8021 327.539 47.1562 326.508 47.1562C325.529 47.1562 324.729 46.7552 324.109 45.9531C323.495 45.151 323.188 44.1042 323.188 42.8125V42.7031ZM324.633 42.8672C324.633 43.8255 324.831 44.5755 325.227 45.1172C325.622 45.6589 326.169 45.9297 326.867 45.9297C327.784 45.9297 328.453 45.5182 328.875 44.6953V40.8125C328.443 40.0156 327.779 39.6172 326.883 39.6172C326.174 39.6172 325.622 39.8906 325.227 40.4375C324.831 40.9844 324.633 41.7943 324.633 42.8672ZM338.5 36.5V38.5469H340.078V39.6641H338.5V44.9062C338.5 45.2448 338.57 45.5 338.711 45.6719C338.852 45.8385 339.091 45.9219 339.43 45.9219C339.596 45.9219 339.826 45.8906 340.117 45.8281V47C339.737 47.1042 339.367 47.1562 339.008 47.1562C338.362 47.1562 337.875 46.9609 337.547 46.5703C337.219 46.1797 337.055 45.625 337.055 44.9062V39.6641H335.516V38.5469H337.055V36.5H338.5ZM341.234 42.6953C341.234 41.8672 341.396 41.1224 341.719 40.4609C342.047 39.7995 342.5 39.2891 343.078 38.9297C343.661 38.5703 344.326 38.3906 345.07 38.3906C346.221 38.3906 347.151 38.7891 347.859 39.5859C348.573 40.3828 348.93 41.4427 348.93 42.7656V42.8672C348.93 43.6901 348.771 44.4297 348.453 45.0859C348.141 45.737 347.69 46.2448 347.102 46.6094C346.518 46.974 345.846 47.1562 345.086 47.1562C343.94 47.1562 343.01 46.7578 342.297 45.9609C341.589 45.1641 341.234 44.1094 341.234 42.7969V42.6953ZM342.688 42.8672C342.688 43.8047 342.904 44.5573 343.336 45.125C343.773 45.6927 344.357 45.9766 345.086 45.9766C345.82 45.9766 346.404 45.6901 346.836 45.1172C347.268 44.5391 347.484 43.7318 347.484 42.6953C347.484 41.7682 347.263 41.0182 346.82 40.4453C346.383 39.8672 345.799 39.5781 345.07 39.5781C344.357 39.5781 343.781 39.862 343.344 40.4297C342.906 40.9974 342.688 41.8099 342.688 42.8672ZM255.578 61.7031C255.578 60.3854 255.883 59.3385 256.492 58.5625C257.102 57.7812 257.909 57.3906 258.914 57.3906C259.945 57.3906 260.75 57.7552 261.328 58.4844L261.398 57.5469H262.719V65.7969C262.719 66.8906 262.393 67.7526 261.742 68.3828C261.096 69.013 260.227 69.3281 259.133 69.3281C258.523 69.3281 257.927 69.1979 257.344 68.9375C256.76 68.6771 256.315 68.3203 256.008 67.8672L256.758 67C257.378 67.7656 258.135 68.1484 259.031 68.1484C259.734 68.1484 260.281 67.9505 260.672 67.5547C261.068 67.1589 261.266 66.6016 261.266 65.8828V65.1562C260.688 65.8229 259.898 66.1562 258.898 66.1562C257.909 66.1562 257.107 65.7578 256.492 64.9609C255.883 64.1641 255.578 63.0781 255.578 61.7031ZM257.031 61.8672C257.031 62.8203 257.227 63.5703 257.617 64.1172C258.008 64.6589 258.555 64.9297 259.258 64.9297C260.169 64.9297 260.839 64.5156 261.266 63.6875V59.8281C260.823 59.0208 260.159 58.6172 259.273 58.6172C258.57 58.6172 258.021 58.8906 257.625 59.4375C257.229 59.9844 257.031 60.7943 257.031 61.8672ZM268.414 66.1562C267.268 66.1562 266.336 65.7812 265.617 65.0312C264.898 64.276 264.539 63.2682 264.539 62.0078V61.7422C264.539 60.9036 264.698 60.1562 265.016 59.5C265.339 58.8385 265.786 58.3229 266.359 57.9531C266.938 57.5781 267.562 57.3906 268.234 57.3906C269.333 57.3906 270.188 57.7526 270.797 58.4766C271.406 59.2005 271.711 60.237 271.711 61.5859V62.1875H265.984C266.005 63.0208 266.247 63.6953 266.711 64.2109C267.18 64.7214 267.773 64.9766 268.492 64.9766C269.003 64.9766 269.435 64.8724 269.789 64.6641C270.143 64.4557 270.453 64.1797 270.719 63.8359L271.602 64.5234C270.893 65.612 269.831 66.1562 268.414 66.1562ZM268.234 58.5781C267.651 58.5781 267.161 58.7917 266.766 59.2188C266.37 59.6406 266.125 60.2344 266.031 61H270.266V60.8906C270.224 60.1562 270.026 59.5885 269.672 59.1875C269.318 58.7812 268.839 58.5781 268.234 58.5781ZM275.352 55.5V57.5469H276.93V58.6641H275.352V63.9062C275.352 64.2448 275.422 64.5 275.562 64.6719C275.703 64.8385 275.943 64.9219 276.281 64.9219C276.448 64.9219 276.677 64.8906 276.969 64.8281V66C276.589 66.1042 276.219 66.1562 275.859 66.1562C275.214 66.1562 274.727 65.9609 274.398 65.5703C274.07 65.1797 273.906 64.625 273.906 63.9062V58.6641H272.367V57.5469H273.906V55.5H275.352ZM283.953 57.5469L283.992 58.4844C284.612 57.7552 285.448 57.3906 286.5 57.3906C287.682 57.3906 288.487 57.8438 288.914 58.75C289.195 58.3438 289.56 58.0156 290.008 57.7656C290.461 57.5156 290.995 57.3906 291.609 57.3906C293.464 57.3906 294.406 58.3724 294.438 60.3359V66H292.992V60.4219C292.992 59.8177 292.854 59.3672 292.578 59.0703C292.302 58.7682 291.839 58.6172 291.188 58.6172C290.651 58.6172 290.206 58.7786 289.852 59.1016C289.497 59.4193 289.292 59.849 289.234 60.3906V66H287.781V60.4609C287.781 59.2318 287.18 58.6172 285.977 58.6172C285.029 58.6172 284.38 59.0208 284.031 59.8281V66H282.586V57.5469H283.953ZM301.844 66C301.76 65.8333 301.693 65.5365 301.641 65.1094C300.969 65.8073 300.167 66.1562 299.234 66.1562C298.401 66.1562 297.716 65.9219 297.18 65.4531C296.648 64.9792 296.383 64.3802 296.383 63.6562C296.383 62.776 296.716 62.0938 297.383 61.6094C298.055 61.1198 298.997 60.875 300.211 60.875H301.617V60.2109C301.617 59.7057 301.466 59.3047 301.164 59.0078C300.862 58.7057 300.417 58.5547 299.828 58.5547C299.312 58.5547 298.88 58.6849 298.531 58.9453C298.182 59.2057 298.008 59.5208 298.008 59.8906H296.555C296.555 59.4688 296.703 59.0625 297 58.6719C297.302 58.276 297.708 57.9635 298.219 57.7344C298.734 57.5052 299.299 57.3906 299.914 57.3906C300.888 57.3906 301.651 57.6354 302.203 58.125C302.755 58.6094 303.042 59.2786 303.062 60.1328V64.0234C303.062 64.7995 303.161 65.4167 303.359 65.875V66H301.844ZM299.445 64.8984C299.898 64.8984 300.328 64.7812 300.734 64.5469C301.141 64.3125 301.435 64.0078 301.617 63.6328V61.8984H300.484C298.714 61.8984 297.828 62.4167 297.828 63.4531C297.828 63.9062 297.979 64.2604 298.281 64.5156C298.583 64.7708 298.971 64.8984 299.445 64.8984ZM304.984 61.7031C304.984 60.3854 305.289 59.3385 305.898 58.5625C306.508 57.7812 307.315 57.3906 308.32 57.3906C309.352 57.3906 310.156 57.7552 310.734 58.4844L310.805 57.5469H312.125V65.7969C312.125 66.8906 311.799 67.7526 311.148 68.3828C310.503 69.013 309.633 69.3281 308.539 69.3281C307.93 69.3281 307.333 69.1979 306.75 68.9375C306.167 68.6771 305.721 68.3203 305.414 67.8672L306.164 67C306.784 67.7656 307.542 68.1484 308.438 68.1484C309.141 68.1484 309.688 67.9505 310.078 67.5547C310.474 67.1589 310.672 66.6016 310.672 65.8828V65.1562C310.094 65.8229 309.305 66.1562 308.305 66.1562C307.315 66.1562 306.513 65.7578 305.898 64.9609C305.289 64.1641 304.984 63.0781 304.984 61.7031ZM306.438 61.8672C306.438 62.8203 306.633 63.5703 307.023 64.1172C307.414 64.6589 307.961 64.9297 308.664 64.9297C309.576 64.9297 310.245 64.5156 310.672 63.6875V59.8281C310.229 59.0208 309.565 58.6172 308.68 58.6172C307.977 58.6172 307.427 58.8906 307.031 59.4375C306.635 59.9844 306.438 60.7943 306.438 61.8672ZM315.883 66H314.438V57.5469H315.883V66ZM314.32 55.3047C314.32 55.0703 314.391 54.8724 314.531 54.7109C314.677 54.5495 314.891 54.4688 315.172 54.4688C315.453 54.4688 315.667 54.5495 315.812 54.7109C315.958 54.8724 316.031 55.0703 316.031 55.3047C316.031 55.5391 315.958 55.7344 315.812 55.8906C315.667 56.0469 315.453 56.125 315.172 56.125C314.891 56.125 314.677 56.0469 314.531 55.8906C314.391 55.7344 314.32 55.5391 314.32 55.3047ZM321.594 64.9766C322.109 64.9766 322.56 64.8203 322.945 64.5078C323.331 64.1953 323.544 63.8047 323.586 63.3359H324.953C324.927 63.8203 324.76 64.2812 324.453 64.7188C324.146 65.1562 323.734 65.5052 323.219 65.7656C322.708 66.026 322.167 66.1562 321.594 66.1562C320.443 66.1562 319.526 65.7734 318.844 65.0078C318.167 64.237 317.828 63.1849 317.828 61.8516V61.6094C317.828 60.7865 317.979 60.0547 318.281 59.4141C318.583 58.7734 319.016 58.276 319.578 57.9219C320.146 57.5677 320.815 57.3906 321.586 57.3906C322.534 57.3906 323.32 57.6745 323.945 58.2422C324.576 58.8099 324.911 59.5469 324.953 60.4531H323.586C323.544 59.9062 323.336 59.4583 322.961 59.1094C322.591 58.7552 322.133 58.5781 321.586 58.5781C320.852 58.5781 320.281 58.8438 319.875 59.375C319.474 59.901 319.273 60.6641 319.273 61.6641V61.9375C319.273 62.9115 319.474 63.6615 319.875 64.1875C320.276 64.7135 320.849 64.9766 321.594 64.9766ZM332.117 66H330.672V54H332.117V66ZM336.008 66H334.562V57.5469H336.008V66ZM334.445 55.3047C334.445 55.0703 334.516 54.8724 334.656 54.7109C334.802 54.5495 335.016 54.4688 335.297 54.4688C335.578 54.4688 335.792 54.5495 335.938 54.7109C336.083 54.8724 336.156 55.0703 336.156 55.3047C336.156 55.5391 336.083 55.7344 335.938 55.8906C335.792 56.0469 335.578 56.125 335.297 56.125C335.016 56.125 334.802 56.0469 334.656 55.8906C334.516 55.7344 334.445 55.5391 334.445 55.3047ZM339.695 57.5469L339.742 58.6094C340.388 57.7969 341.232 57.3906 342.273 57.3906C344.06 57.3906 344.961 58.3984 344.977 60.4141V66H343.531V60.4062C343.526 59.7969 343.385 59.3464 343.109 59.0547C342.839 58.763 342.414 58.6172 341.836 58.6172C341.367 58.6172 340.956 58.7422 340.602 58.9922C340.247 59.2422 339.971 59.5703 339.773 59.9766V66H338.328V57.5469H339.695ZM349.516 62.0859L348.609 63.0312V66H347.164V54H348.609V61.2578L349.383 60.3281L352.016 57.5469H353.773L350.484 61.0781L354.156 66H352.461L349.516 62.0859Z" fill="black"/>
<path d="M238 1V0H237V1H238ZM371 1H372V0H371V1ZM371 81V82H372V81H371ZM238 81H237V82H238V81ZM238 2H371V0H238V2ZM370 1V81H372V1H370ZM371 80H238V82H371V80ZM239 81V1H237V81H239Z" fill="black"/>
</svg>
