<?xml version="1.0" standalone="no"?>
<!DOCTYPE svg PUBLIC "-//W3C//DTD SVG 20010904//EN"
 "http://www.w3.org/TR/2001/REC-SVG-20010904/DTD/svg10.dtd">
<svg version="1.0" xmlns="http://www.w3.org/2000/svg"
 width="360.000000pt" height="360.000000pt" viewBox="0 0 360.000000 360.000000"
 preserveAspectRatio="xMidYMid meet">
<metadata>
Created by potrace 1.14, written by Peter Selinger 2001-2017
</metadata>
<g transform="translate(0.000000,360.000000) scale(0.100000,-0.100000)"
fill="#000000" stroke="none">
<path d="M1596 3589 c-319 -37 -657 -176 -905 -372 -317 -252 -540 -594 -635
-975 -44 -178 -51 -238 -50 -452 0 -183 3 -219 28 -335 34 -163 83 -310 146
-439 232 -478 668 -833 1178 -960 178 -44 238 -51 452 -50 183 0 219 3 335 28
163 34 310 83 439 146 478 232 833 668 960 1178 44 178 51 238 50 452 0 183
-3 219 -28 335 -48 231 -120 415 -231 594 -295 477 -784 787 -1340 851 -102
11 -297 11 -399 -1z m154 -915 c219 -51 399 -228 455 -449 21 -83 19 -215 -5
-308 -22 -89 -46 -140 -53 -117 -3 8 -15 44 -26 78 -63 196 -221 353 -415 411
-101 31 -249 29 -354 -4 -136 -43 -252 -132 -332 -256 -38 -59 -39 -60 -46
-34 -10 38 4 158 28 234 31 103 84 188 167 271 157 157 377 222 581 174z m726
-461 c81 -80 141 -188 170 -303 24 -96 15 -272 -18 -362 -71 -190 -215 -331
-398 -389 -91 -29 -227 -36 -310 -15 -102 25 -223 90 -293 156 -34 32 -60 60
-57 63 3 3 32 1 65 -4 107 -16 251 9 354 61 227 114 360 329 361 580 0 103
-18 180 -67 280 -21 41 -39 79 -41 84 -3 4 33 -11 79 -35 59 -31 104 -64 155
-116z m-1033 -100 c-57 -71 -117 -197 -133 -281 -18 -89 -8 -251 19 -332 76
-222 276 -398 484 -424 26 -3 67 -9 93 -12 l45 -5 -46 -35 c-109 -84 -262
-130 -400 -121 -251 17 -461 181 -549 427 -29 79 -31 95 -30 215 0 120 2 136
31 212 74 196 225 338 418 394 33 10 72 18 88 18 l27 1 -47 -57z"/>
</g>
</svg>
