<?xml version="1.0" encoding="UTF-8" standalone="no"?><svg xmlns="http://www.w3.org/2000/svg" xmlns:xlink="http://www.w3.org/1999/xlink" contentStyleType="text/css" height="336px" preserveAspectRatio="none" style="width:823px;height:336px;background:#FFFFFF;" version="1.1" viewBox="0 0 823 336" width="823px" zoomAndPan="magnify"><defs/><g><rect fill="#FFFFFF" height="180.7969" style="stroke:#181818;stroke-width:1.0;" width="10" x="437.5" y="102.5625"/><rect fill="#FFFFFF" height="29.1328" style="stroke:#181818;stroke-width:1.0;" width="10" x="769.5" y="166.8281"/><line style="stroke:#181818;stroke-width:0.5;stroke-dasharray:5.0,5.0;" x1="31" x2="31" y1="36.2969" y2="301.3594"/><line style="stroke:#181818;stroke-width:0.5;stroke-dasharray:5.0,5.0;" x1="442.5" x2="442.5" y1="36.2969" y2="301.3594"/><line style="stroke:#181818;stroke-width:0.5;stroke-dasharray:5.0,5.0;" x1="774" x2="774" y1="36.2969" y2="301.3594"/><rect fill="#E2E2F0" height="30.2969" rx="2.5" ry="2.5" style="stroke:#181818;stroke-width:0.5;" width="53" x="5" y="5"/><text fill="#000000" font-family="sans-serif" font-size="14" lengthAdjust="spacing" textLength="39" x="12" y="24.9951">dApp</text><rect fill="#E2E2F0" height="30.2969" rx="2.5" ry="2.5" style="stroke:#181818;stroke-width:0.5;" width="53" x="5" y="300.3594"/><text fill="#000000" font-family="sans-serif" font-size="14" lengthAdjust="spacing" textLength="39" x="12" y="320.3545">dApp</text><rect fill="#E2E2F0" height="30.2969" rx="2.5" ry="2.5" style="stroke:#181818;stroke-width:0.5;" width="84" x="400.5" y="5"/><text fill="#000000" font-family="sans-serif" font-size="14" lengthAdjust="spacing" textLength="70" x="407.5" y="24.9951">OpenMEV</text><rect fill="#E2E2F0" height="30.2969" rx="2.5" ry="2.5" style="stroke:#181818;stroke-width:0.5;" width="84" x="400.5" y="300.3594"/><text fill="#000000" font-family="sans-serif" font-size="14" lengthAdjust="spacing" textLength="70" x="407.5" y="320.3545">OpenMEV</text><rect fill="#E2E2F0" height="30.2969" rx="2.5" ry="2.5" style="stroke:#181818;stroke-width:0.5;" width="85" x="732" y="5"/><text fill="#000000" font-family="sans-serif" font-size="14" lengthAdjust="spacing" textLength="71" x="739" y="24.9951">Ethereum</text><rect fill="#E2E2F0" height="30.2969" rx="2.5" ry="2.5" style="stroke:#181818;stroke-width:0.5;" width="85" x="732" y="300.3594"/><text fill="#000000" font-family="sans-serif" font-size="14" lengthAdjust="spacing" textLength="71" x="739" y="320.3545">Ethereum</text><rect fill="#FFFFFF" height="180.7969" style="stroke:#181818;stroke-width:1.0;" width="10" x="437.5" y="102.5625"/><rect fill="#FFFFFF" height="29.1328" style="stroke:#181818;stroke-width:1.0;" width="10" x="769.5" y="166.8281"/><path d="M243,51.2969 L243,76.2969 L437,76.2969 L437,61.2969 L427,51.2969 L243,51.2969 " fill="#FEFFDD" style="stroke:#181818;stroke-width:0.5;"/><path d="M427,51.2969 L427,61.2969 L437,61.2969 L427,51.2969 " fill="#FEFFDD" style="stroke:#181818;stroke-width:0.5;"/><text fill="#000000" font-family="sans-serif" font-size="13" lengthAdjust="spacing" textLength="173" x="249" y="68.3638">SushiGuard MEV Protection</text><polygon fill="#181818" points="425.5,98.5625,435.5,102.5625,425.5,106.5625,429.5,102.5625" style="stroke:#181818;stroke-width:1.0;"/><line style="stroke:#181818;stroke-width:1.0;" x1="31.5" x2="431.5" y1="102.5625" y2="102.5625"/><text fill="#000000" font-family="sans-serif" font-size="13" lengthAdjust="spacing" textLength="240" x="38.5" y="97.4966">sendSwapTransaction(MEVProtected)</text><path d="M559,115.5625 L559,140.5625 L769,140.5625 L769,125.5625 L759,115.5625 L559,115.5625 " fill="#FEFFDD" style="stroke:#181818;stroke-width:0.5;"/><path d="M759,115.5625 L759,125.5625 L769,125.5625 L759,115.5625 " fill="#FEFFDD" style="stroke:#181818;stroke-width:0.5;"/><text fill="#000000" font-family="sans-serif" font-size="13" lengthAdjust="spacing" textLength="189" x="565" y="132.6294">MEV Bundling &amp; Gas Rebating</text><polygon fill="#181818" points="757.5,162.8281,767.5,166.8281,757.5,170.8281,761.5,166.8281" style="stroke:#181818;stroke-width:1.0;"/><line style="stroke:#181818;stroke-width:1.0;" x1="447.5" x2="763.5" y1="166.8281" y2="166.8281"/><text fill="#000000" font-family="sans-serif" font-size="13" lengthAdjust="spacing" textLength="303" x="454.5" y="161.7622">sendBundle(userTransactions[], arbitrageTxs[])</text><polygon fill="#181818" points="458.5,191.9609,448.5,195.9609,458.5,199.9609,454.5,195.9609" style="stroke:#181818;stroke-width:1.0;"/><line style="stroke:#181818;stroke-width:1.0;stroke-dasharray:2.0,2.0;" x1="452.5" x2="773.5" y1="195.9609" y2="195.9609"/><text fill="#000000" font-family="sans-serif" font-size="13" lengthAdjust="spacing" textLength="283" x="464.5" y="190.895">transactionStatus, type = OpenMEV(Eligible)</text><polygon fill="#181818" points="458.5,221.0938,448.5,225.0938,458.5,229.0938,454.5,225.0938" style="stroke:#181818;stroke-width:1.0;"/><line style="stroke:#181818;stroke-width:1.0;" x1="452.5" x2="773.5" y1="225.0938" y2="225.0938"/><text fill="#000000" font-family="sans-serif" font-size="13" lengthAdjust="spacing" textLength="296" x="464.5" y="220.0278">userSwap(userTransactions[], gasRebateTx[])</text><polygon fill="#181818" points="458.5,250.2266,448.5,254.2266,458.5,258.2266,454.5,254.2266" style="stroke:#181818;stroke-width:1.0;"/><line style="stroke:#181818;stroke-width:1.0;" x1="452.5" x2="773.5" y1="254.2266" y2="254.2266"/><text fill="#000000" font-family="sans-serif" font-size="13" lengthAdjust="spacing" textLength="277" x="464.5" y="249.1606">userSwap(userTransactions[], NO_REBATE)</text><polygon fill="#181818" points="42.5,279.3594,32.5,283.3594,42.5,287.3594,38.5,283.3594" style="stroke:#181818;stroke-width:1.0;"/><line style="stroke:#181818;stroke-width:1.0;stroke-dasharray:2.0,2.0;" x1="36.5" x2="441.5" y1="283.3594" y2="283.3594"/><text fill="#000000" font-family="sans-serif" font-size="13" lengthAdjust="spacing" textLength="382" x="48.5" y="278.2935">transactionStatus, type = OpenMEV(Refund or NO_REBATE)</text><!--MD5=[caf700af619f7c68185ca7decf41701b]
@startuml
participant dApp
participant OpenMEV
participant Ethereum

note left of OpenMEV: SushiGuard MEV Protection
dApp -> OpenMEV: sendSwapTransaction(MEVProtected)
activate OpenMEV
note left of Ethereum : MEV Bundling & Gas Rebating
OpenMEV -> Ethereum: sendBundle(userTransactions[], arbitrageTxs[])
activate Ethereum
return transactionStatus, type = OpenMEV(Eligible)
Ethereum  -> OpenMEV: userSwap(userTransactions[], gasRebateTx[]) 
Ethereum  -> OpenMEV: userSwap(userTransactions[], NO_REBATE) 
return transactionStatus, type = OpenMEV(Refund or NO_REBATE)
@enduml

PlantUML version 1.2022.3beta2(Unknown compile time)
(GPL source distribution)
Java Runtime: Java(TM) SE Runtime Environment
JVM: Java HotSpot(TM) 64-Bit Server VM
Default Encoding: UTF-8
Language: en
Country: US
--></g></svg>