<svg width="1197" height="82" viewBox="0 0 1197 82" fill="none" xmlns="http://www.w3.org/2000/svg">
<path d="M124 41L204 41" stroke="black" stroke-width="2"/>
<path d="M181 17L205 41L181 65" stroke="black" stroke-width="2"/>
<path d="M347 41L427 41" stroke="black" stroke-width="2"/>
<path d="M404 17L428 41L404 65" stroke="black" stroke-width="2"/>
<rect x="1" y="1" width="113" height="80" fill="white"/>
<path d="M24.9297 41.7422H20V45.7734H25.7266V47H18.5V35.625H25.6484V36.8594H20V40.5156H24.9297V41.7422ZM28.7344 38.5469L28.7812 39.6094C29.4271 38.7969 30.2708 38.3906 31.3125 38.3906C33.099 38.3906 34 39.3984 34.0156 41.4141V47H32.5703V41.4062C32.5651 40.7969 32.4245 40.3464 32.1484 40.0547C31.8776 39.763 31.4531 39.6172 30.875 39.6172C30.4062 39.6172 29.9948 39.7422 29.6406 39.9922C29.2865 40.2422 29.0104 40.5703 28.8125 40.9766V47H27.3672V38.5469H28.7344ZM38.1562 36.5V38.5469H39.7344V39.6641H38.1562V44.9062C38.1562 45.2448 38.2266 45.5 38.3672 45.6719C38.5078 45.8385 38.7474 45.9219 39.0859 45.9219C39.2526 45.9219 39.4818 45.8906 39.7734 45.8281V47C39.3932 47.1042 39.0234 47.1562 38.6641 47.1562C38.0182 47.1562 37.5312 46.9609 37.2031 46.5703C36.875 46.1797 36.7109 45.625 36.7109 44.9062V39.6641H35.1719V38.5469H36.7109V36.5H38.1562ZM44.9375 47.1562C43.7917 47.1562 42.8594 46.7812 42.1406 46.0312C41.4219 45.276 41.0625 44.2682 41.0625 43.0078V42.7422C41.0625 41.9036 41.2214 41.1562 41.5391 40.5C41.862 39.8385 42.3099 39.3229 42.8828 38.9531C43.4609 38.5781 44.0859 38.3906 44.7578 38.3906C45.8568 38.3906 46.7109 38.7526 47.3203 39.4766C47.9297 40.2005 48.2344 41.237 48.2344 42.5859V43.1875H42.5078C42.5286 44.0208 42.7708 44.6953 43.2344 45.2109C43.7031 45.7214 44.2969 45.9766 45.0156 45.9766C45.526 45.9766 45.9583 45.8724 46.3125 45.6641C46.6667 45.4557 46.9766 45.1797 47.2422 44.8359L48.125 45.5234C47.4167 46.612 46.3542 47.1562 44.9375 47.1562ZM44.7578 39.5781C44.1745 39.5781 43.6849 39.7917 43.2891 40.2188C42.8932 40.6406 42.6484 41.2344 42.5547 42H46.7891V41.8906C46.7474 41.1562 46.5495 40.5885 46.1953 40.1875C45.8411 39.7812 45.362 39.5781 44.7578 39.5781ZM54 39.8438C53.7812 39.8073 53.5443 39.7891 53.2891 39.7891C52.3411 39.7891 51.6979 40.1927 51.3594 41V47H49.9141V38.5469H51.3203L51.3438 39.5234C51.8177 38.7682 52.4896 38.3906 53.3594 38.3906C53.6406 38.3906 53.8542 38.4271 54 38.5V39.8438ZM65.9609 41.7422H61.0312V45.7734H66.7578V47H59.5312V35.625H66.6797V36.8594H61.0312V40.5156H65.9609V41.7422ZM69.7578 38.5469L69.7969 39.4844C70.4167 38.7552 71.2526 38.3906 72.3047 38.3906C73.487 38.3906 74.2917 38.8438 74.7188 39.75C75 39.3438 75.3646 39.0156 75.8125 38.7656C76.2656 38.5156 76.7995 38.3906 77.4141 38.3906C79.2682 38.3906 80.2109 39.3724 80.2422 41.3359V47H78.7969V41.4219C78.7969 40.8177 78.6589 40.3672 78.3828 40.0703C78.1068 39.7682 77.6432 39.6172 76.9922 39.6172C76.4557 39.6172 76.0104 39.7786 75.6562 40.1016C75.3021 40.4193 75.0964 40.849 75.0391 41.3906V47H73.5859V41.4609C73.5859 40.2318 72.9844 39.6172 71.7812 39.6172C70.8333 39.6172 70.1849 40.0208 69.8359 40.8281V47H68.3906V38.5469H69.7578ZM87.6484 47C87.5651 46.8333 87.4974 46.5365 87.4453 46.1094C86.7734 46.8073 85.9714 47.1562 85.0391 47.1562C84.2057 47.1562 83.5208 46.9219 82.9844 46.4531C82.4531 45.9792 82.1875 45.3802 82.1875 44.6562C82.1875 43.776 82.5208 43.0938 83.1875 42.6094C83.8594 42.1198 84.8021 41.875 86.0156 41.875H87.4219V41.2109C87.4219 40.7057 87.2708 40.3047 86.9688 40.0078C86.6667 39.7057 86.2214 39.5547 85.6328 39.5547C85.1172 39.5547 84.6849 39.6849 84.3359 39.9453C83.987 40.2057 83.8125 40.5208 83.8125 40.8906H82.3594C82.3594 40.4688 82.5078 40.0625 82.8047 39.6719C83.1068 39.276 83.513 38.9635 84.0234 38.7344C84.5391 38.5052 85.1042 38.3906 85.7188 38.3906C86.6927 38.3906 87.4557 38.6354 88.0078 39.125C88.5599 39.6094 88.8464 40.2786 88.8672 41.1328V45.0234C88.8672 45.7995 88.9661 46.4167 89.1641 46.875V47H87.6484ZM85.25 45.8984C85.7031 45.8984 86.1328 45.7812 86.5391 45.5469C86.9453 45.3125 87.2396 45.0078 87.4219 44.6328V42.8984H86.2891C84.5182 42.8984 83.6328 43.4167 83.6328 44.4531C83.6328 44.9062 83.7839 45.2604 84.0859 45.5156C84.388 45.7708 84.776 45.8984 85.25 45.8984ZM92.7031 47H91.2578V38.5469H92.7031V47ZM91.1406 36.3047C91.1406 36.0703 91.2109 35.8724 91.3516 35.7109C91.4974 35.5495 91.7109 35.4688 91.9922 35.4688C92.2734 35.4688 92.487 35.5495 92.6328 35.7109C92.7786 35.8724 92.8516 36.0703 92.8516 36.3047C92.8516 36.5391 92.7786 36.7344 92.6328 36.8906C92.487 37.0469 92.2734 37.125 91.9922 37.125C91.7109 37.125 91.4974 37.0469 91.3516 36.8906C91.2109 36.7344 91.1406 36.5391 91.1406 36.3047ZM96.5938 47H95.1484V35H96.5938V47Z" fill="black"/>
<path d="M1 1V0H0V1H1ZM114 1H115V0H114V1ZM114 81V82H115V81H114ZM1 81H0V82H1V81ZM1 2H114V0H1V2ZM113 1V81H115V1H113ZM114 80H1V82H114V80ZM2 81V1H0V81H2Z" fill="black"/>
<rect x="214" y="1" width="123" height="80" fill="white"/>
<path d="M248.93 26.5078C248.544 27.0599 248.005 27.474 247.312 27.75C246.625 28.0208 245.823 28.1562 244.906 28.1562C243.979 28.1562 243.156 27.9401 242.438 27.5078C241.719 27.0703 241.161 26.4505 240.766 25.6484C240.375 24.8464 240.174 23.9167 240.164 22.8594V21.8672C240.164 20.1536 240.562 18.8255 241.359 17.8828C242.161 16.9401 243.286 16.4688 244.734 16.4688C245.922 16.4688 246.878 16.7734 247.602 17.3828C248.326 17.987 248.768 18.8464 248.93 19.9609H247.43C247.148 18.4557 246.253 17.7031 244.742 17.7031C243.737 17.7031 242.974 18.0573 242.453 18.7656C241.938 19.4688 241.677 20.4896 241.672 21.8281V22.7578C241.672 24.0339 241.964 25.0495 242.547 25.8047C243.13 26.5547 243.919 26.9297 244.914 26.9297C245.477 26.9297 245.969 26.8672 246.391 26.7422C246.812 26.6172 247.161 26.4062 247.438 26.1094V23.5547H244.805V22.3359H248.93V26.5078ZM254.719 28.1562C253.573 28.1562 252.641 27.7812 251.922 27.0312C251.203 26.276 250.844 25.2682 250.844 24.0078V23.7422C250.844 22.9036 251.003 22.1562 251.32 21.5C251.643 20.8385 252.091 20.3229 252.664 19.9531C253.242 19.5781 253.867 19.3906 254.539 19.3906C255.638 19.3906 256.492 19.7526 257.102 20.4766C257.711 21.2005 258.016 22.237 258.016 23.5859V24.1875H252.289C252.31 25.0208 252.552 25.6953 253.016 26.2109C253.484 26.7214 254.078 26.9766 254.797 26.9766C255.307 26.9766 255.74 26.8724 256.094 26.6641C256.448 26.4557 256.758 26.1797 257.023 25.8359L257.906 26.5234C257.198 27.612 256.135 28.1562 254.719 28.1562ZM254.539 20.5781C253.956 20.5781 253.466 20.7917 253.07 21.2188C252.674 21.6406 252.43 22.2344 252.336 23H256.57V22.8906C256.529 22.1562 256.331 21.5885 255.977 21.1875C255.622 20.7812 255.143 20.5781 254.539 20.5781ZM261.656 17.5V19.5469H263.234V20.6641H261.656V25.9062C261.656 26.2448 261.727 26.5 261.867 26.6719C262.008 26.8385 262.247 26.9219 262.586 26.9219C262.753 26.9219 262.982 26.8906 263.273 26.8281V28C262.893 28.1042 262.523 28.1562 262.164 28.1562C261.518 28.1562 261.031 27.9609 260.703 27.5703C260.375 27.1797 260.211 26.625 260.211 25.9062V20.6641H258.672V19.5469H260.211V17.5H261.656ZM270.258 19.5469L270.297 20.4844C270.917 19.7552 271.753 19.3906 272.805 19.3906C273.987 19.3906 274.792 19.8438 275.219 20.75C275.5 20.3438 275.865 20.0156 276.312 19.7656C276.766 19.5156 277.299 19.3906 277.914 19.3906C279.768 19.3906 280.711 20.3724 280.742 22.3359V28H279.297V22.4219C279.297 21.8177 279.159 21.3672 278.883 21.0703C278.607 20.7682 278.143 20.6172 277.492 20.6172C276.956 20.6172 276.51 20.7786 276.156 21.1016C275.802 21.4193 275.596 21.849 275.539 22.3906V28H274.086V22.4609C274.086 21.2318 273.484 20.6172 272.281 20.6172C271.333 20.6172 270.685 21.0208 270.336 21.8281V28H268.891V19.5469H270.258ZM288.148 28C288.065 27.8333 287.997 27.5365 287.945 27.1094C287.273 27.8073 286.471 28.1562 285.539 28.1562C284.706 28.1562 284.021 27.9219 283.484 27.4531C282.953 26.9792 282.688 26.3802 282.688 25.6562C282.688 24.776 283.021 24.0938 283.688 23.6094C284.359 23.1198 285.302 22.875 286.516 22.875H287.922V22.2109C287.922 21.7057 287.771 21.3047 287.469 21.0078C287.167 20.7057 286.721 20.5547 286.133 20.5547C285.617 20.5547 285.185 20.6849 284.836 20.9453C284.487 21.2057 284.312 21.5208 284.312 21.8906H282.859C282.859 21.4688 283.008 21.0625 283.305 20.6719C283.607 20.276 284.013 19.9635 284.523 19.7344C285.039 19.5052 285.604 19.3906 286.219 19.3906C287.193 19.3906 287.956 19.6354 288.508 20.125C289.06 20.6094 289.346 21.2786 289.367 22.1328V26.0234C289.367 26.7995 289.466 27.4167 289.664 27.875V28H288.148ZM285.75 26.8984C286.203 26.8984 286.633 26.7812 287.039 26.5469C287.445 26.3125 287.74 26.0078 287.922 25.6328V23.8984H286.789C285.018 23.8984 284.133 24.4167 284.133 25.4531C284.133 25.9062 284.284 26.2604 284.586 26.5156C284.888 26.7708 285.276 26.8984 285.75 26.8984ZM291.289 23.7031C291.289 22.3854 291.594 21.3385 292.203 20.5625C292.812 19.7812 293.62 19.3906 294.625 19.3906C295.656 19.3906 296.461 19.7552 297.039 20.4844L297.109 19.5469H298.43V27.7969C298.43 28.8906 298.104 29.7526 297.453 30.3828C296.807 31.013 295.938 31.3281 294.844 31.3281C294.234 31.3281 293.638 31.1979 293.055 30.9375C292.471 30.6771 292.026 30.3203 291.719 29.8672L292.469 29C293.089 29.7656 293.846 30.1484 294.742 30.1484C295.445 30.1484 295.992 29.9505 296.383 29.5547C296.779 29.1589 296.977 28.6016 296.977 27.8828V27.1562C296.398 27.8229 295.609 28.1562 294.609 28.1562C293.62 28.1562 292.818 27.7578 292.203 26.9609C291.594 26.1641 291.289 25.0781 291.289 23.7031ZM292.742 23.8672C292.742 24.8203 292.938 25.5703 293.328 26.1172C293.719 26.6589 294.266 26.9297 294.969 26.9297C295.88 26.9297 296.549 26.5156 296.977 25.6875V21.8281C296.534 21.0208 295.87 20.6172 294.984 20.6172C294.281 20.6172 293.732 20.8906 293.336 21.4375C292.94 21.9844 292.742 22.7943 292.742 23.8672ZM302.188 28H300.742V19.5469H302.188V28ZM300.625 17.3047C300.625 17.0703 300.695 16.8724 300.836 16.7109C300.982 16.5495 301.195 16.4688 301.477 16.4688C301.758 16.4688 301.971 16.5495 302.117 16.7109C302.263 16.8724 302.336 17.0703 302.336 17.3047C302.336 17.5391 302.263 17.7344 302.117 17.8906C301.971 18.0469 301.758 18.125 301.477 18.125C301.195 18.125 300.982 18.0469 300.836 17.8906C300.695 17.7344 300.625 17.5391 300.625 17.3047ZM307.898 26.9766C308.414 26.9766 308.865 26.8203 309.25 26.5078C309.635 26.1953 309.849 25.8047 309.891 25.3359H311.258C311.232 25.8203 311.065 26.2812 310.758 26.7188C310.451 27.1562 310.039 27.5052 309.523 27.7656C309.013 28.026 308.471 28.1562 307.898 28.1562C306.747 28.1562 305.831 27.7734 305.148 27.0078C304.471 26.237 304.133 25.1849 304.133 23.8516V23.6094C304.133 22.7865 304.284 22.0547 304.586 21.4141C304.888 20.7734 305.32 20.276 305.883 19.9219C306.451 19.5677 307.12 19.3906 307.891 19.3906C308.839 19.3906 309.625 19.6745 310.25 20.2422C310.88 20.8099 311.216 21.5469 311.258 22.4531H309.891C309.849 21.9062 309.641 21.4583 309.266 21.1094C308.896 20.7552 308.438 20.5781 307.891 20.5781C307.156 20.5781 306.586 20.8438 306.18 21.375C305.779 21.901 305.578 22.6641 305.578 23.6641V23.9375C305.578 24.9115 305.779 25.6615 306.18 26.1875C306.581 26.7135 307.154 26.9766 307.898 26.9766ZM239.336 47H237.891V35H239.336V47ZM243.227 47H241.781V38.5469H243.227V47ZM241.664 36.3047C241.664 36.0703 241.734 35.8724 241.875 35.7109C242.021 35.5495 242.234 35.4688 242.516 35.4688C242.797 35.4688 243.01 35.5495 243.156 35.7109C243.302 35.8724 243.375 36.0703 243.375 36.3047C243.375 36.5391 243.302 36.7344 243.156 36.8906C243.01 37.0469 242.797 37.125 242.516 37.125C242.234 37.125 242.021 37.0469 241.875 36.8906C241.734 36.7344 241.664 36.5391 241.664 36.3047ZM246.914 38.5469L246.961 39.6094C247.607 38.7969 248.451 38.3906 249.492 38.3906C251.279 38.3906 252.18 39.3984 252.195 41.4141V47H250.75V41.4062C250.745 40.7969 250.604 40.3464 250.328 40.0547C250.057 39.763 249.633 39.6172 249.055 39.6172C248.586 39.6172 248.174 39.7422 247.82 39.9922C247.466 40.2422 247.19 40.5703 246.992 40.9766V47H245.547V38.5469H246.914ZM256.734 43.0859L255.828 44.0312V47H254.383V35H255.828V42.2578L256.602 41.3281L259.234 38.5469H260.992L257.703 42.0781L261.375 47H259.68L256.734 43.0859ZM271.375 44.7578C271.375 44.3672 271.227 44.0651 270.93 43.8516C270.638 43.6328 270.125 43.4453 269.391 43.2891C268.661 43.1328 268.081 42.9453 267.648 42.7266C267.221 42.5078 266.904 42.2474 266.695 41.9453C266.492 41.6432 266.391 41.2839 266.391 40.8672C266.391 40.1745 266.682 39.5885 267.266 39.1094C267.854 38.6302 268.604 38.3906 269.516 38.3906C270.474 38.3906 271.25 38.638 271.844 39.1328C272.443 39.6276 272.742 40.2604 272.742 41.0312H271.289C271.289 40.6354 271.12 40.2943 270.781 40.0078C270.448 39.7214 270.026 39.5781 269.516 39.5781C268.99 39.5781 268.578 39.6927 268.281 39.9219C267.984 40.151 267.836 40.4505 267.836 40.8203C267.836 41.1693 267.974 41.4323 268.25 41.6094C268.526 41.7865 269.023 41.9557 269.742 42.1172C270.466 42.2786 271.052 42.4714 271.5 42.6953C271.948 42.9193 272.279 43.1901 272.492 43.5078C272.711 43.8203 272.82 44.2031 272.82 44.6562C272.82 45.4115 272.518 46.0182 271.914 46.4766C271.31 46.9297 270.526 47.1562 269.562 47.1562C268.885 47.1562 268.286 47.0365 267.766 46.7969C267.245 46.5573 266.836 46.224 266.539 45.7969C266.247 45.3646 266.102 44.8984 266.102 44.3984H267.547C267.573 44.8828 267.766 45.2682 268.125 45.5547C268.49 45.8359 268.969 45.9766 269.562 45.9766C270.109 45.9766 270.547 45.8672 270.875 45.6484C271.208 45.4245 271.375 45.1276 271.375 44.7578ZM278.211 47.1562C277.065 47.1562 276.133 46.7812 275.414 46.0312C274.695 45.276 274.336 44.2682 274.336 43.0078V42.7422C274.336 41.9036 274.495 41.1562 274.812 40.5C275.135 39.8385 275.583 39.3229 276.156 38.9531C276.734 38.5781 277.359 38.3906 278.031 38.3906C279.13 38.3906 279.984 38.7526 280.594 39.4766C281.203 40.2005 281.508 41.237 281.508 42.5859V43.1875H275.781C275.802 44.0208 276.044 44.6953 276.508 45.2109C276.977 45.7214 277.57 45.9766 278.289 45.9766C278.799 45.9766 279.232 45.8724 279.586 45.6641C279.94 45.4557 280.25 45.1797 280.516 44.8359L281.398 45.5234C280.69 46.612 279.628 47.1562 278.211 47.1562ZM278.031 39.5781C277.448 39.5781 276.958 39.7917 276.562 40.2188C276.167 40.6406 275.922 41.2344 275.828 42H280.062V41.8906C280.021 41.1562 279.823 40.5885 279.469 40.1875C279.115 39.7812 278.635 39.5781 278.031 39.5781ZM284.555 38.5469L284.602 39.6094C285.247 38.7969 286.091 38.3906 287.133 38.3906C288.919 38.3906 289.82 39.3984 289.836 41.4141V47H288.391V41.4062C288.385 40.7969 288.245 40.3464 287.969 40.0547C287.698 39.763 287.273 39.6172 286.695 39.6172C286.227 39.6172 285.815 39.7422 285.461 39.9922C285.107 40.2422 284.831 40.5703 284.633 40.9766V47H283.188V38.5469H284.555ZM293.977 36.5V38.5469H295.555V39.6641H293.977V44.9062C293.977 45.2448 294.047 45.5 294.188 45.6719C294.328 45.8385 294.568 45.9219 294.906 45.9219C295.073 45.9219 295.302 45.8906 295.594 45.8281V47C295.214 47.1042 294.844 47.1562 294.484 47.1562C293.839 47.1562 293.352 46.9609 293.023 46.5703C292.695 46.1797 292.531 45.625 292.531 44.9062V39.6641H290.992V38.5469H292.531V36.5H293.977ZM303.18 36.5V38.5469H304.758V39.6641H303.18V44.9062C303.18 45.2448 303.25 45.5 303.391 45.6719C303.531 45.8385 303.771 45.9219 304.109 45.9219C304.276 45.9219 304.505 45.8906 304.797 45.8281V47C304.417 47.1042 304.047 47.1562 303.688 47.1562C303.042 47.1562 302.555 46.9609 302.227 46.5703C301.898 46.1797 301.734 45.625 301.734 44.9062V39.6641H300.195V38.5469H301.734V36.5H303.18ZM305.914 42.6953C305.914 41.8672 306.076 41.1224 306.398 40.4609C306.727 39.7995 307.18 39.2891 307.758 38.9297C308.341 38.5703 309.005 38.3906 309.75 38.3906C310.901 38.3906 311.831 38.7891 312.539 39.5859C313.253 40.3828 313.609 41.4427 313.609 42.7656V42.8672C313.609 43.6901 313.451 44.4297 313.133 45.0859C312.82 45.737 312.37 46.2448 311.781 46.6094C311.198 46.974 310.526 47.1562 309.766 47.1562C308.62 47.1562 307.69 46.7578 306.977 45.9609C306.268 45.1641 305.914 44.1094 305.914 42.7969V42.6953ZM307.367 42.8672C307.367 43.8047 307.583 44.5573 308.016 45.125C308.453 45.6927 309.036 45.9766 309.766 45.9766C310.5 45.9766 311.083 45.6901 311.516 45.1172C311.948 44.5391 312.164 43.7318 312.164 42.6953C312.164 41.7682 311.943 41.0182 311.5 40.4453C311.062 39.8672 310.479 39.5781 309.75 39.5781C309.036 39.5781 308.461 39.862 308.023 40.4297C307.586 40.9974 307.367 41.8099 307.367 42.8672ZM260.602 66.1562C259.456 66.1562 258.523 65.7812 257.805 65.0312C257.086 64.276 256.727 63.2682 256.727 62.0078V61.7422C256.727 60.9036 256.885 60.1562 257.203 59.5C257.526 58.8385 257.974 58.3229 258.547 57.9531C259.125 57.5781 259.75 57.3906 260.422 57.3906C261.521 57.3906 262.375 57.7526 262.984 58.4766C263.594 59.2005 263.898 60.237 263.898 61.5859V62.1875H258.172C258.193 63.0208 258.435 63.6953 258.898 64.2109C259.367 64.7214 259.961 64.9766 260.68 64.9766C261.19 64.9766 261.622 64.8724 261.977 64.6641C262.331 64.4557 262.641 64.1797 262.906 63.8359L263.789 64.5234C263.081 65.612 262.018 66.1562 260.602 66.1562ZM260.422 58.5781C259.839 58.5781 259.349 58.7917 258.953 59.2188C258.557 59.6406 258.312 60.2344 258.219 61H262.453V60.8906C262.411 60.1562 262.214 59.5885 261.859 59.1875C261.505 58.7812 261.026 58.5781 260.422 58.5781ZM266.938 57.5469L266.977 58.4844C267.596 57.7552 268.432 57.3906 269.484 57.3906C270.667 57.3906 271.471 57.8438 271.898 58.75C272.18 58.3438 272.544 58.0156 272.992 57.7656C273.445 57.5156 273.979 57.3906 274.594 57.3906C276.448 57.3906 277.391 58.3724 277.422 60.3359V66H275.977V60.4219C275.977 59.8177 275.839 59.3672 275.562 59.0703C275.286 58.7682 274.823 58.6172 274.172 58.6172C273.635 58.6172 273.19 58.7786 272.836 59.1016C272.482 59.4193 272.276 59.849 272.219 60.3906V66H270.766V60.4609C270.766 59.2318 270.164 58.6172 268.961 58.6172C268.013 58.6172 267.365 59.0208 267.016 59.8281V66H265.57V57.5469H266.938ZM284.828 66C284.745 65.8333 284.677 65.5365 284.625 65.1094C283.953 65.8073 283.151 66.1562 282.219 66.1562C281.385 66.1562 280.701 65.9219 280.164 65.4531C279.633 64.9792 279.367 64.3802 279.367 63.6562C279.367 62.776 279.701 62.0938 280.367 61.6094C281.039 61.1198 281.982 60.875 283.195 60.875H284.602V60.2109C284.602 59.7057 284.451 59.3047 284.148 59.0078C283.846 58.7057 283.401 58.5547 282.812 58.5547C282.297 58.5547 281.865 58.6849 281.516 58.9453C281.167 59.2057 280.992 59.5208 280.992 59.8906H279.539C279.539 59.4688 279.688 59.0625 279.984 58.6719C280.286 58.276 280.693 57.9635 281.203 57.7344C281.719 57.5052 282.284 57.3906 282.898 57.3906C283.872 57.3906 284.635 57.6354 285.188 58.125C285.74 58.6094 286.026 59.2786 286.047 60.1328V64.0234C286.047 64.7995 286.146 65.4167 286.344 65.875V66H284.828ZM282.43 64.8984C282.883 64.8984 283.312 64.7812 283.719 64.5469C284.125 64.3125 284.419 64.0078 284.602 63.6328V61.8984H283.469C281.698 61.8984 280.812 62.4167 280.812 63.4531C280.812 63.9062 280.964 64.2604 281.266 64.5156C281.568 64.7708 281.956 64.8984 282.43 64.8984ZM289.883 66H288.438V57.5469H289.883V66ZM288.32 55.3047C288.32 55.0703 288.391 54.8724 288.531 54.7109C288.677 54.5495 288.891 54.4688 289.172 54.4688C289.453 54.4688 289.667 54.5495 289.812 54.7109C289.958 54.8724 290.031 55.0703 290.031 55.3047C290.031 55.5391 289.958 55.7344 289.812 55.8906C289.667 56.0469 289.453 56.125 289.172 56.125C288.891 56.125 288.677 56.0469 288.531 55.8906C288.391 55.7344 288.32 55.5391 288.32 55.3047ZM293.773 66H292.328V54H293.773V66Z" fill="black"/>
<path d="M214 1V0H213V1H214ZM337 1H338V0H337V1ZM337 81V82H338V81H337ZM214 81H213V82H214V81ZM214 2H337V0H214V2ZM336 1V81H338V1H336ZM337 80H214V82H337V80ZM215 81V1H213V81H215Z" fill="black"/>
<rect x="437" y="1" width="113" height="80" fill="white"/>
<path d="M461.867 33.3906C461.727 34.5938 461.281 35.5234 460.531 36.1797C459.786 36.8307 458.794 37.1562 457.555 37.1562C456.211 37.1562 455.133 36.6745 454.32 35.7109C453.513 34.7474 453.109 33.4583 453.109 31.8438V30.75C453.109 29.6927 453.297 28.763 453.672 27.9609C454.052 27.1589 454.589 26.5443 455.281 26.1172C455.974 25.6849 456.776 25.4688 457.688 25.4688C458.896 25.4688 459.865 25.8073 460.594 26.4844C461.323 27.1562 461.747 28.0885 461.867 29.2812H460.359C460.229 28.375 459.945 27.7188 459.508 27.3125C459.076 26.9062 458.469 26.7031 457.688 26.7031C456.729 26.7031 455.977 27.0573 455.43 27.7656C454.888 28.474 454.617 29.4818 454.617 30.7891V31.8906C454.617 33.125 454.875 34.1068 455.391 34.8359C455.906 35.5651 456.628 35.9297 457.555 35.9297C458.388 35.9297 459.026 35.7422 459.469 35.3672C459.917 34.987 460.214 34.3281 460.359 33.3906H461.867ZM465.266 37H463.82V25H465.266V37ZM469.156 37H467.711V28.5469H469.156V37ZM467.594 26.3047C467.594 26.0703 467.664 25.8724 467.805 25.7109C467.951 25.5495 468.164 25.4688 468.445 25.4688C468.727 25.4688 468.94 25.5495 469.086 25.7109C469.232 25.8724 469.305 26.0703 469.305 26.3047C469.305 26.5391 469.232 26.7344 469.086 26.8906C468.94 27.0469 468.727 27.125 468.445 27.125C468.164 27.125 467.951 27.0469 467.805 26.8906C467.664 26.7344 467.594 26.5391 467.594 26.3047ZM474.867 35.9766C475.383 35.9766 475.833 35.8203 476.219 35.5078C476.604 35.1953 476.818 34.8047 476.859 34.3359H478.227C478.201 34.8203 478.034 35.2812 477.727 35.7188C477.419 36.1562 477.008 36.5052 476.492 36.7656C475.982 37.026 475.44 37.1562 474.867 37.1562C473.716 37.1562 472.799 36.7734 472.117 36.0078C471.44 35.237 471.102 34.1849 471.102 32.8516V32.6094C471.102 31.7865 471.253 31.0547 471.555 30.4141C471.857 29.7734 472.289 29.276 472.852 28.9219C473.419 28.5677 474.089 28.3906 474.859 28.3906C475.807 28.3906 476.594 28.6745 477.219 29.2422C477.849 29.8099 478.185 30.5469 478.227 31.4531H476.859C476.818 30.9062 476.609 30.4583 476.234 30.1094C475.865 29.7552 475.406 29.5781 474.859 29.5781C474.125 29.5781 473.555 29.8438 473.148 30.375C472.747 30.901 472.547 31.6641 472.547 32.6641V32.9375C472.547 33.9115 472.747 34.6615 473.148 35.1875C473.549 35.7135 474.122 35.9766 474.867 35.9766ZM482.211 33.0859L481.305 34.0312V37H479.859V25H481.305V32.2578L482.078 31.3281L484.711 28.5469H486.469L483.18 32.0781L486.852 37H485.156L482.211 33.0859ZM493.289 28.5469L493.328 29.4844C493.948 28.7552 494.784 28.3906 495.836 28.3906C497.018 28.3906 497.823 28.8438 498.25 29.75C498.531 29.3438 498.896 29.0156 499.344 28.7656C499.797 28.5156 500.331 28.3906 500.945 28.3906C502.799 28.3906 503.742 29.3724 503.773 31.3359V37H502.328V31.4219C502.328 30.8177 502.19 30.3672 501.914 30.0703C501.638 29.7682 501.174 29.6172 500.523 29.6172C499.987 29.6172 499.542 29.7786 499.188 30.1016C498.833 30.4193 498.628 30.849 498.57 31.3906V37H497.117V31.4609C497.117 30.2318 496.516 29.6172 495.312 29.6172C494.365 29.6172 493.716 30.0208 493.367 30.8281V37H491.922V28.5469H493.289ZM511.18 37C511.096 36.8333 511.029 36.5365 510.977 36.1094C510.305 36.8073 509.503 37.1562 508.57 37.1562C507.737 37.1562 507.052 36.9219 506.516 36.4531C505.984 35.9792 505.719 35.3802 505.719 34.6562C505.719 33.776 506.052 33.0938 506.719 32.6094C507.391 32.1198 508.333 31.875 509.547 31.875H510.953V31.2109C510.953 30.7057 510.802 30.3047 510.5 30.0078C510.198 29.7057 509.753 29.5547 509.164 29.5547C508.648 29.5547 508.216 29.6849 507.867 29.9453C507.518 30.2057 507.344 30.5208 507.344 30.8906H505.891C505.891 30.4688 506.039 30.0625 506.336 29.6719C506.638 29.276 507.044 28.9635 507.555 28.7344C508.07 28.5052 508.635 28.3906 509.25 28.3906C510.224 28.3906 510.987 28.6354 511.539 29.125C512.091 29.6094 512.378 30.2786 512.398 31.1328V35.0234C512.398 35.7995 512.497 36.4167 512.695 36.875V37H511.18ZM508.781 35.8984C509.234 35.8984 509.664 35.7812 510.07 35.5469C510.477 35.3125 510.771 35.0078 510.953 34.6328V32.8984H509.82C508.049 32.8984 507.164 33.4167 507.164 34.4531C507.164 34.9062 507.315 35.2604 507.617 35.5156C507.919 35.7708 508.307 35.8984 508.781 35.8984ZM514.32 32.7031C514.32 31.3854 514.625 30.3385 515.234 29.5625C515.844 28.7812 516.651 28.3906 517.656 28.3906C518.688 28.3906 519.492 28.7552 520.07 29.4844L520.141 28.5469H521.461V36.7969C521.461 37.8906 521.135 38.7526 520.484 39.3828C519.839 40.013 518.969 40.3281 517.875 40.3281C517.266 40.3281 516.669 40.1979 516.086 39.9375C515.503 39.6771 515.057 39.3203 514.75 38.8672L515.5 38C516.12 38.7656 516.878 39.1484 517.773 39.1484C518.477 39.1484 519.023 38.9505 519.414 38.5547C519.81 38.1589 520.008 37.6016 520.008 36.8828V36.1562C519.43 36.8229 518.641 37.1562 517.641 37.1562C516.651 37.1562 515.849 36.7578 515.234 35.9609C514.625 35.1641 514.32 34.0781 514.32 32.7031ZM515.773 32.8672C515.773 33.8203 515.969 34.5703 516.359 35.1172C516.75 35.6589 517.297 35.9297 518 35.9297C518.911 35.9297 519.581 35.5156 520.008 34.6875V30.8281C519.565 30.0208 518.901 29.6172 518.016 29.6172C517.312 29.6172 516.763 29.8906 516.367 30.4375C515.971 30.9844 515.773 31.7943 515.773 32.8672ZM525.219 37H523.773V28.5469H525.219V37ZM523.656 26.3047C523.656 26.0703 523.727 25.8724 523.867 25.7109C524.013 25.5495 524.227 25.4688 524.508 25.4688C524.789 25.4688 525.003 25.5495 525.148 25.7109C525.294 25.8724 525.367 26.0703 525.367 26.3047C525.367 26.5391 525.294 26.7344 525.148 26.8906C525.003 27.0469 524.789 27.125 524.508 27.125C524.227 27.125 524.013 27.0469 523.867 26.8906C523.727 26.7344 523.656 26.5391 523.656 26.3047ZM530.93 35.9766C531.445 35.9766 531.896 35.8203 532.281 35.5078C532.667 35.1953 532.88 34.8047 532.922 34.3359H534.289C534.263 34.8203 534.096 35.2812 533.789 35.7188C533.482 36.1562 533.07 36.5052 532.555 36.7656C532.044 37.026 531.503 37.1562 530.93 37.1562C529.779 37.1562 528.862 36.7734 528.18 36.0078C527.503 35.237 527.164 34.1849 527.164 32.8516V32.6094C527.164 31.7865 527.315 31.0547 527.617 30.4141C527.919 29.7734 528.352 29.276 528.914 28.9219C529.482 28.5677 530.151 28.3906 530.922 28.3906C531.87 28.3906 532.656 28.6745 533.281 29.2422C533.911 29.8099 534.247 30.5469 534.289 31.4531H532.922C532.88 30.9062 532.672 30.4583 532.297 30.1094C531.927 29.7552 531.469 29.5781 530.922 29.5781C530.188 29.5781 529.617 29.8438 529.211 30.375C528.81 30.901 528.609 31.6641 528.609 32.6641V32.9375C528.609 33.9115 528.81 34.6615 529.211 35.1875C529.612 35.7135 530.185 35.9766 530.93 35.9766ZM483.805 56H482.359V44H483.805V56ZM487.695 56H486.25V47.5469H487.695V56ZM486.133 45.3047C486.133 45.0703 486.203 44.8724 486.344 44.7109C486.49 44.5495 486.703 44.4688 486.984 44.4688C487.266 44.4688 487.479 44.5495 487.625 44.7109C487.771 44.8724 487.844 45.0703 487.844 45.3047C487.844 45.5391 487.771 45.7344 487.625 45.8906C487.479 46.0469 487.266 46.125 486.984 46.125C486.703 46.125 486.49 46.0469 486.344 45.8906C486.203 45.7344 486.133 45.5391 486.133 45.3047ZM491.383 47.5469L491.43 48.6094C492.076 47.7969 492.919 47.3906 493.961 47.3906C495.747 47.3906 496.648 48.3984 496.664 50.4141V56H495.219V50.4062C495.214 49.7969 495.073 49.3464 494.797 49.0547C494.526 48.763 494.102 48.6172 493.523 48.6172C493.055 48.6172 492.643 48.7422 492.289 48.9922C491.935 49.2422 491.659 49.5703 491.461 49.9766V56H490.016V47.5469H491.383ZM501.203 52.0859L500.297 53.0312V56H498.852V44H500.297V51.2578L501.07 50.3281L503.703 47.5469H505.461L502.172 51.0781L505.844 56H504.148L501.203 52.0859Z" fill="black"/>
<path d="M437 1V0H436V1H437ZM550 1H551V0H550V1ZM550 81V82H551V81H550ZM437 81H436V82H437V81ZM437 2H550V0H437V2ZM549 1V81H551V1H549ZM550 80H437V82H550V80ZM438 81V1H436V81H438Z" fill="black"/>
<path d="M770 41L850 41" stroke="black" stroke-width="2"/>
<path d="M827 17L851 41L827 65" stroke="black" stroke-width="2"/>
<path d="M993 41L1073 41" stroke="black" stroke-width="2"/>
<path d="M1050 17L1074 41L1050 65" stroke="black" stroke-width="2"/>
<rect x="860" y="1" width="123" height="80" fill="white"/>
<path d="M889.688 35.5078C889.302 36.0599 888.763 36.474 888.07 36.75C887.383 37.0208 886.581 37.1562 885.664 37.1562C884.737 37.1562 883.914 36.9401 883.195 36.5078C882.477 36.0703 881.919 35.4505 881.523 34.6484C881.133 33.8464 880.932 32.9167 880.922 31.8594V30.8672C880.922 29.1536 881.32 27.8255 882.117 26.8828C882.919 25.9401 884.044 25.4688 885.492 25.4688C886.68 25.4688 887.635 25.7734 888.359 26.3828C889.083 26.987 889.526 27.8464 889.688 28.9609H888.188C887.906 27.4557 887.01 26.7031 885.5 26.7031C884.495 26.7031 883.732 27.0573 883.211 27.7656C882.695 28.4688 882.435 29.4896 882.43 30.8281V31.7578C882.43 33.0339 882.721 34.0495 883.305 34.8047C883.888 35.5547 884.677 35.9297 885.672 35.9297C886.234 35.9297 886.727 35.8672 887.148 35.7422C887.57 35.6172 887.919 35.4062 888.195 35.1094V32.5547H885.562V31.3359H889.688V35.5078ZM895.477 37.1562C894.331 37.1562 893.398 36.7812 892.68 36.0312C891.961 35.276 891.602 34.2682 891.602 33.0078V32.7422C891.602 31.9036 891.76 31.1562 892.078 30.5C892.401 29.8385 892.849 29.3229 893.422 28.9531C894 28.5781 894.625 28.3906 895.297 28.3906C896.396 28.3906 897.25 28.7526 897.859 29.4766C898.469 30.2005 898.773 31.237 898.773 32.5859V33.1875H893.047C893.068 34.0208 893.31 34.6953 893.773 35.2109C894.242 35.7214 894.836 35.9766 895.555 35.9766C896.065 35.9766 896.497 35.8724 896.852 35.6641C897.206 35.4557 897.516 35.1797 897.781 34.8359L898.664 35.5234C897.956 36.612 896.893 37.1562 895.477 37.1562ZM895.297 29.5781C894.714 29.5781 894.224 29.7917 893.828 30.2188C893.432 30.6406 893.188 31.2344 893.094 32H897.328V31.8906C897.286 31.1562 897.089 30.5885 896.734 30.1875C896.38 29.7812 895.901 29.5781 895.297 29.5781ZM901.82 28.5469L901.867 29.6094C902.513 28.7969 903.357 28.3906 904.398 28.3906C906.185 28.3906 907.086 29.3984 907.102 31.4141V37H905.656V31.4062C905.651 30.7969 905.51 30.3464 905.234 30.0547C904.964 29.763 904.539 29.6172 903.961 29.6172C903.492 29.6172 903.081 29.7422 902.727 29.9922C902.372 30.2422 902.096 30.5703 901.898 30.9766V37H900.453V28.5469H901.82ZM912.789 37.1562C911.643 37.1562 910.711 36.7812 909.992 36.0312C909.273 35.276 908.914 34.2682 908.914 33.0078V32.7422C908.914 31.9036 909.073 31.1562 909.391 30.5C909.714 29.8385 910.161 29.3229 910.734 28.9531C911.312 28.5781 911.938 28.3906 912.609 28.3906C913.708 28.3906 914.562 28.7526 915.172 29.4766C915.781 30.2005 916.086 31.237 916.086 32.5859V33.1875H910.359C910.38 34.0208 910.622 34.6953 911.086 35.2109C911.555 35.7214 912.148 35.9766 912.867 35.9766C913.378 35.9766 913.81 35.8724 914.164 35.6641C914.518 35.4557 914.828 35.1797 915.094 34.8359L915.977 35.5234C915.268 36.612 914.206 37.1562 912.789 37.1562ZM912.609 29.5781C912.026 29.5781 911.536 29.7917 911.141 30.2188C910.745 30.6406 910.5 31.2344 910.406 32H914.641V31.8906C914.599 31.1562 914.401 30.5885 914.047 30.1875C913.693 29.7812 913.214 29.5781 912.609 29.5781ZM921.852 29.8438C921.633 29.8073 921.396 29.7891 921.141 29.7891C920.193 29.7891 919.549 30.1927 919.211 31V37H917.766V28.5469H919.172L919.195 29.5234C919.669 28.7682 920.341 28.3906 921.211 28.3906C921.492 28.3906 921.706 28.4271 921.852 28.5V29.8438ZM928.094 37C928.01 36.8333 927.943 36.5365 927.891 36.1094C927.219 36.8073 926.417 37.1562 925.484 37.1562C924.651 37.1562 923.966 36.9219 923.43 36.4531C922.898 35.9792 922.633 35.3802 922.633 34.6562C922.633 33.776 922.966 33.0938 923.633 32.6094C924.305 32.1198 925.247 31.875 926.461 31.875H927.867V31.2109C927.867 30.7057 927.716 30.3047 927.414 30.0078C927.112 29.7057 926.667 29.5547 926.078 29.5547C925.562 29.5547 925.13 29.6849 924.781 29.9453C924.432 30.2057 924.258 30.5208 924.258 30.8906H922.805C922.805 30.4688 922.953 30.0625 923.25 29.6719C923.552 29.276 923.958 28.9635 924.469 28.7344C924.984 28.5052 925.549 28.3906 926.164 28.3906C927.138 28.3906 927.901 28.6354 928.453 29.125C929.005 29.6094 929.292 30.2786 929.312 31.1328V35.0234C929.312 35.7995 929.411 36.4167 929.609 36.875V37H928.094ZM925.695 35.8984C926.148 35.8984 926.578 35.7812 926.984 35.5469C927.391 35.3125 927.685 35.0078 927.867 34.6328V32.8984H926.734C924.964 32.8984 924.078 33.4167 924.078 34.4531C924.078 34.9062 924.229 35.2604 924.531 35.5156C924.833 35.7708 925.221 35.8984 925.695 35.8984ZM933.539 26.5V28.5469H935.117V29.6641H933.539V34.9062C933.539 35.2448 933.609 35.5 933.75 35.6719C933.891 35.8385 934.13 35.9219 934.469 35.9219C934.635 35.9219 934.865 35.8906 935.156 35.8281V37C934.776 37.1042 934.406 37.1562 934.047 37.1562C933.401 37.1562 932.914 36.9609 932.586 36.5703C932.258 36.1797 932.094 35.625 932.094 34.9062V29.6641H930.555V28.5469H932.094V26.5H933.539ZM940.32 37.1562C939.174 37.1562 938.242 36.7812 937.523 36.0312C936.805 35.276 936.445 34.2682 936.445 33.0078V32.7422C936.445 31.9036 936.604 31.1562 936.922 30.5C937.245 29.8385 937.693 29.3229 938.266 28.9531C938.844 28.5781 939.469 28.3906 940.141 28.3906C941.24 28.3906 942.094 28.7526 942.703 29.4766C943.312 30.2005 943.617 31.237 943.617 32.5859V33.1875H937.891C937.911 34.0208 938.154 34.6953 938.617 35.2109C939.086 35.7214 939.68 35.9766 940.398 35.9766C940.909 35.9766 941.341 35.8724 941.695 35.6641C942.049 35.4557 942.359 35.1797 942.625 34.8359L943.508 35.5234C942.799 36.612 941.737 37.1562 940.32 37.1562ZM940.141 29.5781C939.557 29.5781 939.068 29.7917 938.672 30.2188C938.276 30.6406 938.031 31.2344 937.938 32H942.172V31.8906C942.13 31.1562 941.932 30.5885 941.578 30.1875C941.224 29.7812 940.745 29.5781 940.141 29.5781ZM951.102 37H949.602V25.625H951.102V37ZM953.852 37V25.625H957.062C958.052 25.625 958.927 25.8438 959.688 26.2812C960.448 26.7188 961.034 27.3411 961.445 28.1484C961.862 28.9557 962.073 29.8828 962.078 30.9297V31.6562C962.078 32.7292 961.87 33.6693 961.453 34.4766C961.042 35.2839 960.451 35.9036 959.68 36.3359C958.914 36.7682 958.021 36.9896 957 37H953.852ZM955.352 26.8594V35.7734H956.93C958.086 35.7734 958.984 35.4141 959.625 34.6953C960.271 33.9766 960.594 32.9531 960.594 31.625V30.9609C960.594 29.6693 960.289 28.6667 959.68 27.9531C959.076 27.2344 958.216 26.8698 957.102 26.8594H955.352ZM880.352 54.9766C880.867 54.9766 881.318 54.8203 881.703 54.5078C882.089 54.1953 882.302 53.8047 882.344 53.3359H883.711C883.685 53.8203 883.518 54.2812 883.211 54.7188C882.904 55.1562 882.492 55.5052 881.977 55.7656C881.466 56.026 880.924 56.1562 880.352 56.1562C879.201 56.1562 878.284 55.7734 877.602 55.0078C876.924 54.237 876.586 53.1849 876.586 51.8516V51.6094C876.586 50.7865 876.737 50.0547 877.039 49.4141C877.341 48.7734 877.773 48.276 878.336 47.9219C878.904 47.5677 879.573 47.3906 880.344 47.3906C881.292 47.3906 882.078 47.6745 882.703 48.2422C883.333 48.8099 883.669 49.5469 883.711 50.4531H882.344C882.302 49.9062 882.094 49.4583 881.719 49.1094C881.349 48.7552 880.891 48.5781 880.344 48.5781C879.609 48.5781 879.039 48.8438 878.633 49.375C878.232 49.901 878.031 50.6641 878.031 51.6641V51.9375C878.031 52.9115 878.232 53.6615 878.633 54.1875C879.034 54.7135 879.607 54.9766 880.352 54.9766ZM884.953 51.6953C884.953 50.8672 885.115 50.1224 885.438 49.4609C885.766 48.7995 886.219 48.2891 886.797 47.9297C887.38 47.5703 888.044 47.3906 888.789 47.3906C889.94 47.3906 890.87 47.7891 891.578 48.5859C892.292 49.3828 892.648 50.4427 892.648 51.7656V51.8672C892.648 52.6901 892.49 53.4297 892.172 54.0859C891.859 54.737 891.409 55.2448 890.82 55.6094C890.237 55.974 889.565 56.1562 888.805 56.1562C887.659 56.1562 886.729 55.7578 886.016 54.9609C885.307 54.1641 884.953 53.1094 884.953 51.7969V51.6953ZM886.406 51.8672C886.406 52.8047 886.622 53.5573 887.055 54.125C887.492 54.6927 888.076 54.9766 888.805 54.9766C889.539 54.9766 890.122 54.6901 890.555 54.1172C890.987 53.5391 891.203 52.7318 891.203 51.6953C891.203 50.7682 890.982 50.0182 890.539 49.4453C890.102 48.8672 889.518 48.5781 888.789 48.5781C888.076 48.5781 887.5 48.862 887.062 49.4297C886.625 49.9974 886.406 50.8099 886.406 51.8672ZM895.82 47.5469L895.859 48.4844C896.479 47.7552 897.315 47.3906 898.367 47.3906C899.549 47.3906 900.354 47.8438 900.781 48.75C901.062 48.3438 901.427 48.0156 901.875 47.7656C902.328 47.5156 902.862 47.3906 903.477 47.3906C905.331 47.3906 906.273 48.3724 906.305 50.3359V56H904.859V50.4219C904.859 49.8177 904.721 49.3672 904.445 49.0703C904.169 48.7682 903.706 48.6172 903.055 48.6172C902.518 48.6172 902.073 48.7786 901.719 49.1016C901.365 49.4193 901.159 49.849 901.102 50.3906V56H899.648V50.4609C899.648 49.2318 899.047 48.6172 897.844 48.6172C896.896 48.6172 896.247 49.0208 895.898 49.8281V56H894.453V47.5469H895.82ZM909.852 47.5469L909.891 48.4844C910.51 47.7552 911.346 47.3906 912.398 47.3906C913.581 47.3906 914.385 47.8438 914.812 48.75C915.094 48.3438 915.458 48.0156 915.906 47.7656C916.359 47.5156 916.893 47.3906 917.508 47.3906C919.362 47.3906 920.305 48.3724 920.336 50.3359V56H918.891V50.4219C918.891 49.8177 918.753 49.3672 918.477 49.0703C918.201 48.7682 917.737 48.6172 917.086 48.6172C916.549 48.6172 916.104 48.7786 915.75 49.1016C915.396 49.4193 915.19 49.849 915.133 50.3906V56H913.68V50.4609C913.68 49.2318 913.078 48.6172 911.875 48.6172C910.927 48.6172 910.279 49.0208 909.93 49.8281V56H908.484V47.5469H909.852ZM924.094 56H922.648V47.5469H924.094V56ZM922.531 45.3047C922.531 45.0703 922.602 44.8724 922.742 44.7109C922.888 44.5495 923.102 44.4688 923.383 44.4688C923.664 44.4688 923.878 44.5495 924.023 44.7109C924.169 44.8724 924.242 45.0703 924.242 45.3047C924.242 45.5391 924.169 45.7344 924.023 45.8906C923.878 46.0469 923.664 46.125 923.383 46.125C923.102 46.125 922.888 46.0469 922.742 45.8906C922.602 45.7344 922.531 45.5391 922.531 45.3047ZM928.375 45.5V47.5469H929.953V48.6641H928.375V53.9062C928.375 54.2448 928.445 54.5 928.586 54.6719C928.727 54.8385 928.966 54.9219 929.305 54.9219C929.471 54.9219 929.701 54.8906 929.992 54.8281V56C929.612 56.1042 929.242 56.1562 928.883 56.1562C928.237 56.1562 927.75 55.9609 927.422 55.5703C927.094 55.1797 926.93 54.625 926.93 53.9062V48.6641H925.391V47.5469H926.93V45.5H928.375ZM933.008 47.5469L933.047 48.4844C933.667 47.7552 934.503 47.3906 935.555 47.3906C936.737 47.3906 937.542 47.8438 937.969 48.75C938.25 48.3438 938.615 48.0156 939.062 47.7656C939.516 47.5156 940.049 47.3906 940.664 47.3906C942.518 47.3906 943.461 48.3724 943.492 50.3359V56H942.047V50.4219C942.047 49.8177 941.909 49.3672 941.633 49.0703C941.357 48.7682 940.893 48.6172 940.242 48.6172C939.706 48.6172 939.26 48.7786 938.906 49.1016C938.552 49.4193 938.346 49.849 938.289 50.3906V56H936.836V50.4609C936.836 49.2318 936.234 48.6172 935.031 48.6172C934.083 48.6172 933.435 49.0208 933.086 49.8281V56H931.641V47.5469H933.008ZM949.188 56.1562C948.042 56.1562 947.109 55.7812 946.391 55.0312C945.672 54.276 945.312 53.2682 945.312 52.0078V51.7422C945.312 50.9036 945.471 50.1562 945.789 49.5C946.112 48.8385 946.56 48.3229 947.133 47.9531C947.711 47.5781 948.336 47.3906 949.008 47.3906C950.107 47.3906 950.961 47.7526 951.57 48.4766C952.18 49.2005 952.484 50.237 952.484 51.5859V52.1875H946.758C946.779 53.0208 947.021 53.6953 947.484 54.2109C947.953 54.7214 948.547 54.9766 949.266 54.9766C949.776 54.9766 950.208 54.8724 950.562 54.6641C950.917 54.4557 951.227 54.1797 951.492 53.8359L952.375 54.5234C951.667 55.612 950.604 56.1562 949.188 56.1562ZM949.008 48.5781C948.424 48.5781 947.935 48.7917 947.539 49.2188C947.143 49.6406 946.898 50.2344 946.805 51H951.039V50.8906C950.997 50.1562 950.799 49.5885 950.445 49.1875C950.091 48.7812 949.612 48.5781 949.008 48.5781ZM955.531 47.5469L955.578 48.6094C956.224 47.7969 957.068 47.3906 958.109 47.3906C959.896 47.3906 960.797 48.3984 960.812 50.4141V56H959.367V50.4062C959.362 49.7969 959.221 49.3464 958.945 49.0547C958.674 48.763 958.25 48.6172 957.672 48.6172C957.203 48.6172 956.792 48.7422 956.438 48.9922C956.083 49.2422 955.807 49.5703 955.609 49.9766V56H954.164V47.5469H955.531ZM964.953 45.5V47.5469H966.531V48.6641H964.953V53.9062C964.953 54.2448 965.023 54.5 965.164 54.6719C965.305 54.8385 965.544 54.9219 965.883 54.9219C966.049 54.9219 966.279 54.8906 966.57 54.8281V56C966.19 56.1042 965.82 56.1562 965.461 56.1562C964.815 56.1562 964.328 55.9609 964 55.5703C963.672 55.1797 963.508 54.625 963.508 53.9062V48.6641H961.969V47.5469H963.508V45.5H964.953Z" fill="black"/>
<path d="M860 1V0H859V1H860ZM983 1H984V0H983V1ZM983 81V82H984V81H983ZM860 81H859V82H860V81ZM860 2H983V0H860V2ZM982 1V81H984V1H982ZM983 80H860V82H983V80ZM861 81V1H859V81H861Z" fill="black"/>
<rect x="1083" y="1" width="113" height="80" fill="white"/>
<path d="M1108.41 25.625H1109.92V33.6797C1109.92 34.7682 1109.59 35.6198 1108.94 36.2344C1108.29 36.849 1107.42 37.1562 1106.33 37.1562C1105.2 37.1562 1104.32 36.8672 1103.69 36.2891C1103.06 35.7109 1102.74 34.901 1102.74 33.8594H1104.24C1104.24 34.5104 1104.42 35.0182 1104.77 35.3828C1105.13 35.7474 1105.65 35.9297 1106.33 35.9297C1106.95 35.9297 1107.45 35.7344 1107.83 35.3438C1108.21 34.9531 1108.41 34.4062 1108.41 33.7031V25.625ZM1111.87 32.6953C1111.87 31.8672 1112.03 31.1224 1112.35 30.4609C1112.68 29.7995 1113.13 29.2891 1113.71 28.9297C1114.29 28.5703 1114.96 28.3906 1115.7 28.3906C1116.85 28.3906 1117.78 28.7891 1118.49 29.5859C1119.21 30.3828 1119.56 31.4427 1119.56 32.7656V32.8672C1119.56 33.6901 1119.4 34.4297 1119.09 35.0859C1118.77 35.737 1118.32 36.2448 1117.73 36.6094C1117.15 36.974 1116.48 37.1562 1115.72 37.1562C1114.57 37.1562 1113.64 36.7578 1112.93 35.9609C1112.22 35.1641 1111.87 34.1094 1111.87 32.7969V32.6953ZM1113.32 32.8672C1113.32 33.8047 1113.54 34.5573 1113.97 35.125C1114.41 35.6927 1114.99 35.9766 1115.72 35.9766C1116.45 35.9766 1117.04 35.6901 1117.47 35.1172C1117.9 34.5391 1118.12 33.7318 1118.12 32.6953C1118.12 31.7682 1117.9 31.0182 1117.45 30.4453C1117.02 29.8672 1116.43 29.5781 1115.7 29.5781C1114.99 29.5781 1114.41 29.862 1113.98 30.4297C1113.54 30.9974 1113.32 31.8099 1113.32 32.8672ZM1122.95 37H1121.5V28.5469H1122.95V37ZM1121.38 26.3047C1121.38 26.0703 1121.45 25.8724 1121.59 25.7109C1121.74 25.5495 1121.95 25.4688 1122.23 25.4688C1122.52 25.4688 1122.73 25.5495 1122.88 25.7109C1123.02 25.8724 1123.09 26.0703 1123.09 26.3047C1123.09 26.5391 1123.02 26.7344 1122.88 26.8906C1122.73 27.0469 1122.52 27.125 1122.23 27.125C1121.95 27.125 1121.74 27.0469 1121.59 26.8906C1121.45 26.7344 1121.38 26.5391 1121.38 26.3047ZM1126.63 28.5469L1126.68 29.6094C1127.33 28.7969 1128.17 28.3906 1129.21 28.3906C1131 28.3906 1131.9 29.3984 1131.91 31.4141V37H1130.47V31.4062C1130.46 30.7969 1130.32 30.3464 1130.05 30.0547C1129.78 29.763 1129.35 29.6172 1128.77 29.6172C1128.3 29.6172 1127.89 29.7422 1127.54 29.9922C1127.18 30.2422 1126.91 30.5703 1126.71 30.9766V37H1125.27V28.5469H1126.63ZM1134.38 37.9766H1133.14L1137.89 25.625H1139.12L1134.38 37.9766ZM1142.26 37H1140.81V25H1142.26V37ZM1148.09 37.1562C1146.94 37.1562 1146.01 36.7812 1145.29 36.0312C1144.57 35.276 1144.21 34.2682 1144.21 33.0078V32.7422C1144.21 31.9036 1144.37 31.1562 1144.69 30.5C1145.01 29.8385 1145.46 29.3229 1146.03 28.9531C1146.61 28.5781 1147.23 28.3906 1147.91 28.3906C1149.01 28.3906 1149.86 28.7526 1150.47 29.4766C1151.08 30.2005 1151.38 31.237 1151.38 32.5859V33.1875H1145.66C1145.68 34.0208 1145.92 34.6953 1146.38 35.2109C1146.85 35.7214 1147.45 35.9766 1148.16 35.9766C1148.67 35.9766 1149.11 35.8724 1149.46 35.6641C1149.82 35.4557 1150.12 35.1797 1150.39 34.8359L1151.27 35.5234C1150.57 36.612 1149.5 37.1562 1148.09 37.1562ZM1147.91 29.5781C1147.32 29.5781 1146.83 29.7917 1146.44 30.2188C1146.04 30.6406 1145.8 31.2344 1145.7 32H1149.94V31.8906C1149.9 31.1562 1149.7 30.5885 1149.34 30.1875C1148.99 29.7812 1148.51 29.5781 1147.91 29.5781ZM1158.28 37C1158.2 36.8333 1158.13 36.5365 1158.08 36.1094C1157.41 36.8073 1156.6 37.1562 1155.67 37.1562C1154.84 37.1562 1154.15 36.9219 1153.62 36.4531C1153.09 35.9792 1152.82 35.3802 1152.82 34.6562C1152.82 33.776 1153.15 33.0938 1153.82 32.6094C1154.49 32.1198 1155.43 31.875 1156.65 31.875H1158.05V31.2109C1158.05 30.7057 1157.9 30.3047 1157.6 30.0078C1157.3 29.7057 1156.85 29.5547 1156.27 29.5547C1155.75 29.5547 1155.32 29.6849 1154.97 29.9453C1154.62 30.2057 1154.45 30.5208 1154.45 30.8906H1152.99C1152.99 30.4688 1153.14 30.0625 1153.44 29.6719C1153.74 29.276 1154.15 28.9635 1154.66 28.7344C1155.17 28.5052 1155.74 28.3906 1156.35 28.3906C1157.33 28.3906 1158.09 28.6354 1158.64 29.125C1159.19 29.6094 1159.48 30.2786 1159.5 31.1328V35.0234C1159.5 35.7995 1159.6 36.4167 1159.8 36.875V37H1158.28ZM1155.88 35.8984C1156.34 35.8984 1156.77 35.7812 1157.17 35.5469C1157.58 35.3125 1157.87 35.0078 1158.05 34.6328V32.8984H1156.92C1155.15 32.8984 1154.27 33.4167 1154.27 34.4531C1154.27 34.9062 1154.42 35.2604 1154.72 35.5156C1155.02 35.7708 1155.41 35.8984 1155.88 35.8984ZM1164.43 35.0391L1166.52 28.5469H1168L1164.97 37H1163.87L1160.8 28.5469H1162.28L1164.43 35.0391ZM1172.79 37.1562C1171.64 37.1562 1170.71 36.7812 1169.99 36.0312C1169.27 35.276 1168.91 34.2682 1168.91 33.0078V32.7422C1168.91 31.9036 1169.07 31.1562 1169.39 30.5C1169.71 29.8385 1170.16 29.3229 1170.73 28.9531C1171.31 28.5781 1171.94 28.3906 1172.61 28.3906C1173.71 28.3906 1174.56 28.7526 1175.17 29.4766C1175.78 30.2005 1176.09 31.237 1176.09 32.5859V33.1875H1170.36C1170.38 34.0208 1170.62 34.6953 1171.09 35.2109C1171.55 35.7214 1172.15 35.9766 1172.87 35.9766C1173.38 35.9766 1173.81 35.8724 1174.16 35.6641C1174.52 35.4557 1174.83 35.1797 1175.09 34.8359L1175.98 35.5234C1175.27 36.612 1174.21 37.1562 1172.79 37.1562ZM1172.61 29.5781C1172.03 29.5781 1171.54 29.7917 1171.14 30.2188C1170.74 30.6406 1170.5 31.2344 1170.41 32H1174.64V31.8906C1174.6 31.1562 1174.4 30.5885 1174.05 30.1875C1173.69 29.7812 1173.21 29.5781 1172.61 29.5781ZM1119.66 51.7031C1119.66 50.3854 1119.96 49.3385 1120.57 48.5625C1121.18 47.7812 1121.99 47.3906 1122.99 47.3906C1124.02 47.3906 1124.83 47.7552 1125.41 48.4844L1125.48 47.5469H1126.8V55.7969C1126.8 56.8906 1126.47 57.7526 1125.82 58.3828C1125.17 59.013 1124.3 59.3281 1123.21 59.3281C1122.6 59.3281 1122.01 59.1979 1121.42 58.9375C1120.84 58.6771 1120.39 58.3203 1120.09 57.8672L1120.84 57C1121.46 57.7656 1122.21 58.1484 1123.11 58.1484C1123.81 58.1484 1124.36 57.9505 1124.75 57.5547C1125.15 57.1589 1125.34 56.6016 1125.34 55.8828V55.1562C1124.77 55.8229 1123.98 56.1562 1122.98 56.1562C1121.99 56.1562 1121.18 55.7578 1120.57 54.9609C1119.96 54.1641 1119.66 53.0781 1119.66 51.7031ZM1121.11 51.8672C1121.11 52.8203 1121.3 53.5703 1121.7 54.1172C1122.09 54.6589 1122.63 54.9297 1123.34 54.9297C1124.25 54.9297 1124.92 54.5156 1125.34 53.6875V49.8281C1124.9 49.0208 1124.24 48.6172 1123.35 48.6172C1122.65 48.6172 1122.1 48.8906 1121.7 49.4375C1121.31 49.9844 1121.11 50.7943 1121.11 51.8672ZM1133.07 48.8438C1132.85 48.8073 1132.61 48.7891 1132.36 48.7891C1131.41 48.7891 1130.77 49.1927 1130.43 50V56H1128.98V47.5469H1130.39L1130.41 48.5234C1130.89 47.7682 1131.56 47.3906 1132.43 47.3906C1132.71 47.3906 1132.92 47.4271 1133.07 47.5V48.8438ZM1133.87 51.6953C1133.87 50.8672 1134.03 50.1224 1134.35 49.4609C1134.68 48.7995 1135.13 48.2891 1135.71 47.9297C1136.29 47.5703 1136.96 47.3906 1137.7 47.3906C1138.85 47.3906 1139.78 47.7891 1140.49 48.5859C1141.21 49.3828 1141.56 50.4427 1141.56 51.7656V51.8672C1141.56 52.6901 1141.4 53.4297 1141.09 54.0859C1140.77 54.737 1140.32 55.2448 1139.73 55.6094C1139.15 55.974 1138.48 56.1562 1137.72 56.1562C1136.57 56.1562 1135.64 55.7578 1134.93 54.9609C1134.22 54.1641 1133.87 53.1094 1133.87 51.7969V51.6953ZM1135.32 51.8672C1135.32 52.8047 1135.54 53.5573 1135.97 54.125C1136.41 54.6927 1136.99 54.9766 1137.72 54.9766C1138.45 54.9766 1139.04 54.6901 1139.47 54.1172C1139.9 53.5391 1140.12 52.7318 1140.12 51.6953C1140.12 50.7682 1139.9 50.0182 1139.45 49.4453C1139.02 48.8672 1138.43 48.5781 1137.7 48.5781C1136.99 48.5781 1136.41 48.862 1135.98 49.4297C1135.54 49.9974 1135.32 50.8099 1135.32 51.8672ZM1148.59 55.1641C1148.03 55.8255 1147.21 56.1562 1146.12 56.1562C1145.22 56.1562 1144.53 55.8958 1144.05 55.375C1143.59 54.849 1143.35 54.0729 1143.34 53.0469V47.5469H1144.79V53.0078C1144.79 54.2891 1145.31 54.9297 1146.35 54.9297C1147.46 54.9297 1148.19 54.5182 1148.55 53.6953V47.5469H1150V56H1148.62L1148.59 55.1641ZM1159.34 51.8672C1159.34 53.1536 1159.05 54.1901 1158.46 54.9766C1157.87 55.763 1157.08 56.1562 1156.07 56.1562C1155.04 56.1562 1154.24 55.8307 1153.65 55.1797V59.25H1152.2V47.5469H1153.52L1153.59 48.4844C1154.18 47.7552 1155 47.3906 1156.05 47.3906C1157.06 47.3906 1157.86 47.7734 1158.45 48.5391C1159.05 49.3047 1159.34 50.3698 1159.34 51.7344V51.8672ZM1157.9 51.7031C1157.9 50.75 1157.7 49.9974 1157.29 49.4453C1156.88 48.8932 1156.33 48.6172 1155.62 48.6172C1154.74 48.6172 1154.09 49.0052 1153.65 49.7812V53.8203C1154.08 54.5911 1154.74 54.9766 1155.63 54.9766C1156.33 54.9766 1156.88 54.7031 1157.28 54.1562C1157.69 53.6042 1157.9 52.7865 1157.9 51.7031Z" fill="black"/>
<path d="M1083 1V0H1082V1H1083ZM1196 1H1197V0H1196V1ZM1196 81V82H1197V81H1196ZM1083 81H1082V82H1083V81ZM1083 2H1196V0H1083V2ZM1195 1V81H1197V1H1195ZM1196 80H1083V82H1196V80ZM1084 81V1H1082V81H1084Z" fill="black"/>
<path d="M554 41L634 41" stroke="black" stroke-width="2"/>
<path d="M611 17L635 41L611 65" stroke="black" stroke-width="2"/>
<rect x="646" y="1" width="108" height="80" fill="white"/>
<path d="M680.039 33.3906C679.898 34.5938 679.453 35.5234 678.703 36.1797C677.958 36.8307 676.966 37.1562 675.727 37.1562C674.383 37.1562 673.305 36.6745 672.492 35.7109C671.685 34.7474 671.281 33.4583 671.281 31.8438V30.75C671.281 29.6927 671.469 28.763 671.844 27.9609C672.224 27.1589 672.76 26.5443 673.453 26.1172C674.146 25.6849 674.948 25.4688 675.859 25.4688C677.068 25.4688 678.036 25.8073 678.766 26.4844C679.495 27.1562 679.919 28.0885 680.039 29.2812H678.531C678.401 28.375 678.117 27.7188 677.68 27.3125C677.247 26.9062 676.641 26.7031 675.859 26.7031C674.901 26.7031 674.148 27.0573 673.602 27.7656C673.06 28.474 672.789 29.4818 672.789 30.7891V31.8906C672.789 33.125 673.047 34.1068 673.562 34.8359C674.078 35.5651 674.799 35.9297 675.727 35.9297C676.56 35.9297 677.198 35.7422 677.641 35.3672C678.089 34.987 678.385 34.3281 678.531 33.3906H680.039ZM681.484 32.6953C681.484 31.8672 681.646 31.1224 681.969 30.4609C682.297 29.7995 682.75 29.2891 683.328 28.9297C683.911 28.5703 684.576 28.3906 685.32 28.3906C686.471 28.3906 687.401 28.7891 688.109 29.5859C688.823 30.3828 689.18 31.4427 689.18 32.7656V32.8672C689.18 33.6901 689.021 34.4297 688.703 35.0859C688.391 35.737 687.94 36.2448 687.352 36.6094C686.768 36.974 686.096 37.1562 685.336 37.1562C684.19 37.1562 683.26 36.7578 682.547 35.9609C681.839 35.1641 681.484 34.1094 681.484 32.7969V32.6953ZM682.938 32.8672C682.938 33.8047 683.154 34.5573 683.586 35.125C684.023 35.6927 684.607 35.9766 685.336 35.9766C686.07 35.9766 686.654 35.6901 687.086 35.1172C687.518 34.5391 687.734 33.7318 687.734 32.6953C687.734 31.7682 687.513 31.0182 687.07 30.4453C686.633 29.8672 686.049 29.5781 685.32 29.5781C684.607 29.5781 684.031 29.862 683.594 30.4297C683.156 30.9974 682.938 31.8099 682.938 32.8672ZM692.359 28.5469L692.406 29.6094C693.052 28.7969 693.896 28.3906 694.938 28.3906C696.724 28.3906 697.625 29.3984 697.641 31.4141V37H696.195V31.4062C696.19 30.7969 696.049 30.3464 695.773 30.0547C695.503 29.763 695.078 29.6172 694.5 29.6172C694.031 29.6172 693.62 29.7422 693.266 29.9922C692.911 30.2422 692.635 30.5703 692.438 30.9766V37H690.992V28.5469H692.359ZM701.188 28.5469L701.234 29.6094C701.88 28.7969 702.724 28.3906 703.766 28.3906C705.552 28.3906 706.453 29.3984 706.469 31.4141V37H705.023V31.4062C705.018 30.7969 704.878 30.3464 704.602 30.0547C704.331 29.763 703.906 29.6172 703.328 29.6172C702.859 29.6172 702.448 29.7422 702.094 29.9922C701.74 30.2422 701.464 30.5703 701.266 30.9766V37H699.82V28.5469H701.188ZM712.156 37.1562C711.01 37.1562 710.078 36.7812 709.359 36.0312C708.641 35.276 708.281 34.2682 708.281 33.0078V32.7422C708.281 31.9036 708.44 31.1562 708.758 30.5C709.081 29.8385 709.529 29.3229 710.102 28.9531C710.68 28.5781 711.305 28.3906 711.977 28.3906C713.076 28.3906 713.93 28.7526 714.539 29.4766C715.148 30.2005 715.453 31.237 715.453 32.5859V33.1875H709.727C709.747 34.0208 709.99 34.6953 710.453 35.2109C710.922 35.7214 711.516 35.9766 712.234 35.9766C712.745 35.9766 713.177 35.8724 713.531 35.6641C713.885 35.4557 714.195 35.1797 714.461 34.8359L715.344 35.5234C714.635 36.612 713.573 37.1562 712.156 37.1562ZM711.977 29.5781C711.393 29.5781 710.904 29.7917 710.508 30.2188C710.112 30.6406 709.867 31.2344 709.773 32H714.008V31.8906C713.966 31.1562 713.768 30.5885 713.414 30.1875C713.06 29.7812 712.581 29.5781 711.977 29.5781ZM720.523 35.9766C721.039 35.9766 721.49 35.8203 721.875 35.5078C722.26 35.1953 722.474 34.8047 722.516 34.3359H723.883C723.857 34.8203 723.69 35.2812 723.383 35.7188C723.076 36.1562 722.664 36.5052 722.148 36.7656C721.638 37.026 721.096 37.1562 720.523 37.1562C719.372 37.1562 718.456 36.7734 717.773 36.0078C717.096 35.237 716.758 34.1849 716.758 32.8516V32.6094C716.758 31.7865 716.909 31.0547 717.211 30.4141C717.513 29.7734 717.945 29.276 718.508 28.9219C719.076 28.5677 719.745 28.3906 720.516 28.3906C721.464 28.3906 722.25 28.6745 722.875 29.2422C723.505 29.8099 723.841 30.5469 723.883 31.4531H722.516C722.474 30.9062 722.266 30.4583 721.891 30.1094C721.521 29.7552 721.062 29.5781 720.516 29.5781C719.781 29.5781 719.211 29.8438 718.805 30.375C718.404 30.901 718.203 31.6641 718.203 32.6641V32.9375C718.203 33.9115 718.404 34.6615 718.805 35.1875C719.206 35.7135 719.779 35.9766 720.523 35.9766ZM727.469 26.5V28.5469H729.047V29.6641H727.469V34.9062C727.469 35.2448 727.539 35.5 727.68 35.6719C727.82 35.8385 728.06 35.9219 728.398 35.9219C728.565 35.9219 728.794 35.8906 729.086 35.8281V37C728.706 37.1042 728.336 37.1562 727.977 37.1562C727.331 37.1562 726.844 36.9609 726.516 36.5703C726.188 36.1797 726.023 35.625 726.023 34.9062V29.6641H724.484V28.5469H726.023V26.5H727.469ZM687.461 54.0078L689.086 47.5469H690.531L688.07 56H686.898L684.844 49.5938L682.844 56H681.672L679.219 47.5469H680.656L682.32 53.875L684.289 47.5469H685.453L687.461 54.0078ZM697.227 56C697.143 55.8333 697.076 55.5365 697.023 55.1094C696.352 55.8073 695.549 56.1562 694.617 56.1562C693.784 56.1562 693.099 55.9219 692.562 55.4531C692.031 54.9792 691.766 54.3802 691.766 53.6562C691.766 52.776 692.099 52.0938 692.766 51.6094C693.438 51.1198 694.38 50.875 695.594 50.875H697V50.2109C697 49.7057 696.849 49.3047 696.547 49.0078C696.245 48.7057 695.799 48.5547 695.211 48.5547C694.695 48.5547 694.263 48.6849 693.914 48.9453C693.565 49.2057 693.391 49.5208 693.391 49.8906H691.938C691.938 49.4688 692.086 49.0625 692.383 48.6719C692.685 48.276 693.091 47.9635 693.602 47.7344C694.117 47.5052 694.682 47.3906 695.297 47.3906C696.271 47.3906 697.034 47.6354 697.586 48.125C698.138 48.6094 698.424 49.2786 698.445 50.1328V54.0234C698.445 54.7995 698.544 55.4167 698.742 55.875V56H697.227ZM694.828 54.8984C695.281 54.8984 695.711 54.7812 696.117 54.5469C696.523 54.3125 696.818 54.0078 697 53.6328V51.8984H695.867C694.096 51.8984 693.211 52.4167 693.211 53.4531C693.211 53.9062 693.362 54.2604 693.664 54.5156C693.966 54.7708 694.354 54.8984 694.828 54.8984ZM702.281 56H700.836V44H702.281V56ZM706.172 56H704.727V44H706.172V56ZM712 56.1562C710.854 56.1562 709.922 55.7812 709.203 55.0312C708.484 54.276 708.125 53.2682 708.125 52.0078V51.7422C708.125 50.9036 708.284 50.1562 708.602 49.5C708.924 48.8385 709.372 48.3229 709.945 47.9531C710.523 47.5781 711.148 47.3906 711.82 47.3906C712.919 47.3906 713.773 47.7526 714.383 48.4766C714.992 49.2005 715.297 50.237 715.297 51.5859V52.1875H709.57C709.591 53.0208 709.833 53.6953 710.297 54.2109C710.766 54.7214 711.359 54.9766 712.078 54.9766C712.589 54.9766 713.021 54.8724 713.375 54.6641C713.729 54.4557 714.039 54.1797 714.305 53.8359L715.188 54.5234C714.479 55.612 713.417 56.1562 712 56.1562ZM711.82 48.5781C711.237 48.5781 710.747 48.7917 710.352 49.2188C709.956 49.6406 709.711 50.2344 709.617 51H713.852V50.8906C713.81 50.1562 713.612 49.5885 713.258 49.1875C712.904 48.7812 712.424 48.5781 711.82 48.5781ZM718.938 45.5V47.5469H720.516V48.6641H718.938V53.9062C718.938 54.2448 719.008 54.5 719.148 54.6719C719.289 54.8385 719.529 54.9219 719.867 54.9219C720.034 54.9219 720.263 54.8906 720.555 54.8281V56C720.174 56.1042 719.805 56.1562 719.445 56.1562C718.799 56.1562 718.312 55.9609 717.984 55.5703C717.656 55.1797 717.492 54.625 717.492 53.9062V48.6641H715.953V47.5469H717.492V45.5H718.938Z" fill="black"/>
<path d="M646 1V0H645V1H646ZM754 1H755V0H754V1ZM754 81V82H755V81H754ZM646 81H645V82H646V81ZM646 2H754V0H646V2ZM753 1V81H755V1H753ZM754 80H646V82H754V80ZM647 81V1H645V81H647Z" fill="black"/>
</svg>
