<svg width="582" height="101" viewBox="0 0 582 101" fill="none" xmlns="http://www.w3.org/2000/svg">
<path d="M31.2344 1.1875C24.625 1.1875 19 2.6875 14.3594 5.6875C9.71875 8.64062 6.17969 12.6953 3.74219 17.8516C1.35156 22.9609 0.15625 28.8438 0.15625 35.5V42.8125C0.15625 49.4219 1.35156 55.3281 3.74219 60.5312C6.13281 65.7344 9.64844 69.8125 14.2891 72.7656C18.9297 75.7188 24.5781 77.1953 31.2344 77.1953C37.8906 77.1953 43.5156 75.7188 48.1094 72.7656C52.75 69.8125 56.2656 65.7344 58.6562 60.5312C61.0938 55.3281 62.3125 49.4219 62.3125 42.8125V35.5C62.3125 28.8906 61.0938 23.0078 58.6562 17.8516C56.2656 12.6953 52.75 8.64062 48.1094 5.6875C43.5156 2.6875 37.8906 1.1875 31.2344 1.1875ZM31.2344 10.1875C35.6406 10.1875 39.3906 11.2188 42.4844 13.2812C45.5781 15.3438 47.9453 18.3203 49.5859 22.2109C51.2734 26.0547 52.1172 30.6484 52.1172 35.9922V42.3203C52.1172 47.6641 51.2734 52.2578 49.5859 56.1016C47.9453 59.9453 45.5781 62.9219 42.4844 65.0312C39.3906 67.0938 35.6406 68.125 31.2344 68.125C26.875 68.125 23.125 67.0938 19.9844 65.0312C16.8438 62.9219 14.4531 59.9453 12.8125 56.1016C11.1719 52.2578 10.3516 47.6641 10.3516 42.3203V35.9922C10.3516 30.6484 11.1719 26.0547 12.8125 22.2109C14.4531 18.3203 16.8438 15.3438 19.9844 13.2812C23.125 11.2188 26.875 10.1875 31.2344 10.1875ZM113.57 77.1953C119.242 77.1953 124.258 75.8359 128.617 73.1172C133.023 70.3984 136.492 66.5078 139.023 61.4453C141.602 56.3359 142.891 50.2422 142.891 43.1641V35.2891C142.891 28.1172 141.625 22 139.094 16.9375C136.609 11.875 133.188 7.98438 128.828 5.26562C124.469 2.54687 119.523 1.1875 113.992 1.1875C111.32 1.1875 108.836 1.51563 106.539 2.17188C104.289 2.82812 102.227 3.74219 100.352 4.91406C98.4766 6.03906 96.8359 7.35156 95.4297 8.85156C94.0234 10.3047 92.8047 11.8516 91.7734 13.4922H91.4922V2.38281H81.8594V100.328H91.9844V65.6641H92.2656C93.5781 67.7734 95.2422 69.7188 97.2578 71.5C99.3203 73.2344 101.711 74.6172 104.43 75.6484C107.148 76.6797 110.195 77.1953 113.57 77.1953ZM113.078 68.125C108.719 68.125 104.945 67.0469 101.758 64.8906C98.5703 62.6875 96.1094 59.6406 94.375 55.75C92.6875 51.8594 91.8438 47.3359 91.8438 42.1797V35.6406C91.8438 30.6719 92.6641 26.2891 94.3047 22.4922C95.9922 18.6484 98.4062 15.6484 101.547 13.4922C104.688 11.2891 108.438 10.1875 112.797 10.1875C116.969 10.1875 120.531 11.1953 123.484 13.2109C126.438 15.2266 128.711 18.1562 130.305 22C131.898 25.7969 132.695 30.3672 132.695 35.7109V42.1094C132.695 47.7812 131.852 52.5625 130.164 56.4531C128.523 60.2969 126.227 63.2031 123.273 65.1719C120.32 67.1406 116.922 68.125 113.078 68.125ZM189.508 77.1953C193.492 77.1953 197.078 76.6797 200.266 75.6484C203.453 74.5703 206.219 73.1172 208.562 71.2891C210.906 69.4141 212.828 67.2109 214.328 64.6797C215.875 62.1484 216.977 59.4297 217.633 56.5234H207.367C206.617 58.8672 205.445 60.9297 203.852 62.7109C202.305 64.4922 200.359 65.8984 198.016 66.9297C195.672 67.9141 192.93 68.4062 189.789 68.4062C183.414 68.4062 178.422 66.1094 174.812 61.5156C171.25 56.875 169.469 50.7812 169.469 43.2344V41.6875H218.688V35.3594C218.688 28.4688 217.516 22.4688 215.172 17.3594C212.828 12.25 209.43 8.28906 204.977 5.47656C200.57 2.61719 195.227 1.1875 188.945 1.1875C182.617 1.1875 177.227 2.61719 172.773 5.47656C168.367 8.28906 164.992 12.2031 162.648 17.2188C160.352 22.2344 159.203 28 159.203 34.5156V42.8828C159.203 49.8203 160.398 55.8672 162.789 61.0234C165.227 66.1797 168.719 70.1641 173.266 72.9766C177.812 75.7891 183.227 77.1953 189.508 77.1953ZM169.469 32.8984C169.469 32.8516 169.469 32.8281 169.469 32.8281C169.469 32.7812 169.469 32.7344 169.469 32.6875C169.469 28.375 170.266 24.5078 171.859 21.0859C173.453 17.6641 175.703 14.9688 178.609 13C181.562 10.9844 185.008 9.97656 188.945 9.97656C192.883 9.97656 196.305 10.9844 199.211 13C202.164 14.9688 204.438 17.6641 206.031 21.0859C207.672 24.5078 208.492 28.375 208.492 32.6875C208.492 32.7344 208.492 32.7812 208.492 32.8281C208.492 32.8281 208.492 32.8516 208.492 32.8984H169.469ZM237.742 76H247.938V30.9297C247.938 27.4141 248.594 24.1094 249.906 21.0156C251.266 17.875 253.375 15.3438 256.234 13.4219C259.141 11.5 262.844 10.5391 267.344 10.5391C271.188 10.5391 274.516 11.3125 277.328 12.8594C280.188 14.3594 282.391 16.5859 283.938 19.5391C285.484 22.4453 286.258 26.0078 286.258 30.2266V76H296.453V28.6797C296.453 19.7734 293.945 12.9766 288.93 8.28906C283.914 3.55469 277.609 1.1875 270.016 1.1875C265.984 1.1875 262.492 1.79688 259.539 3.01562C256.633 4.23438 254.242 5.73438 252.367 7.51562C250.492 9.25 249.109 10.9609 248.219 12.6484H247.938V2.38281H237.742V76ZM315.789 76H334.211V30.7188C334.211 27.25 334.797 24.4141 335.969 22.2109C337.188 20.0078 338.781 18.3672 340.75 17.2891C342.766 16.2109 344.969 15.6719 347.359 15.6719C349.891 15.6719 352.141 16.2109 354.109 17.2891C356.078 18.3203 357.625 19.9375 358.75 22.1406C359.875 24.3438 360.438 27.25 360.438 30.8594V76H378.297V30.8594C378.297 27.6719 378.812 24.9531 379.844 22.7031C380.922 20.4531 382.445 18.7188 384.414 17.5C386.43 16.2812 388.797 15.6719 391.516 15.6719C394.188 15.6719 396.484 16.2344 398.406 17.3594C400.328 18.4375 401.828 20.0547 402.906 22.2109C403.984 24.3672 404.523 27.0156 404.523 30.1562V76H423.016V25.0234C423.016 17.5234 420.883 11.5234 416.617 7.02344C412.352 2.47656 406.375 0.203125 398.688 0.203125C394.516 0.203125 390.883 0.835938 387.789 2.10156C384.695 3.36719 382.164 4.98438 380.195 6.95312C378.227 8.875 376.82 10.8906 375.977 13H375.203C374.359 10.4219 373.023 8.19531 371.195 6.32031C369.367 4.39844 367.047 2.89844 364.234 1.82031C361.469 0.742188 358.164 0.203125 354.32 0.203125C350.617 0.203125 347.43 0.8125 344.758 2.03125C342.086 3.25 339.93 4.77344 338.289 6.60156C336.648 8.42969 335.477 10.2578 334.773 12.0859H333.789V1.39844H315.789V76ZM471.883 77.3359C476.852 77.3359 481.211 76.6562 484.961 75.2969C488.711 73.9375 491.852 72.1328 494.383 69.8828C496.961 67.6328 498.977 65.1016 500.43 62.2891C501.93 59.4297 502.891 56.5 503.312 53.5H486.156C485.641 55.5156 484.727 57.25 483.414 58.7031C482.148 60.1562 480.531 61.2812 478.562 62.0781C476.641 62.8281 474.461 63.2031 472.023 63.2031C467.336 63.2031 463.516 61.5391 460.562 58.2109C457.656 54.8359 456.203 50.3359 456.203 44.7109V42.6719H504.016V35.3594C504.016 28.1875 502.68 21.9766 500.008 16.7266C497.383 11.4297 493.609 7.32812 488.688 4.42188C483.766 1.51563 477.906 0.0625 471.109 0.0625C464.594 0.0625 458.852 1.44531 453.883 4.21094C448.914 6.97656 445.023 10.9609 442.211 16.1641C439.445 21.3203 438.062 27.5547 438.062 34.8672V41.6875C438.062 49.2812 439.445 55.75 442.211 61.0938C445.023 66.3906 448.961 70.4219 454.023 73.1875C459.133 75.9531 465.086 77.3359 471.883 77.3359ZM456.203 30.9297C456.203 30.8828 456.203 30.8594 456.203 30.8594C456.203 30.8594 456.203 30.8359 456.203 30.7891C456.203 27.6016 456.812 24.7188 458.031 22.1406C459.297 19.5625 461.055 17.5469 463.305 16.0938C465.555 14.5938 468.203 13.8438 471.25 13.8438C474.25 13.8438 476.852 14.5938 479.055 16.0938C481.305 17.5469 483.039 19.5625 484.258 22.1406C485.477 24.7188 486.086 27.6016 486.086 30.7891C486.086 30.8359 486.086 30.8594 486.086 30.8594C486.086 30.8594 486.086 30.8828 486.086 30.9297H456.203ZM534.742 76H555.766L581.641 1.39844H562.586L545.781 57.5781H545.078L529.891 1.39844H510.133L534.742 76Z" fill="black"/>
</svg>
