<svg width="756" height="83" viewBox="0 0 756 83" fill="none" xmlns="http://www.w3.org/2000/svg">
<path d="M119 42L199 42" stroke="black" stroke-width="2"/>
<path d="M176 18L200 42L176 66" stroke="black" stroke-width="2"/>
<rect x="1" y="1" width="113" height="80" fill="white"/>
<path d="M23.6406 26.7734H29.0312V28H22.1328V16.625H23.6406V26.7734ZM30.1328 23.6953C30.1328 22.8672 30.2943 22.1224 30.6172 21.4609C30.9453 20.7995 31.3984 20.2891 31.9766 19.9297C32.5599 19.5703 33.224 19.3906 33.9688 19.3906C35.1198 19.3906 36.0495 19.7891 36.7578 20.5859C37.4714 21.3828 37.8281 22.4427 37.8281 23.7656V23.8672C37.8281 24.6901 37.6693 25.4297 37.3516 26.0859C37.0391 26.737 36.5885 27.2448 36 27.6094C35.4167 27.974 34.7448 28.1562 33.9844 28.1562C32.8385 28.1562 31.9089 27.7578 31.1953 26.9609C30.487 26.1641 30.1328 25.1094 30.1328 23.7969V23.6953ZM31.5859 23.8672C31.5859 24.8047 31.8021 25.5573 32.2344 26.125C32.6719 26.6927 33.2552 26.9766 33.9844 26.9766C34.7188 26.9766 35.3021 26.6901 35.7344 26.1172C36.1667 25.5391 36.3828 24.7318 36.3828 23.6953C36.3828 22.7682 36.1615 22.0182 35.7188 21.4453C35.2812 20.8672 34.6979 20.5781 33.9688 20.5781C33.2552 20.5781 32.6797 20.862 32.2422 21.4297C31.8047 21.9974 31.5859 22.8099 31.5859 23.8672ZM39.2969 23.7031C39.2969 22.3854 39.6016 21.3385 40.2109 20.5625C40.8203 19.7812 41.6276 19.3906 42.6328 19.3906C43.6641 19.3906 44.4688 19.7552 45.0469 20.4844L45.1172 19.5469H46.4375V27.7969C46.4375 28.8906 46.112 29.7526 45.4609 30.3828C44.8151 31.013 43.9453 31.3281 42.8516 31.3281C42.2422 31.3281 41.6458 31.1979 41.0625 30.9375C40.4792 30.6771 40.0339 30.3203 39.7266 29.8672L40.4766 29C41.0964 29.7656 41.8542 30.1484 42.75 30.1484C43.4531 30.1484 44 29.9505 44.3906 29.5547C44.7865 29.1589 44.9844 28.6016 44.9844 27.8828V27.1562C44.4062 27.8229 43.6172 28.1562 42.6172 28.1562C41.6276 28.1562 40.8255 27.7578 40.2109 26.9609C39.6016 26.1641 39.2969 25.0781 39.2969 23.7031ZM40.75 23.8672C40.75 24.8203 40.9453 25.5703 41.3359 26.1172C41.7266 26.6589 42.2734 26.9297 42.9766 26.9297C43.888 26.9297 44.5573 26.5156 44.9844 25.6875V21.8281C44.5417 21.0208 43.8776 20.6172 42.9922 20.6172C42.2891 20.6172 41.7396 20.8906 41.3438 21.4375C40.9479 21.9844 40.75 22.7943 40.75 23.8672ZM50.1953 28H48.75V19.5469H50.1953V28ZM48.6328 17.3047C48.6328 17.0703 48.7031 16.8724 48.8438 16.7109C48.9896 16.5495 49.2031 16.4688 49.4844 16.4688C49.7656 16.4688 49.9792 16.5495 50.125 16.7109C50.2708 16.8724 50.3438 17.0703 50.3438 17.3047C50.3438 17.5391 50.2708 17.7344 50.125 17.8906C49.9792 18.0469 49.7656 18.125 49.4844 18.125C49.2031 18.125 48.9896 18.0469 48.8438 17.8906C48.7031 17.7344 48.6328 17.5391 48.6328 17.3047ZM53.8828 19.5469L53.9297 20.6094C54.5755 19.7969 55.4193 19.3906 56.4609 19.3906C58.2474 19.3906 59.1484 20.3984 59.1641 22.4141V28H57.7188V22.4062C57.7135 21.7969 57.5729 21.3464 57.2969 21.0547C57.026 20.763 56.6016 20.6172 56.0234 20.6172C55.5547 20.6172 55.1432 20.7422 54.7891 20.9922C54.4349 21.2422 54.1589 21.5703 53.9609 21.9766V28H52.5156V19.5469H53.8828ZM72.7969 26.0078L74.4219 19.5469H75.8672L73.4062 28H72.2344L70.1797 21.5938L68.1797 28H67.0078L64.5547 19.5469H65.9922L67.6562 25.875L69.625 19.5469H70.7891L72.7969 26.0078ZM78.9141 28H77.4688V19.5469H78.9141V28ZM77.3516 17.3047C77.3516 17.0703 77.4219 16.8724 77.5625 16.7109C77.7083 16.5495 77.9219 16.4688 78.2031 16.4688C78.4844 16.4688 78.6979 16.5495 78.8438 16.7109C78.9896 16.8724 79.0625 17.0703 79.0625 17.3047C79.0625 17.5391 78.9896 17.7344 78.8438 17.8906C78.6979 18.0469 78.4844 18.125 78.2031 18.125C77.9219 18.125 77.7083 18.0469 77.5625 17.8906C77.4219 17.7344 77.3516 17.5391 77.3516 17.3047ZM83.1953 17.5V19.5469H84.7734V20.6641H83.1953V25.9062C83.1953 26.2448 83.2656 26.5 83.4062 26.6719C83.5469 26.8385 83.7865 26.9219 84.125 26.9219C84.2917 26.9219 84.5208 26.8906 84.8125 26.8281V28C84.4323 28.1042 84.0625 28.1562 83.7031 28.1562C83.0573 28.1562 82.5703 27.9609 82.2422 27.5703C81.9141 27.1797 81.75 26.625 81.75 25.9062V20.6641H80.2109V19.5469H81.75V17.5H83.1953ZM87.9141 20.5703C88.5547 19.7839 89.388 19.3906 90.4141 19.3906C92.2005 19.3906 93.1016 20.3984 93.1172 22.4141V28H91.6719V22.4062C91.6667 21.7969 91.526 21.3464 91.25 21.0547C90.9792 20.763 90.5547 20.6172 89.9766 20.6172C89.5078 20.6172 89.0964 20.7422 88.7422 20.9922C88.388 21.2422 88.112 21.5703 87.9141 21.9766V28H86.4688V16H87.9141V20.5703ZM45.5469 41.6797C45.5469 42.7943 45.3594 43.7682 44.9844 44.6016C44.6094 45.4297 44.0781 46.0625 43.3906 46.5C42.7031 46.9375 41.901 47.1562 40.9844 47.1562C40.0885 47.1562 39.2943 46.9375 38.6016 46.5C37.9089 46.0573 37.3698 45.4297 36.9844 44.6172C36.6042 43.7995 36.4089 42.8542 36.3984 41.7812V40.9609C36.3984 39.8672 36.5885 38.901 36.9688 38.0625C37.349 37.224 37.8854 36.5833 38.5781 36.1406C39.276 35.6927 40.0729 35.4688 40.9688 35.4688C41.8802 35.4688 42.6823 35.6901 43.375 36.1328C44.0729 36.5703 44.6094 37.2083 44.9844 38.0469C45.3594 38.8802 45.5469 39.8516 45.5469 40.9609V41.6797ZM44.0547 40.9453C44.0547 39.5964 43.7839 38.5625 43.2422 37.8438C42.7005 37.1198 41.9427 36.7578 40.9688 36.7578C40.0208 36.7578 39.2734 37.1198 38.7266 37.8438C38.1849 38.5625 37.9062 39.5625 37.8906 40.8438V41.6797C37.8906 42.987 38.1641 44.0156 38.7109 44.7656C39.263 45.5104 40.0208 45.8828 40.9844 45.8828C41.9531 45.8828 42.7031 45.5312 43.2344 44.8281C43.7656 44.1198 44.0391 43.1068 44.0547 41.7891V40.9453ZM53.9062 44.0312H49.1406L48.0703 47H46.5234L50.8672 35.625H52.1797L56.5312 47H54.9922L53.9062 44.0312ZM49.5938 42.7969H53.4609L51.5234 37.4766L49.5938 42.7969ZM62.9609 46.1641C62.3984 46.8255 61.5729 47.1562 60.4844 47.1562C59.5833 47.1562 58.8958 46.8958 58.4219 46.375C57.9531 45.849 57.7161 45.0729 57.7109 44.0469V38.5469H59.1562V44.0078C59.1562 45.2891 59.6771 45.9297 60.7188 45.9297C61.8229 45.9297 62.5573 45.5182 62.9219 44.6953V38.5469H64.3672V47H62.9922L62.9609 46.1641ZM68.5312 36.5V38.5469H70.1094V39.6641H68.5312V44.9062C68.5312 45.2448 68.6016 45.5 68.7422 45.6719C68.8828 45.8385 69.1224 45.9219 69.4609 45.9219C69.6276 45.9219 69.8568 45.8906 70.1484 45.8281V47C69.7682 47.1042 69.3984 47.1562 69.0391 47.1562C68.3932 47.1562 67.9062 46.9609 67.5781 46.5703C67.25 46.1797 67.0859 45.625 67.0859 44.9062V39.6641H65.5469V38.5469H67.0859V36.5H68.5312ZM73.25 39.5703C73.8906 38.7839 74.724 38.3906 75.75 38.3906C77.5365 38.3906 78.4375 39.3984 78.4531 41.4141V47H77.0078V41.4062C77.0026 40.7969 76.862 40.3464 76.5859 40.0547C76.3151 39.763 75.8906 39.6172 75.3125 39.6172C74.8438 39.6172 74.4323 39.7422 74.0781 39.9922C73.724 40.2422 73.4479 40.5703 73.25 40.9766V47H71.8047V35H73.25V39.5703ZM36.8203 61.8672C36.8203 63.1536 36.526 64.1901 35.9375 64.9766C35.349 65.763 34.5521 66.1562 33.5469 66.1562C32.5208 66.1562 31.7135 65.8307 31.125 65.1797V69.25H29.6797V57.5469H31L31.0703 58.4844C31.6589 57.7552 32.4766 57.3906 33.5234 57.3906C34.5391 57.3906 35.3411 57.7734 35.9297 58.5391C36.5234 59.3047 36.8203 60.3698 36.8203 61.7344V61.8672ZM35.375 61.7031C35.375 60.75 35.1719 59.9974 34.7656 59.4453C34.3594 58.8932 33.8021 58.6172 33.0938 58.6172C32.2188 58.6172 31.5625 59.0052 31.125 59.7812V63.8203C31.5573 64.5911 32.2188 64.9766 33.1094 64.9766C33.8021 64.9766 34.3516 64.7031 34.7578 64.1562C35.1693 63.6042 35.375 62.7865 35.375 61.7031ZM42.75 58.8438C42.5312 58.8073 42.2943 58.7891 42.0391 58.7891C41.0911 58.7891 40.4479 59.1927 40.1094 60V66H38.6641V57.5469H40.0703L40.0938 58.5234C40.5677 57.7682 41.2396 57.3906 42.1094 57.3906C42.3906 57.3906 42.6042 57.4271 42.75 57.5V58.8438ZM43.5469 61.6953C43.5469 60.8672 43.7083 60.1224 44.0312 59.4609C44.3594 58.7995 44.8125 58.2891 45.3906 57.9297C45.974 57.5703 46.638 57.3906 47.3828 57.3906C48.5339 57.3906 49.4635 57.7891 50.1719 58.5859C50.8854 59.3828 51.2422 60.4427 51.2422 61.7656V61.8672C51.2422 62.6901 51.0833 63.4297 50.7656 64.0859C50.4531 64.737 50.0026 65.2448 49.4141 65.6094C48.8307 65.974 48.1589 66.1562 47.3984 66.1562C46.2526 66.1562 45.3229 65.7578 44.6094 64.9609C43.901 64.1641 43.5469 63.1094 43.5469 61.7969V61.6953ZM45 61.8672C45 62.8047 45.2161 63.5573 45.6484 64.125C46.0859 64.6927 46.6693 64.9766 47.3984 64.9766C48.1328 64.9766 48.7161 64.6901 49.1484 64.1172C49.5807 63.5391 49.7969 62.7318 49.7969 61.6953C49.7969 60.7682 49.5755 60.0182 49.1328 59.4453C48.6953 58.8672 48.112 58.5781 47.3828 58.5781C46.6693 58.5781 46.0938 58.862 45.6562 59.4297C45.2188 59.9974 45 60.8099 45 61.8672ZM55.7188 64.0391L57.8125 57.5469H59.2891L56.2578 66H55.1562L52.0938 57.5469H53.5703L55.7188 64.0391ZM62.25 66H60.8047V57.5469H62.25V66ZM60.6875 55.3047C60.6875 55.0703 60.7578 54.8724 60.8984 54.7109C61.0443 54.5495 61.2578 54.4688 61.5391 54.4688C61.8203 54.4688 62.0339 54.5495 62.1797 54.7109C62.3255 54.8724 62.3984 55.0703 62.3984 55.3047C62.3984 55.5391 62.3255 55.7344 62.1797 55.8906C62.0339 56.0469 61.8203 56.125 61.5391 56.125C61.2578 56.125 61.0443 56.0469 60.8984 55.8906C60.7578 55.7344 60.6875 55.5391 60.6875 55.3047ZM64.2188 61.7031C64.2188 60.4062 64.526 59.3646 65.1406 58.5781C65.7552 57.7865 66.5599 57.3906 67.5547 57.3906C68.5443 57.3906 69.3281 57.7292 69.9062 58.4062V54H71.3516V66H70.0234L69.9531 65.0938C69.375 65.8021 68.5703 66.1562 67.5391 66.1562C66.5599 66.1562 65.7604 65.7552 65.1406 64.9531C64.526 64.151 64.2188 63.1042 64.2188 61.8125V61.7031ZM65.6641 61.8672C65.6641 62.8255 65.862 63.5755 66.2578 64.1172C66.6536 64.6589 67.2005 64.9297 67.8984 64.9297C68.8151 64.9297 69.4844 64.5182 69.9062 63.6953V59.8125C69.474 59.0156 68.8099 58.6172 67.9141 58.6172C67.2057 58.6172 66.6536 58.8906 66.2578 59.4375C65.862 59.9844 65.6641 60.7943 65.6641 61.8672ZM77.1094 66.1562C75.9635 66.1562 75.0312 65.7812 74.3125 65.0312C73.5938 64.276 73.2344 63.2682 73.2344 62.0078V61.7422C73.2344 60.9036 73.3932 60.1562 73.7109 59.5C74.0339 58.8385 74.4818 58.3229 75.0547 57.9531C75.6328 57.5781 76.2578 57.3906 76.9297 57.3906C78.0286 57.3906 78.8828 57.7526 79.4922 58.4766C80.1016 59.2005 80.4062 60.237 80.4062 61.5859V62.1875H74.6797C74.7005 63.0208 74.9427 63.6953 75.4062 64.2109C75.875 64.7214 76.4688 64.9766 77.1875 64.9766C77.6979 64.9766 78.1302 64.8724 78.4844 64.6641C78.8385 64.4557 79.1484 64.1797 79.4141 63.8359L80.2969 64.5234C79.5885 65.612 78.526 66.1562 77.1094 66.1562ZM76.9297 58.5781C76.3464 58.5781 75.8568 58.7917 75.4609 59.2188C75.0651 59.6406 74.8203 60.2344 74.7266 61H78.9609V60.8906C78.9193 60.1562 78.7214 59.5885 78.3672 59.1875C78.013 58.7812 77.5339 58.5781 76.9297 58.5781ZM86.1719 58.8438C85.9531 58.8073 85.7161 58.7891 85.4609 58.7891C84.513 58.7891 83.8698 59.1927 83.5312 60V66H82.0859V57.5469H83.4922L83.5156 58.5234C83.9896 57.7682 84.6615 57.3906 85.5312 57.3906C85.8125 57.3906 86.026 57.4271 86.1719 57.5V58.8438Z" fill="black"/>
<path d="M1 1V0H0V1H1ZM114 1H115V0H114V1ZM114 81V82H115V81H114ZM1 81H0V82H1V81ZM1 2H114V0H1V2ZM113 1V81H115V1H113ZM114 80H1V82H114V80ZM2 81V1H0V81H2Z" fill="black"/>
<path d="M329 41L409 41" stroke="black" stroke-width="2"/>
<path d="M386 17L410 41L386 65" stroke="black" stroke-width="2"/>
<rect x="212" y="2" width="108" height="80" fill="white"/>
<path d="M246.039 34.3906C245.898 35.5938 245.453 36.5234 244.703 37.1797C243.958 37.8307 242.966 38.1562 241.727 38.1562C240.383 38.1562 239.305 37.6745 238.492 36.7109C237.685 35.7474 237.281 34.4583 237.281 32.8438V31.75C237.281 30.6927 237.469 29.763 237.844 28.9609C238.224 28.1589 238.76 27.5443 239.453 27.1172C240.146 26.6849 240.948 26.4688 241.859 26.4688C243.068 26.4688 244.036 26.8073 244.766 27.4844C245.495 28.1562 245.919 29.0885 246.039 30.2812H244.531C244.401 29.375 244.117 28.7188 243.68 28.3125C243.247 27.9062 242.641 27.7031 241.859 27.7031C240.901 27.7031 240.148 28.0573 239.602 28.7656C239.06 29.474 238.789 30.4818 238.789 31.7891V32.8906C238.789 34.125 239.047 35.1068 239.562 35.8359C240.078 36.5651 240.799 36.9297 241.727 36.9297C242.56 36.9297 243.198 36.7422 243.641 36.3672C244.089 35.987 244.385 35.3281 244.531 34.3906H246.039ZM247.484 33.6953C247.484 32.8672 247.646 32.1224 247.969 31.4609C248.297 30.7995 248.75 30.2891 249.328 29.9297C249.911 29.5703 250.576 29.3906 251.32 29.3906C252.471 29.3906 253.401 29.7891 254.109 30.5859C254.823 31.3828 255.18 32.4427 255.18 33.7656V33.8672C255.18 34.6901 255.021 35.4297 254.703 36.0859C254.391 36.737 253.94 37.2448 253.352 37.6094C252.768 37.974 252.096 38.1562 251.336 38.1562C250.19 38.1562 249.26 37.7578 248.547 36.9609C247.839 36.1641 247.484 35.1094 247.484 33.7969V33.6953ZM248.938 33.8672C248.938 34.8047 249.154 35.5573 249.586 36.125C250.023 36.6927 250.607 36.9766 251.336 36.9766C252.07 36.9766 252.654 36.6901 253.086 36.1172C253.518 35.5391 253.734 34.7318 253.734 33.6953C253.734 32.7682 253.513 32.0182 253.07 31.4453C252.633 30.8672 252.049 30.5781 251.32 30.5781C250.607 30.5781 250.031 30.862 249.594 31.4297C249.156 31.9974 248.938 32.8099 248.938 33.8672ZM258.359 29.5469L258.406 30.6094C259.052 29.7969 259.896 29.3906 260.938 29.3906C262.724 29.3906 263.625 30.3984 263.641 32.4141V38H262.195V32.4062C262.19 31.7969 262.049 31.3464 261.773 31.0547C261.503 30.763 261.078 30.6172 260.5 30.6172C260.031 30.6172 259.62 30.7422 259.266 30.9922C258.911 31.2422 258.635 31.5703 258.438 31.9766V38H256.992V29.5469H258.359ZM267.188 29.5469L267.234 30.6094C267.88 29.7969 268.724 29.3906 269.766 29.3906C271.552 29.3906 272.453 30.3984 272.469 32.4141V38H271.023V32.4062C271.018 31.7969 270.878 31.3464 270.602 31.0547C270.331 30.763 269.906 30.6172 269.328 30.6172C268.859 30.6172 268.448 30.7422 268.094 30.9922C267.74 31.2422 267.464 31.5703 267.266 31.9766V38H265.82V29.5469H267.188ZM278.156 38.1562C277.01 38.1562 276.078 37.7812 275.359 37.0312C274.641 36.276 274.281 35.2682 274.281 34.0078V33.7422C274.281 32.9036 274.44 32.1562 274.758 31.5C275.081 30.8385 275.529 30.3229 276.102 29.9531C276.68 29.5781 277.305 29.3906 277.977 29.3906C279.076 29.3906 279.93 29.7526 280.539 30.4766C281.148 31.2005 281.453 32.237 281.453 33.5859V34.1875H275.727C275.747 35.0208 275.99 35.6953 276.453 36.2109C276.922 36.7214 277.516 36.9766 278.234 36.9766C278.745 36.9766 279.177 36.8724 279.531 36.6641C279.885 36.4557 280.195 36.1797 280.461 35.8359L281.344 36.5234C280.635 37.612 279.573 38.1562 278.156 38.1562ZM277.977 30.5781C277.393 30.5781 276.904 30.7917 276.508 31.2188C276.112 31.6406 275.867 32.2344 275.773 33H280.008V32.8906C279.966 32.1562 279.768 31.5885 279.414 31.1875C279.06 30.7812 278.581 30.5781 277.977 30.5781ZM286.523 36.9766C287.039 36.9766 287.49 36.8203 287.875 36.5078C288.26 36.1953 288.474 35.8047 288.516 35.3359H289.883C289.857 35.8203 289.69 36.2812 289.383 36.7188C289.076 37.1562 288.664 37.5052 288.148 37.7656C287.638 38.026 287.096 38.1562 286.523 38.1562C285.372 38.1562 284.456 37.7734 283.773 37.0078C283.096 36.237 282.758 35.1849 282.758 33.8516V33.6094C282.758 32.7865 282.909 32.0547 283.211 31.4141C283.513 30.7734 283.945 30.276 284.508 29.9219C285.076 29.5677 285.745 29.3906 286.516 29.3906C287.464 29.3906 288.25 29.6745 288.875 30.2422C289.505 30.8099 289.841 31.5469 289.883 32.4531H288.516C288.474 31.9062 288.266 31.4583 287.891 31.1094C287.521 30.7552 287.062 30.5781 286.516 30.5781C285.781 30.5781 285.211 30.8438 284.805 31.375C284.404 31.901 284.203 32.6641 284.203 33.6641V33.9375C284.203 34.9115 284.404 35.6615 284.805 36.1875C285.206 36.7135 285.779 36.9766 286.523 36.9766ZM293.469 27.5V29.5469H295.047V30.6641H293.469V35.9062C293.469 36.2448 293.539 36.5 293.68 36.6719C293.82 36.8385 294.06 36.9219 294.398 36.9219C294.565 36.9219 294.794 36.8906 295.086 36.8281V38C294.706 38.1042 294.336 38.1562 293.977 38.1562C293.331 38.1562 292.844 37.9609 292.516 37.5703C292.188 37.1797 292.023 36.625 292.023 35.9062V30.6641H290.484V29.5469H292.023V27.5H293.469ZM253.461 55.0078L255.086 48.5469H256.531L254.07 57H252.898L250.844 50.5938L248.844 57H247.672L245.219 48.5469H246.656L248.32 54.875L250.289 48.5469H251.453L253.461 55.0078ZM263.227 57C263.143 56.8333 263.076 56.5365 263.023 56.1094C262.352 56.8073 261.549 57.1562 260.617 57.1562C259.784 57.1562 259.099 56.9219 258.562 56.4531C258.031 55.9792 257.766 55.3802 257.766 54.6562C257.766 53.776 258.099 53.0938 258.766 52.6094C259.438 52.1198 260.38 51.875 261.594 51.875H263V51.2109C263 50.7057 262.849 50.3047 262.547 50.0078C262.245 49.7057 261.799 49.5547 261.211 49.5547C260.695 49.5547 260.263 49.6849 259.914 49.9453C259.565 50.2057 259.391 50.5208 259.391 50.8906H257.938C257.938 50.4688 258.086 50.0625 258.383 49.6719C258.685 49.276 259.091 48.9635 259.602 48.7344C260.117 48.5052 260.682 48.3906 261.297 48.3906C262.271 48.3906 263.034 48.6354 263.586 49.125C264.138 49.6094 264.424 50.2786 264.445 51.1328V55.0234C264.445 55.7995 264.544 56.4167 264.742 56.875V57H263.227ZM260.828 55.8984C261.281 55.8984 261.711 55.7812 262.117 55.5469C262.523 55.3125 262.818 55.0078 263 54.6328V52.8984H261.867C260.096 52.8984 259.211 53.4167 259.211 54.4531C259.211 54.9062 259.362 55.2604 259.664 55.5156C259.966 55.7708 260.354 55.8984 260.828 55.8984ZM268.281 57H266.836V45H268.281V57ZM272.172 57H270.727V45H272.172V57ZM278 57.1562C276.854 57.1562 275.922 56.7812 275.203 56.0312C274.484 55.276 274.125 54.2682 274.125 53.0078V52.7422C274.125 51.9036 274.284 51.1562 274.602 50.5C274.924 49.8385 275.372 49.3229 275.945 48.9531C276.523 48.5781 277.148 48.3906 277.82 48.3906C278.919 48.3906 279.773 48.7526 280.383 49.4766C280.992 50.2005 281.297 51.237 281.297 52.5859V53.1875H275.57C275.591 54.0208 275.833 54.6953 276.297 55.2109C276.766 55.7214 277.359 55.9766 278.078 55.9766C278.589 55.9766 279.021 55.8724 279.375 55.6641C279.729 55.4557 280.039 55.1797 280.305 54.8359L281.188 55.5234C280.479 56.612 279.417 57.1562 278 57.1562ZM277.82 49.5781C277.237 49.5781 276.747 49.7917 276.352 50.2188C275.956 50.6406 275.711 51.2344 275.617 52H279.852V51.8906C279.81 51.1562 279.612 50.5885 279.258 50.1875C278.904 49.7812 278.424 49.5781 277.82 49.5781ZM284.938 46.5V48.5469H286.516V49.6641H284.938V54.9062C284.938 55.2448 285.008 55.5 285.148 55.6719C285.289 55.8385 285.529 55.9219 285.867 55.9219C286.034 55.9219 286.263 55.8906 286.555 55.8281V57C286.174 57.1042 285.805 57.1562 285.445 57.1562C284.799 57.1562 284.312 56.9609 283.984 56.5703C283.656 56.1797 283.492 55.625 283.492 54.9062V49.6641H281.953V48.5469H283.492V46.5H284.938Z" fill="black"/>
<path d="M212 2V1H211V2H212ZM320 2H321V1H320V2ZM320 82V83H321V82H320ZM212 82H211V83H212V82ZM212 3H320V1H212V3ZM319 2V82H321V2H319ZM320 81H212V83H320V81ZM213 82V2H211V82H213Z" fill="black"/>
<path d="M552 42L632 42" stroke="black" stroke-width="2"/>
<path d="M609 18L633 42L609 66" stroke="black" stroke-width="2"/>
<rect x="419" y="1" width="123" height="80" fill="white"/>
<path d="M448.688 35.5078C448.302 36.0599 447.763 36.474 447.07 36.75C446.383 37.0208 445.581 37.1562 444.664 37.1562C443.737 37.1562 442.914 36.9401 442.195 36.5078C441.477 36.0703 440.919 35.4505 440.523 34.6484C440.133 33.8464 439.932 32.9167 439.922 31.8594V30.8672C439.922 29.1536 440.32 27.8255 441.117 26.8828C441.919 25.9401 443.044 25.4688 444.492 25.4688C445.68 25.4688 446.635 25.7734 447.359 26.3828C448.083 26.987 448.526 27.8464 448.688 28.9609H447.188C446.906 27.4557 446.01 26.7031 444.5 26.7031C443.495 26.7031 442.732 27.0573 442.211 27.7656C441.695 28.4688 441.435 29.4896 441.43 30.8281V31.7578C441.43 33.0339 441.721 34.0495 442.305 34.8047C442.888 35.5547 443.677 35.9297 444.672 35.9297C445.234 35.9297 445.727 35.8672 446.148 35.7422C446.57 35.6172 446.919 35.4062 447.195 35.1094V32.5547H444.562V31.3359H448.688V35.5078ZM454.477 37.1562C453.331 37.1562 452.398 36.7812 451.68 36.0312C450.961 35.276 450.602 34.2682 450.602 33.0078V32.7422C450.602 31.9036 450.76 31.1562 451.078 30.5C451.401 29.8385 451.849 29.3229 452.422 28.9531C453 28.5781 453.625 28.3906 454.297 28.3906C455.396 28.3906 456.25 28.7526 456.859 29.4766C457.469 30.2005 457.773 31.237 457.773 32.5859V33.1875H452.047C452.068 34.0208 452.31 34.6953 452.773 35.2109C453.242 35.7214 453.836 35.9766 454.555 35.9766C455.065 35.9766 455.497 35.8724 455.852 35.6641C456.206 35.4557 456.516 35.1797 456.781 34.8359L457.664 35.5234C456.956 36.612 455.893 37.1562 454.477 37.1562ZM454.297 29.5781C453.714 29.5781 453.224 29.7917 452.828 30.2188C452.432 30.6406 452.188 31.2344 452.094 32H456.328V31.8906C456.286 31.1562 456.089 30.5885 455.734 30.1875C455.38 29.7812 454.901 29.5781 454.297 29.5781ZM460.82 28.5469L460.867 29.6094C461.513 28.7969 462.357 28.3906 463.398 28.3906C465.185 28.3906 466.086 29.3984 466.102 31.4141V37H464.656V31.4062C464.651 30.7969 464.51 30.3464 464.234 30.0547C463.964 29.763 463.539 29.6172 462.961 29.6172C462.492 29.6172 462.081 29.7422 461.727 29.9922C461.372 30.2422 461.096 30.5703 460.898 30.9766V37H459.453V28.5469H460.82ZM471.789 37.1562C470.643 37.1562 469.711 36.7812 468.992 36.0312C468.273 35.276 467.914 34.2682 467.914 33.0078V32.7422C467.914 31.9036 468.073 31.1562 468.391 30.5C468.714 29.8385 469.161 29.3229 469.734 28.9531C470.312 28.5781 470.938 28.3906 471.609 28.3906C472.708 28.3906 473.562 28.7526 474.172 29.4766C474.781 30.2005 475.086 31.237 475.086 32.5859V33.1875H469.359C469.38 34.0208 469.622 34.6953 470.086 35.2109C470.555 35.7214 471.148 35.9766 471.867 35.9766C472.378 35.9766 472.81 35.8724 473.164 35.6641C473.518 35.4557 473.828 35.1797 474.094 34.8359L474.977 35.5234C474.268 36.612 473.206 37.1562 471.789 37.1562ZM471.609 29.5781C471.026 29.5781 470.536 29.7917 470.141 30.2188C469.745 30.6406 469.5 31.2344 469.406 32H473.641V31.8906C473.599 31.1562 473.401 30.5885 473.047 30.1875C472.693 29.7812 472.214 29.5781 471.609 29.5781ZM480.852 29.8438C480.633 29.8073 480.396 29.7891 480.141 29.7891C479.193 29.7891 478.549 30.1927 478.211 31V37H476.766V28.5469H478.172L478.195 29.5234C478.669 28.7682 479.341 28.3906 480.211 28.3906C480.492 28.3906 480.706 28.4271 480.852 28.5V29.8438ZM487.094 37C487.01 36.8333 486.943 36.5365 486.891 36.1094C486.219 36.8073 485.417 37.1562 484.484 37.1562C483.651 37.1562 482.966 36.9219 482.43 36.4531C481.898 35.9792 481.633 35.3802 481.633 34.6562C481.633 33.776 481.966 33.0938 482.633 32.6094C483.305 32.1198 484.247 31.875 485.461 31.875H486.867V31.2109C486.867 30.7057 486.716 30.3047 486.414 30.0078C486.112 29.7057 485.667 29.5547 485.078 29.5547C484.562 29.5547 484.13 29.6849 483.781 29.9453C483.432 30.2057 483.258 30.5208 483.258 30.8906H481.805C481.805 30.4688 481.953 30.0625 482.25 29.6719C482.552 29.276 482.958 28.9635 483.469 28.7344C483.984 28.5052 484.549 28.3906 485.164 28.3906C486.138 28.3906 486.901 28.6354 487.453 29.125C488.005 29.6094 488.292 30.2786 488.312 31.1328V35.0234C488.312 35.7995 488.411 36.4167 488.609 36.875V37H487.094ZM484.695 35.8984C485.148 35.8984 485.578 35.7812 485.984 35.5469C486.391 35.3125 486.685 35.0078 486.867 34.6328V32.8984H485.734C483.964 32.8984 483.078 33.4167 483.078 34.4531C483.078 34.9062 483.229 35.2604 483.531 35.5156C483.833 35.7708 484.221 35.8984 484.695 35.8984ZM492.539 26.5V28.5469H494.117V29.6641H492.539V34.9062C492.539 35.2448 492.609 35.5 492.75 35.6719C492.891 35.8385 493.13 35.9219 493.469 35.9219C493.635 35.9219 493.865 35.8906 494.156 35.8281V37C493.776 37.1042 493.406 37.1562 493.047 37.1562C492.401 37.1562 491.914 36.9609 491.586 36.5703C491.258 36.1797 491.094 35.625 491.094 34.9062V29.6641H489.555V28.5469H491.094V26.5H492.539ZM499.32 37.1562C498.174 37.1562 497.242 36.7812 496.523 36.0312C495.805 35.276 495.445 34.2682 495.445 33.0078V32.7422C495.445 31.9036 495.604 31.1562 495.922 30.5C496.245 29.8385 496.693 29.3229 497.266 28.9531C497.844 28.5781 498.469 28.3906 499.141 28.3906C500.24 28.3906 501.094 28.7526 501.703 29.4766C502.312 30.2005 502.617 31.237 502.617 32.5859V33.1875H496.891C496.911 34.0208 497.154 34.6953 497.617 35.2109C498.086 35.7214 498.68 35.9766 499.398 35.9766C499.909 35.9766 500.341 35.8724 500.695 35.6641C501.049 35.4557 501.359 35.1797 501.625 34.8359L502.508 35.5234C501.799 36.612 500.737 37.1562 499.32 37.1562ZM499.141 29.5781C498.557 29.5781 498.068 29.7917 497.672 30.2188C497.276 30.6406 497.031 31.2344 496.938 32H501.172V31.8906C501.13 31.1562 500.932 30.5885 500.578 30.1875C500.224 29.7812 499.745 29.5781 499.141 29.5781ZM510.102 37H508.602V25.625H510.102V37ZM512.852 37V25.625H516.062C517.052 25.625 517.927 25.8438 518.688 26.2812C519.448 26.7188 520.034 27.3411 520.445 28.1484C520.862 28.9557 521.073 29.8828 521.078 30.9297V31.6562C521.078 32.7292 520.87 33.6693 520.453 34.4766C520.042 35.2839 519.451 35.9036 518.68 36.3359C517.914 36.7682 517.021 36.9896 516 37H512.852ZM514.352 26.8594V35.7734H515.93C517.086 35.7734 517.984 35.4141 518.625 34.6953C519.271 33.9766 519.594 32.9531 519.594 31.625V30.9609C519.594 29.6693 519.289 28.6667 518.68 27.9531C518.076 27.2344 517.216 26.8698 516.102 26.8594H514.352ZM439.352 54.9766C439.867 54.9766 440.318 54.8203 440.703 54.5078C441.089 54.1953 441.302 53.8047 441.344 53.3359H442.711C442.685 53.8203 442.518 54.2812 442.211 54.7188C441.904 55.1562 441.492 55.5052 440.977 55.7656C440.466 56.026 439.924 56.1562 439.352 56.1562C438.201 56.1562 437.284 55.7734 436.602 55.0078C435.924 54.237 435.586 53.1849 435.586 51.8516V51.6094C435.586 50.7865 435.737 50.0547 436.039 49.4141C436.341 48.7734 436.773 48.276 437.336 47.9219C437.904 47.5677 438.573 47.3906 439.344 47.3906C440.292 47.3906 441.078 47.6745 441.703 48.2422C442.333 48.8099 442.669 49.5469 442.711 50.4531H441.344C441.302 49.9062 441.094 49.4583 440.719 49.1094C440.349 48.7552 439.891 48.5781 439.344 48.5781C438.609 48.5781 438.039 48.8438 437.633 49.375C437.232 49.901 437.031 50.6641 437.031 51.6641V51.9375C437.031 52.9115 437.232 53.6615 437.633 54.1875C438.034 54.7135 438.607 54.9766 439.352 54.9766ZM443.953 51.6953C443.953 50.8672 444.115 50.1224 444.438 49.4609C444.766 48.7995 445.219 48.2891 445.797 47.9297C446.38 47.5703 447.044 47.3906 447.789 47.3906C448.94 47.3906 449.87 47.7891 450.578 48.5859C451.292 49.3828 451.648 50.4427 451.648 51.7656V51.8672C451.648 52.6901 451.49 53.4297 451.172 54.0859C450.859 54.737 450.409 55.2448 449.82 55.6094C449.237 55.974 448.565 56.1562 447.805 56.1562C446.659 56.1562 445.729 55.7578 445.016 54.9609C444.307 54.1641 443.953 53.1094 443.953 51.7969V51.6953ZM445.406 51.8672C445.406 52.8047 445.622 53.5573 446.055 54.125C446.492 54.6927 447.076 54.9766 447.805 54.9766C448.539 54.9766 449.122 54.6901 449.555 54.1172C449.987 53.5391 450.203 52.7318 450.203 51.6953C450.203 50.7682 449.982 50.0182 449.539 49.4453C449.102 48.8672 448.518 48.5781 447.789 48.5781C447.076 48.5781 446.5 48.862 446.062 49.4297C445.625 49.9974 445.406 50.8099 445.406 51.8672ZM454.82 47.5469L454.859 48.4844C455.479 47.7552 456.315 47.3906 457.367 47.3906C458.549 47.3906 459.354 47.8438 459.781 48.75C460.062 48.3438 460.427 48.0156 460.875 47.7656C461.328 47.5156 461.862 47.3906 462.477 47.3906C464.331 47.3906 465.273 48.3724 465.305 50.3359V56H463.859V50.4219C463.859 49.8177 463.721 49.3672 463.445 49.0703C463.169 48.7682 462.706 48.6172 462.055 48.6172C461.518 48.6172 461.073 48.7786 460.719 49.1016C460.365 49.4193 460.159 49.849 460.102 50.3906V56H458.648V50.4609C458.648 49.2318 458.047 48.6172 456.844 48.6172C455.896 48.6172 455.247 49.0208 454.898 49.8281V56H453.453V47.5469H454.82ZM468.852 47.5469L468.891 48.4844C469.51 47.7552 470.346 47.3906 471.398 47.3906C472.581 47.3906 473.385 47.8438 473.812 48.75C474.094 48.3438 474.458 48.0156 474.906 47.7656C475.359 47.5156 475.893 47.3906 476.508 47.3906C478.362 47.3906 479.305 48.3724 479.336 50.3359V56H477.891V50.4219C477.891 49.8177 477.753 49.3672 477.477 49.0703C477.201 48.7682 476.737 48.6172 476.086 48.6172C475.549 48.6172 475.104 48.7786 474.75 49.1016C474.396 49.4193 474.19 49.849 474.133 50.3906V56H472.68V50.4609C472.68 49.2318 472.078 48.6172 470.875 48.6172C469.927 48.6172 469.279 49.0208 468.93 49.8281V56H467.484V47.5469H468.852ZM483.094 56H481.648V47.5469H483.094V56ZM481.531 45.3047C481.531 45.0703 481.602 44.8724 481.742 44.7109C481.888 44.5495 482.102 44.4688 482.383 44.4688C482.664 44.4688 482.878 44.5495 483.023 44.7109C483.169 44.8724 483.242 45.0703 483.242 45.3047C483.242 45.5391 483.169 45.7344 483.023 45.8906C482.878 46.0469 482.664 46.125 482.383 46.125C482.102 46.125 481.888 46.0469 481.742 45.8906C481.602 45.7344 481.531 45.5391 481.531 45.3047ZM487.375 45.5V47.5469H488.953V48.6641H487.375V53.9062C487.375 54.2448 487.445 54.5 487.586 54.6719C487.727 54.8385 487.966 54.9219 488.305 54.9219C488.471 54.9219 488.701 54.8906 488.992 54.8281V56C488.612 56.1042 488.242 56.1562 487.883 56.1562C487.237 56.1562 486.75 55.9609 486.422 55.5703C486.094 55.1797 485.93 54.625 485.93 53.9062V48.6641H484.391V47.5469H485.93V45.5H487.375ZM492.008 47.5469L492.047 48.4844C492.667 47.7552 493.503 47.3906 494.555 47.3906C495.737 47.3906 496.542 47.8438 496.969 48.75C497.25 48.3438 497.615 48.0156 498.062 47.7656C498.516 47.5156 499.049 47.3906 499.664 47.3906C501.518 47.3906 502.461 48.3724 502.492 50.3359V56H501.047V50.4219C501.047 49.8177 500.909 49.3672 500.633 49.0703C500.357 48.7682 499.893 48.6172 499.242 48.6172C498.706 48.6172 498.26 48.7786 497.906 49.1016C497.552 49.4193 497.346 49.849 497.289 50.3906V56H495.836V50.4609C495.836 49.2318 495.234 48.6172 494.031 48.6172C493.083 48.6172 492.435 49.0208 492.086 49.8281V56H490.641V47.5469H492.008ZM508.188 56.1562C507.042 56.1562 506.109 55.7812 505.391 55.0312C504.672 54.276 504.312 53.2682 504.312 52.0078V51.7422C504.312 50.9036 504.471 50.1562 504.789 49.5C505.112 48.8385 505.56 48.3229 506.133 47.9531C506.711 47.5781 507.336 47.3906 508.008 47.3906C509.107 47.3906 509.961 47.7526 510.57 48.4766C511.18 49.2005 511.484 50.237 511.484 51.5859V52.1875H505.758C505.779 53.0208 506.021 53.6953 506.484 54.2109C506.953 54.7214 507.547 54.9766 508.266 54.9766C508.776 54.9766 509.208 54.8724 509.562 54.6641C509.917 54.4557 510.227 54.1797 510.492 53.8359L511.375 54.5234C510.667 55.612 509.604 56.1562 508.188 56.1562ZM508.008 48.5781C507.424 48.5781 506.935 48.7917 506.539 49.2188C506.143 49.6406 505.898 50.2344 505.805 51H510.039V50.8906C509.997 50.1562 509.799 49.5885 509.445 49.1875C509.091 48.7812 508.612 48.5781 508.008 48.5781ZM514.531 47.5469L514.578 48.6094C515.224 47.7969 516.068 47.3906 517.109 47.3906C518.896 47.3906 519.797 48.3984 519.812 50.4141V56H518.367V50.4062C518.362 49.7969 518.221 49.3464 517.945 49.0547C517.674 48.763 517.25 48.6172 516.672 48.6172C516.203 48.6172 515.792 48.7422 515.438 48.9922C515.083 49.2422 514.807 49.5703 514.609 49.9766V56H513.164V47.5469H514.531ZM523.953 45.5V47.5469H525.531V48.6641H523.953V53.9062C523.953 54.2448 524.023 54.5 524.164 54.6719C524.305 54.8385 524.544 54.9219 524.883 54.9219C525.049 54.9219 525.279 54.8906 525.57 54.8281V56C525.19 56.1042 524.82 56.1562 524.461 56.1562C523.815 56.1562 523.328 55.9609 523 55.5703C522.672 55.1797 522.508 54.625 522.508 53.9062V48.6641H520.969V47.5469H522.508V45.5H523.953Z" fill="black"/>
<path d="M419 1V0H418V1H419ZM542 1H543V0H542V1ZM542 81V82H543V81H542ZM419 81H418V82H419V81ZM419 2H542V0H419V2ZM541 1V81H543V1H541ZM542 80H419V82H542V80ZM420 81V1H418V81H420Z" fill="black"/>
<rect x="642" y="2" width="113" height="80" fill="white"/>
<path d="M667.414 26.625H668.922V34.6797C668.922 35.7682 668.594 36.6198 667.938 37.2344C667.286 37.849 666.417 38.1562 665.328 38.1562C664.198 38.1562 663.318 37.8672 662.688 37.2891C662.057 36.7109 661.742 35.901 661.742 34.8594H663.242C663.242 35.5104 663.419 36.0182 663.773 36.3828C664.133 36.7474 664.651 36.9297 665.328 36.9297C665.948 36.9297 666.448 36.7344 666.828 36.3438C667.214 35.9531 667.409 35.4062 667.414 34.7031V26.625ZM670.867 33.6953C670.867 32.8672 671.029 32.1224 671.352 31.4609C671.68 30.7995 672.133 30.2891 672.711 29.9297C673.294 29.5703 673.958 29.3906 674.703 29.3906C675.854 29.3906 676.784 29.7891 677.492 30.5859C678.206 31.3828 678.562 32.4427 678.562 33.7656V33.8672C678.562 34.6901 678.404 35.4297 678.086 36.0859C677.773 36.737 677.323 37.2448 676.734 37.6094C676.151 37.974 675.479 38.1562 674.719 38.1562C673.573 38.1562 672.643 37.7578 671.93 36.9609C671.221 36.1641 670.867 35.1094 670.867 33.7969V33.6953ZM672.32 33.8672C672.32 34.8047 672.536 35.5573 672.969 36.125C673.406 36.6927 673.99 36.9766 674.719 36.9766C675.453 36.9766 676.036 36.6901 676.469 36.1172C676.901 35.5391 677.117 34.7318 677.117 33.6953C677.117 32.7682 676.896 32.0182 676.453 31.4453C676.016 30.8672 675.432 30.5781 674.703 30.5781C673.99 30.5781 673.414 30.862 672.977 31.4297C672.539 31.9974 672.32 32.8099 672.32 33.8672ZM681.945 38H680.5V29.5469H681.945V38ZM680.383 27.3047C680.383 27.0703 680.453 26.8724 680.594 26.7109C680.74 26.5495 680.953 26.4688 681.234 26.4688C681.516 26.4688 681.729 26.5495 681.875 26.7109C682.021 26.8724 682.094 27.0703 682.094 27.3047C682.094 27.5391 682.021 27.7344 681.875 27.8906C681.729 28.0469 681.516 28.125 681.234 28.125C680.953 28.125 680.74 28.0469 680.594 27.8906C680.453 27.7344 680.383 27.5391 680.383 27.3047ZM685.633 29.5469L685.68 30.6094C686.326 29.7969 687.169 29.3906 688.211 29.3906C689.997 29.3906 690.898 30.3984 690.914 32.4141V38H689.469V32.4062C689.464 31.7969 689.323 31.3464 689.047 31.0547C688.776 30.763 688.352 30.6172 687.773 30.6172C687.305 30.6172 686.893 30.7422 686.539 30.9922C686.185 31.2422 685.909 31.5703 685.711 31.9766V38H684.266V29.5469H685.633ZM693.383 38.9766H692.141L696.891 26.625H698.125L693.383 38.9766ZM701.258 38H699.812V26H701.258V38ZM707.086 38.1562C705.94 38.1562 705.008 37.7812 704.289 37.0312C703.57 36.276 703.211 35.2682 703.211 34.0078V33.7422C703.211 32.9036 703.37 32.1562 703.688 31.5C704.01 30.8385 704.458 30.3229 705.031 29.9531C705.609 29.5781 706.234 29.3906 706.906 29.3906C708.005 29.3906 708.859 29.7526 709.469 30.4766C710.078 31.2005 710.383 32.237 710.383 33.5859V34.1875H704.656C704.677 35.0208 704.919 35.6953 705.383 36.2109C705.852 36.7214 706.445 36.9766 707.164 36.9766C707.674 36.9766 708.107 36.8724 708.461 36.6641C708.815 36.4557 709.125 36.1797 709.391 35.8359L710.273 36.5234C709.565 37.612 708.503 38.1562 707.086 38.1562ZM706.906 30.5781C706.323 30.5781 705.833 30.7917 705.438 31.2188C705.042 31.6406 704.797 32.2344 704.703 33H708.938V32.8906C708.896 32.1562 708.698 31.5885 708.344 31.1875C707.99 30.7812 707.51 30.5781 706.906 30.5781ZM717.281 38C717.198 37.8333 717.13 37.5365 717.078 37.1094C716.406 37.8073 715.604 38.1562 714.672 38.1562C713.839 38.1562 713.154 37.9219 712.617 37.4531C712.086 36.9792 711.82 36.3802 711.82 35.6562C711.82 34.776 712.154 34.0938 712.82 33.6094C713.492 33.1198 714.435 32.875 715.648 32.875H717.055V32.2109C717.055 31.7057 716.904 31.3047 716.602 31.0078C716.299 30.7057 715.854 30.5547 715.266 30.5547C714.75 30.5547 714.318 30.6849 713.969 30.9453C713.62 31.2057 713.445 31.5208 713.445 31.8906H711.992C711.992 31.4688 712.141 31.0625 712.438 30.6719C712.74 30.276 713.146 29.9635 713.656 29.7344C714.172 29.5052 714.737 29.3906 715.352 29.3906C716.326 29.3906 717.089 29.6354 717.641 30.125C718.193 30.6094 718.479 31.2786 718.5 32.1328V36.0234C718.5 36.7995 718.599 37.4167 718.797 37.875V38H717.281ZM714.883 36.8984C715.336 36.8984 715.766 36.7812 716.172 36.5469C716.578 36.3125 716.872 36.0078 717.055 35.6328V33.8984H715.922C714.151 33.8984 713.266 34.4167 713.266 35.4531C713.266 35.9062 713.417 36.2604 713.719 36.5156C714.021 36.7708 714.409 36.8984 714.883 36.8984ZM723.43 36.0391L725.523 29.5469H727L723.969 38H722.867L719.805 29.5469H721.281L723.43 36.0391ZM731.789 38.1562C730.643 38.1562 729.711 37.7812 728.992 37.0312C728.273 36.276 727.914 35.2682 727.914 34.0078V33.7422C727.914 32.9036 728.073 32.1562 728.391 31.5C728.714 30.8385 729.161 30.3229 729.734 29.9531C730.312 29.5781 730.938 29.3906 731.609 29.3906C732.708 29.3906 733.562 29.7526 734.172 30.4766C734.781 31.2005 735.086 32.237 735.086 33.5859V34.1875H729.359C729.38 35.0208 729.622 35.6953 730.086 36.2109C730.555 36.7214 731.148 36.9766 731.867 36.9766C732.378 36.9766 732.81 36.8724 733.164 36.6641C733.518 36.4557 733.828 36.1797 734.094 35.8359L734.977 36.5234C734.268 37.612 733.206 38.1562 731.789 38.1562ZM731.609 30.5781C731.026 30.5781 730.536 30.7917 730.141 31.2188C729.745 31.6406 729.5 32.2344 729.406 33H733.641V32.8906C733.599 32.1562 733.401 31.5885 733.047 31.1875C732.693 30.7812 732.214 30.5781 731.609 30.5781ZM678.656 52.7031C678.656 51.3854 678.961 50.3385 679.57 49.5625C680.18 48.7812 680.987 48.3906 681.992 48.3906C683.023 48.3906 683.828 48.7552 684.406 49.4844L684.477 48.5469H685.797V56.7969C685.797 57.8906 685.471 58.7526 684.82 59.3828C684.174 60.013 683.305 60.3281 682.211 60.3281C681.602 60.3281 681.005 60.1979 680.422 59.9375C679.839 59.6771 679.393 59.3203 679.086 58.8672L679.836 58C680.456 58.7656 681.214 59.1484 682.109 59.1484C682.812 59.1484 683.359 58.9505 683.75 58.5547C684.146 58.1589 684.344 57.6016 684.344 56.8828V56.1562C683.766 56.8229 682.977 57.1562 681.977 57.1562C680.987 57.1562 680.185 56.7578 679.57 55.9609C678.961 55.1641 678.656 54.0781 678.656 52.7031ZM680.109 52.8672C680.109 53.8203 680.305 54.5703 680.695 55.1172C681.086 55.6589 681.633 55.9297 682.336 55.9297C683.247 55.9297 683.917 55.5156 684.344 54.6875V50.8281C683.901 50.0208 683.237 49.6172 682.352 49.6172C681.648 49.6172 681.099 49.8906 680.703 50.4375C680.307 50.9844 680.109 51.7943 680.109 52.8672ZM692.07 49.8438C691.852 49.8073 691.615 49.7891 691.359 49.7891C690.411 49.7891 689.768 50.1927 689.43 51V57H687.984V48.5469H689.391L689.414 49.5234C689.888 48.7682 690.56 48.3906 691.43 48.3906C691.711 48.3906 691.924 48.4271 692.07 48.5V49.8438ZM692.867 52.6953C692.867 51.8672 693.029 51.1224 693.352 50.4609C693.68 49.7995 694.133 49.2891 694.711 48.9297C695.294 48.5703 695.958 48.3906 696.703 48.3906C697.854 48.3906 698.784 48.7891 699.492 49.5859C700.206 50.3828 700.562 51.4427 700.562 52.7656V52.8672C700.562 53.6901 700.404 54.4297 700.086 55.0859C699.773 55.737 699.323 56.2448 698.734 56.6094C698.151 56.974 697.479 57.1562 696.719 57.1562C695.573 57.1562 694.643 56.7578 693.93 55.9609C693.221 55.1641 692.867 54.1094 692.867 52.7969V52.6953ZM694.32 52.8672C694.32 53.8047 694.536 54.5573 694.969 55.125C695.406 55.6927 695.99 55.9766 696.719 55.9766C697.453 55.9766 698.036 55.6901 698.469 55.1172C698.901 54.5391 699.117 53.7318 699.117 52.6953C699.117 51.7682 698.896 51.0182 698.453 50.4453C698.016 49.8672 697.432 49.5781 696.703 49.5781C695.99 49.5781 695.414 49.862 694.977 50.4297C694.539 50.9974 694.32 51.8099 694.32 52.8672ZM707.594 56.1641C707.031 56.8255 706.206 57.1562 705.117 57.1562C704.216 57.1562 703.529 56.8958 703.055 56.375C702.586 55.849 702.349 55.0729 702.344 54.0469V48.5469H703.789V54.0078C703.789 55.2891 704.31 55.9297 705.352 55.9297C706.456 55.9297 707.19 55.5182 707.555 54.6953V48.5469H709V57H707.625L707.594 56.1641ZM718.344 52.8672C718.344 54.1536 718.049 55.1901 717.461 55.9766C716.872 56.763 716.076 57.1562 715.07 57.1562C714.044 57.1562 713.237 56.8307 712.648 56.1797V60.25H711.203V48.5469H712.523L712.594 49.4844C713.182 48.7552 714 48.3906 715.047 48.3906C716.062 48.3906 716.865 48.7734 717.453 49.5391C718.047 50.3047 718.344 51.3698 718.344 52.7344V52.8672ZM716.898 52.7031C716.898 51.75 716.695 50.9974 716.289 50.4453C715.883 49.8932 715.326 49.6172 714.617 49.6172C713.742 49.6172 713.086 50.0052 712.648 50.7812V54.8203C713.081 55.5911 713.742 55.9766 714.633 55.9766C715.326 55.9766 715.875 55.7031 716.281 55.1562C716.693 54.6042 716.898 53.7865 716.898 52.7031Z" fill="black"/>
<path d="M642 2V1H641V2H642ZM755 2H756V1H755V2ZM755 82V83H756V82H755ZM642 82H641V83H642V82ZM642 3H755V1H642V3ZM754 2V82H756V2H754ZM755 81H642V83H755V81ZM643 82V2H641V82H643Z" fill="black"/>
</svg>
