<svg width="721" height="84" viewBox="0 0 721 84" fill="none" xmlns="http://www.w3.org/2000/svg">
<rect x="1" y="3" width="159" height="80" fill="white"/>
<path d="M25.2188 39H23.7188V27.625H25.2188V39ZM29.1094 30.5469L29.1562 31.6094C29.8021 30.7969 30.6458 30.3906 31.6875 30.3906C33.474 30.3906 34.375 31.3984 34.3906 33.4141V39H32.9453V33.4062C32.9401 32.7969 32.7995 32.3464 32.5234 32.0547C32.2526 31.763 31.8281 31.6172 31.25 31.6172C30.7812 31.6172 30.3698 31.7422 30.0156 31.9922C29.6615 32.2422 29.3854 32.5703 29.1875 32.9766V39H27.7422V30.5469H29.1094ZM38.5312 28.5V30.5469H40.1094V31.6641H38.5312V36.9062C38.5312 37.2448 38.6016 37.5 38.7422 37.6719C38.8828 37.8385 39.1224 37.9219 39.4609 37.9219C39.6276 37.9219 39.8568 37.8906 40.1484 37.8281V39C39.7682 39.1042 39.3984 39.1562 39.0391 39.1562C38.3932 39.1562 37.9062 38.9609 37.5781 38.5703C37.25 38.1797 37.0859 37.625 37.0859 36.9062V31.6641H35.5469V30.5469H37.0859V28.5H38.5312ZM45.3125 39.1562C44.1667 39.1562 43.2344 38.7812 42.5156 38.0312C41.7969 37.276 41.4375 36.2682 41.4375 35.0078V34.7422C41.4375 33.9036 41.5964 33.1562 41.9141 32.5C42.237 31.8385 42.6849 31.3229 43.2578 30.9531C43.8359 30.5781 44.4609 30.3906 45.1328 30.3906C46.2318 30.3906 47.0859 30.7526 47.6953 31.4766C48.3047 32.2005 48.6094 33.237 48.6094 34.5859V35.1875H42.8828C42.9036 36.0208 43.1458 36.6953 43.6094 37.2109C44.0781 37.7214 44.6719 37.9766 45.3906 37.9766C45.901 37.9766 46.3333 37.8724 46.6875 37.6641C47.0417 37.4557 47.3516 37.1797 47.6172 36.8359L48.5 37.5234C47.7917 38.612 46.7292 39.1562 45.3125 39.1562ZM45.1328 31.5781C44.5495 31.5781 44.0599 31.7917 43.6641 32.2188C43.2682 32.6406 43.0234 33.2344 42.9297 34H47.1641V33.8906C47.1224 33.1562 46.9245 32.5885 46.5703 32.1875C46.2161 31.7812 45.737 31.5781 45.1328 31.5781ZM54.375 31.8438C54.1562 31.8073 53.9193 31.7891 53.6641 31.7891C52.7161 31.7891 52.0729 32.1927 51.7344 33V39H50.2891V30.5469H51.6953L51.7188 31.5234C52.1927 30.7682 52.8646 30.3906 53.7344 30.3906C54.0156 30.3906 54.2292 30.4271 54.375 30.5V31.8438ZM60.1094 34.3984H57.4375V39H55.9297V27.625H59.6953C60.9766 27.625 61.9609 27.9167 62.6484 28.5C63.3411 29.0833 63.6875 29.9323 63.6875 31.0469C63.6875 31.7552 63.4948 32.3724 63.1094 32.8984C62.7292 33.4245 62.1979 33.8177 61.5156 34.0781L64.1875 38.9062V39H62.5781L60.1094 34.3984ZM57.4375 33.1719H59.7422C60.487 33.1719 61.0781 32.9792 61.5156 32.5938C61.9583 32.2083 62.1797 31.6927 62.1797 31.0469C62.1797 30.3438 61.9688 29.8047 61.5469 29.4297C61.1302 29.0547 60.526 28.8646 59.7344 28.8594H57.4375V33.1719ZM69.0781 39.1562C67.9323 39.1562 67 38.7812 66.2812 38.0312C65.5625 37.276 65.2031 36.2682 65.2031 35.0078V34.7422C65.2031 33.9036 65.362 33.1562 65.6797 32.5C66.0026 31.8385 66.4505 31.3229 67.0234 30.9531C67.6016 30.5781 68.2266 30.3906 68.8984 30.3906C69.9974 30.3906 70.8516 30.7526 71.4609 31.4766C72.0703 32.2005 72.375 33.237 72.375 34.5859V35.1875H66.6484C66.6693 36.0208 66.9115 36.6953 67.375 37.2109C67.8438 37.7214 68.4375 37.9766 69.1562 37.9766C69.6667 37.9766 70.099 37.8724 70.4531 37.6641C70.8073 37.4557 71.1172 37.1797 71.3828 36.8359L72.2656 37.5234C71.5573 38.612 70.4948 39.1562 69.0781 39.1562ZM68.8984 31.5781C68.3151 31.5781 67.8255 31.7917 67.4297 32.2188C67.0339 32.6406 66.7891 33.2344 66.6953 34H70.9297V33.8906C70.888 33.1562 70.6901 32.5885 70.3359 32.1875C69.9818 31.7812 69.5026 31.5781 68.8984 31.5781ZM81.1953 34.8672C81.1953 36.1536 80.901 37.1901 80.3125 37.9766C79.724 38.763 78.9271 39.1562 77.9219 39.1562C76.8958 39.1562 76.0885 38.8307 75.5 38.1797V42.25H74.0547V30.5469H75.375L75.4453 31.4844C76.0339 30.7552 76.8516 30.3906 77.8984 30.3906C78.9141 30.3906 79.7161 30.7734 80.3047 31.5391C80.8984 32.3047 81.1953 33.3698 81.1953 34.7344V34.8672ZM79.75 34.7031C79.75 33.75 79.5469 32.9974 79.1406 32.4453C78.7344 31.8932 78.1771 31.6172 77.4688 31.6172C76.5938 31.6172 75.9375 32.0052 75.5 32.7812V36.8203C75.9323 37.5911 76.5938 37.9766 77.4844 37.9766C78.1771 37.9766 78.7266 37.7031 79.1328 37.1562C79.5443 36.6042 79.75 35.7865 79.75 34.7031ZM90.3984 37.9766C90.9141 37.9766 91.3646 37.8203 91.75 37.5078C92.1354 37.1953 92.349 36.8047 92.3906 36.3359H93.7578C93.7318 36.8203 93.5651 37.2812 93.2578 37.7188C92.9505 38.1562 92.5391 38.5052 92.0234 38.7656C91.513 39.026 90.9714 39.1562 90.3984 39.1562C89.2474 39.1562 88.3307 38.7734 87.6484 38.0078C86.9714 37.237 86.6328 36.1849 86.6328 34.8516V34.6094C86.6328 33.7865 86.7839 33.0547 87.0859 32.4141C87.388 31.7734 87.8203 31.276 88.3828 30.9219C88.9505 30.5677 89.6198 30.3906 90.3906 30.3906C91.3385 30.3906 92.125 30.6745 92.75 31.2422C93.3802 31.8099 93.7161 32.5469 93.7578 33.4531H92.3906C92.349 32.9062 92.1406 32.4583 91.7656 32.1094C91.3958 31.7552 90.9375 31.5781 90.3906 31.5781C89.6562 31.5781 89.0859 31.8438 88.6797 32.375C88.2786 32.901 88.0781 33.6641 88.0781 34.6641V34.9375C88.0781 35.9115 88.2786 36.6615 88.6797 37.1875C89.0807 37.7135 89.6536 37.9766 90.3984 37.9766ZM99.4688 31.8438C99.25 31.8073 99.013 31.7891 98.7578 31.7891C97.8099 31.7891 97.1667 32.1927 96.8281 33V39H95.3828V30.5469H96.7891L96.8125 31.5234C97.2865 30.7682 97.9583 30.3906 98.8281 30.3906C99.1094 30.3906 99.3229 30.4271 99.4688 30.5V31.8438ZM104.156 39.1562C103.01 39.1562 102.078 38.7812 101.359 38.0312C100.641 37.276 100.281 36.2682 100.281 35.0078V34.7422C100.281 33.9036 100.44 33.1562 100.758 32.5C101.081 31.8385 101.529 31.3229 102.102 30.9531C102.68 30.5781 103.305 30.3906 103.977 30.3906C105.076 30.3906 105.93 30.7526 106.539 31.4766C107.148 32.2005 107.453 33.237 107.453 34.5859V35.1875H101.727C101.747 36.0208 101.99 36.6953 102.453 37.2109C102.922 37.7214 103.516 37.9766 104.234 37.9766C104.745 37.9766 105.177 37.8724 105.531 37.6641C105.885 37.4557 106.195 37.1797 106.461 36.8359L107.344 37.5234C106.635 38.612 105.573 39.1562 104.156 39.1562ZM103.977 31.5781C103.393 31.5781 102.904 31.7917 102.508 32.2188C102.112 32.6406 101.867 33.2344 101.773 34H106.008V33.8906C105.966 33.1562 105.768 32.5885 105.414 32.1875C105.06 31.7812 104.581 31.5781 103.977 31.5781ZM114.352 39C114.268 38.8333 114.201 38.5365 114.148 38.1094C113.477 38.8073 112.674 39.1562 111.742 39.1562C110.909 39.1562 110.224 38.9219 109.688 38.4531C109.156 37.9792 108.891 37.3802 108.891 36.6562C108.891 35.776 109.224 35.0938 109.891 34.6094C110.562 34.1198 111.505 33.875 112.719 33.875H114.125V33.2109C114.125 32.7057 113.974 32.3047 113.672 32.0078C113.37 31.7057 112.924 31.5547 112.336 31.5547C111.82 31.5547 111.388 31.6849 111.039 31.9453C110.69 32.2057 110.516 32.5208 110.516 32.8906H109.062C109.062 32.4688 109.211 32.0625 109.508 31.6719C109.81 31.276 110.216 30.9635 110.727 30.7344C111.242 30.5052 111.807 30.3906 112.422 30.3906C113.396 30.3906 114.159 30.6354 114.711 31.125C115.263 31.6094 115.549 32.2786 115.57 33.1328V37.0234C115.57 37.7995 115.669 38.4167 115.867 38.875V39H114.352ZM111.953 37.8984C112.406 37.8984 112.836 37.7812 113.242 37.5469C113.648 37.3125 113.943 37.0078 114.125 36.6328V34.8984H112.992C111.221 34.8984 110.336 35.4167 110.336 36.4531C110.336 36.9062 110.487 37.2604 110.789 37.5156C111.091 37.7708 111.479 37.8984 111.953 37.8984ZM119.797 28.5V30.5469H121.375V31.6641H119.797V36.9062C119.797 37.2448 119.867 37.5 120.008 37.6719C120.148 37.8385 120.388 37.9219 120.727 37.9219C120.893 37.9219 121.122 37.8906 121.414 37.8281V39C121.034 39.1042 120.664 39.1562 120.305 39.1562C119.659 39.1562 119.172 38.9609 118.844 38.5703C118.516 38.1797 118.352 37.625 118.352 36.9062V31.6641H116.812V30.5469H118.352V28.5H119.797ZM126.578 39.1562C125.432 39.1562 124.5 38.7812 123.781 38.0312C123.062 37.276 122.703 36.2682 122.703 35.0078V34.7422C122.703 33.9036 122.862 33.1562 123.18 32.5C123.503 31.8385 123.951 31.3229 124.523 30.9531C125.102 30.5781 125.727 30.3906 126.398 30.3906C127.497 30.3906 128.352 30.7526 128.961 31.4766C129.57 32.2005 129.875 33.237 129.875 34.5859V35.1875H124.148C124.169 36.0208 124.411 36.6953 124.875 37.2109C125.344 37.7214 125.938 37.9766 126.656 37.9766C127.167 37.9766 127.599 37.8724 127.953 37.6641C128.307 37.4557 128.617 37.1797 128.883 36.8359L129.766 37.5234C129.057 38.612 127.995 39.1562 126.578 39.1562ZM126.398 31.5781C125.815 31.5781 125.326 31.7917 124.93 32.2188C124.534 32.6406 124.289 33.2344 124.195 34H128.43V33.8906C128.388 33.1562 128.19 32.5885 127.836 32.1875C127.482 31.7812 127.003 31.5781 126.398 31.5781ZM136.477 36.7578C136.477 36.3672 136.328 36.0651 136.031 35.8516C135.74 35.6328 135.227 35.4453 134.492 35.2891C133.763 35.1328 133.182 34.9453 132.75 34.7266C132.323 34.5078 132.005 34.2474 131.797 33.9453C131.594 33.6432 131.492 33.2839 131.492 32.8672C131.492 32.1745 131.784 31.5885 132.367 31.1094C132.956 30.6302 133.706 30.3906 134.617 30.3906C135.576 30.3906 136.352 30.638 136.945 31.1328C137.544 31.6276 137.844 32.2604 137.844 33.0312H136.391C136.391 32.6354 136.221 32.2943 135.883 32.0078C135.549 31.7214 135.128 31.5781 134.617 31.5781C134.091 31.5781 133.68 31.6927 133.383 31.9219C133.086 32.151 132.938 32.4505 132.938 32.8203C132.938 33.1693 133.076 33.4323 133.352 33.6094C133.628 33.7865 134.125 33.9557 134.844 34.1172C135.568 34.2786 136.154 34.4714 136.602 34.6953C137.049 34.9193 137.38 35.1901 137.594 35.5078C137.812 35.8203 137.922 36.2031 137.922 36.6562C137.922 37.4115 137.62 38.0182 137.016 38.4766C136.411 38.9297 135.628 39.1562 134.664 39.1562C133.987 39.1562 133.388 39.0365 132.867 38.7969C132.346 38.5573 131.938 38.224 131.641 37.7969C131.349 37.3646 131.203 36.8984 131.203 36.3984H132.648C132.674 36.8828 132.867 37.2682 133.227 37.5547C133.591 37.8359 134.07 37.9766 134.664 37.9766C135.211 37.9766 135.648 37.8672 135.977 37.6484C136.31 37.4245 136.477 37.1276 136.477 36.7578ZM59.8828 58C59.7995 57.8333 59.7318 57.5365 59.6797 57.1094C59.0078 57.8073 58.2057 58.1562 57.2734 58.1562C56.4401 58.1562 55.7552 57.9219 55.2188 57.4531C54.6875 56.9792 54.4219 56.3802 54.4219 55.6562C54.4219 54.776 54.7552 54.0938 55.4219 53.6094C56.0938 53.1198 57.0365 52.875 58.25 52.875H59.6562V52.2109C59.6562 51.7057 59.5052 51.3047 59.2031 51.0078C58.901 50.7057 58.4557 50.5547 57.8672 50.5547C57.3516 50.5547 56.9193 50.6849 56.5703 50.9453C56.2214 51.2057 56.0469 51.5208 56.0469 51.8906H54.5938C54.5938 51.4688 54.7422 51.0625 55.0391 50.6719C55.3411 50.276 55.7474 49.9635 56.2578 49.7344C56.7734 49.5052 57.3385 49.3906 57.9531 49.3906C58.9271 49.3906 59.6901 49.6354 60.2422 50.125C60.7943 50.6094 61.0807 51.2786 61.1016 52.1328V56.0234C61.1016 56.7995 61.2005 57.4167 61.3984 57.875V58H59.8828ZM57.4844 56.8984C57.9375 56.8984 58.3672 56.7812 58.7734 56.5469C59.1797 56.3125 59.474 56.0078 59.6562 55.6328V53.8984H58.5234C56.7526 53.8984 55.8672 54.4167 55.8672 55.4531C55.8672 55.9062 56.0182 56.2604 56.3203 56.5156C56.6224 56.7708 57.0104 56.8984 57.4844 56.8984ZM66.9922 53.7031C66.9922 52.3854 67.2969 51.3385 67.9062 50.5625C68.5156 49.7812 69.3229 49.3906 70.3281 49.3906C71.3594 49.3906 72.1641 49.7552 72.7422 50.4844L72.8125 49.5469H74.1328V57.7969C74.1328 58.8906 73.8073 59.7526 73.1562 60.3828C72.5104 61.013 71.6406 61.3281 70.5469 61.3281C69.9375 61.3281 69.3411 61.1979 68.7578 60.9375C68.1745 60.6771 67.7292 60.3203 67.4219 59.8672L68.1719 59C68.7917 59.7656 69.5495 60.1484 70.4453 60.1484C71.1484 60.1484 71.6953 59.9505 72.0859 59.5547C72.4818 59.1589 72.6797 58.6016 72.6797 57.8828V57.1562C72.1016 57.8229 71.3125 58.1562 70.3125 58.1562C69.3229 58.1562 68.5208 57.7578 67.9062 56.9609C67.2969 56.1641 66.9922 55.0781 66.9922 53.7031ZM68.4453 53.8672C68.4453 54.8203 68.6406 55.5703 69.0312 56.1172C69.4219 56.6589 69.9688 56.9297 70.6719 56.9297C71.5833 56.9297 72.2526 56.5156 72.6797 55.6875V51.8281C72.237 51.0208 71.5729 50.6172 70.6875 50.6172C69.9844 50.6172 69.4349 50.8906 69.0391 51.4375C68.6432 51.9844 68.4453 52.7943 68.4453 53.8672ZM80.4062 50.8438C80.1875 50.8073 79.9505 50.7891 79.6953 50.7891C78.7474 50.7891 78.1042 51.1927 77.7656 52V58H76.3203V49.5469H77.7266L77.75 50.5234C78.224 49.7682 78.8958 49.3906 79.7656 49.3906C80.0469 49.3906 80.2604 49.4271 80.4062 49.5V50.8438ZM81.2031 53.6953C81.2031 52.8672 81.3646 52.1224 81.6875 51.4609C82.0156 50.7995 82.4688 50.2891 83.0469 49.9297C83.6302 49.5703 84.2943 49.3906 85.0391 49.3906C86.1901 49.3906 87.1198 49.7891 87.8281 50.5859C88.5417 51.3828 88.8984 52.4427 88.8984 53.7656V53.8672C88.8984 54.6901 88.7396 55.4297 88.4219 56.0859C88.1094 56.737 87.6589 57.2448 87.0703 57.6094C86.487 57.974 85.8151 58.1562 85.0547 58.1562C83.9089 58.1562 82.9792 57.7578 82.2656 56.9609C81.5573 56.1641 81.2031 55.1094 81.2031 53.7969V53.6953ZM82.6562 53.8672C82.6562 54.8047 82.8724 55.5573 83.3047 56.125C83.7422 56.6927 84.3255 56.9766 85.0547 56.9766C85.7891 56.9766 86.3724 56.6901 86.8047 56.1172C87.237 55.5391 87.4531 54.7318 87.4531 53.6953C87.4531 52.7682 87.2318 52.0182 86.7891 51.4453C86.3516 50.8672 85.7682 50.5781 85.0391 50.5781C84.3255 50.5781 83.75 50.862 83.3125 51.4297C82.875 51.9974 82.6562 52.8099 82.6562 53.8672ZM95.9297 57.1641C95.3672 57.8255 94.5417 58.1562 93.4531 58.1562C92.5521 58.1562 91.8646 57.8958 91.3906 57.375C90.9219 56.849 90.6849 56.0729 90.6797 55.0469V49.5469H92.125V55.0078C92.125 56.2891 92.6458 56.9297 93.6875 56.9297C94.7917 56.9297 95.526 56.5182 95.8906 55.6953V49.5469H97.3359V58H95.9609L95.9297 57.1641ZM106.68 53.8672C106.68 55.1536 106.385 56.1901 105.797 56.9766C105.208 57.763 104.411 58.1562 103.406 58.1562C102.38 58.1562 101.573 57.8307 100.984 57.1797V61.25H99.5391V49.5469H100.859L100.93 50.4844C101.518 49.7552 102.336 49.3906 103.383 49.3906C104.398 49.3906 105.201 49.7734 105.789 50.5391C106.383 51.3047 106.68 52.3698 106.68 53.7344V53.8672ZM105.234 53.7031C105.234 52.75 105.031 51.9974 104.625 51.4453C104.219 50.8932 103.661 50.6172 102.953 50.6172C102.078 50.6172 101.422 51.0052 100.984 51.7812V55.8203C101.417 56.5911 102.078 56.9766 102.969 56.9766C103.661 56.9766 104.211 56.7031 104.617 56.1562C105.029 55.6042 105.234 54.7865 105.234 53.7031Z" fill="black"/>
<path d="M1 3V2H0V3H1ZM160 3H161V2H160V3ZM160 83V84H161V83H160ZM1 83H0V84H1V83ZM1 4H160V2H1V4ZM159 3V83H161V3H159ZM160 82H1V84H160V82ZM2 83V3H0V83H2Z" fill="black"/>
<path d="M168 43L248 43" stroke="black" stroke-width="2"/>
<path d="M225 19L249 43L225 67" stroke="black" stroke-width="2"/>
<path d="M432 43L512 43" stroke="black" stroke-width="2"/>
<path d="M489 19L513 43L489 67" stroke="black" stroke-width="2"/>
<rect x="262" y="1" width="156" height="80" fill="white"/>
<path d="M292.039 17.8594H288.383V28H286.891V17.8594H283.242V16.625H292.039V17.8594ZM294.945 20.5703C295.586 19.7839 296.419 19.3906 297.445 19.3906C299.232 19.3906 300.133 20.3984 300.148 22.4141V28H298.703V22.4062C298.698 21.7969 298.557 21.3464 298.281 21.0547C298.01 20.763 297.586 20.6172 297.008 20.6172C296.539 20.6172 296.128 20.7422 295.773 20.9922C295.419 21.2422 295.143 21.5703 294.945 21.9766V28H293.5V16H294.945V20.5703ZM305.82 28.1562C304.674 28.1562 303.742 27.7812 303.023 27.0312C302.305 26.276 301.945 25.2682 301.945 24.0078V23.7422C301.945 22.9036 302.104 22.1562 302.422 21.5C302.745 20.8385 303.193 20.3229 303.766 19.9531C304.344 19.5781 304.969 19.3906 305.641 19.3906C306.74 19.3906 307.594 19.7526 308.203 20.4766C308.812 21.2005 309.117 22.237 309.117 23.5859V24.1875H303.391C303.411 25.0208 303.654 25.6953 304.117 26.2109C304.586 26.7214 305.18 26.9766 305.898 26.9766C306.409 26.9766 306.841 26.8724 307.195 26.6641C307.549 26.4557 307.859 26.1797 308.125 25.8359L309.008 26.5234C308.299 27.612 307.237 28.1562 305.82 28.1562ZM305.641 20.5781C305.057 20.5781 304.568 20.7917 304.172 21.2188C303.776 21.6406 303.531 22.2344 303.438 23H307.672V22.8906C307.63 22.1562 307.432 21.5885 307.078 21.1875C306.724 20.7812 306.245 20.5781 305.641 20.5781ZM319.984 28C319.901 27.8333 319.833 27.5365 319.781 27.1094C319.109 27.8073 318.307 28.1562 317.375 28.1562C316.542 28.1562 315.857 27.9219 315.32 27.4531C314.789 26.9792 314.523 26.3802 314.523 25.6562C314.523 24.776 314.857 24.0938 315.523 23.6094C316.195 23.1198 317.138 22.875 318.352 22.875H319.758V22.2109C319.758 21.7057 319.607 21.3047 319.305 21.0078C319.003 20.7057 318.557 20.5547 317.969 20.5547C317.453 20.5547 317.021 20.6849 316.672 20.9453C316.323 21.2057 316.148 21.5208 316.148 21.8906H314.695C314.695 21.4688 314.844 21.0625 315.141 20.6719C315.443 20.276 315.849 19.9635 316.359 19.7344C316.875 19.5052 317.44 19.3906 318.055 19.3906C319.029 19.3906 319.792 19.6354 320.344 20.125C320.896 20.6094 321.182 21.2786 321.203 22.1328V26.0234C321.203 26.7995 321.302 27.4167 321.5 27.875V28H319.984ZM317.586 26.8984C318.039 26.8984 318.469 26.7812 318.875 26.5469C319.281 26.3125 319.576 26.0078 319.758 25.6328V23.8984H318.625C316.854 23.8984 315.969 24.4167 315.969 25.4531C315.969 25.9062 316.12 26.2604 316.422 26.5156C316.724 26.7708 317.112 26.8984 317.586 26.8984ZM323.117 23.7031C323.117 22.4062 323.424 21.3646 324.039 20.5781C324.654 19.7865 325.458 19.3906 326.453 19.3906C327.443 19.3906 328.227 19.7292 328.805 20.4062V16H330.25V28H328.922L328.852 27.0938C328.273 27.8021 327.469 28.1562 326.438 28.1562C325.458 28.1562 324.659 27.7552 324.039 26.9531C323.424 26.151 323.117 25.1042 323.117 23.8125V23.7031ZM324.562 23.8672C324.562 24.8255 324.76 25.5755 325.156 26.1172C325.552 26.6589 326.099 26.9297 326.797 26.9297C327.714 26.9297 328.383 26.5182 328.805 25.6953V21.8125C328.372 21.0156 327.708 20.6172 326.812 20.6172C326.104 20.6172 325.552 20.8906 325.156 21.4375C324.76 21.9844 324.562 22.7943 324.562 23.8672ZM333.859 19.5469L333.898 20.4844C334.518 19.7552 335.354 19.3906 336.406 19.3906C337.589 19.3906 338.393 19.8438 338.82 20.75C339.102 20.3438 339.466 20.0156 339.914 19.7656C340.367 19.5156 340.901 19.3906 341.516 19.3906C343.37 19.3906 344.312 20.3724 344.344 22.3359V28H342.898V22.4219C342.898 21.8177 342.76 21.3672 342.484 21.0703C342.208 20.7682 341.745 20.6172 341.094 20.6172C340.557 20.6172 340.112 20.7786 339.758 21.1016C339.404 21.4193 339.198 21.849 339.141 22.3906V28H337.688V22.4609C337.688 21.2318 337.086 20.6172 335.883 20.6172C334.935 20.6172 334.286 21.0208 333.938 21.8281V28H332.492V19.5469H333.859ZM348.102 28H346.656V19.5469H348.102V28ZM346.539 17.3047C346.539 17.0703 346.609 16.8724 346.75 16.7109C346.896 16.5495 347.109 16.4688 347.391 16.4688C347.672 16.4688 347.885 16.5495 348.031 16.7109C348.177 16.8724 348.25 17.0703 348.25 17.3047C348.25 17.5391 348.177 17.7344 348.031 17.8906C347.885 18.0469 347.672 18.125 347.391 18.125C347.109 18.125 346.896 18.0469 346.75 17.8906C346.609 17.7344 346.539 17.5391 346.539 17.3047ZM351.789 19.5469L351.836 20.6094C352.482 19.7969 353.326 19.3906 354.367 19.3906C356.154 19.3906 357.055 20.3984 357.07 22.4141V28H355.625V22.4062C355.62 21.7969 355.479 21.3464 355.203 21.0547C354.932 20.763 354.508 20.6172 353.93 20.6172C353.461 20.6172 353.049 20.7422 352.695 20.9922C352.341 21.2422 352.065 21.5703 351.867 21.9766V28H350.422V19.5469H351.789ZM368.438 28C368.354 27.8333 368.286 27.5365 368.234 27.1094C367.562 27.8073 366.76 28.1562 365.828 28.1562C364.995 28.1562 364.31 27.9219 363.773 27.4531C363.242 26.9792 362.977 26.3802 362.977 25.6562C362.977 24.776 363.31 24.0938 363.977 23.6094C364.648 23.1198 365.591 22.875 366.805 22.875H368.211V22.2109C368.211 21.7057 368.06 21.3047 367.758 21.0078C367.456 20.7057 367.01 20.5547 366.422 20.5547C365.906 20.5547 365.474 20.6849 365.125 20.9453C364.776 21.2057 364.602 21.5208 364.602 21.8906H363.148C363.148 21.4688 363.297 21.0625 363.594 20.6719C363.896 20.276 364.302 19.9635 364.812 19.7344C365.328 19.5052 365.893 19.3906 366.508 19.3906C367.482 19.3906 368.245 19.6354 368.797 20.125C369.349 20.6094 369.635 21.2786 369.656 22.1328V26.0234C369.656 26.7995 369.755 27.4167 369.953 27.875V28H368.438ZM366.039 26.8984C366.492 26.8984 366.922 26.7812 367.328 26.5469C367.734 26.3125 368.029 26.0078 368.211 25.6328V23.8984H367.078C365.307 23.8984 364.422 24.4167 364.422 25.4531C364.422 25.9062 364.573 26.2604 364.875 26.5156C365.177 26.7708 365.565 26.8984 366.039 26.8984ZM371.57 23.7031C371.57 22.4062 371.878 21.3646 372.492 20.5781C373.107 19.7865 373.911 19.3906 374.906 19.3906C375.896 19.3906 376.68 19.7292 377.258 20.4062V16H378.703V28H377.375L377.305 27.0938C376.727 27.8021 375.922 28.1562 374.891 28.1562C373.911 28.1562 373.112 27.7552 372.492 26.9531C371.878 26.151 371.57 25.1042 371.57 23.8125V23.7031ZM373.016 23.8672C373.016 24.8255 373.214 25.5755 373.609 26.1172C374.005 26.6589 374.552 26.9297 375.25 26.9297C376.167 26.9297 376.836 26.5182 377.258 25.6953V21.8125C376.826 21.0156 376.161 20.6172 375.266 20.6172C374.557 20.6172 374.005 20.8906 373.609 21.4375C373.214 21.9844 373.016 22.7943 373.016 23.8672ZM380.602 23.7031C380.602 22.4062 380.909 21.3646 381.523 20.5781C382.138 19.7865 382.943 19.3906 383.938 19.3906C384.927 19.3906 385.711 19.7292 386.289 20.4062V16H387.734V28H386.406L386.336 27.0938C385.758 27.8021 384.953 28.1562 383.922 28.1562C382.943 28.1562 382.143 27.7552 381.523 26.9531C380.909 26.151 380.602 25.1042 380.602 23.8125V23.7031ZM382.047 23.8672C382.047 24.8255 382.245 25.5755 382.641 26.1172C383.036 26.6589 383.583 26.9297 384.281 26.9297C385.198 26.9297 385.867 26.5182 386.289 25.6953V21.8125C385.857 21.0156 385.193 20.6172 384.297 20.6172C383.589 20.6172 383.036 20.8906 382.641 21.4375C382.245 21.9844 382.047 22.7943 382.047 23.8672ZM394.906 25.7578C394.906 25.3672 394.758 25.0651 394.461 24.8516C394.169 24.6328 393.656 24.4453 392.922 24.2891C392.193 24.1328 391.612 23.9453 391.18 23.7266C390.753 23.5078 390.435 23.2474 390.227 22.9453C390.023 22.6432 389.922 22.2839 389.922 21.8672C389.922 21.1745 390.214 20.5885 390.797 20.1094C391.385 19.6302 392.135 19.3906 393.047 19.3906C394.005 19.3906 394.781 19.638 395.375 20.1328C395.974 20.6276 396.273 21.2604 396.273 22.0312H394.82C394.82 21.6354 394.651 21.2943 394.312 21.0078C393.979 20.7214 393.557 20.5781 393.047 20.5781C392.521 20.5781 392.109 20.6927 391.812 20.9219C391.516 21.151 391.367 21.4505 391.367 21.8203C391.367 22.1693 391.505 22.4323 391.781 22.6094C392.057 22.7865 392.555 22.9557 393.273 23.1172C393.997 23.2786 394.583 23.4714 395.031 23.6953C395.479 23.9193 395.81 24.1901 396.023 24.5078C396.242 24.8203 396.352 25.2031 396.352 25.6562C396.352 26.4115 396.049 27.0182 395.445 27.4766C394.841 27.9297 394.057 28.1562 393.094 28.1562C392.417 28.1562 391.818 28.0365 391.297 27.7969C390.776 27.5573 390.367 27.224 390.07 26.7969C389.779 26.3646 389.633 25.8984 389.633 25.3984H391.078C391.104 25.8828 391.297 26.2682 391.656 26.5547C392.021 26.8359 392.5 26.9766 393.094 26.9766C393.641 26.9766 394.078 26.8672 394.406 26.6484C394.74 26.4245 394.906 26.1276 394.906 25.7578ZM300.875 42.6953C300.875 41.8672 301.036 41.1224 301.359 40.4609C301.688 39.7995 302.141 39.2891 302.719 38.9297C303.302 38.5703 303.966 38.3906 304.711 38.3906C305.862 38.3906 306.792 38.7891 307.5 39.5859C308.214 40.3828 308.57 41.4427 308.57 42.7656V42.8672C308.57 43.6901 308.411 44.4297 308.094 45.0859C307.781 45.737 307.331 46.2448 306.742 46.6094C306.159 46.974 305.487 47.1562 304.727 47.1562C303.581 47.1562 302.651 46.7578 301.938 45.9609C301.229 45.1641 300.875 44.1094 300.875 42.7969V42.6953ZM302.328 42.8672C302.328 43.8047 302.544 44.5573 302.977 45.125C303.414 45.6927 303.997 45.9766 304.727 45.9766C305.461 45.9766 306.044 45.6901 306.477 45.1172C306.909 44.5391 307.125 43.7318 307.125 42.6953C307.125 41.7682 306.904 41.0182 306.461 40.4453C306.023 39.8672 305.44 39.5781 304.711 39.5781C303.997 39.5781 303.422 39.862 302.984 40.4297C302.547 40.9974 302.328 41.8099 302.328 42.8672ZM314.469 39.8438C314.25 39.8073 314.013 39.7891 313.758 39.7891C312.81 39.7891 312.167 40.1927 311.828 41V47H310.383V38.5469H311.789L311.812 39.5234C312.286 38.7682 312.958 38.3906 313.828 38.3906C314.109 38.3906 314.323 38.4271 314.469 38.5V39.8438ZM323.859 39.8438C323.641 39.8073 323.404 39.7891 323.148 39.7891C322.201 39.7891 321.557 40.1927 321.219 41V47H319.773V38.5469H321.18L321.203 39.5234C321.677 38.7682 322.349 38.3906 323.219 38.3906C323.5 38.3906 323.714 38.4271 323.859 38.5V39.8438ZM328.547 47.1562C327.401 47.1562 326.469 46.7812 325.75 46.0312C325.031 45.276 324.672 44.2682 324.672 43.0078V42.7422C324.672 41.9036 324.831 41.1562 325.148 40.5C325.471 39.8385 325.919 39.3229 326.492 38.9531C327.07 38.5781 327.695 38.3906 328.367 38.3906C329.466 38.3906 330.32 38.7526 330.93 39.4766C331.539 40.2005 331.844 41.237 331.844 42.5859V43.1875H326.117C326.138 44.0208 326.38 44.6953 326.844 45.2109C327.312 45.7214 327.906 45.9766 328.625 45.9766C329.135 45.9766 329.568 45.8724 329.922 45.6641C330.276 45.4557 330.586 45.1797 330.852 44.8359L331.734 45.5234C331.026 46.612 329.964 47.1562 328.547 47.1562ZM328.367 39.5781C327.784 39.5781 327.294 39.7917 326.898 40.2188C326.503 40.6406 326.258 41.2344 326.164 42H330.398V41.8906C330.357 41.1562 330.159 40.5885 329.805 40.1875C329.451 39.7812 328.971 39.5781 328.367 39.5781ZM334.883 38.5469L334.922 39.4844C335.542 38.7552 336.378 38.3906 337.43 38.3906C338.612 38.3906 339.417 38.8438 339.844 39.75C340.125 39.3438 340.49 39.0156 340.938 38.7656C341.391 38.5156 341.924 38.3906 342.539 38.3906C344.393 38.3906 345.336 39.3724 345.367 41.3359V47H343.922V41.4219C343.922 40.8177 343.784 40.3672 343.508 40.0703C343.232 39.7682 342.768 39.6172 342.117 39.6172C341.581 39.6172 341.135 39.7786 340.781 40.1016C340.427 40.4193 340.221 40.849 340.164 41.3906V47H338.711V41.4609C338.711 40.2318 338.109 39.6172 336.906 39.6172C335.958 39.6172 335.31 40.0208 334.961 40.8281V47H333.516V38.5469H334.883ZM347.172 42.6953C347.172 41.8672 347.333 41.1224 347.656 40.4609C347.984 39.7995 348.438 39.2891 349.016 38.9297C349.599 38.5703 350.263 38.3906 351.008 38.3906C352.159 38.3906 353.089 38.7891 353.797 39.5859C354.51 40.3828 354.867 41.4427 354.867 42.7656V42.8672C354.867 43.6901 354.708 44.4297 354.391 45.0859C354.078 45.737 353.628 46.2448 353.039 46.6094C352.456 46.974 351.784 47.1562 351.023 47.1562C349.878 47.1562 348.948 46.7578 348.234 45.9609C347.526 45.1641 347.172 44.1094 347.172 42.7969V42.6953ZM348.625 42.8672C348.625 43.8047 348.841 44.5573 349.273 45.125C349.711 45.6927 350.294 45.9766 351.023 45.9766C351.758 45.9766 352.341 45.6901 352.773 45.1172C353.206 44.5391 353.422 43.7318 353.422 42.6953C353.422 41.7682 353.201 41.0182 352.758 40.4453C352.32 39.8672 351.737 39.5781 351.008 39.5781C350.294 39.5781 349.719 39.862 349.281 40.4297C348.844 40.9974 348.625 41.8099 348.625 42.8672ZM359.344 45.0391L361.438 38.5469H362.914L359.883 47H358.781L355.719 38.5469H357.195L359.344 45.0391ZM367.703 47.1562C366.557 47.1562 365.625 46.7812 364.906 46.0312C364.188 45.276 363.828 44.2682 363.828 43.0078V42.7422C363.828 41.9036 363.987 41.1562 364.305 40.5C364.628 39.8385 365.076 39.3229 365.648 38.9531C366.227 38.5781 366.852 38.3906 367.523 38.3906C368.622 38.3906 369.477 38.7526 370.086 39.4766C370.695 40.2005 371 41.237 371 42.5859V43.1875H365.273C365.294 44.0208 365.536 44.6953 366 45.2109C366.469 45.7214 367.062 45.9766 367.781 45.9766C368.292 45.9766 368.724 45.8724 369.078 45.6641C369.432 45.4557 369.742 45.1797 370.008 44.8359L370.891 45.5234C370.182 46.612 369.12 47.1562 367.703 47.1562ZM367.523 39.5781C366.94 39.5781 366.451 39.7917 366.055 40.2188C365.659 40.6406 365.414 41.2344 365.32 42H369.555V41.8906C369.513 41.1562 369.315 40.5885 368.961 40.1875C368.607 39.7812 368.128 39.5781 367.523 39.5781ZM377.602 44.7578C377.602 44.3672 377.453 44.0651 377.156 43.8516C376.865 43.6328 376.352 43.4453 375.617 43.2891C374.888 43.1328 374.307 42.9453 373.875 42.7266C373.448 42.5078 373.13 42.2474 372.922 41.9453C372.719 41.6432 372.617 41.2839 372.617 40.8672C372.617 40.1745 372.909 39.5885 373.492 39.1094C374.081 38.6302 374.831 38.3906 375.742 38.3906C376.701 38.3906 377.477 38.638 378.07 39.1328C378.669 39.6276 378.969 40.2604 378.969 41.0312H377.516C377.516 40.6354 377.346 40.2943 377.008 40.0078C376.674 39.7214 376.253 39.5781 375.742 39.5781C375.216 39.5781 374.805 39.6927 374.508 39.9219C374.211 40.151 374.062 40.4505 374.062 40.8203C374.062 41.1693 374.201 41.4323 374.477 41.6094C374.753 41.7865 375.25 41.9557 375.969 42.1172C376.693 42.2786 377.279 42.4714 377.727 42.6953C378.174 42.9193 378.505 43.1901 378.719 43.5078C378.938 43.8203 379.047 44.2031 379.047 44.6562C379.047 45.4115 378.745 46.0182 378.141 46.4766C377.536 46.9297 376.753 47.1562 375.789 47.1562C375.112 47.1562 374.513 47.0365 373.992 46.7969C373.471 46.5573 373.062 46.224 372.766 45.7969C372.474 45.3646 372.328 44.8984 372.328 44.3984H373.773C373.799 44.8828 373.992 45.2682 374.352 45.5547C374.716 45.8359 375.195 45.9766 375.789 45.9766C376.336 45.9766 376.773 45.8672 377.102 45.6484C377.435 45.4245 377.602 45.1276 377.602 44.7578ZM308.609 57.5469L308.648 58.4844C309.268 57.7552 310.104 57.3906 311.156 57.3906C312.339 57.3906 313.143 57.8438 313.57 58.75C313.852 58.3438 314.216 58.0156 314.664 57.7656C315.117 57.5156 315.651 57.3906 316.266 57.3906C318.12 57.3906 319.062 58.3724 319.094 60.3359V66H317.648V60.4219C317.648 59.8177 317.51 59.3672 317.234 59.0703C316.958 58.7682 316.495 58.6172 315.844 58.6172C315.307 58.6172 314.862 58.7786 314.508 59.1016C314.154 59.4193 313.948 59.849 313.891 60.3906V66H312.438V60.4609C312.438 59.2318 311.836 58.6172 310.633 58.6172C309.685 58.6172 309.036 59.0208 308.688 59.8281V66H307.242V57.5469H308.609ZM324.789 66.1562C323.643 66.1562 322.711 65.7812 321.992 65.0312C321.273 64.276 320.914 63.2682 320.914 62.0078V61.7422C320.914 60.9036 321.073 60.1562 321.391 59.5C321.714 58.8385 322.161 58.3229 322.734 57.9531C323.312 57.5781 323.938 57.3906 324.609 57.3906C325.708 57.3906 326.562 57.7526 327.172 58.4766C327.781 59.2005 328.086 60.237 328.086 61.5859V62.1875H322.359C322.38 63.0208 322.622 63.6953 323.086 64.2109C323.555 64.7214 324.148 64.9766 324.867 64.9766C325.378 64.9766 325.81 64.8724 326.164 64.6641C326.518 64.4557 326.828 64.1797 327.094 63.8359L327.977 64.5234C327.268 65.612 326.206 66.1562 324.789 66.1562ZM324.609 58.5781C324.026 58.5781 323.536 58.7917 323.141 59.2188C322.745 59.6406 322.5 60.2344 322.406 61H326.641V60.8906C326.599 60.1562 326.401 59.5885 326.047 59.1875C325.693 58.7812 325.214 58.5781 324.609 58.5781ZM331.125 57.5469L331.164 58.4844C331.784 57.7552 332.62 57.3906 333.672 57.3906C334.854 57.3906 335.659 57.8438 336.086 58.75C336.367 58.3438 336.732 58.0156 337.18 57.7656C337.633 57.5156 338.167 57.3906 338.781 57.3906C340.635 57.3906 341.578 58.3724 341.609 60.3359V66H340.164V60.4219C340.164 59.8177 340.026 59.3672 339.75 59.0703C339.474 58.7682 339.01 58.6172 338.359 58.6172C337.823 58.6172 337.378 58.7786 337.023 59.1016C336.669 59.4193 336.464 59.849 336.406 60.3906V66H334.953V60.4609C334.953 59.2318 334.352 58.6172 333.148 58.6172C332.201 58.6172 331.552 59.0208 331.203 59.8281V66H329.758V57.5469H331.125ZM350.953 61.8672C350.953 63.1589 350.656 64.1979 350.062 64.9844C349.469 65.7656 348.672 66.1562 347.672 66.1562C346.604 66.1562 345.779 65.7786 345.195 65.0234L345.125 66H343.797V54H345.242V58.4766C345.826 57.7526 346.63 57.3906 347.656 57.3906C348.682 57.3906 349.487 57.7786 350.07 58.5547C350.659 59.3307 350.953 60.3932 350.953 61.7422V61.8672ZM349.508 61.7031C349.508 60.7188 349.318 59.9583 348.938 59.4219C348.557 58.8854 348.01 58.6172 347.297 58.6172C346.344 58.6172 345.659 59.0599 345.242 59.9453V63.6016C345.685 64.487 346.375 64.9297 347.312 64.9297C348.005 64.9297 348.544 64.6615 348.93 64.125C349.315 63.5885 349.508 62.7812 349.508 61.7031ZM356.289 66.1562C355.143 66.1562 354.211 65.7812 353.492 65.0312C352.773 64.276 352.414 63.2682 352.414 62.0078V61.7422C352.414 60.9036 352.573 60.1562 352.891 59.5C353.214 58.8385 353.661 58.3229 354.234 57.9531C354.812 57.5781 355.438 57.3906 356.109 57.3906C357.208 57.3906 358.062 57.7526 358.672 58.4766C359.281 59.2005 359.586 60.237 359.586 61.5859V62.1875H353.859C353.88 63.0208 354.122 63.6953 354.586 64.2109C355.055 64.7214 355.648 64.9766 356.367 64.9766C356.878 64.9766 357.31 64.8724 357.664 64.6641C358.018 64.4557 358.328 64.1797 358.594 63.8359L359.477 64.5234C358.768 65.612 357.706 66.1562 356.289 66.1562ZM356.109 58.5781C355.526 58.5781 355.036 58.7917 354.641 59.2188C354.245 59.6406 354 60.2344 353.906 61H358.141V60.8906C358.099 60.1562 357.901 59.5885 357.547 59.1875C357.193 58.7812 356.714 58.5781 356.109 58.5781ZM365.352 58.8438C365.133 58.8073 364.896 58.7891 364.641 58.7891C363.693 58.7891 363.049 59.1927 362.711 60V66H361.266V57.5469H362.672L362.695 58.5234C363.169 57.7682 363.841 57.3906 364.711 57.3906C364.992 57.3906 365.206 57.4271 365.352 57.5V58.8438ZM371.609 63.7578C371.609 63.3672 371.461 63.0651 371.164 62.8516C370.872 62.6328 370.359 62.4453 369.625 62.2891C368.896 62.1328 368.315 61.9453 367.883 61.7266C367.456 61.5078 367.138 61.2474 366.93 60.9453C366.727 60.6432 366.625 60.2839 366.625 59.8672C366.625 59.1745 366.917 58.5885 367.5 58.1094C368.089 57.6302 368.839 57.3906 369.75 57.3906C370.708 57.3906 371.484 57.638 372.078 58.1328C372.677 58.6276 372.977 59.2604 372.977 60.0312H371.523C371.523 59.6354 371.354 59.2943 371.016 59.0078C370.682 58.7214 370.26 58.5781 369.75 58.5781C369.224 58.5781 368.812 58.6927 368.516 58.9219C368.219 59.151 368.07 59.4505 368.07 59.8203C368.07 60.1693 368.208 60.4323 368.484 60.6094C368.76 60.7865 369.258 60.9557 369.977 61.1172C370.701 61.2786 371.286 61.4714 371.734 61.6953C372.182 61.9193 372.513 62.1901 372.727 62.5078C372.945 62.8203 373.055 63.2031 373.055 63.6562C373.055 64.4115 372.753 65.0182 372.148 65.4766C371.544 65.9297 370.76 66.1562 369.797 66.1562C369.12 66.1562 368.521 66.0365 368 65.7969C367.479 65.5573 367.07 65.224 366.773 64.7969C366.482 64.3646 366.336 63.8984 366.336 63.3984H367.781C367.807 63.8828 368 64.2682 368.359 64.5547C368.724 64.8359 369.203 64.9766 369.797 64.9766C370.344 64.9766 370.781 64.8672 371.109 64.6484C371.443 64.4245 371.609 64.1276 371.609 63.7578Z" fill="black"/>
<path d="M262 1V0H261V1H262ZM418 1H419V0H418V1ZM418 81V82H419V81H418ZM262 81H261V82H262V81ZM262 2H418V0H262V2ZM417 1V81H419V1H417ZM418 80H262V82H418V80ZM263 81V1H261V81H263Z" fill="black"/>
<rect x="522" y="3" width="198" height="80" fill="white"/>
<path d="M557.164 24.9297C555.878 24.5599 554.94 24.1068 554.352 23.5703C553.768 23.0286 553.477 22.362 553.477 21.5703C553.477 20.6745 553.833 19.9349 554.547 19.3516C555.266 18.763 556.198 18.4688 557.344 18.4688C558.125 18.4688 558.82 18.6198 559.43 18.9219C560.044 19.224 560.518 19.6406 560.852 20.1719C561.19 20.7031 561.359 21.2839 561.359 21.9141H559.852C559.852 21.2266 559.633 20.6875 559.195 20.2969C558.758 19.901 558.141 19.7031 557.344 19.7031C556.604 19.7031 556.026 19.8672 555.609 20.1953C555.198 20.5182 554.992 20.9688 554.992 21.5469C554.992 22.0104 555.188 22.4036 555.578 22.7266C555.974 23.0443 556.643 23.3359 557.586 23.6016C558.534 23.8672 559.273 24.1615 559.805 24.4844C560.341 24.8021 560.737 25.1745 560.992 25.6016C561.253 26.0286 561.383 26.5312 561.383 27.1094C561.383 28.0312 561.023 28.7708 560.305 29.3281C559.586 29.8802 558.625 30.1562 557.422 30.1562C556.641 30.1562 555.911 30.0078 555.234 29.7109C554.557 29.4089 554.034 28.9974 553.664 28.4766C553.299 27.9557 553.117 27.3646 553.117 26.7031H554.625C554.625 27.3906 554.878 27.9349 555.383 28.3359C555.893 28.7318 556.573 28.9297 557.422 28.9297C558.214 28.9297 558.82 28.7682 559.242 28.4453C559.664 28.1224 559.875 27.6823 559.875 27.125C559.875 26.5677 559.68 26.138 559.289 25.8359C558.898 25.5286 558.19 25.2266 557.164 24.9297ZM562.703 25.6953C562.703 24.8672 562.865 24.1224 563.188 23.4609C563.516 22.7995 563.969 22.2891 564.547 21.9297C565.13 21.5703 565.794 21.3906 566.539 21.3906C567.69 21.3906 568.62 21.7891 569.328 22.5859C570.042 23.3828 570.398 24.4427 570.398 25.7656V25.8672C570.398 26.6901 570.24 27.4297 569.922 28.0859C569.609 28.737 569.159 29.2448 568.57 29.6094C567.987 29.974 567.315 30.1562 566.555 30.1562C565.409 30.1562 564.479 29.7578 563.766 28.9609C563.057 28.1641 562.703 27.1094 562.703 25.7969V25.6953ZM564.156 25.8672C564.156 26.8047 564.372 27.5573 564.805 28.125C565.242 28.6927 565.826 28.9766 566.555 28.9766C567.289 28.9766 567.872 28.6901 568.305 28.1172C568.737 27.5391 568.953 26.7318 568.953 25.6953C568.953 24.7682 568.732 24.0182 568.289 23.4453C567.852 22.8672 567.268 22.5781 566.539 22.5781C565.826 22.5781 565.25 22.862 564.812 23.4297C564.375 23.9974 564.156 24.8099 564.156 25.8672ZM573.57 21.5469L573.609 22.4844C574.229 21.7552 575.065 21.3906 576.117 21.3906C577.299 21.3906 578.104 21.8438 578.531 22.75C578.812 22.3438 579.177 22.0156 579.625 21.7656C580.078 21.5156 580.612 21.3906 581.227 21.3906C583.081 21.3906 584.023 22.3724 584.055 24.3359V30H582.609V24.4219C582.609 23.8177 582.471 23.3672 582.195 23.0703C581.919 22.7682 581.456 22.6172 580.805 22.6172C580.268 22.6172 579.823 22.7786 579.469 23.1016C579.115 23.4193 578.909 23.849 578.852 24.3906V30H577.398V24.4609C577.398 23.2318 576.797 22.6172 575.594 22.6172C574.646 22.6172 573.997 23.0208 573.648 23.8281V30H572.203V21.5469H573.57ZM589.75 30.1562C588.604 30.1562 587.672 29.7812 586.953 29.0312C586.234 28.276 585.875 27.2682 585.875 26.0078V25.7422C585.875 24.9036 586.034 24.1562 586.352 23.5C586.674 22.8385 587.122 22.3229 587.695 21.9531C588.273 21.5781 588.898 21.3906 589.57 21.3906C590.669 21.3906 591.523 21.7526 592.133 22.4766C592.742 23.2005 593.047 24.237 593.047 25.5859V26.1875H587.32C587.341 27.0208 587.583 27.6953 588.047 28.2109C588.516 28.7214 589.109 28.9766 589.828 28.9766C590.339 28.9766 590.771 28.8724 591.125 28.6641C591.479 28.4557 591.789 28.1797 592.055 27.8359L592.938 28.5234C592.229 29.612 591.167 30.1562 589.75 30.1562ZM589.57 22.5781C588.987 22.5781 588.497 22.7917 588.102 23.2188C587.706 23.6406 587.461 24.2344 587.367 25H591.602V24.8906C591.56 24.1562 591.362 23.5885 591.008 23.1875C590.654 22.7812 590.174 22.5781 589.57 22.5781ZM594.344 25.6953C594.344 24.8672 594.505 24.1224 594.828 23.4609C595.156 22.7995 595.609 22.2891 596.188 21.9297C596.771 21.5703 597.435 21.3906 598.18 21.3906C599.331 21.3906 600.26 21.7891 600.969 22.5859C601.682 23.3828 602.039 24.4427 602.039 25.7656V25.8672C602.039 26.6901 601.88 27.4297 601.562 28.0859C601.25 28.737 600.799 29.2448 600.211 29.6094C599.628 29.974 598.956 30.1562 598.195 30.1562C597.049 30.1562 596.12 29.7578 595.406 28.9609C594.698 28.1641 594.344 27.1094 594.344 25.7969V25.6953ZM595.797 25.8672C595.797 26.8047 596.013 27.5573 596.445 28.125C596.883 28.6927 597.466 28.9766 598.195 28.9766C598.93 28.9766 599.513 28.6901 599.945 28.1172C600.378 27.5391 600.594 26.7318 600.594 25.6953C600.594 24.7682 600.372 24.0182 599.93 23.4453C599.492 22.8672 598.909 22.5781 598.18 22.5781C597.466 22.5781 596.891 22.862 596.453 23.4297C596.016 23.9974 595.797 24.8099 595.797 25.8672ZM605.219 21.5469L605.266 22.6094C605.911 21.7969 606.755 21.3906 607.797 21.3906C609.583 21.3906 610.484 22.3984 610.5 24.4141V30H609.055V24.4062C609.049 23.7969 608.909 23.3464 608.633 23.0547C608.362 22.763 607.938 22.6172 607.359 22.6172C606.891 22.6172 606.479 22.7422 606.125 22.9922C605.771 23.2422 605.495 23.5703 605.297 23.9766V30H603.852V21.5469H605.219ZM616.188 30.1562C615.042 30.1562 614.109 29.7812 613.391 29.0312C612.672 28.276 612.312 27.2682 612.312 26.0078V25.7422C612.312 24.9036 612.471 24.1562 612.789 23.5C613.112 22.8385 613.56 22.3229 614.133 21.9531C614.711 21.5781 615.336 21.3906 616.008 21.3906C617.107 21.3906 617.961 21.7526 618.57 22.4766C619.18 23.2005 619.484 24.237 619.484 25.5859V26.1875H613.758C613.779 27.0208 614.021 27.6953 614.484 28.2109C614.953 28.7214 615.547 28.9766 616.266 28.9766C616.776 28.9766 617.208 28.8724 617.562 28.6641C617.917 28.4557 618.227 28.1797 618.492 27.8359L619.375 28.5234C618.667 29.612 617.604 30.1562 616.188 30.1562ZM616.008 22.5781C615.424 22.5781 614.935 22.7917 614.539 23.2188C614.143 23.6406 613.898 24.2344 613.805 25H618.039V24.8906C617.997 24.1562 617.799 23.5885 617.445 23.1875C617.091 22.7812 616.612 22.5781 616.008 22.5781ZM628.523 28.9766C629.039 28.9766 629.49 28.8203 629.875 28.5078C630.26 28.1953 630.474 27.8047 630.516 27.3359H631.883C631.857 27.8203 631.69 28.2812 631.383 28.7188C631.076 29.1562 630.664 29.5052 630.148 29.7656C629.638 30.026 629.096 30.1562 628.523 30.1562C627.372 30.1562 626.456 29.7734 625.773 29.0078C625.096 28.237 624.758 27.1849 624.758 25.8516V25.6094C624.758 24.7865 624.909 24.0547 625.211 23.4141C625.513 22.7734 625.945 22.276 626.508 21.9219C627.076 21.5677 627.745 21.3906 628.516 21.3906C629.464 21.3906 630.25 21.6745 630.875 22.2422C631.505 22.8099 631.841 23.5469 631.883 24.4531H630.516C630.474 23.9062 630.266 23.4583 629.891 23.1094C629.521 22.7552 629.062 22.5781 628.516 22.5781C627.781 22.5781 627.211 22.8438 626.805 23.375C626.404 23.901 626.203 24.6641 626.203 25.6641V25.9375C626.203 26.9115 626.404 27.6615 626.805 28.1875C627.206 28.7135 627.779 28.9766 628.523 28.9766ZM637.594 22.8438C637.375 22.8073 637.138 22.7891 636.883 22.7891C635.935 22.7891 635.292 23.1927 634.953 24V30H633.508V21.5469H634.914L634.938 22.5234C635.411 21.7682 636.083 21.3906 636.953 21.3906C637.234 21.3906 637.448 21.4271 637.594 21.5V22.8438ZM642.281 30.1562C641.135 30.1562 640.203 29.7812 639.484 29.0312C638.766 28.276 638.406 27.2682 638.406 26.0078V25.7422C638.406 24.9036 638.565 24.1562 638.883 23.5C639.206 22.8385 639.654 22.3229 640.227 21.9531C640.805 21.5781 641.43 21.3906 642.102 21.3906C643.201 21.3906 644.055 21.7526 644.664 22.4766C645.273 23.2005 645.578 24.237 645.578 25.5859V26.1875H639.852C639.872 27.0208 640.115 27.6953 640.578 28.2109C641.047 28.7214 641.641 28.9766 642.359 28.9766C642.87 28.9766 643.302 28.8724 643.656 28.6641C644.01 28.4557 644.32 28.1797 644.586 27.8359L645.469 28.5234C644.76 29.612 643.698 30.1562 642.281 30.1562ZM642.102 22.5781C641.518 22.5781 641.029 22.7917 640.633 23.2188C640.237 23.6406 639.992 24.2344 639.898 25H644.133V24.8906C644.091 24.1562 643.893 23.5885 643.539 23.1875C643.185 22.7812 642.706 22.5781 642.102 22.5781ZM652.477 30C652.393 29.8333 652.326 29.5365 652.273 29.1094C651.602 29.8073 650.799 30.1562 649.867 30.1562C649.034 30.1562 648.349 29.9219 647.812 29.4531C647.281 28.9792 647.016 28.3802 647.016 27.6562C647.016 26.776 647.349 26.0938 648.016 25.6094C648.688 25.1198 649.63 24.875 650.844 24.875H652.25V24.2109C652.25 23.7057 652.099 23.3047 651.797 23.0078C651.495 22.7057 651.049 22.5547 650.461 22.5547C649.945 22.5547 649.513 22.6849 649.164 22.9453C648.815 23.2057 648.641 23.5208 648.641 23.8906H647.188C647.188 23.4688 647.336 23.0625 647.633 22.6719C647.935 22.276 648.341 21.9635 648.852 21.7344C649.367 21.5052 649.932 21.3906 650.547 21.3906C651.521 21.3906 652.284 21.6354 652.836 22.125C653.388 22.6094 653.674 23.2786 653.695 24.1328V28.0234C653.695 28.7995 653.794 29.4167 653.992 29.875V30H652.477ZM650.078 28.8984C650.531 28.8984 650.961 28.7812 651.367 28.5469C651.773 28.3125 652.068 28.0078 652.25 27.6328V25.8984H651.117C649.346 25.8984 648.461 26.4167 648.461 27.4531C648.461 27.9062 648.612 28.2604 648.914 28.5156C649.216 28.7708 649.604 28.8984 650.078 28.8984ZM657.922 19.5V21.5469H659.5V22.6641H657.922V27.9062C657.922 28.2448 657.992 28.5 658.133 28.6719C658.273 28.8385 658.513 28.9219 658.852 28.9219C659.018 28.9219 659.247 28.8906 659.539 28.8281V30C659.159 30.1042 658.789 30.1562 658.43 30.1562C657.784 30.1562 657.297 29.9609 656.969 29.5703C656.641 29.1797 656.477 28.625 656.477 27.9062V22.6641H654.938V21.5469H656.477V19.5H657.922ZM664.703 30.1562C663.557 30.1562 662.625 29.7812 661.906 29.0312C661.188 28.276 660.828 27.2682 660.828 26.0078V25.7422C660.828 24.9036 660.987 24.1562 661.305 23.5C661.628 22.8385 662.076 22.3229 662.648 21.9531C663.227 21.5781 663.852 21.3906 664.523 21.3906C665.622 21.3906 666.477 21.7526 667.086 22.4766C667.695 23.2005 668 24.237 668 25.5859V26.1875H662.273C662.294 27.0208 662.536 27.6953 663 28.2109C663.469 28.7214 664.062 28.9766 664.781 28.9766C665.292 28.9766 665.724 28.8724 666.078 28.6641C666.432 28.4557 666.742 28.1797 667.008 27.8359L667.891 28.5234C667.182 29.612 666.12 30.1562 664.703 30.1562ZM664.523 22.5781C663.94 22.5781 663.451 22.7917 663.055 23.2188C662.659 23.6406 662.414 24.2344 662.32 25H666.555V24.8906C666.513 24.1562 666.315 23.5885 665.961 23.1875C665.607 22.7812 665.128 22.5781 664.523 22.5781ZM674.602 27.7578C674.602 27.3672 674.453 27.0651 674.156 26.8516C673.865 26.6328 673.352 26.4453 672.617 26.2891C671.888 26.1328 671.307 25.9453 670.875 25.7266C670.448 25.5078 670.13 25.2474 669.922 24.9453C669.719 24.6432 669.617 24.2839 669.617 23.8672C669.617 23.1745 669.909 22.5885 670.492 22.1094C671.081 21.6302 671.831 21.3906 672.742 21.3906C673.701 21.3906 674.477 21.638 675.07 22.1328C675.669 22.6276 675.969 23.2604 675.969 24.0312H674.516C674.516 23.6354 674.346 23.2943 674.008 23.0078C673.674 22.7214 673.253 22.5781 672.742 22.5781C672.216 22.5781 671.805 22.6927 671.508 22.9219C671.211 23.151 671.062 23.4505 671.062 23.8203C671.062 24.1693 671.201 24.4323 671.477 24.6094C671.753 24.7865 672.25 24.9557 672.969 25.1172C673.693 25.2786 674.279 25.4714 674.727 25.6953C675.174 25.9193 675.505 26.1901 675.719 26.5078C675.938 26.8203 676.047 27.2031 676.047 27.6562C676.047 28.4115 675.745 29.0182 675.141 29.4766C674.536 29.9297 673.753 30.1562 672.789 30.1562C672.112 30.1562 671.513 30.0365 670.992 29.7969C670.471 29.5573 670.062 29.224 669.766 28.7969C669.474 28.3646 669.328 27.8984 669.328 27.3984H670.773C670.799 27.8828 670.992 28.2682 671.352 28.5547C671.716 28.8359 672.195 28.9766 672.789 28.9766C673.336 28.9766 673.773 28.8672 674.102 28.6484C674.435 28.4245 674.602 28.1276 674.602 27.7578ZM687.117 30C687.034 29.8333 686.966 29.5365 686.914 29.1094C686.242 29.8073 685.44 30.1562 684.508 30.1562C683.674 30.1562 682.99 29.9219 682.453 29.4531C681.922 28.9792 681.656 28.3802 681.656 27.6562C681.656 26.776 681.99 26.0938 682.656 25.6094C683.328 25.1198 684.271 24.875 685.484 24.875H686.891V24.2109C686.891 23.7057 686.74 23.3047 686.438 23.0078C686.135 22.7057 685.69 22.5547 685.102 22.5547C684.586 22.5547 684.154 22.6849 683.805 22.9453C683.456 23.2057 683.281 23.5208 683.281 23.8906H681.828C681.828 23.4688 681.977 23.0625 682.273 22.6719C682.576 22.276 682.982 21.9635 683.492 21.7344C684.008 21.5052 684.573 21.3906 685.188 21.3906C686.161 21.3906 686.924 21.6354 687.477 22.125C688.029 22.6094 688.315 23.2786 688.336 24.1328V28.0234C688.336 28.7995 688.435 29.4167 688.633 29.875V30H687.117ZM684.719 28.8984C685.172 28.8984 685.602 28.7812 686.008 28.5469C686.414 28.3125 686.708 28.0078 686.891 27.6328V25.8984H685.758C683.987 25.8984 683.102 26.4167 683.102 27.4531C683.102 27.9062 683.253 28.2604 683.555 28.5156C683.857 28.7708 684.245 28.8984 684.719 28.8984ZM585.086 47.8203H590.031V49H583.32V47.9375L587.984 41.7422H583.391V40.5469H589.797V41.5703L585.086 47.8203ZM594.023 45.0859L593.117 46.0312V49H591.672V37H593.117V44.2578L593.891 43.3281L596.523 40.5469H598.281L594.992 44.0781L598.664 49H596.969L594.023 45.0859ZM610.883 44.8672C610.883 46.1536 610.589 47.1901 610 47.9766C609.411 48.763 608.615 49.1562 607.609 49.1562C606.583 49.1562 605.776 48.8307 605.188 48.1797V52.25H603.742V40.5469H605.062L605.133 41.4844C605.721 40.7552 606.539 40.3906 607.586 40.3906C608.602 40.3906 609.404 40.7734 609.992 41.5391C610.586 42.3047 610.883 43.3698 610.883 44.7344V44.8672ZM609.438 44.7031C609.438 43.75 609.234 42.9974 608.828 42.4453C608.422 41.8932 607.865 41.6172 607.156 41.6172C606.281 41.6172 605.625 42.0052 605.188 42.7812V46.8203C605.62 47.5911 606.281 47.9766 607.172 47.9766C607.865 47.9766 608.414 47.7031 608.82 47.1562C609.232 46.6042 609.438 45.7865 609.438 44.7031ZM616.812 41.8438C616.594 41.8073 616.357 41.7891 616.102 41.7891C615.154 41.7891 614.51 42.1927 614.172 43V49H612.727V40.5469H614.133L614.156 41.5234C614.63 40.7682 615.302 40.3906 616.172 40.3906C616.453 40.3906 616.667 40.4271 616.812 40.5V41.8438ZM617.609 44.6953C617.609 43.8672 617.771 43.1224 618.094 42.4609C618.422 41.7995 618.875 41.2891 619.453 40.9297C620.036 40.5703 620.701 40.3906 621.445 40.3906C622.596 40.3906 623.526 40.7891 624.234 41.5859C624.948 42.3828 625.305 43.4427 625.305 44.7656V44.8672C625.305 45.6901 625.146 46.4297 624.828 47.0859C624.516 47.737 624.065 48.2448 623.477 48.6094C622.893 48.974 622.221 49.1562 621.461 49.1562C620.315 49.1562 619.385 48.7578 618.672 47.9609C617.964 47.1641 617.609 46.1094 617.609 44.7969V44.6953ZM619.062 44.8672C619.062 45.8047 619.279 46.5573 619.711 47.125C620.148 47.6927 620.732 47.9766 621.461 47.9766C622.195 47.9766 622.779 47.6901 623.211 47.1172C623.643 46.5391 623.859 45.7318 623.859 44.6953C623.859 43.7682 623.638 43.0182 623.195 42.4453C622.758 41.8672 622.174 41.5781 621.445 41.5781C620.732 41.5781 620.156 41.862 619.719 42.4297C619.281 42.9974 619.062 43.8099 619.062 44.8672ZM626.734 44.6953C626.734 43.8672 626.896 43.1224 627.219 42.4609C627.547 41.7995 628 41.2891 628.578 40.9297C629.161 40.5703 629.826 40.3906 630.57 40.3906C631.721 40.3906 632.651 40.7891 633.359 41.5859C634.073 42.3828 634.43 43.4427 634.43 44.7656V44.8672C634.43 45.6901 634.271 46.4297 633.953 47.0859C633.641 47.737 633.19 48.2448 632.602 48.6094C632.018 48.974 631.346 49.1562 630.586 49.1562C629.44 49.1562 628.51 48.7578 627.797 47.9609C627.089 47.1641 626.734 46.1094 626.734 44.7969V44.6953ZM628.188 44.8672C628.188 45.8047 628.404 46.5573 628.836 47.125C629.273 47.6927 629.857 47.9766 630.586 47.9766C631.32 47.9766 631.904 47.6901 632.336 47.1172C632.768 46.5391 632.984 45.7318 632.984 44.6953C632.984 43.7682 632.763 43.0182 632.32 42.4453C631.883 41.8672 631.299 41.5781 630.57 41.5781C629.857 41.5781 629.281 41.862 628.844 42.4297C628.406 42.9974 628.188 43.8099 628.188 44.8672ZM636.953 49V41.6641H635.617V40.5469H636.953V39.6797C636.953 38.7734 637.195 38.0729 637.68 37.5781C638.164 37.0833 638.849 36.8359 639.734 36.8359C640.068 36.8359 640.398 36.8802 640.727 36.9688L640.648 38.1406C640.404 38.0938 640.143 38.0703 639.867 38.0703C639.398 38.0703 639.036 38.2083 638.781 38.4844C638.526 38.7552 638.398 39.1458 638.398 39.6562V40.5469H640.203V41.6641H638.398V49H636.953ZM645.391 44.6953C645.391 43.8672 645.552 43.1224 645.875 42.4609C646.203 41.7995 646.656 41.2891 647.234 40.9297C647.818 40.5703 648.482 40.3906 649.227 40.3906C650.378 40.3906 651.307 40.7891 652.016 41.5859C652.729 42.3828 653.086 43.4427 653.086 44.7656V44.8672C653.086 45.6901 652.927 46.4297 652.609 47.0859C652.297 47.737 651.846 48.2448 651.258 48.6094C650.674 48.974 650.003 49.1562 649.242 49.1562C648.096 49.1562 647.167 48.7578 646.453 47.9609C645.745 47.1641 645.391 46.1094 645.391 44.7969V44.6953ZM646.844 44.8672C646.844 45.8047 647.06 46.5573 647.492 47.125C647.93 47.6927 648.513 47.9766 649.242 47.9766C649.977 47.9766 650.56 47.6901 650.992 47.1172C651.424 46.5391 651.641 45.7318 651.641 44.6953C651.641 43.7682 651.419 43.0182 650.977 42.4453C650.539 41.8672 649.956 41.5781 649.227 41.5781C648.513 41.5781 647.938 41.862 647.5 42.4297C647.062 42.9974 646.844 43.8099 646.844 44.8672ZM655.609 49V41.6641H654.273V40.5469H655.609V39.6797C655.609 38.7734 655.852 38.0729 656.336 37.5781C656.82 37.0833 657.505 36.8359 658.391 36.8359C658.724 36.8359 659.055 36.8802 659.383 36.9688L659.305 38.1406C659.06 38.0938 658.799 38.0703 658.523 38.0703C658.055 38.0703 657.693 38.2083 657.438 38.4844C657.182 38.7552 657.055 39.1458 657.055 39.6562V40.5469H658.859V41.6641H657.055V49H655.609ZM578.766 59.5469L578.805 60.4844C579.424 59.7552 580.26 59.3906 581.312 59.3906C582.495 59.3906 583.299 59.8438 583.727 60.75C584.008 60.3438 584.372 60.0156 584.82 59.7656C585.273 59.5156 585.807 59.3906 586.422 59.3906C588.276 59.3906 589.219 60.3724 589.25 62.3359V68H587.805V62.4219C587.805 61.8177 587.667 61.3672 587.391 61.0703C587.115 60.7682 586.651 60.6172 586 60.6172C585.464 60.6172 585.018 60.7786 584.664 61.1016C584.31 61.4193 584.104 61.849 584.047 62.3906V68H582.594V62.4609C582.594 61.2318 581.992 60.6172 580.789 60.6172C579.841 60.6172 579.193 61.0208 578.844 61.8281V68H577.398V59.5469H578.766ZM594.945 68.1562C593.799 68.1562 592.867 67.7812 592.148 67.0312C591.43 66.276 591.07 65.2682 591.07 64.0078V63.7422C591.07 62.9036 591.229 62.1562 591.547 61.5C591.87 60.8385 592.318 60.3229 592.891 59.9531C593.469 59.5781 594.094 59.3906 594.766 59.3906C595.865 59.3906 596.719 59.7526 597.328 60.4766C597.938 61.2005 598.242 62.237 598.242 63.5859V64.1875H592.516C592.536 65.0208 592.779 65.6953 593.242 66.2109C593.711 66.7214 594.305 66.9766 595.023 66.9766C595.534 66.9766 595.966 66.8724 596.32 66.6641C596.674 66.4557 596.984 66.1797 597.25 65.8359L598.133 66.5234C597.424 67.612 596.362 68.1562 594.945 68.1562ZM594.766 60.5781C594.182 60.5781 593.693 60.7917 593.297 61.2188C592.901 61.6406 592.656 62.2344 592.562 63H596.797V62.8906C596.755 62.1562 596.557 61.5885 596.203 61.1875C595.849 60.7812 595.37 60.5781 594.766 60.5781ZM601.281 59.5469L601.32 60.4844C601.94 59.7552 602.776 59.3906 603.828 59.3906C605.01 59.3906 605.815 59.8438 606.242 60.75C606.523 60.3438 606.888 60.0156 607.336 59.7656C607.789 59.5156 608.323 59.3906 608.938 59.3906C610.792 59.3906 611.734 60.3724 611.766 62.3359V68H610.32V62.4219C610.32 61.8177 610.182 61.3672 609.906 61.0703C609.63 60.7682 609.167 60.6172 608.516 60.6172C607.979 60.6172 607.534 60.7786 607.18 61.1016C606.826 61.4193 606.62 61.849 606.562 62.3906V68H605.109V62.4609C605.109 61.2318 604.508 60.6172 603.305 60.6172C602.357 60.6172 601.708 61.0208 601.359 61.8281V68H599.914V59.5469H601.281ZM621.109 63.8672C621.109 65.1589 620.812 66.1979 620.219 66.9844C619.625 67.7656 618.828 68.1562 617.828 68.1562C616.76 68.1562 615.935 67.7786 615.352 67.0234L615.281 68H613.953V56H615.398V60.4766C615.982 59.7526 616.786 59.3906 617.812 59.3906C618.839 59.3906 619.643 59.7786 620.227 60.5547C620.815 61.3307 621.109 62.3932 621.109 63.7422V63.8672ZM619.664 63.7031C619.664 62.7188 619.474 61.9583 619.094 61.4219C618.714 60.8854 618.167 60.6172 617.453 60.6172C616.5 60.6172 615.815 61.0599 615.398 61.9453V65.6016C615.841 66.487 616.531 66.9297 617.469 66.9297C618.161 66.9297 618.701 66.6615 619.086 66.125C619.471 65.5885 619.664 64.7812 619.664 63.7031ZM626.445 68.1562C625.299 68.1562 624.367 67.7812 623.648 67.0312C622.93 66.276 622.57 65.2682 622.57 64.0078V63.7422C622.57 62.9036 622.729 62.1562 623.047 61.5C623.37 60.8385 623.818 60.3229 624.391 59.9531C624.969 59.5781 625.594 59.3906 626.266 59.3906C627.365 59.3906 628.219 59.7526 628.828 60.4766C629.438 61.2005 629.742 62.237 629.742 63.5859V64.1875H624.016C624.036 65.0208 624.279 65.6953 624.742 66.2109C625.211 66.7214 625.805 66.9766 626.523 66.9766C627.034 66.9766 627.466 66.8724 627.82 66.6641C628.174 66.4557 628.484 66.1797 628.75 65.8359L629.633 66.5234C628.924 67.612 627.862 68.1562 626.445 68.1562ZM626.266 60.5781C625.682 60.5781 625.193 60.7917 624.797 61.2188C624.401 61.6406 624.156 62.2344 624.062 63H628.297V62.8906C628.255 62.1562 628.057 61.5885 627.703 61.1875C627.349 60.7812 626.87 60.5781 626.266 60.5781ZM635.508 60.8438C635.289 60.8073 635.052 60.7891 634.797 60.7891C633.849 60.7891 633.206 61.1927 632.867 62V68H631.422V59.5469H632.828L632.852 60.5234C633.326 59.7682 633.997 59.3906 634.867 59.3906C635.148 59.3906 635.362 59.4271 635.508 59.5V60.8438ZM641.766 65.7578C641.766 65.3672 641.617 65.0651 641.32 64.8516C641.029 64.6328 640.516 64.4453 639.781 64.2891C639.052 64.1328 638.471 63.9453 638.039 63.7266C637.612 63.5078 637.294 63.2474 637.086 62.9453C636.883 62.6432 636.781 62.2839 636.781 61.8672C636.781 61.1745 637.073 60.5885 637.656 60.1094C638.245 59.6302 638.995 59.3906 639.906 59.3906C640.865 59.3906 641.641 59.638 642.234 60.1328C642.833 60.6276 643.133 61.2604 643.133 62.0312H641.68C641.68 61.6354 641.51 61.2943 641.172 61.0078C640.839 60.7214 640.417 60.5781 639.906 60.5781C639.38 60.5781 638.969 60.6927 638.672 60.9219C638.375 61.151 638.227 61.4505 638.227 61.8203C638.227 62.1693 638.365 62.4323 638.641 62.6094C638.917 62.7865 639.414 62.9557 640.133 63.1172C640.857 63.2786 641.443 63.4714 641.891 63.6953C642.339 63.9193 642.669 64.1901 642.883 64.5078C643.102 64.8203 643.211 65.2031 643.211 65.6562C643.211 66.4115 642.909 67.0182 642.305 67.4766C641.701 67.9297 640.917 68.1562 639.953 68.1562C639.276 68.1562 638.677 68.0365 638.156 67.7969C637.635 67.5573 637.227 67.224 636.93 66.7969C636.638 66.3646 636.492 65.8984 636.492 65.3984H637.938C637.964 65.8828 638.156 66.2682 638.516 66.5547C638.88 66.8359 639.359 66.9766 639.953 66.9766C640.5 66.9766 640.938 66.8672 641.266 66.6484C641.599 66.4245 641.766 66.1276 641.766 65.7578ZM646.539 60.5703C647.18 59.7839 648.013 59.3906 649.039 59.3906C650.826 59.3906 651.727 60.3984 651.742 62.4141V68H650.297V62.4062C650.292 61.7969 650.151 61.3464 649.875 61.0547C649.604 60.763 649.18 60.6172 648.602 60.6172C648.133 60.6172 647.721 60.7422 647.367 60.9922C647.013 61.2422 646.737 61.5703 646.539 61.9766V68H645.094V56H646.539V60.5703ZM655.477 68H654.031V59.5469H655.477V68ZM653.914 57.3047C653.914 57.0703 653.984 56.8724 654.125 56.7109C654.271 56.5495 654.484 56.4688 654.766 56.4688C655.047 56.4688 655.26 56.5495 655.406 56.7109C655.552 56.8724 655.625 57.0703 655.625 57.3047C655.625 57.5391 655.552 57.7344 655.406 57.8906C655.26 58.0469 655.047 58.125 654.766 58.125C654.484 58.125 654.271 58.0469 654.125 57.8906C653.984 57.7344 653.914 57.5391 653.914 57.3047ZM664.938 63.8672C664.938 65.1536 664.643 66.1901 664.055 66.9766C663.466 67.763 662.669 68.1562 661.664 68.1562C660.638 68.1562 659.831 67.8307 659.242 67.1797V71.25H657.797V59.5469H659.117L659.188 60.4844C659.776 59.7552 660.594 59.3906 661.641 59.3906C662.656 59.3906 663.458 59.7734 664.047 60.5391C664.641 61.3047 664.938 62.3698 664.938 63.7344V63.8672ZM663.492 63.7031C663.492 62.75 663.289 61.9974 662.883 61.4453C662.477 60.8932 661.919 60.6172 661.211 60.6172C660.336 60.6172 659.68 61.0052 659.242 61.7812V65.8203C659.674 66.5911 660.336 66.9766 661.227 66.9766C661.919 66.9766 662.469 66.7031 662.875 66.1562C663.286 65.6042 663.492 64.7865 663.492 63.7031Z" fill="black"/>
<path d="M522 3V2H521V3H522ZM720 3H721V2H720V3ZM720 83V84H721V83H720ZM522 83H521V84H522V83ZM522 4H720V2H522V4ZM719 3V83H721V3H719ZM720 82H522V84H720V82ZM523 83V3H521V83H523Z" fill="black"/>
</svg>
