<svg width="592" height="106" viewBox="0 0 592 106" fill="none" xmlns="http://www.w3.org/2000/svg">
<path d="M34.2 78.728C29.016 78.728 24.312 77.816 20.088 75.992C15.96 74.168 12.408 71.576 9.432 68.216C6.552 64.76 4.344 60.68 2.808 55.976C1.272 51.176 0.504 45.8 0.504 39.848C0.504 33.992 1.272 28.664 2.808 23.864C4.344 19.064 6.552 14.984 9.432 11.624C12.408 8.168 15.96 5.528 20.088 3.704C24.312 1.88 29.016 0.968 34.2 0.968C39.384 0.968 44.04 1.88 48.168 3.704C52.392 5.528 55.944 8.168 58.824 11.624C61.8 14.984 64.056 19.064 65.592 23.864C67.128 28.664 67.896 33.992 67.896 39.848C67.896 45.8 67.128 51.176 65.592 55.976C64.056 60.68 61.8 64.76 58.824 68.216C55.944 71.576 52.392 74.168 48.168 75.992C44.04 77.816 39.384 78.728 34.2 78.728ZM34.2 68.792C40.632 68.792 45.816 66.872 49.752 63.032C53.688 59.192 55.656 53.24 55.656 45.176V34.52C55.656 26.456 53.688 20.504 49.752 16.664C45.816 12.824 40.632 10.904 34.2 10.904C27.768 10.904 22.584 12.824 18.648 16.664C14.712 20.504 12.744 26.456 12.744 34.52V45.176C12.744 53.24 14.712 59.192 18.648 63.032C22.584 66.872 27.768 68.792 34.2 68.792ZM91.0238 2.696H102.544V14.792H103.12C107.92 5.576 115.552 0.968 126.016 0.968C135.136 0.968 142.24 4.376 147.328 11.192C152.512 18.008 155.104 27.56 155.104 39.848C155.104 52.136 152.512 61.688 147.328 68.504C142.24 75.32 135.136 78.728 126.016 78.728C115.552 78.728 107.92 74.12 103.12 64.904H102.544V105.8H91.0238V2.696ZM121.552 68.504C128.272 68.504 133.456 66.488 137.104 62.456C140.848 58.328 142.72 52.904 142.72 46.184V33.512C142.72 26.792 140.848 21.416 137.104 17.384C133.456 13.256 128.272 11.192 121.552 11.192C118.96 11.192 116.512 11.528 114.208 12.2C111.904 12.872 109.888 13.88 108.16 15.224C106.432 16.472 105.04 18.056 103.984 19.976C103.024 21.8 102.544 23.96 102.544 26.456V53.24C102.544 55.736 103.024 57.944 103.984 59.864C105.04 61.688 106.432 63.272 108.16 64.616C109.888 65.864 111.904 66.824 114.208 67.496C116.512 68.168 118.96 68.504 121.552 68.504ZM208.184 78.728C202.808 78.728 197.96 77.816 193.64 75.992C189.416 74.168 185.768 71.576 182.695 68.216C179.72 64.76 177.416 60.68 175.784 55.976C174.152 51.176 173.336 45.848 173.336 39.992C173.336 34.04 174.152 28.664 175.784 23.864C177.512 19.064 179.864 14.984 182.84 11.624C185.816 8.168 189.368 5.528 193.496 3.704C197.72 1.88 202.376 0.968 207.464 0.968C212.456 0.968 216.968 1.88 221 3.704C225.128 5.528 228.632 8.072 231.512 11.336C234.392 14.504 236.6 18.296 238.136 22.712C239.672 27.128 240.44 31.976 240.44 37.256V42.728H185.432V46.184C185.432 49.448 185.96 52.472 187.016 55.256C188.072 58.04 189.56 60.44 191.48 62.456C193.496 64.472 195.896 66.056 198.68 67.208C201.56 68.264 204.728 68.792 208.184 68.792C213.176 68.792 217.496 67.64 221.144 65.336C224.792 63.032 227.576 59.864 229.496 55.832L237.992 61.592C235.784 66.584 232.088 70.712 226.904 73.976C221.816 77.144 215.576 78.728 208.184 78.728ZM207.464 10.472C204.296 10.472 201.368 11.048 198.68 12.2C195.992 13.352 193.64 14.936 191.624 16.952C189.704 18.968 188.168 21.368 187.016 24.152C185.96 26.84 185.432 29.816 185.432 33.08V34.088H228.056V32.504C228.056 29.24 227.528 26.264 226.472 23.576C225.512 20.888 224.12 18.584 222.296 16.664C220.568 14.648 218.408 13.112 215.816 12.056C213.32 11 210.536 10.472 207.464 10.472ZM264.143 77V2.696H275.663V14.792H276.239C277.007 12.968 277.967 11.24 279.119 9.608C280.271 7.88 281.663 6.392 283.295 5.144C285.023 3.896 287.039 2.888 289.343 2.11999C291.647 1.352 294.335 0.968 297.407 0.968C305.183 0.968 311.423 3.464 316.127 8.456C320.831 13.352 323.183 20.312 323.183 29.336V77H311.663V31.352C311.663 24.536 310.175 19.496 307.199 16.232C304.223 12.872 299.855 11.192 294.095 11.192C291.791 11.192 289.535 11.48 287.327 12.056C285.119 12.632 283.151 13.496 281.423 14.648C279.695 15.8 278.303 17.288 277.247 19.112C276.191 20.936 275.663 23.048 275.663 25.448V77H264.143ZM340.695 77V2.696H357.831V13.64H358.839C359.991 10.184 361.623 7.208 363.735 4.712C365.943 2.216 369.015 0.968 372.951 0.968C380.151 0.968 384.567 5.192 386.199 13.64H387.063C387.639 11.912 388.359 10.28 389.223 8.74399C390.087 7.208 391.143 5.864 392.391 4.712C393.639 3.56 395.127 2.648 396.855 1.976C398.583 1.304 400.599 0.968 402.903 0.968C413.271 0.968 418.455 8.6 418.455 23.864V77H401.319V26.024C401.319 22.568 400.695 20.168 399.447 18.824C398.295 17.384 396.759 16.664 394.839 16.664C393.015 16.664 391.431 17.288 390.087 18.536C388.839 19.688 388.215 21.512 388.215 24.008V77H370.935V26.024C370.935 22.568 370.359 20.168 369.207 18.824C368.151 17.384 366.663 16.664 364.743 16.664C362.823 16.664 361.191 17.288 359.847 18.536C358.503 19.688 357.831 21.512 357.831 24.008V77H340.695ZM467.935 78.728C455.455 78.728 445.999 75.272 439.567 68.36C433.135 61.448 429.919 52.04 429.919 40.136C429.919 34.088 430.735 28.664 432.367 23.864C434.095 18.968 436.495 14.84 439.567 11.48C442.735 8.024 446.527 5.432 450.943 3.704C455.455 1.88 460.495 0.968 466.063 0.968C471.631 0.968 476.623 1.88 481.039 3.704C485.455 5.432 489.199 7.928 492.271 11.192C495.343 14.456 497.695 18.44 499.327 23.144C501.055 27.752 501.919 32.936 501.919 38.696V45.032H451.087V46.328C451.087 51.128 452.575 55.016 455.551 57.992C458.527 60.872 462.895 62.312 468.655 62.312C473.071 62.312 476.863 61.496 480.031 59.864C483.199 58.136 485.935 55.88 488.239 53.096L499.759 65.624C496.879 69.176 492.847 72.248 487.663 74.84C482.479 77.432 475.903 78.728 467.935 78.728ZM466.207 16.232C461.599 16.232 457.903 17.672 455.119 20.552C452.431 23.336 451.087 27.128 451.087 31.928V33.08H481.039V31.928C481.039 27.032 479.695 23.192 477.007 20.408C474.415 17.624 470.815 16.232 466.207 16.232ZM539.591 77L512.951 2.696H535.415L545.062 34.52L552.119 59.288H553.271L560.327 34.52L569.975 2.696H591.575L564.935 77H539.591Z" fill="black"/>
</svg>
