<svg width="780" height="85" viewBox="0 0 780 85" fill="none" xmlns="http://www.w3.org/2000/svg">
<rect x="208" y="3" width="133" height="80" fill="white"/>
<path d="M238.211 24.9297C236.924 24.5599 235.987 24.1068 235.398 23.5703C234.815 23.0286 234.523 22.362 234.523 21.5703C234.523 20.6745 234.88 19.9349 235.594 19.3516C236.312 18.763 237.245 18.4688 238.391 18.4688C239.172 18.4688 239.867 18.6198 240.477 18.9219C241.091 19.224 241.565 19.6406 241.898 20.1719C242.237 20.7031 242.406 21.2839 242.406 21.9141H240.898C240.898 21.2266 240.68 20.6875 240.242 20.2969C239.805 19.901 239.188 19.7031 238.391 19.7031C237.651 19.7031 237.073 19.8672 236.656 20.1953C236.245 20.5182 236.039 20.9688 236.039 21.5469C236.039 22.0104 236.234 22.4036 236.625 22.7266C237.021 23.0443 237.69 23.3359 238.633 23.6016C239.581 23.8672 240.32 24.1615 240.852 24.4844C241.388 24.8021 241.784 25.1745 242.039 25.6016C242.299 26.0286 242.43 26.5312 242.43 27.1094C242.43 28.0312 242.07 28.7708 241.352 29.3281C240.633 29.8802 239.672 30.1562 238.469 30.1562C237.688 30.1562 236.958 30.0078 236.281 29.7109C235.604 29.4089 235.081 28.9974 234.711 28.4766C234.346 27.9557 234.164 27.3646 234.164 26.7031H235.672C235.672 27.3906 235.924 27.9349 236.43 28.3359C236.94 28.7318 237.62 28.9297 238.469 28.9297C239.26 28.9297 239.867 28.7682 240.289 28.4453C240.711 28.1224 240.922 27.6823 240.922 27.125C240.922 26.5677 240.727 26.138 240.336 25.8359C239.945 25.5286 239.237 25.2266 238.211 24.9297ZM247.641 30.1562C246.495 30.1562 245.562 29.7812 244.844 29.0312C244.125 28.276 243.766 27.2682 243.766 26.0078V25.7422C243.766 24.9036 243.924 24.1562 244.242 23.5C244.565 22.8385 245.013 22.3229 245.586 21.9531C246.164 21.5781 246.789 21.3906 247.461 21.3906C248.56 21.3906 249.414 21.7526 250.023 22.4766C250.633 23.2005 250.938 24.237 250.938 25.5859V26.1875H245.211C245.232 27.0208 245.474 27.6953 245.938 28.2109C246.406 28.7214 247 28.9766 247.719 28.9766C248.229 28.9766 248.661 28.8724 249.016 28.6641C249.37 28.4557 249.68 28.1797 249.945 27.8359L250.828 28.5234C250.12 29.612 249.057 30.1562 247.641 30.1562ZM247.461 22.5781C246.878 22.5781 246.388 22.7917 245.992 23.2188C245.596 23.6406 245.352 24.2344 245.258 25H249.492V24.8906C249.451 24.1562 249.253 23.5885 248.898 23.1875C248.544 22.7812 248.065 22.5781 247.461 22.5781ZM254.188 30H252.742V18H254.188V30ZM260.016 30.1562C258.87 30.1562 257.938 29.7812 257.219 29.0312C256.5 28.276 256.141 27.2682 256.141 26.0078V25.7422C256.141 24.9036 256.299 24.1562 256.617 23.5C256.94 22.8385 257.388 22.3229 257.961 21.9531C258.539 21.5781 259.164 21.3906 259.836 21.3906C260.935 21.3906 261.789 21.7526 262.398 22.4766C263.008 23.2005 263.312 24.237 263.312 25.5859V26.1875H257.586C257.607 27.0208 257.849 27.6953 258.312 28.2109C258.781 28.7214 259.375 28.9766 260.094 28.9766C260.604 28.9766 261.036 28.8724 261.391 28.6641C261.745 28.4557 262.055 28.1797 262.32 27.8359L263.203 28.5234C262.495 29.612 261.432 30.1562 260.016 30.1562ZM259.836 22.5781C259.253 22.5781 258.763 22.7917 258.367 23.2188C257.971 23.6406 257.727 24.2344 257.633 25H261.867V24.8906C261.826 24.1562 261.628 23.5885 261.273 23.1875C260.919 22.7812 260.44 22.5781 259.836 22.5781ZM268.383 28.9766C268.898 28.9766 269.349 28.8203 269.734 28.5078C270.12 28.1953 270.333 27.8047 270.375 27.3359H271.742C271.716 27.8203 271.549 28.2812 271.242 28.7188C270.935 29.1562 270.523 29.5052 270.008 29.7656C269.497 30.026 268.956 30.1562 268.383 30.1562C267.232 30.1562 266.315 29.7734 265.633 29.0078C264.956 28.237 264.617 27.1849 264.617 25.8516V25.6094C264.617 24.7865 264.768 24.0547 265.07 23.4141C265.372 22.7734 265.805 22.276 266.367 21.9219C266.935 21.5677 267.604 21.3906 268.375 21.3906C269.323 21.3906 270.109 21.6745 270.734 22.2422C271.365 22.8099 271.701 23.5469 271.742 24.4531H270.375C270.333 23.9062 270.125 23.4583 269.75 23.1094C269.38 22.7552 268.922 22.5781 268.375 22.5781C267.641 22.5781 267.07 22.8438 266.664 23.375C266.263 23.901 266.062 24.6641 266.062 25.6641V25.9375C266.062 26.9115 266.263 27.6615 266.664 28.1875C267.065 28.7135 267.638 28.9766 268.383 28.9766ZM275.328 19.5V21.5469H276.906V22.6641H275.328V27.9062C275.328 28.2448 275.398 28.5 275.539 28.6719C275.68 28.8385 275.919 28.9219 276.258 28.9219C276.424 28.9219 276.654 28.8906 276.945 28.8281V30C276.565 30.1042 276.195 30.1562 275.836 30.1562C275.19 30.1562 274.703 29.9609 274.375 29.5703C274.047 29.1797 273.883 28.625 273.883 27.9062V22.6641H272.344V21.5469H273.883V19.5H275.328ZM283.281 30V22.6641H281.945V21.5469H283.281V20.6797C283.281 19.7734 283.523 19.0729 284.008 18.5781C284.492 18.0833 285.177 17.8359 286.062 17.8359C286.396 17.8359 286.727 17.8802 287.055 17.9688L286.977 19.1406C286.732 19.0938 286.471 19.0703 286.195 19.0703C285.727 19.0703 285.365 19.2083 285.109 19.4844C284.854 19.7552 284.727 20.1458 284.727 20.6562V21.5469H286.531V22.6641H284.727V30H283.281ZM292.219 22.8438C292 22.8073 291.763 22.7891 291.508 22.7891C290.56 22.7891 289.917 23.1927 289.578 24V30H288.133V21.5469H289.539L289.562 22.5234C290.036 21.7682 290.708 21.3906 291.578 21.3906C291.859 21.3906 292.073 21.4271 292.219 21.5V22.8438ZM293.016 25.6953C293.016 24.8672 293.177 24.1224 293.5 23.4609C293.828 22.7995 294.281 22.2891 294.859 21.9297C295.443 21.5703 296.107 21.3906 296.852 21.3906C298.003 21.3906 298.932 21.7891 299.641 22.5859C300.354 23.3828 300.711 24.4427 300.711 25.7656V25.8672C300.711 26.6901 300.552 27.4297 300.234 28.0859C299.922 28.737 299.471 29.2448 298.883 29.6094C298.299 29.974 297.628 30.1562 296.867 30.1562C295.721 30.1562 294.792 29.7578 294.078 28.9609C293.37 28.1641 293.016 27.1094 293.016 25.7969V25.6953ZM294.469 25.8672C294.469 26.8047 294.685 27.5573 295.117 28.125C295.555 28.6927 296.138 28.9766 296.867 28.9766C297.602 28.9766 298.185 28.6901 298.617 28.1172C299.049 27.5391 299.266 26.7318 299.266 25.6953C299.266 24.7682 299.044 24.0182 298.602 23.4453C298.164 22.8672 297.581 22.5781 296.852 22.5781C296.138 22.5781 295.562 22.862 295.125 23.4297C294.688 23.9974 294.469 24.8099 294.469 25.8672ZM303.883 21.5469L303.922 22.4844C304.542 21.7552 305.378 21.3906 306.43 21.3906C307.612 21.3906 308.417 21.8438 308.844 22.75C309.125 22.3438 309.49 22.0156 309.938 21.7656C310.391 21.5156 310.924 21.3906 311.539 21.3906C313.393 21.3906 314.336 22.3724 314.367 24.3359V30H312.922V24.4219C312.922 23.8177 312.784 23.3672 312.508 23.0703C312.232 22.7682 311.768 22.6172 311.117 22.6172C310.581 22.6172 310.135 22.7786 309.781 23.1016C309.427 23.4193 309.221 23.849 309.164 24.3906V30H307.711V24.4609C307.711 23.2318 307.109 22.6172 305.906 22.6172C304.958 22.6172 304.31 23.0208 303.961 23.8281V30H302.516V21.5469H303.883ZM249.438 49C249.354 48.8333 249.286 48.5365 249.234 48.1094C248.562 48.8073 247.76 49.1562 246.828 49.1562C245.995 49.1562 245.31 48.9219 244.773 48.4531C244.242 47.9792 243.977 47.3802 243.977 46.6562C243.977 45.776 244.31 45.0938 244.977 44.6094C245.648 44.1198 246.591 43.875 247.805 43.875H249.211V43.2109C249.211 42.7057 249.06 42.3047 248.758 42.0078C248.456 41.7057 248.01 41.5547 247.422 41.5547C246.906 41.5547 246.474 41.6849 246.125 41.9453C245.776 42.2057 245.602 42.5208 245.602 42.8906H244.148C244.148 42.4688 244.297 42.0625 244.594 41.6719C244.896 41.276 245.302 40.9635 245.812 40.7344C246.328 40.5052 246.893 40.3906 247.508 40.3906C248.482 40.3906 249.245 40.6354 249.797 41.125C250.349 41.6094 250.635 42.2786 250.656 43.1328V47.0234C250.656 47.7995 250.755 48.4167 250.953 48.875V49H249.438ZM247.039 47.8984C247.492 47.8984 247.922 47.7812 248.328 47.5469C248.734 47.3125 249.029 47.0078 249.211 46.6328V44.8984H248.078C246.307 44.8984 245.422 45.4167 245.422 46.4531C245.422 46.9062 245.573 47.2604 245.875 47.5156C246.177 47.7708 246.565 47.8984 247.039 47.8984ZM255.586 47.0391L257.68 40.5469H259.156L256.125 49H255.023L251.961 40.5469H253.438L255.586 47.0391ZM265.641 49C265.557 48.8333 265.49 48.5365 265.438 48.1094C264.766 48.8073 263.964 49.1562 263.031 49.1562C262.198 49.1562 261.513 48.9219 260.977 48.4531C260.445 47.9792 260.18 47.3802 260.18 46.6562C260.18 45.776 260.513 45.0938 261.18 44.6094C261.852 44.1198 262.794 43.875 264.008 43.875H265.414V43.2109C265.414 42.7057 265.263 42.3047 264.961 42.0078C264.659 41.7057 264.214 41.5547 263.625 41.5547C263.109 41.5547 262.677 41.6849 262.328 41.9453C261.979 42.2057 261.805 42.5208 261.805 42.8906H260.352C260.352 42.4688 260.5 42.0625 260.797 41.6719C261.099 41.276 261.505 40.9635 262.016 40.7344C262.531 40.5052 263.096 40.3906 263.711 40.3906C264.685 40.3906 265.448 40.6354 266 41.125C266.552 41.6094 266.839 42.2786 266.859 43.1328V47.0234C266.859 47.7995 266.958 48.4167 267.156 48.875V49H265.641ZM263.242 47.8984C263.695 47.8984 264.125 47.7812 264.531 47.5469C264.938 47.3125 265.232 47.0078 265.414 46.6328V44.8984H264.281C262.51 44.8984 261.625 45.4167 261.625 46.4531C261.625 46.9062 261.776 47.2604 262.078 47.5156C262.38 47.7708 262.768 47.8984 263.242 47.8984ZM270.695 49H269.25V40.5469H270.695V49ZM269.133 38.3047C269.133 38.0703 269.203 37.8724 269.344 37.7109C269.49 37.5495 269.703 37.4688 269.984 37.4688C270.266 37.4688 270.479 37.5495 270.625 37.7109C270.771 37.8724 270.844 38.0703 270.844 38.3047C270.844 38.5391 270.771 38.7344 270.625 38.8906C270.479 39.0469 270.266 39.125 269.984 39.125C269.703 39.125 269.49 39.0469 269.344 38.8906C269.203 38.7344 269.133 38.5391 269.133 38.3047ZM274.586 49H273.141V37H274.586V49ZM282.125 49C282.042 48.8333 281.974 48.5365 281.922 48.1094C281.25 48.8073 280.448 49.1562 279.516 49.1562C278.682 49.1562 277.997 48.9219 277.461 48.4531C276.93 47.9792 276.664 47.3802 276.664 46.6562C276.664 45.776 276.997 45.0938 277.664 44.6094C278.336 44.1198 279.279 43.875 280.492 43.875H281.898V43.2109C281.898 42.7057 281.747 42.3047 281.445 42.0078C281.143 41.7057 280.698 41.5547 280.109 41.5547C279.594 41.5547 279.161 41.6849 278.812 41.9453C278.464 42.2057 278.289 42.5208 278.289 42.8906H276.836C276.836 42.4688 276.984 42.0625 277.281 41.6719C277.583 41.276 277.99 40.9635 278.5 40.7344C279.016 40.5052 279.581 40.3906 280.195 40.3906C281.169 40.3906 281.932 40.6354 282.484 41.125C283.036 41.6094 283.323 42.2786 283.344 43.1328V47.0234C283.344 47.7995 283.443 48.4167 283.641 48.875V49H282.125ZM279.727 47.8984C280.18 47.8984 280.609 47.7812 281.016 47.5469C281.422 47.3125 281.716 47.0078 281.898 46.6328V44.8984H280.766C278.995 44.8984 278.109 45.4167 278.109 46.4531C278.109 46.9062 278.26 47.2604 278.562 47.5156C278.865 47.7708 279.253 47.8984 279.727 47.8984ZM292.766 44.8672C292.766 46.1589 292.469 47.1979 291.875 47.9844C291.281 48.7656 290.484 49.1562 289.484 49.1562C288.417 49.1562 287.591 48.7786 287.008 48.0234L286.938 49H285.609V37H287.055V41.4766C287.638 40.7526 288.443 40.3906 289.469 40.3906C290.495 40.3906 291.299 40.7786 291.883 41.5547C292.471 42.3307 292.766 43.3932 292.766 44.7422V44.8672ZM291.32 44.7031C291.32 43.7188 291.13 42.9583 290.75 42.4219C290.37 41.8854 289.823 41.6172 289.109 41.6172C288.156 41.6172 287.471 42.0599 287.055 42.9453V46.6016C287.497 47.487 288.188 47.9297 289.125 47.9297C289.818 47.9297 290.357 47.6615 290.742 47.125C291.128 46.5885 291.32 45.7812 291.32 44.7031ZM296.164 49H294.719V37H296.164V49ZM301.992 49.1562C300.846 49.1562 299.914 48.7812 299.195 48.0312C298.477 47.276 298.117 46.2682 298.117 45.0078V44.7422C298.117 43.9036 298.276 43.1562 298.594 42.5C298.917 41.8385 299.365 41.3229 299.938 40.9531C300.516 40.5781 301.141 40.3906 301.812 40.3906C302.911 40.3906 303.766 40.7526 304.375 41.4766C304.984 42.2005 305.289 43.237 305.289 44.5859V45.1875H299.562C299.583 46.0208 299.826 46.6953 300.289 47.2109C300.758 47.7214 301.352 47.9766 302.07 47.9766C302.581 47.9766 303.013 47.8724 303.367 47.6641C303.721 47.4557 304.031 47.1797 304.297 46.8359L305.18 47.5234C304.471 48.612 303.409 49.1562 301.992 49.1562ZM301.812 41.5781C301.229 41.5781 300.74 41.7917 300.344 42.2188C299.948 42.6406 299.703 43.2344 299.609 44H303.844V43.8906C303.802 43.1562 303.604 42.5885 303.25 42.1875C302.896 41.7812 302.417 41.5781 301.812 41.5781ZM229.891 63.5469V68H228.391V56.625H232.586C233.831 56.625 234.805 56.9427 235.508 57.5781C236.216 58.2135 236.57 59.0547 236.57 60.1016C236.57 61.2057 236.224 62.0573 235.531 62.6562C234.844 63.25 233.857 63.5469 232.57 63.5469H229.891ZM229.891 62.3203H232.586C233.388 62.3203 234.003 62.1328 234.43 61.7578C234.857 61.3776 235.07 60.8307 235.07 60.1172C235.07 59.4401 234.857 58.8984 234.43 58.4922C234.003 58.0859 233.417 57.875 232.672 57.8594H229.891V62.3203ZM247.234 62.6797C247.234 63.7943 247.047 64.7682 246.672 65.6016C246.297 66.4297 245.766 67.0625 245.078 67.5C244.391 67.9375 243.589 68.1562 242.672 68.1562C241.776 68.1562 240.982 67.9375 240.289 67.5C239.596 67.0573 239.057 66.4297 238.672 65.6172C238.292 64.7995 238.096 63.8542 238.086 62.7812V61.9609C238.086 60.8672 238.276 59.901 238.656 59.0625C239.036 58.224 239.573 57.5833 240.266 57.1406C240.964 56.6927 241.76 56.4688 242.656 56.4688C243.568 56.4688 244.37 56.6901 245.062 57.1328C245.76 57.5703 246.297 58.2083 246.672 59.0469C247.047 59.8802 247.234 60.8516 247.234 61.9609V62.6797ZM245.742 61.9453C245.742 60.5964 245.471 59.5625 244.93 58.8438C244.388 58.1198 243.63 57.7578 242.656 57.7578C241.708 57.7578 240.961 58.1198 240.414 58.8438C239.872 59.5625 239.594 60.5625 239.578 61.8438V62.6797C239.578 63.987 239.852 65.0156 240.398 65.7656C240.951 66.5104 241.708 66.8828 242.672 66.8828C243.641 66.8828 244.391 66.5312 244.922 65.8281C245.453 65.1198 245.727 64.1068 245.742 62.7891V61.9453ZM255.594 65.0312H250.828L249.758 68H248.211L252.555 56.625H253.867L258.219 68H256.68L255.594 65.0312ZM251.281 63.7969H255.148L253.211 58.4766L251.281 63.7969ZM261.25 63.5469V68H259.75V56.625H263.945C265.19 56.625 266.164 56.9427 266.867 57.5781C267.576 58.2135 267.93 59.0547 267.93 60.1016C267.93 61.2057 267.583 62.0573 266.891 62.6562C266.203 63.25 265.216 63.5469 263.93 63.5469H261.25ZM261.25 62.3203H263.945C264.747 62.3203 265.362 62.1328 265.789 61.7578C266.216 61.3776 266.43 60.8307 266.43 60.1172C266.43 59.4401 266.216 58.8984 265.789 58.4922C265.362 58.0859 264.776 57.875 264.031 57.8594H261.25V62.3203ZM273.242 63.7031C273.242 62.3854 273.547 61.3385 274.156 60.5625C274.766 59.7812 275.573 59.3906 276.578 59.3906C277.609 59.3906 278.414 59.7552 278.992 60.4844L279.062 59.5469H280.383V67.7969C280.383 68.8906 280.057 69.7526 279.406 70.3828C278.76 71.013 277.891 71.3281 276.797 71.3281C276.188 71.3281 275.591 71.1979 275.008 70.9375C274.424 70.6771 273.979 70.3203 273.672 69.8672L274.422 69C275.042 69.7656 275.799 70.1484 276.695 70.1484C277.398 70.1484 277.945 69.9505 278.336 69.5547C278.732 69.1589 278.93 68.6016 278.93 67.8828V67.1562C278.352 67.8229 277.562 68.1562 276.562 68.1562C275.573 68.1562 274.771 67.7578 274.156 66.9609C273.547 66.1641 273.242 65.0781 273.242 63.7031ZM274.695 63.8672C274.695 64.8203 274.891 65.5703 275.281 66.1172C275.672 66.6589 276.219 66.9297 276.922 66.9297C277.833 66.9297 278.503 66.5156 278.93 65.6875V61.8281C278.487 61.0208 277.823 60.6172 276.938 60.6172C276.234 60.6172 275.685 60.8906 275.289 61.4375C274.893 61.9844 274.695 62.7943 274.695 63.8672ZM286.656 60.8438C286.438 60.8073 286.201 60.7891 285.945 60.7891C284.997 60.7891 284.354 61.1927 284.016 62V68H282.57V59.5469H283.977L284 60.5234C284.474 59.7682 285.146 59.3906 286.016 59.3906C286.297 59.3906 286.51 59.4271 286.656 59.5V60.8438ZM287.453 63.6953C287.453 62.8672 287.615 62.1224 287.938 61.4609C288.266 60.7995 288.719 60.2891 289.297 59.9297C289.88 59.5703 290.544 59.3906 291.289 59.3906C292.44 59.3906 293.37 59.7891 294.078 60.5859C294.792 61.3828 295.148 62.4427 295.148 63.7656V63.8672C295.148 64.6901 294.99 65.4297 294.672 66.0859C294.359 66.737 293.909 67.2448 293.32 67.6094C292.737 67.974 292.065 68.1562 291.305 68.1562C290.159 68.1562 289.229 67.7578 288.516 66.9609C287.807 66.1641 287.453 65.1094 287.453 63.7969V63.6953ZM288.906 63.8672C288.906 64.8047 289.122 65.5573 289.555 66.125C289.992 66.6927 290.576 66.9766 291.305 66.9766C292.039 66.9766 292.622 66.6901 293.055 66.1172C293.487 65.5391 293.703 64.7318 293.703 63.6953C293.703 62.7682 293.482 62.0182 293.039 61.4453C292.602 60.8672 292.018 60.5781 291.289 60.5781C290.576 60.5781 290 60.862 289.562 61.4297C289.125 61.9974 288.906 62.8099 288.906 63.8672ZM302.18 67.1641C301.617 67.8255 300.792 68.1562 299.703 68.1562C298.802 68.1562 298.115 67.8958 297.641 67.375C297.172 66.849 296.935 66.0729 296.93 65.0469V59.5469H298.375V65.0078C298.375 66.2891 298.896 66.9297 299.938 66.9297C301.042 66.9297 301.776 66.5182 302.141 65.6953V59.5469H303.586V68H302.211L302.18 67.1641ZM312.93 63.8672C312.93 65.1536 312.635 66.1901 312.047 66.9766C311.458 67.763 310.661 68.1562 309.656 68.1562C308.63 68.1562 307.823 67.8307 307.234 67.1797V71.25H305.789V59.5469H307.109L307.18 60.4844C307.768 59.7552 308.586 59.3906 309.633 59.3906C310.648 59.3906 311.451 59.7734 312.039 60.5391C312.633 61.3047 312.93 62.3698 312.93 63.7344V63.8672ZM311.484 63.7031C311.484 62.75 311.281 61.9974 310.875 61.4453C310.469 60.8932 309.911 60.6172 309.203 60.6172C308.328 60.6172 307.672 61.0052 307.234 61.7812V65.8203C307.667 66.5911 308.328 66.9766 309.219 66.9766C309.911 66.9766 310.461 66.7031 310.867 66.1562C311.279 65.6042 311.484 64.7865 311.484 63.7031ZM319.695 65.7578C319.695 65.3672 319.547 65.0651 319.25 64.8516C318.958 64.6328 318.445 64.4453 317.711 64.2891C316.982 64.1328 316.401 63.9453 315.969 63.7266C315.542 63.5078 315.224 63.2474 315.016 62.9453C314.812 62.6432 314.711 62.2839 314.711 61.8672C314.711 61.1745 315.003 60.5885 315.586 60.1094C316.174 59.6302 316.924 59.3906 317.836 59.3906C318.794 59.3906 319.57 59.638 320.164 60.1328C320.763 60.6276 321.062 61.2604 321.062 62.0312H319.609C319.609 61.6354 319.44 61.2943 319.102 61.0078C318.768 60.7214 318.346 60.5781 317.836 60.5781C317.31 60.5781 316.898 60.6927 316.602 60.9219C316.305 61.151 316.156 61.4505 316.156 61.8203C316.156 62.1693 316.294 62.4323 316.57 62.6094C316.846 62.7865 317.344 62.9557 318.062 63.1172C318.786 63.2786 319.372 63.4714 319.82 63.6953C320.268 63.9193 320.599 64.1901 320.812 64.5078C321.031 64.8203 321.141 65.2031 321.141 65.6562C321.141 66.4115 320.839 67.0182 320.234 67.4766C319.63 67.9297 318.846 68.1562 317.883 68.1562C317.206 68.1562 316.607 68.0365 316.086 67.7969C315.565 67.5573 315.156 67.224 314.859 66.7969C314.568 66.3646 314.422 65.8984 314.422 65.3984H315.867C315.893 65.8828 316.086 66.2682 316.445 66.5547C316.81 66.8359 317.289 66.9766 317.883 66.9766C318.43 66.9766 318.867 66.8672 319.195 66.6484C319.529 66.4245 319.695 66.1276 319.695 65.7578Z" fill="black"/>
<path d="M208 3V2H207V3H208ZM341 3H342V2H341V3ZM341 83V84H342V83H341ZM208 83H207V84H208V83ZM208 4H341V2H208V4ZM340 3V83H342V3H340ZM341 82H208V84H341V82ZM209 83V3H207V83H209Z" fill="black"/>
<path d="M349 43L429 43" stroke="black" stroke-width="2"/>
<path d="M406 19L430 43L406 67" stroke="black" stroke-width="2"/>
<path d="M118 43L198 43" stroke="black" stroke-width="2"/>
<path d="M175 19L199 43L175 67" stroke="black" stroke-width="2"/>
<rect x="1" y="4" width="108" height="80" fill="white"/>
<path d="M35.0391 36.3906C34.8984 37.5938 34.4531 38.5234 33.7031 39.1797C32.9583 39.8307 31.9661 40.1562 30.7266 40.1562C29.3828 40.1562 28.3047 39.6745 27.4922 38.7109C26.6849 37.7474 26.2812 36.4583 26.2812 34.8438V33.75C26.2812 32.6927 26.4688 31.763 26.8438 30.9609C27.224 30.1589 27.7604 29.5443 28.4531 29.1172C29.1458 28.6849 29.9479 28.4688 30.8594 28.4688C32.0677 28.4688 33.0365 28.8073 33.7656 29.4844C34.4948 30.1562 34.9193 31.0885 35.0391 32.2812H33.5312C33.401 31.375 33.1172 30.7188 32.6797 30.3125C32.2474 29.9062 31.6406 29.7031 30.8594 29.7031C29.901 29.7031 29.1484 30.0573 28.6016 30.7656C28.0599 31.474 27.7891 32.4818 27.7891 33.7891V34.8906C27.7891 36.125 28.0469 37.1068 28.5625 37.8359C29.0781 38.5651 29.7995 38.9297 30.7266 38.9297C31.5599 38.9297 32.1979 38.7422 32.6406 38.3672C33.0885 37.987 33.3854 37.3281 33.5312 36.3906H35.0391ZM36.4844 35.6953C36.4844 34.8672 36.6458 34.1224 36.9688 33.4609C37.2969 32.7995 37.75 32.2891 38.3281 31.9297C38.9115 31.5703 39.5755 31.3906 40.3203 31.3906C41.4714 31.3906 42.401 31.7891 43.1094 32.5859C43.8229 33.3828 44.1797 34.4427 44.1797 35.7656V35.8672C44.1797 36.6901 44.0208 37.4297 43.7031 38.0859C43.3906 38.737 42.9401 39.2448 42.3516 39.6094C41.7682 39.974 41.0964 40.1562 40.3359 40.1562C39.1901 40.1562 38.2604 39.7578 37.5469 38.9609C36.8385 38.1641 36.4844 37.1094 36.4844 35.7969V35.6953ZM37.9375 35.8672C37.9375 36.8047 38.1536 37.5573 38.5859 38.125C39.0234 38.6927 39.6068 38.9766 40.3359 38.9766C41.0703 38.9766 41.6536 38.6901 42.0859 38.1172C42.5182 37.5391 42.7344 36.7318 42.7344 35.6953C42.7344 34.7682 42.513 34.0182 42.0703 33.4453C41.6328 32.8672 41.0495 32.5781 40.3203 32.5781C39.6068 32.5781 39.0312 32.862 38.5938 33.4297C38.1562 33.9974 37.9375 34.8099 37.9375 35.8672ZM47.3594 31.5469L47.4062 32.6094C48.0521 31.7969 48.8958 31.3906 49.9375 31.3906C51.724 31.3906 52.625 32.3984 52.6406 34.4141V40H51.1953V34.4062C51.1901 33.7969 51.0495 33.3464 50.7734 33.0547C50.5026 32.763 50.0781 32.6172 49.5 32.6172C49.0312 32.6172 48.6198 32.7422 48.2656 32.9922C47.9115 33.2422 47.6354 33.5703 47.4375 33.9766V40H45.9922V31.5469H47.3594ZM56.1875 31.5469L56.2344 32.6094C56.8802 31.7969 57.724 31.3906 58.7656 31.3906C60.5521 31.3906 61.4531 32.3984 61.4688 34.4141V40H60.0234V34.4062C60.0182 33.7969 59.8776 33.3464 59.6016 33.0547C59.3307 32.763 58.9062 32.6172 58.3281 32.6172C57.8594 32.6172 57.4479 32.7422 57.0938 32.9922C56.7396 33.2422 56.4635 33.5703 56.2656 33.9766V40H54.8203V31.5469H56.1875ZM67.1562 40.1562C66.0104 40.1562 65.0781 39.7812 64.3594 39.0312C63.6406 38.276 63.2812 37.2682 63.2812 36.0078V35.7422C63.2812 34.9036 63.4401 34.1562 63.7578 33.5C64.0807 32.8385 64.5286 32.3229 65.1016 31.9531C65.6797 31.5781 66.3047 31.3906 66.9766 31.3906C68.0755 31.3906 68.9297 31.7526 69.5391 32.4766C70.1484 33.2005 70.4531 34.237 70.4531 35.5859V36.1875H64.7266C64.7474 37.0208 64.9896 37.6953 65.4531 38.2109C65.9219 38.7214 66.5156 38.9766 67.2344 38.9766C67.7448 38.9766 68.1771 38.8724 68.5312 38.6641C68.8854 38.4557 69.1953 38.1797 69.4609 37.8359L70.3438 38.5234C69.6354 39.612 68.5729 40.1562 67.1562 40.1562ZM66.9766 32.5781C66.3932 32.5781 65.9036 32.7917 65.5078 33.2188C65.112 33.6406 64.8672 34.2344 64.7734 35H69.0078V34.8906C68.9661 34.1562 68.7682 33.5885 68.4141 33.1875C68.0599 32.7812 67.5807 32.5781 66.9766 32.5781ZM75.5234 38.9766C76.0391 38.9766 76.4896 38.8203 76.875 38.5078C77.2604 38.1953 77.474 37.8047 77.5156 37.3359H78.8828C78.8568 37.8203 78.6901 38.2812 78.3828 38.7188C78.0755 39.1562 77.6641 39.5052 77.1484 39.7656C76.638 40.026 76.0964 40.1562 75.5234 40.1562C74.3724 40.1562 73.4557 39.7734 72.7734 39.0078C72.0964 38.237 71.7578 37.1849 71.7578 35.8516V35.6094C71.7578 34.7865 71.9089 34.0547 72.2109 33.4141C72.513 32.7734 72.9453 32.276 73.5078 31.9219C74.0755 31.5677 74.7448 31.3906 75.5156 31.3906C76.4635 31.3906 77.25 31.6745 77.875 32.2422C78.5052 32.8099 78.8411 33.5469 78.8828 34.4531H77.5156C77.474 33.9062 77.2656 33.4583 76.8906 33.1094C76.5208 32.7552 76.0625 32.5781 75.5156 32.5781C74.7812 32.5781 74.2109 32.8438 73.8047 33.375C73.4036 33.901 73.2031 34.6641 73.2031 35.6641V35.9375C73.2031 36.9115 73.4036 37.6615 73.8047 38.1875C74.2057 38.7135 74.7786 38.9766 75.5234 38.9766ZM82.4688 29.5V31.5469H84.0469V32.6641H82.4688V37.9062C82.4688 38.2448 82.5391 38.5 82.6797 38.6719C82.8203 38.8385 83.0599 38.9219 83.3984 38.9219C83.5651 38.9219 83.7943 38.8906 84.0859 38.8281V40C83.7057 40.1042 83.3359 40.1562 82.9766 40.1562C82.3307 40.1562 81.8438 39.9609 81.5156 39.5703C81.1875 39.1797 81.0234 38.625 81.0234 37.9062V32.6641H79.4844V31.5469H81.0234V29.5H82.4688ZM42.4609 57.0078L44.0859 50.5469H45.5312L43.0703 59H41.8984L39.8438 52.5938L37.8438 59H36.6719L34.2188 50.5469H35.6562L37.3203 56.875L39.2891 50.5469H40.4531L42.4609 57.0078ZM52.2266 59C52.1432 58.8333 52.0755 58.5365 52.0234 58.1094C51.3516 58.8073 50.5495 59.1562 49.6172 59.1562C48.7839 59.1562 48.099 58.9219 47.5625 58.4531C47.0312 57.9792 46.7656 57.3802 46.7656 56.6562C46.7656 55.776 47.099 55.0938 47.7656 54.6094C48.4375 54.1198 49.3802 53.875 50.5938 53.875H52V53.2109C52 52.7057 51.849 52.3047 51.5469 52.0078C51.2448 51.7057 50.7995 51.5547 50.2109 51.5547C49.6953 51.5547 49.263 51.6849 48.9141 51.9453C48.5651 52.2057 48.3906 52.5208 48.3906 52.8906H46.9375C46.9375 52.4688 47.0859 52.0625 47.3828 51.6719C47.6849 51.276 48.0911 50.9635 48.6016 50.7344C49.1172 50.5052 49.6823 50.3906 50.2969 50.3906C51.2708 50.3906 52.0339 50.6354 52.5859 51.125C53.138 51.6094 53.4245 52.2786 53.4453 53.1328V57.0234C53.4453 57.7995 53.5443 58.4167 53.7422 58.875V59H52.2266ZM49.8281 57.8984C50.2812 57.8984 50.7109 57.7812 51.1172 57.5469C51.5234 57.3125 51.8177 57.0078 52 56.6328V54.8984H50.8672C49.0964 54.8984 48.2109 55.4167 48.2109 56.4531C48.2109 56.9062 48.362 57.2604 48.6641 57.5156C48.9661 57.7708 49.3542 57.8984 49.8281 57.8984ZM57.2812 59H55.8359V47H57.2812V59ZM61.1719 59H59.7266V47H61.1719V59ZM67 59.1562C65.8542 59.1562 64.9219 58.7812 64.2031 58.0312C63.4844 57.276 63.125 56.2682 63.125 55.0078V54.7422C63.125 53.9036 63.2839 53.1562 63.6016 52.5C63.9245 51.8385 64.3724 51.3229 64.9453 50.9531C65.5234 50.5781 66.1484 50.3906 66.8203 50.3906C67.9193 50.3906 68.7734 50.7526 69.3828 51.4766C69.9922 52.2005 70.2969 53.237 70.2969 54.5859V55.1875H64.5703C64.5911 56.0208 64.8333 56.6953 65.2969 57.2109C65.7656 57.7214 66.3594 57.9766 67.0781 57.9766C67.5885 57.9766 68.0208 57.8724 68.375 57.6641C68.7292 57.4557 69.0391 57.1797 69.3047 56.8359L70.1875 57.5234C69.4792 58.612 68.4167 59.1562 67 59.1562ZM66.8203 51.5781C66.237 51.5781 65.7474 51.7917 65.3516 52.2188C64.9557 52.6406 64.7109 53.2344 64.6172 54H68.8516V53.8906C68.8099 53.1562 68.612 52.5885 68.2578 52.1875C67.9036 51.7812 67.4245 51.5781 66.8203 51.5781ZM73.9375 48.5V50.5469H75.5156V51.6641H73.9375V56.9062C73.9375 57.2448 74.0078 57.5 74.1484 57.6719C74.2891 57.8385 74.5286 57.9219 74.8672 57.9219C75.0339 57.9219 75.263 57.8906 75.5547 57.8281V59C75.1745 59.1042 74.8047 59.1562 74.4453 59.1562C73.7995 59.1562 73.3125 58.9609 72.9844 58.5703C72.6562 58.1797 72.4922 57.625 72.4922 56.9062V51.6641H70.9531V50.5469H72.4922V48.5H73.9375Z" fill="black"/>
<path d="M1 4V3H0V4H1ZM109 4H110V3H109V4ZM109 84V85H110V84H109ZM1 84H0V85H1V84ZM1 5H109V3H1V5ZM108 4V84H110V4H108ZM109 83H1V85H109V83ZM2 84V4H0V84H2Z" fill="black"/>
<path d="M576 42L656 42" stroke="black" stroke-width="2"/>
<path d="M633 18L657 42L633 66" stroke="black" stroke-width="2"/>
<rect x="443" y="1" width="123" height="80" fill="white"/>
<path d="M472.688 35.5078C472.302 36.0599 471.763 36.474 471.07 36.75C470.383 37.0208 469.581 37.1562 468.664 37.1562C467.737 37.1562 466.914 36.9401 466.195 36.5078C465.477 36.0703 464.919 35.4505 464.523 34.6484C464.133 33.8464 463.932 32.9167 463.922 31.8594V30.8672C463.922 29.1536 464.32 27.8255 465.117 26.8828C465.919 25.9401 467.044 25.4688 468.492 25.4688C469.68 25.4688 470.635 25.7734 471.359 26.3828C472.083 26.987 472.526 27.8464 472.688 28.9609H471.188C470.906 27.4557 470.01 26.7031 468.5 26.7031C467.495 26.7031 466.732 27.0573 466.211 27.7656C465.695 28.4688 465.435 29.4896 465.43 30.8281V31.7578C465.43 33.0339 465.721 34.0495 466.305 34.8047C466.888 35.5547 467.677 35.9297 468.672 35.9297C469.234 35.9297 469.727 35.8672 470.148 35.7422C470.57 35.6172 470.919 35.4062 471.195 35.1094V32.5547H468.562V31.3359H472.688V35.5078ZM478.477 37.1562C477.331 37.1562 476.398 36.7812 475.68 36.0312C474.961 35.276 474.602 34.2682 474.602 33.0078V32.7422C474.602 31.9036 474.76 31.1562 475.078 30.5C475.401 29.8385 475.849 29.3229 476.422 28.9531C477 28.5781 477.625 28.3906 478.297 28.3906C479.396 28.3906 480.25 28.7526 480.859 29.4766C481.469 30.2005 481.773 31.237 481.773 32.5859V33.1875H476.047C476.068 34.0208 476.31 34.6953 476.773 35.2109C477.242 35.7214 477.836 35.9766 478.555 35.9766C479.065 35.9766 479.497 35.8724 479.852 35.6641C480.206 35.4557 480.516 35.1797 480.781 34.8359L481.664 35.5234C480.956 36.612 479.893 37.1562 478.477 37.1562ZM478.297 29.5781C477.714 29.5781 477.224 29.7917 476.828 30.2188C476.432 30.6406 476.188 31.2344 476.094 32H480.328V31.8906C480.286 31.1562 480.089 30.5885 479.734 30.1875C479.38 29.7812 478.901 29.5781 478.297 29.5781ZM484.82 28.5469L484.867 29.6094C485.513 28.7969 486.357 28.3906 487.398 28.3906C489.185 28.3906 490.086 29.3984 490.102 31.4141V37H488.656V31.4062C488.651 30.7969 488.51 30.3464 488.234 30.0547C487.964 29.763 487.539 29.6172 486.961 29.6172C486.492 29.6172 486.081 29.7422 485.727 29.9922C485.372 30.2422 485.096 30.5703 484.898 30.9766V37H483.453V28.5469H484.82ZM495.789 37.1562C494.643 37.1562 493.711 36.7812 492.992 36.0312C492.273 35.276 491.914 34.2682 491.914 33.0078V32.7422C491.914 31.9036 492.073 31.1562 492.391 30.5C492.714 29.8385 493.161 29.3229 493.734 28.9531C494.312 28.5781 494.938 28.3906 495.609 28.3906C496.708 28.3906 497.562 28.7526 498.172 29.4766C498.781 30.2005 499.086 31.237 499.086 32.5859V33.1875H493.359C493.38 34.0208 493.622 34.6953 494.086 35.2109C494.555 35.7214 495.148 35.9766 495.867 35.9766C496.378 35.9766 496.81 35.8724 497.164 35.6641C497.518 35.4557 497.828 35.1797 498.094 34.8359L498.977 35.5234C498.268 36.612 497.206 37.1562 495.789 37.1562ZM495.609 29.5781C495.026 29.5781 494.536 29.7917 494.141 30.2188C493.745 30.6406 493.5 31.2344 493.406 32H497.641V31.8906C497.599 31.1562 497.401 30.5885 497.047 30.1875C496.693 29.7812 496.214 29.5781 495.609 29.5781ZM504.852 29.8438C504.633 29.8073 504.396 29.7891 504.141 29.7891C503.193 29.7891 502.549 30.1927 502.211 31V37H500.766V28.5469H502.172L502.195 29.5234C502.669 28.7682 503.341 28.3906 504.211 28.3906C504.492 28.3906 504.706 28.4271 504.852 28.5V29.8438ZM511.094 37C511.01 36.8333 510.943 36.5365 510.891 36.1094C510.219 36.8073 509.417 37.1562 508.484 37.1562C507.651 37.1562 506.966 36.9219 506.43 36.4531C505.898 35.9792 505.633 35.3802 505.633 34.6562C505.633 33.776 505.966 33.0938 506.633 32.6094C507.305 32.1198 508.247 31.875 509.461 31.875H510.867V31.2109C510.867 30.7057 510.716 30.3047 510.414 30.0078C510.112 29.7057 509.667 29.5547 509.078 29.5547C508.562 29.5547 508.13 29.6849 507.781 29.9453C507.432 30.2057 507.258 30.5208 507.258 30.8906H505.805C505.805 30.4688 505.953 30.0625 506.25 29.6719C506.552 29.276 506.958 28.9635 507.469 28.7344C507.984 28.5052 508.549 28.3906 509.164 28.3906C510.138 28.3906 510.901 28.6354 511.453 29.125C512.005 29.6094 512.292 30.2786 512.312 31.1328V35.0234C512.312 35.7995 512.411 36.4167 512.609 36.875V37H511.094ZM508.695 35.8984C509.148 35.8984 509.578 35.7812 509.984 35.5469C510.391 35.3125 510.685 35.0078 510.867 34.6328V32.8984H509.734C507.964 32.8984 507.078 33.4167 507.078 34.4531C507.078 34.9062 507.229 35.2604 507.531 35.5156C507.833 35.7708 508.221 35.8984 508.695 35.8984ZM516.539 26.5V28.5469H518.117V29.6641H516.539V34.9062C516.539 35.2448 516.609 35.5 516.75 35.6719C516.891 35.8385 517.13 35.9219 517.469 35.9219C517.635 35.9219 517.865 35.8906 518.156 35.8281V37C517.776 37.1042 517.406 37.1562 517.047 37.1562C516.401 37.1562 515.914 36.9609 515.586 36.5703C515.258 36.1797 515.094 35.625 515.094 34.9062V29.6641H513.555V28.5469H515.094V26.5H516.539ZM523.32 37.1562C522.174 37.1562 521.242 36.7812 520.523 36.0312C519.805 35.276 519.445 34.2682 519.445 33.0078V32.7422C519.445 31.9036 519.604 31.1562 519.922 30.5C520.245 29.8385 520.693 29.3229 521.266 28.9531C521.844 28.5781 522.469 28.3906 523.141 28.3906C524.24 28.3906 525.094 28.7526 525.703 29.4766C526.312 30.2005 526.617 31.237 526.617 32.5859V33.1875H520.891C520.911 34.0208 521.154 34.6953 521.617 35.2109C522.086 35.7214 522.68 35.9766 523.398 35.9766C523.909 35.9766 524.341 35.8724 524.695 35.6641C525.049 35.4557 525.359 35.1797 525.625 34.8359L526.508 35.5234C525.799 36.612 524.737 37.1562 523.32 37.1562ZM523.141 29.5781C522.557 29.5781 522.068 29.7917 521.672 30.2188C521.276 30.6406 521.031 31.2344 520.938 32H525.172V31.8906C525.13 31.1562 524.932 30.5885 524.578 30.1875C524.224 29.7812 523.745 29.5781 523.141 29.5781ZM534.102 37H532.602V25.625H534.102V37ZM536.852 37V25.625H540.062C541.052 25.625 541.927 25.8438 542.688 26.2812C543.448 26.7188 544.034 27.3411 544.445 28.1484C544.862 28.9557 545.073 29.8828 545.078 30.9297V31.6562C545.078 32.7292 544.87 33.6693 544.453 34.4766C544.042 35.2839 543.451 35.9036 542.68 36.3359C541.914 36.7682 541.021 36.9896 540 37H536.852ZM538.352 26.8594V35.7734H539.93C541.086 35.7734 541.984 35.4141 542.625 34.6953C543.271 33.9766 543.594 32.9531 543.594 31.625V30.9609C543.594 29.6693 543.289 28.6667 542.68 27.9531C542.076 27.2344 541.216 26.8698 540.102 26.8594H538.352ZM463.352 54.9766C463.867 54.9766 464.318 54.8203 464.703 54.5078C465.089 54.1953 465.302 53.8047 465.344 53.3359H466.711C466.685 53.8203 466.518 54.2812 466.211 54.7188C465.904 55.1562 465.492 55.5052 464.977 55.7656C464.466 56.026 463.924 56.1562 463.352 56.1562C462.201 56.1562 461.284 55.7734 460.602 55.0078C459.924 54.237 459.586 53.1849 459.586 51.8516V51.6094C459.586 50.7865 459.737 50.0547 460.039 49.4141C460.341 48.7734 460.773 48.276 461.336 47.9219C461.904 47.5677 462.573 47.3906 463.344 47.3906C464.292 47.3906 465.078 47.6745 465.703 48.2422C466.333 48.8099 466.669 49.5469 466.711 50.4531H465.344C465.302 49.9062 465.094 49.4583 464.719 49.1094C464.349 48.7552 463.891 48.5781 463.344 48.5781C462.609 48.5781 462.039 48.8438 461.633 49.375C461.232 49.901 461.031 50.6641 461.031 51.6641V51.9375C461.031 52.9115 461.232 53.6615 461.633 54.1875C462.034 54.7135 462.607 54.9766 463.352 54.9766ZM467.953 51.6953C467.953 50.8672 468.115 50.1224 468.438 49.4609C468.766 48.7995 469.219 48.2891 469.797 47.9297C470.38 47.5703 471.044 47.3906 471.789 47.3906C472.94 47.3906 473.87 47.7891 474.578 48.5859C475.292 49.3828 475.648 50.4427 475.648 51.7656V51.8672C475.648 52.6901 475.49 53.4297 475.172 54.0859C474.859 54.737 474.409 55.2448 473.82 55.6094C473.237 55.974 472.565 56.1562 471.805 56.1562C470.659 56.1562 469.729 55.7578 469.016 54.9609C468.307 54.1641 467.953 53.1094 467.953 51.7969V51.6953ZM469.406 51.8672C469.406 52.8047 469.622 53.5573 470.055 54.125C470.492 54.6927 471.076 54.9766 471.805 54.9766C472.539 54.9766 473.122 54.6901 473.555 54.1172C473.987 53.5391 474.203 52.7318 474.203 51.6953C474.203 50.7682 473.982 50.0182 473.539 49.4453C473.102 48.8672 472.518 48.5781 471.789 48.5781C471.076 48.5781 470.5 48.862 470.062 49.4297C469.625 49.9974 469.406 50.8099 469.406 51.8672ZM478.82 47.5469L478.859 48.4844C479.479 47.7552 480.315 47.3906 481.367 47.3906C482.549 47.3906 483.354 47.8438 483.781 48.75C484.062 48.3438 484.427 48.0156 484.875 47.7656C485.328 47.5156 485.862 47.3906 486.477 47.3906C488.331 47.3906 489.273 48.3724 489.305 50.3359V56H487.859V50.4219C487.859 49.8177 487.721 49.3672 487.445 49.0703C487.169 48.7682 486.706 48.6172 486.055 48.6172C485.518 48.6172 485.073 48.7786 484.719 49.1016C484.365 49.4193 484.159 49.849 484.102 50.3906V56H482.648V50.4609C482.648 49.2318 482.047 48.6172 480.844 48.6172C479.896 48.6172 479.247 49.0208 478.898 49.8281V56H477.453V47.5469H478.82ZM492.852 47.5469L492.891 48.4844C493.51 47.7552 494.346 47.3906 495.398 47.3906C496.581 47.3906 497.385 47.8438 497.812 48.75C498.094 48.3438 498.458 48.0156 498.906 47.7656C499.359 47.5156 499.893 47.3906 500.508 47.3906C502.362 47.3906 503.305 48.3724 503.336 50.3359V56H501.891V50.4219C501.891 49.8177 501.753 49.3672 501.477 49.0703C501.201 48.7682 500.737 48.6172 500.086 48.6172C499.549 48.6172 499.104 48.7786 498.75 49.1016C498.396 49.4193 498.19 49.849 498.133 50.3906V56H496.68V50.4609C496.68 49.2318 496.078 48.6172 494.875 48.6172C493.927 48.6172 493.279 49.0208 492.93 49.8281V56H491.484V47.5469H492.852ZM507.094 56H505.648V47.5469H507.094V56ZM505.531 45.3047C505.531 45.0703 505.602 44.8724 505.742 44.7109C505.888 44.5495 506.102 44.4688 506.383 44.4688C506.664 44.4688 506.878 44.5495 507.023 44.7109C507.169 44.8724 507.242 45.0703 507.242 45.3047C507.242 45.5391 507.169 45.7344 507.023 45.8906C506.878 46.0469 506.664 46.125 506.383 46.125C506.102 46.125 505.888 46.0469 505.742 45.8906C505.602 45.7344 505.531 45.5391 505.531 45.3047ZM511.375 45.5V47.5469H512.953V48.6641H511.375V53.9062C511.375 54.2448 511.445 54.5 511.586 54.6719C511.727 54.8385 511.966 54.9219 512.305 54.9219C512.471 54.9219 512.701 54.8906 512.992 54.8281V56C512.612 56.1042 512.242 56.1562 511.883 56.1562C511.237 56.1562 510.75 55.9609 510.422 55.5703C510.094 55.1797 509.93 54.625 509.93 53.9062V48.6641H508.391V47.5469H509.93V45.5H511.375ZM516.008 47.5469L516.047 48.4844C516.667 47.7552 517.503 47.3906 518.555 47.3906C519.737 47.3906 520.542 47.8438 520.969 48.75C521.25 48.3438 521.615 48.0156 522.062 47.7656C522.516 47.5156 523.049 47.3906 523.664 47.3906C525.518 47.3906 526.461 48.3724 526.492 50.3359V56H525.047V50.4219C525.047 49.8177 524.909 49.3672 524.633 49.0703C524.357 48.7682 523.893 48.6172 523.242 48.6172C522.706 48.6172 522.26 48.7786 521.906 49.1016C521.552 49.4193 521.346 49.849 521.289 50.3906V56H519.836V50.4609C519.836 49.2318 519.234 48.6172 518.031 48.6172C517.083 48.6172 516.435 49.0208 516.086 49.8281V56H514.641V47.5469H516.008ZM532.188 56.1562C531.042 56.1562 530.109 55.7812 529.391 55.0312C528.672 54.276 528.312 53.2682 528.312 52.0078V51.7422C528.312 50.9036 528.471 50.1562 528.789 49.5C529.112 48.8385 529.56 48.3229 530.133 47.9531C530.711 47.5781 531.336 47.3906 532.008 47.3906C533.107 47.3906 533.961 47.7526 534.57 48.4766C535.18 49.2005 535.484 50.237 535.484 51.5859V52.1875H529.758C529.779 53.0208 530.021 53.6953 530.484 54.2109C530.953 54.7214 531.547 54.9766 532.266 54.9766C532.776 54.9766 533.208 54.8724 533.562 54.6641C533.917 54.4557 534.227 54.1797 534.492 53.8359L535.375 54.5234C534.667 55.612 533.604 56.1562 532.188 56.1562ZM532.008 48.5781C531.424 48.5781 530.935 48.7917 530.539 49.2188C530.143 49.6406 529.898 50.2344 529.805 51H534.039V50.8906C533.997 50.1562 533.799 49.5885 533.445 49.1875C533.091 48.7812 532.612 48.5781 532.008 48.5781ZM538.531 47.5469L538.578 48.6094C539.224 47.7969 540.068 47.3906 541.109 47.3906C542.896 47.3906 543.797 48.3984 543.812 50.4141V56H542.367V50.4062C542.362 49.7969 542.221 49.3464 541.945 49.0547C541.674 48.763 541.25 48.6172 540.672 48.6172C540.203 48.6172 539.792 48.7422 539.438 48.9922C539.083 49.2422 538.807 49.5703 538.609 49.9766V56H537.164V47.5469H538.531ZM547.953 45.5V47.5469H549.531V48.6641H547.953V53.9062C547.953 54.2448 548.023 54.5 548.164 54.6719C548.305 54.8385 548.544 54.9219 548.883 54.9219C549.049 54.9219 549.279 54.8906 549.57 54.8281V56C549.19 56.1042 548.82 56.1562 548.461 56.1562C547.815 56.1562 547.328 55.9609 547 55.5703C546.672 55.1797 546.508 54.625 546.508 53.9062V48.6641H544.969V47.5469H546.508V45.5H547.953Z" fill="black"/>
<path d="M443 1V0H442V1H443ZM566 1H567V0H566V1ZM566 81V82H567V81H566ZM443 81H442V82H443V81ZM443 2H566V0H443V2ZM565 1V81H567V1H565ZM566 80H443V82H566V80ZM444 81V1H442V81H444Z" fill="black"/>
<rect x="666" y="2" width="113" height="80" fill="white"/>
<path d="M691.414 26.625H692.922V34.6797C692.922 35.7682 692.594 36.6198 691.938 37.2344C691.286 37.849 690.417 38.1562 689.328 38.1562C688.198 38.1562 687.318 37.8672 686.688 37.2891C686.057 36.7109 685.742 35.901 685.742 34.8594H687.242C687.242 35.5104 687.419 36.0182 687.773 36.3828C688.133 36.7474 688.651 36.9297 689.328 36.9297C689.948 36.9297 690.448 36.7344 690.828 36.3438C691.214 35.9531 691.409 35.4062 691.414 34.7031V26.625ZM694.867 33.6953C694.867 32.8672 695.029 32.1224 695.352 31.4609C695.68 30.7995 696.133 30.2891 696.711 29.9297C697.294 29.5703 697.958 29.3906 698.703 29.3906C699.854 29.3906 700.784 29.7891 701.492 30.5859C702.206 31.3828 702.562 32.4427 702.562 33.7656V33.8672C702.562 34.6901 702.404 35.4297 702.086 36.0859C701.773 36.737 701.323 37.2448 700.734 37.6094C700.151 37.974 699.479 38.1562 698.719 38.1562C697.573 38.1562 696.643 37.7578 695.93 36.9609C695.221 36.1641 694.867 35.1094 694.867 33.7969V33.6953ZM696.32 33.8672C696.32 34.8047 696.536 35.5573 696.969 36.125C697.406 36.6927 697.99 36.9766 698.719 36.9766C699.453 36.9766 700.036 36.6901 700.469 36.1172C700.901 35.5391 701.117 34.7318 701.117 33.6953C701.117 32.7682 700.896 32.0182 700.453 31.4453C700.016 30.8672 699.432 30.5781 698.703 30.5781C697.99 30.5781 697.414 30.862 696.977 31.4297C696.539 31.9974 696.32 32.8099 696.32 33.8672ZM705.945 38H704.5V29.5469H705.945V38ZM704.383 27.3047C704.383 27.0703 704.453 26.8724 704.594 26.7109C704.74 26.5495 704.953 26.4688 705.234 26.4688C705.516 26.4688 705.729 26.5495 705.875 26.7109C706.021 26.8724 706.094 27.0703 706.094 27.3047C706.094 27.5391 706.021 27.7344 705.875 27.8906C705.729 28.0469 705.516 28.125 705.234 28.125C704.953 28.125 704.74 28.0469 704.594 27.8906C704.453 27.7344 704.383 27.5391 704.383 27.3047ZM709.633 29.5469L709.68 30.6094C710.326 29.7969 711.169 29.3906 712.211 29.3906C713.997 29.3906 714.898 30.3984 714.914 32.4141V38H713.469V32.4062C713.464 31.7969 713.323 31.3464 713.047 31.0547C712.776 30.763 712.352 30.6172 711.773 30.6172C711.305 30.6172 710.893 30.7422 710.539 30.9922C710.185 31.2422 709.909 31.5703 709.711 31.9766V38H708.266V29.5469H709.633ZM717.383 38.9766H716.141L720.891 26.625H722.125L717.383 38.9766ZM725.258 38H723.812V26H725.258V38ZM731.086 38.1562C729.94 38.1562 729.008 37.7812 728.289 37.0312C727.57 36.276 727.211 35.2682 727.211 34.0078V33.7422C727.211 32.9036 727.37 32.1562 727.688 31.5C728.01 30.8385 728.458 30.3229 729.031 29.9531C729.609 29.5781 730.234 29.3906 730.906 29.3906C732.005 29.3906 732.859 29.7526 733.469 30.4766C734.078 31.2005 734.383 32.237 734.383 33.5859V34.1875H728.656C728.677 35.0208 728.919 35.6953 729.383 36.2109C729.852 36.7214 730.445 36.9766 731.164 36.9766C731.674 36.9766 732.107 36.8724 732.461 36.6641C732.815 36.4557 733.125 36.1797 733.391 35.8359L734.273 36.5234C733.565 37.612 732.503 38.1562 731.086 38.1562ZM730.906 30.5781C730.323 30.5781 729.833 30.7917 729.438 31.2188C729.042 31.6406 728.797 32.2344 728.703 33H732.938V32.8906C732.896 32.1562 732.698 31.5885 732.344 31.1875C731.99 30.7812 731.51 30.5781 730.906 30.5781ZM741.281 38C741.198 37.8333 741.13 37.5365 741.078 37.1094C740.406 37.8073 739.604 38.1562 738.672 38.1562C737.839 38.1562 737.154 37.9219 736.617 37.4531C736.086 36.9792 735.82 36.3802 735.82 35.6562C735.82 34.776 736.154 34.0938 736.82 33.6094C737.492 33.1198 738.435 32.875 739.648 32.875H741.055V32.2109C741.055 31.7057 740.904 31.3047 740.602 31.0078C740.299 30.7057 739.854 30.5547 739.266 30.5547C738.75 30.5547 738.318 30.6849 737.969 30.9453C737.62 31.2057 737.445 31.5208 737.445 31.8906H735.992C735.992 31.4688 736.141 31.0625 736.438 30.6719C736.74 30.276 737.146 29.9635 737.656 29.7344C738.172 29.5052 738.737 29.3906 739.352 29.3906C740.326 29.3906 741.089 29.6354 741.641 30.125C742.193 30.6094 742.479 31.2786 742.5 32.1328V36.0234C742.5 36.7995 742.599 37.4167 742.797 37.875V38H741.281ZM738.883 36.8984C739.336 36.8984 739.766 36.7812 740.172 36.5469C740.578 36.3125 740.872 36.0078 741.055 35.6328V33.8984H739.922C738.151 33.8984 737.266 34.4167 737.266 35.4531C737.266 35.9062 737.417 36.2604 737.719 36.5156C738.021 36.7708 738.409 36.8984 738.883 36.8984ZM747.43 36.0391L749.523 29.5469H751L747.969 38H746.867L743.805 29.5469H745.281L747.43 36.0391ZM755.789 38.1562C754.643 38.1562 753.711 37.7812 752.992 37.0312C752.273 36.276 751.914 35.2682 751.914 34.0078V33.7422C751.914 32.9036 752.073 32.1562 752.391 31.5C752.714 30.8385 753.161 30.3229 753.734 29.9531C754.312 29.5781 754.938 29.3906 755.609 29.3906C756.708 29.3906 757.562 29.7526 758.172 30.4766C758.781 31.2005 759.086 32.237 759.086 33.5859V34.1875H753.359C753.38 35.0208 753.622 35.6953 754.086 36.2109C754.555 36.7214 755.148 36.9766 755.867 36.9766C756.378 36.9766 756.81 36.8724 757.164 36.6641C757.518 36.4557 757.828 36.1797 758.094 35.8359L758.977 36.5234C758.268 37.612 757.206 38.1562 755.789 38.1562ZM755.609 30.5781C755.026 30.5781 754.536 30.7917 754.141 31.2188C753.745 31.6406 753.5 32.2344 753.406 33H757.641V32.8906C757.599 32.1562 757.401 31.5885 757.047 31.1875C756.693 30.7812 756.214 30.5781 755.609 30.5781ZM702.656 52.7031C702.656 51.3854 702.961 50.3385 703.57 49.5625C704.18 48.7812 704.987 48.3906 705.992 48.3906C707.023 48.3906 707.828 48.7552 708.406 49.4844L708.477 48.5469H709.797V56.7969C709.797 57.8906 709.471 58.7526 708.82 59.3828C708.174 60.013 707.305 60.3281 706.211 60.3281C705.602 60.3281 705.005 60.1979 704.422 59.9375C703.839 59.6771 703.393 59.3203 703.086 58.8672L703.836 58C704.456 58.7656 705.214 59.1484 706.109 59.1484C706.812 59.1484 707.359 58.9505 707.75 58.5547C708.146 58.1589 708.344 57.6016 708.344 56.8828V56.1562C707.766 56.8229 706.977 57.1562 705.977 57.1562C704.987 57.1562 704.185 56.7578 703.57 55.9609C702.961 55.1641 702.656 54.0781 702.656 52.7031ZM704.109 52.8672C704.109 53.8203 704.305 54.5703 704.695 55.1172C705.086 55.6589 705.633 55.9297 706.336 55.9297C707.247 55.9297 707.917 55.5156 708.344 54.6875V50.8281C707.901 50.0208 707.237 49.6172 706.352 49.6172C705.648 49.6172 705.099 49.8906 704.703 50.4375C704.307 50.9844 704.109 51.7943 704.109 52.8672ZM716.07 49.8438C715.852 49.8073 715.615 49.7891 715.359 49.7891C714.411 49.7891 713.768 50.1927 713.43 51V57H711.984V48.5469H713.391L713.414 49.5234C713.888 48.7682 714.56 48.3906 715.43 48.3906C715.711 48.3906 715.924 48.4271 716.07 48.5V49.8438ZM716.867 52.6953C716.867 51.8672 717.029 51.1224 717.352 50.4609C717.68 49.7995 718.133 49.2891 718.711 48.9297C719.294 48.5703 719.958 48.3906 720.703 48.3906C721.854 48.3906 722.784 48.7891 723.492 49.5859C724.206 50.3828 724.562 51.4427 724.562 52.7656V52.8672C724.562 53.6901 724.404 54.4297 724.086 55.0859C723.773 55.737 723.323 56.2448 722.734 56.6094C722.151 56.974 721.479 57.1562 720.719 57.1562C719.573 57.1562 718.643 56.7578 717.93 55.9609C717.221 55.1641 716.867 54.1094 716.867 52.7969V52.6953ZM718.32 52.8672C718.32 53.8047 718.536 54.5573 718.969 55.125C719.406 55.6927 719.99 55.9766 720.719 55.9766C721.453 55.9766 722.036 55.6901 722.469 55.1172C722.901 54.5391 723.117 53.7318 723.117 52.6953C723.117 51.7682 722.896 51.0182 722.453 50.4453C722.016 49.8672 721.432 49.5781 720.703 49.5781C719.99 49.5781 719.414 49.862 718.977 50.4297C718.539 50.9974 718.32 51.8099 718.32 52.8672ZM731.594 56.1641C731.031 56.8255 730.206 57.1562 729.117 57.1562C728.216 57.1562 727.529 56.8958 727.055 56.375C726.586 55.849 726.349 55.0729 726.344 54.0469V48.5469H727.789V54.0078C727.789 55.2891 728.31 55.9297 729.352 55.9297C730.456 55.9297 731.19 55.5182 731.555 54.6953V48.5469H733V57H731.625L731.594 56.1641ZM742.344 52.8672C742.344 54.1536 742.049 55.1901 741.461 55.9766C740.872 56.763 740.076 57.1562 739.07 57.1562C738.044 57.1562 737.237 56.8307 736.648 56.1797V60.25H735.203V48.5469H736.523L736.594 49.4844C737.182 48.7552 738 48.3906 739.047 48.3906C740.062 48.3906 740.865 48.7734 741.453 49.5391C742.047 50.3047 742.344 51.3698 742.344 52.7344V52.8672ZM740.898 52.7031C740.898 51.75 740.695 50.9974 740.289 50.4453C739.883 49.8932 739.326 49.6172 738.617 49.6172C737.742 49.6172 737.086 50.0052 736.648 50.7812V54.8203C737.081 55.5911 737.742 55.9766 738.633 55.9766C739.326 55.9766 739.875 55.7031 740.281 55.1562C740.693 54.6042 740.898 53.7865 740.898 52.7031Z" fill="black"/>
<path d="M666 2V1H665V2H666ZM779 2H780V1H779V2ZM779 82V83H780V82H779ZM666 82H665V83H666V82ZM666 3H779V1H666V3ZM778 2V82H780V2H778ZM779 81H666V83H779V81ZM667 82V2H665V82H667Z" fill="black"/>
</svg>
